<?xml version="1.0" encoding="utf-8"?>
<!-- Generator: Adobe Illustrator 27.0.0, SVG Export Plug-In . SVG Version: 6.00 Build 0)  -->
<svg version="1.1" id="Layer_2_00000122719273312759730950000000578399806375148469_"
	 xmlns="http://www.w3.org/2000/svg" xmlns:xlink="http://www.w3.org/1999/xlink" x="0px" y="0px" viewBox="0 0 232.2 126.7"
	 style="enable-background:new 0 0 232.2 126.7;" xml:space="preserve">
<style type="text/css">
	.st0{fill:#FFFFFF;}
	.st1{fill:#BFFAFF;}
	.st2{filter:url(#Adobe_OpacityMaskFilter);}
	.st3{opacity:0.75;mask:url(#SVGID_1_);}
	.st4{fill:#E3FAFC;}
</style>
<g id="sing_name">
	<g>
		<g>
			<path class="st0" d="M72,126.2c-0.9,0-1.8,0-2.7-0.1c-7.6-0.6-15-3-21.5-6.9c-1.8-1.1-3.4-2.3-4.8-3.7h0.1l-0.9-0.9
				c-1.9-1.9-3.5-4-4.8-6.3l-0.9,0.4c0.8,2,1.7,3.8,2.8,5.5c-2.6,1.2-5.4,2.2-7.6,2.9c-3.1,1-6.1,1.5-9.2,1.5c-2,0-3.9-0.2-5.8-0.6
				c-9.1-2.1-15.7-10.2-16.2-20C0,89,5.6,79.5,13.6,75.9c3-1.4,6.4-2.1,10-2.1c1.7,0,3.4,0.2,5.1,0.4c0.5,0.1,1.1,0.2,1.7,0.4
				c-0.1,0.8-0.2,1.7-0.2,2.7l0,0.5c0.1,0.9,0.1,1.9,0.4,2.9c0.3,1.3,0.8,2.7,1.5,4.3l1.5,3.5l-0.5-3.7c-0.6-3.8-0.2-7.6,1-11.6
				c0.2-0.6,0.5-1.3,0.8-1.9c0.4-1.1,0.8-2,1.2-2.9c3.3-6.8,9.9-10.4,16.2-14c4.8-2.7,10.3-4.2,15.9-4.2c2.1,0,4.1,0.2,6.2,0.6
				c1.2,0.2,2.4,0.5,3.5,0.9c-0.5,3.4,0.2,6.7,2,9.5l1.9,2.9l-1-3.3c-1.3-4.3-0.9-8.8,1-12c1.1-2.2,2.6-4.2,4.6-6.1
				c0.3-0.3,0.6-0.6,1-0.8l0.1,0.3l0.5-0.5c0.3-0.2,0.7-0.4,1.1-0.6l0.4-0.2l0-0.1c2.1-0.9,4.4-1.4,6.5-1.8c1.1-0.2,2.5-0.5,4-0.5
				c0.4,0,0.7,0,1.1,0c0.4,0,0.8,0.1,1.1,0.2l0,0h3.3l-2.7-1c-1.3-0.5-2.6-0.7-4-0.7c-1.8,0-3.6,0.1-5.8,0.4
				c-1.8,0.3-3.3,0.7-4.6,1.2c-1.4-2.8-2.2-5.8-2.3-9.1c-0.2-4.9,0.4-8.8,1.9-12.1c1.7-3.6,4.2-7,7.2-9.6c5.3-4.8,11.8-7.3,18.6-7.3
				c1.1,0,2.2,0.1,3.2,0.2c6.1,0.7,13.5,4.1,16.7,10.1c-1.9,0.6-3.8,1.5-5.6,2.6c-1.5,1.1-2.7,2.1-3.6,3.1l0.7,0.7
				c4-3.3,9.5-5.3,15.1-5.3c0.5,0,1,0,1.5,0c0.5,0,0.9,0,1.2,0c6,0,11.6,1.8,16.2,5.2c4.8,3.5,11,9.1,13.5,16.5
				c0.7,1.9,1.1,4,1.4,6.1c0.5,2.2,0.5,4.6,0.4,6.7c0,0.4,0,0.8,0,1.2l0,0.4l1,0.1c0.3-1.7,0.4-3.4,0.5-5.1l0.1,0
				c1.5-0.2,3-0.3,4.5-0.3c2.1,0,4.3,0.2,6.4,0.6c7.3,1.3,14,4.9,18.3,9.9c2.3,2.7,3.8,6,5,8.9c1.7,4.1,1.1,8.6,0.3,11.7
				c-0.1,0.4-0.2,0.7-0.3,1.1c-1.9,0.2-3.7,0.7-5.3,1.2c-0.8,0.2-1.6,0.5-2.1,1.2l-0.6,0.8h1c0.1,0,0.2,0,0.2,0l0,0l0.1,0l0.1,0
				l0.2-0.1c1.2-0.9,3.1-1,4.6-1l1,0c0.6,0,1.2-0.1,1.8-0.1c0.3,0,0.6,0,1,0c2.1,0.1,4.3,0.5,6.7,1.2c5.2,1.7,9.5,5.4,11.6,10.3
				c1.9,4.2,1.8,9.3-0.1,13.7l-0.2,0.5c-2.2,4.6-6.9,8.1-11.2,11c-6.7,4.5-15.3,6.8-24.8,6.8c-2.8,0-5.7-0.2-8.6-0.6
				c-6.7-0.9-12.4-2.6-18-5.2c-1.7-0.8-3.4-1.8-5.2-2.9c0.4-0.4,0.7-0.9,1.1-1.4l3-3.8l-3.7,3.1c-0.5,0.4-1.1,0.9-1.9,1.4
				c-2,1.5-4.7,3.3-7.4,5l-0.9,0.6c-2,1.4-3.8,2.5-5.7,3.4c-3.3,1.6-6.9,2.6-9.7,3.3c-2.9,0.7-6.8,1.6-10.7,1.7c-0.4,0-0.9,0-1.3,0
				c-2.5,0-5.1-0.3-7.7-0.9c-4.8-0.7-8.7-2-12-4c-2.7-1.6-4.6-3.2-5.9-4.9c-0.4-0.5-0.7-1-1.1-1.6c-0.7-1-1.4-2.1-2.3-2.9l-1.6-1.3
				l0.8,1.9c0.4,1,0.8,1.7,1.2,2.4c0.7,1.2,1.5,2.3,2.5,3.4c-2.4,1.7-5.2,2.9-7.9,4.1l-0.5,0.2C84.2,124.7,77.9,126.2,72,126.2z"/>
			<path class="st1" d="M113.7,1c1,0,2.1,0.1,3.2,0.2c5.8,0.7,12.8,3.8,16.1,9.3c-1.7,0.6-3.4,1.4-5.2,2.4l0,0l0,0
				c-1.5,1.1-2.7,2.1-3.6,3.2l1.4,1.4c3.9-3.3,9.3-5.1,14.8-5.1c0.5,0,1,0,1.5,0l0.1,0l0.1,0c0.4,0,0.8,0,1.2,0
				c5.8,0,11.4,1.8,15.9,5.1c4.7,3.4,10.8,9,13.4,16.3c0.7,1.9,1.1,3.9,1.3,6l0,0.1l0,0.1c0.5,2.1,0.4,4.5,0.4,6.6
				c0,0.4,0,0.8,0,1.2l0,0.4l2,0.2c0.3-1.6,0.4-3.2,0.5-4.7c1.4-0.1,2.7-0.2,4-0.2c2.1,0,4.2,0.2,6.3,0.6c7.2,1.3,13.8,4.8,18,9.7
				c2.3,2.6,3.7,5.9,4.9,8.7c1.7,4,1.1,8.4,0.3,11.3c-0.1,0.2-0.1,0.5-0.2,0.8c-1.8,0.2-3.5,0.7-5.1,1.2c-0.9,0.2-1.8,0.6-2.4,1.4
				l-1.1,1.6h2c0.2,0,0.3,0,0.3,0l0.1,0l0.1-0.1l0.2,0l0.1-0.1c1.1-0.8,2.9-0.9,4.3-0.9l0.3,0l0.7,0c0.6,0,1.2-0.1,1.8-0.1
				c0.3,0,0.6,0,1,0c2,0.1,4.2,0.5,6.5,1.2c5.1,1.6,9.2,5.3,11.3,10.1c1.8,4,1.8,8.9,0,13.1l-0.3,0.7c-2.2,4.5-6.8,8-11,10.8
				c-6.6,4.4-15.1,6.8-24.6,6.8c-2.8,0-5.7-0.2-8.6-0.6c-6.7-0.9-12.3-2.6-17.8-5.1c-1.5-0.7-3.1-1.6-4.7-2.6
				c0.2-0.3,0.5-0.6,0.7-0.9l5.9-7.6l-7.4,6.2c-0.5,0.4-1.1,0.9-1.8,1.4c-2,1.4-4.6,3.3-7.3,5c-0.1,0.1-0.3,0.2-0.4,0.3
				c-0.2,0.1-0.3,0.2-0.5,0.3c-1.9,1.3-3.8,2.4-5.6,3.3c-3.2,1.6-6.8,2.6-9.6,3.3c-2.9,0.7-6.7,1.6-10.6,1.7c-0.4,0-0.8,0-1.3,0
				c-2.5,0-5-0.3-7.6-0.9l0,0l0,0c-4.7-0.7-8.5-2-11.7-3.9c-2.6-1.6-4.5-3.1-5.8-4.8c-0.4-0.5-0.7-1-1.1-1.5c-0.7-1.1-1.4-2.2-2.4-3
				l-3.2-2.6l1.7,3.8c0.4,1,0.8,1.8,1.2,2.5c0.6,1,1.3,2.1,2.2,3.1c-2.2,1.5-4.8,2.7-7.4,3.8l-0.5,0.2c-6.4,2.8-12.6,4.3-18.4,4.3
				c-0.9,0-1.8,0-2.7-0.1c-7.5-0.6-14.9-3-21.3-6.8c-1.4-0.8-2.6-1.8-3.8-2.8h0l-1.7-1.7c-1.9-1.9-3.5-4-4.7-6.2l-1.8,0.8
				c0.7,1.8,1.6,3.5,2.5,5.1c-2.4,1.1-5,2-7,2.6c-3,1-6,1.4-9,1.4c-2,0-3.9-0.2-5.6-0.6C8,115.4,1.6,107.5,1,97.9
				c-0.5-8.7,5-18,12.8-21.6c3-1.3,6.3-2,9.8-2c1.6,0,3.3,0.1,5,0.4c0.4,0.1,0.8,0.2,1.2,0.3c-0.1,0.7-0.1,1.5-0.1,2.3l0,0l0,0
				l0,0.5c0.1,1,0.1,2,0.4,3c0.4,1.3,0.8,2.7,1.5,4.3l3,6.9l-1.1-7.5c-0.5-3.8-0.2-7.5,1-11.4c0.2-0.6,0.4-1.2,0.7-1.9l0,0l0,0
				c0.4-1,0.7-1.9,1.2-2.8c3.3-6.6,9.7-10.3,16-13.8c4.7-2.7,10.1-4.1,15.6-4.1c2,0,4.1,0.2,6.1,0.6c1.1,0.2,2.1,0.5,3.1,0.8
				c-0.4,3.4,0.3,6.6,2.2,9.4l3.7,5.7l-2-6.5c-1.2-4.2-0.9-8.5,1-11.6l0,0l0,0c1-2.1,2.5-4.1,4.5-5.9c0.1-0.1,0.3-0.3,0.5-0.4
				l0.2,0.3l0.9-0.9c0.3-0.2,0.7-0.4,1-0.6l0.9-0.5l0-0.1c1.9-0.8,4-1.2,5.9-1.6c1.1-0.2,2.5-0.5,3.9-0.5c0.4,0,0.7,0,1.1,0
				c0.4,0,0.7,0.1,1,0.2l0.1,0h0.1h0.3h5.7l-5.4-1.9c-1.3-0.5-2.7-0.7-4.2-0.7c-1.8,0-3.6,0.1-5.9,0.5c-1.6,0.3-3,0.6-4.2,1.1
				c-1.3-2.6-1.9-5.4-2.1-8.5c-0.2-4.8,0.4-8.7,1.9-11.8c1.7-3.5,4.2-6.9,7-9.4C100.7,3.5,107,1,113.7,1 M113.7,0
				c-7,0-13.6,2.6-18.9,7.4c-3,2.7-5.6,6.1-7.3,9.8c-1.8,3.8-2.2,8.1-2,12.3c0.2,3.5,1,6.7,2.6,9.7c1.6-0.6,3.2-1.1,4.9-1.4
				c1.9-0.3,3.8-0.4,5.8-0.4c1.4,0,2.6,0.2,3.9,0.7c-0.1,0-0.2,0-0.3,0c-0.4-0.1-0.8-0.2-1.2-0.2c-0.4,0-0.8-0.1-1.1-0.1
				c-1.4,0-2.7,0.2-4.1,0.5c-2.2,0.5-4.8,1-7.1,2.1c0,0,0.1,0.1,0.1,0.1c-0.4,0.2-0.8,0.4-1.2,0.6c0,0,0,0-0.1,0.1
				c0,0,0-0.1-0.1-0.1c-0.6,0.3-1.1,0.7-1.5,1.2c-2,1.9-3.6,4-4.7,6.2c-2.2,3.6-2.3,8.3-1.1,12.5c-2-3-2.5-6.4-1.9-9.6
				c-1.3-0.5-2.6-0.8-4-1.1c-2.1-0.4-4.2-0.6-6.3-0.6c-5.6,0-11.1,1.4-16.1,4.2c-6.4,3.6-13,7.3-16.4,14.2c-0.5,1-0.9,1.9-1.2,2.9
				c-0.3,0.6-0.6,1.3-0.8,2c-1.2,3.9-1.6,7.8-1.1,11.8c-0.6-1.4-1.1-2.8-1.5-4.2c-0.3-1.1-0.3-2.1-0.4-3.2c0-1,0.1-2,0.2-3.1
				c-0.7-0.2-1.4-0.4-2.1-0.5c-1.7-0.3-3.4-0.5-5.1-0.5c-3.5,0-7,0.7-10.3,2.1C5.2,79.2-0.5,88.8,0,97.9c0.6,9.7,7,18.2,16.6,20.5
				c1.9,0.4,3.9,0.6,5.9,0.6c3.2,0,6.4-0.5,9.3-1.5c2.7-0.8,5.5-1.8,8.2-3.1c-1.2-1.8-2.2-3.8-3-5.9c1.3,2.3,3,4.5,4.9,6.4
				c0,0,0,0,0,0c1.6,1.8,3.5,3.3,5.7,4.7c6.6,4,14,6.3,21.7,6.9c0.9,0.1,1.8,0.1,2.7,0.1c6.5,0,12.9-1.7,18.8-4.4
				c3-1.3,6.3-2.7,8.9-4.7c-1.1-1.1-2-2.4-2.8-3.8c-0.5-0.8-0.8-1.6-1.2-2.4c1.4,1.1,2.2,3,3.3,4.4c1.6,2.1,3.8,3.7,6.1,5
				c3.7,2.2,7.9,3.4,12.1,4.1c2.5,0.6,5.1,0.9,7.8,0.9c0.4,0,0.9,0,1.3,0c3.6-0.2,7.2-0.9,10.8-1.8c3.3-0.8,6.7-1.8,9.8-3.3
				c2-1,3.9-2.1,5.8-3.4c0.3-0.2,0.6-0.4,0.9-0.6c2.5-1.6,5-3.3,7.4-5c0.6-0.4,1.3-0.9,1.9-1.5c-0.5,0.6-0.9,1.2-1.4,1.8
				c1.8,1.2,3.7,2.3,5.7,3.3c5.9,2.8,11.7,4.3,18.1,5.2c2.9,0.4,5.8,0.6,8.7,0.6c8.8,0,17.7-2,25.1-6.9c4.3-2.8,9.1-6.5,11.4-11.2
				l0,0c2.2-4.6,2.4-10,0.4-14.6c-2.2-5.1-6.6-8.9-11.9-10.6c-2.2-0.7-4.5-1.2-6.8-1.2c-0.3,0-0.7,0-1,0c-0.8,0-1.6,0.1-2.5,0.1
				c-1.6,0.1-3.8,0.1-5.2,1.1c-0.1,0-0.1,0-0.2,0.1c-0.1,0-0.1,0-0.1,0c0.4-0.6,1.1-0.8,1.9-1.1c1.8-0.5,3.6-1,5.4-1.2
				c0,0,0.1,0,0.1,0c0.2-0.5,0.3-1,0.4-1.5c1.1-3.9,1.3-8.2-0.3-12c-1.3-3.2-2.8-6.4-5.1-9c-4.7-5.4-11.6-8.8-18.6-10
				c-2.2-0.4-4.3-0.6-6.4-0.6c-1.5,0-3,0.1-4.5,0.3c-0.2,0-0.3,0-0.5,0.1c0,1.8-0.2,3.7-0.5,5.5c0-0.6,0.1-1.1,0.1-1.7
				c0-2.2,0-4.6-0.4-6.8c-0.2-2.1-0.7-4.2-1.4-6.2c-2.4-6.8-7.9-12.6-13.7-16.8c-4.9-3.6-10.6-5.3-16.5-5.3c-0.4,0-0.8,0-1.2,0
				c-0.5,0-1,0-1.5,0c-5.6,0-11.3,1.9-15.4,5.4c1-1.2,2.2-2.1,3.5-3c1.9-1.1,4-2,6.1-2.7C131.3,4.8,123.7,0.9,117,0.2
				C115.9,0.1,114.8,0,113.7,0L113.7,0z"/>
		</g>
		<defs>
			<filter id="Adobe_OpacityMaskFilter" filterUnits="userSpaceOnUse" x="0" y="0" width="232.2" height="126.7">
				
					<feColorMatrix  type="matrix" values="-1 0 0 0 1  0 -1 0 0 1  0 0 -1 0 1  0 0 0 1 0" color-interpolation-filters="sRGB" result="source"/>
			</filter>
		</defs>
		<mask maskUnits="userSpaceOnUse" x="0" y="0" width="232.2" height="126.7" id="SVGID_1_">
			<g class="st2">
				
					<image style="overflow:visible;" width="237" height="132" xlink:href="6D317326075D63DE.jpg"  transform="matrix(1 0 0 1 -2 -2.31)">
				</image>
			</g>
		</mask>
		<g class="st3">
			<path class="st4" d="M72,126.2c-0.9,0-1.8,0-2.7-0.1c-7.6-0.6-15-3-21.5-6.9c-1.8-1.1-3.4-2.3-4.8-3.7h0.1l-0.9-0.9
				c-1.9-1.9-3.5-4-4.8-6.3l-0.9,0.4c0.8,2,1.7,3.8,2.8,5.5c-2.6,1.2-5.4,2.2-7.6,2.9c-3.1,1-6.1,1.5-9.2,1.5c-2,0-3.9-0.2-5.8-0.6
				c-9.1-2.1-15.7-10.2-16.2-20C0,89,5.6,79.5,13.6,75.9c3-1.4,6.4-2.1,10-2.1c1.7,0,3.4,0.2,5.1,0.4c0.5,0.1,1.1,0.2,1.7,0.4
				c-0.1,0.8-0.2,1.7-0.2,2.7l0,0.5c0.1,0.9,0.1,1.9,0.4,2.9c0.3,1.3,0.8,2.7,1.5,4.3l1.5,3.5l-0.5-3.7c-0.6-3.8-0.2-7.6,1-11.6
				c0.2-0.6,0.5-1.3,0.8-1.9c0.4-1.1,0.8-2,1.2-2.9c3.3-6.8,9.9-10.4,16.2-14c4.8-2.7,10.3-4.2,15.9-4.2c2.1,0,4.1,0.2,6.2,0.6
				c1.2,0.2,2.4,0.5,3.5,0.9c-0.5,3.4,0.2,6.7,2,9.5l1.9,2.9l-1-3.3c-1.3-4.3-0.9-8.8,1-12c1.1-2.2,2.6-4.2,4.6-6.1
				c0.3-0.3,0.6-0.6,1-0.8l0.1,0.3l0.5-0.5c0.3-0.2,0.7-0.4,1.1-0.6l0.4-0.2l0-0.1c2.1-0.9,4.4-1.4,6.5-1.8c1.1-0.2,2.5-0.5,4-0.5
				c0.4,0,0.7,0,1.1,0c0.4,0,0.8,0.1,1.1,0.2l0,0h3.3l-2.7-1c-1.3-0.5-2.6-0.7-4-0.7c-1.8,0-3.6,0.1-5.8,0.4
				c-1.8,0.3-3.3,0.7-4.6,1.2c-1.4-2.8-2.2-5.8-2.3-9.1c-0.2-4.9,0.4-8.8,1.9-12.1c1.7-3.6,4.2-7,7.2-9.6c5.3-4.8,11.8-7.3,18.6-7.3
				c1.1,0,2.2,0.1,3.2,0.2c6.1,0.7,13.5,4.1,16.7,10.1c-1.9,0.6-3.8,1.5-5.6,2.6c-1.5,1.1-2.7,2.1-3.6,3.1l0.7,0.7
				c4-3.3,9.5-5.3,15.1-5.3c0.5,0,1,0,1.5,0c0.5,0,0.9,0,1.2,0c6,0,11.6,1.8,16.2,5.2c4.8,3.5,11,9.1,13.5,16.5
				c0.7,1.9,1.1,4,1.4,6.1c0.5,2.2,0.5,4.6,0.4,6.7c0,0.4,0,0.8,0,1.2l0,0.4l1,0.1c0.3-1.7,0.4-3.4,0.5-5.1l0.1,0
				c1.5-0.2,3-0.3,4.5-0.3c2.1,0,4.3,0.2,6.4,0.6c7.3,1.3,14,4.9,18.3,9.9c2.3,2.7,3.8,6,5,8.9c1.7,4.1,1.1,8.6,0.3,11.7
				c-0.1,0.4-0.2,0.7-0.3,1.1c-1.9,0.2-3.7,0.7-5.3,1.2c-0.8,0.2-1.6,0.5-2.1,1.2l-0.6,0.8h1c0.1,0,0.2,0,0.2,0l0,0l0.1,0l0.1,0
				l0.2-0.1c1.2-0.9,3.1-1,4.6-1l1,0c0.6,0,1.2-0.1,1.8-0.1c0.3,0,0.6,0,1,0c2.1,0.1,4.3,0.5,6.7,1.2c5.2,1.7,9.5,5.4,11.6,10.3
				c1.9,4.2,1.8,9.3-0.1,13.7l-0.2,0.5c-2.2,4.6-6.9,8.1-11.2,11c-6.7,4.5-15.3,6.8-24.8,6.8c-2.8,0-5.7-0.2-8.6-0.6
				c-6.7-0.9-12.4-2.6-18-5.2c-1.7-0.8-3.4-1.8-5.2-2.9c0.4-0.4,0.7-0.9,1.1-1.4l3-3.8l-3.7,3.1c-0.5,0.4-1.1,0.9-1.9,1.4
				c-2,1.5-4.7,3.3-7.4,5l-0.9,0.6c-2,1.4-3.8,2.5-5.7,3.4c-3.3,1.6-6.9,2.6-9.7,3.3c-2.9,0.7-6.8,1.6-10.7,1.7c-0.4,0-0.9,0-1.3,0
				c-2.5,0-5.1-0.3-7.7-0.9c-4.8-0.7-8.7-2-12-4c-2.7-1.6-4.6-3.2-5.9-4.9c-0.4-0.5-0.7-1-1.1-1.6c-0.7-1-1.4-2.1-2.3-2.9l-1.6-1.3
				l0.8,1.9c0.4,1,0.8,1.7,1.2,2.4c0.7,1.2,1.5,2.3,2.5,3.4c-2.4,1.7-5.2,2.9-7.9,4.1l-0.5,0.2C84.2,124.7,77.9,126.2,72,126.2z"/>
			<path class="st4" d="M113.7,1c1,0,2.1,0.1,3.2,0.2c5.8,0.7,12.8,3.8,16.1,9.3c-1.7,0.6-3.4,1.4-5.2,2.4l0,0l0,0
				c-1.5,1.1-2.7,2.1-3.6,3.2l1.4,1.4c3.9-3.3,9.3-5.1,14.8-5.1c0.5,0,1,0,1.5,0l0.1,0l0.1,0c0.4,0,0.8,0,1.2,0
				c5.8,0,11.4,1.8,15.9,5.1c4.7,3.4,10.8,9,13.4,16.3c0.7,1.9,1.1,3.9,1.3,6l0,0.1l0,0.1c0.5,2.1,0.4,4.5,0.4,6.6
				c0,0.4,0,0.8,0,1.2l0,0.4l2,0.2c0.3-1.6,0.4-3.2,0.5-4.7c1.4-0.1,2.7-0.2,4-0.2c2.1,0,4.2,0.2,6.3,0.6c7.2,1.3,13.8,4.8,18,9.7
				c2.3,2.6,3.7,5.9,4.9,8.7c1.7,4,1.1,8.4,0.3,11.3c-0.1,0.2-0.1,0.5-0.2,0.8c-1.8,0.2-3.5,0.7-5.1,1.2c-0.9,0.2-1.8,0.6-2.4,1.4
				l-1.1,1.6h2c0.2,0,0.3,0,0.3,0l0.1,0l0.1-0.1l0.2,0l0.1-0.1c1.1-0.8,2.9-0.9,4.3-0.9l0.3,0l0.7,0c0.6,0,1.2-0.1,1.8-0.1
				c0.3,0,0.6,0,1,0c2,0.1,4.2,0.5,6.5,1.2c5.1,1.6,9.2,5.3,11.3,10.1c1.8,4,1.8,8.9,0,13.1l-0.3,0.7c-2.2,4.5-6.8,8-11,10.8
				c-6.6,4.4-15.1,6.8-24.6,6.8c-2.8,0-5.7-0.2-8.6-0.6c-6.7-0.9-12.3-2.6-17.8-5.1c-1.5-0.7-3.1-1.6-4.7-2.6
				c0.2-0.3,0.5-0.6,0.7-0.9l5.9-7.6l-7.4,6.2c-0.5,0.4-1.1,0.9-1.8,1.4c-2,1.4-4.6,3.3-7.3,5c-0.1,0.1-0.3,0.2-0.4,0.3
				c-0.2,0.1-0.3,0.2-0.5,0.3c-1.9,1.3-3.8,2.4-5.6,3.3c-3.2,1.6-6.8,2.6-9.6,3.3c-2.9,0.7-6.7,1.6-10.6,1.7c-0.4,0-0.8,0-1.3,0
				c-2.5,0-5-0.3-7.6-0.9l0,0l0,0c-4.7-0.7-8.5-2-11.7-3.9c-2.6-1.6-4.5-3.1-5.8-4.8c-0.4-0.5-0.7-1-1.1-1.5c-0.7-1.1-1.4-2.2-2.4-3
				l-3.2-2.6l1.7,3.8c0.4,1,0.8,1.8,1.2,2.5c0.6,1,1.3,2.1,2.2,3.1c-2.2,1.5-4.8,2.7-7.4,3.8l-0.5,0.2c-6.4,2.8-12.6,4.3-18.4,4.3
				c-0.9,0-1.8,0-2.7-0.1c-7.5-0.6-14.9-3-21.3-6.8c-1.4-0.8-2.6-1.8-3.8-2.8h0l-1.7-1.7c-1.9-1.9-3.5-4-4.7-6.2l-1.8,0.8
				c0.7,1.8,1.6,3.5,2.5,5.1c-2.4,1.1-5,2-7,2.6c-3,1-6,1.4-9,1.4c-2,0-3.9-0.2-5.6-0.6C8,115.4,1.6,107.5,1,97.9
				c-0.5-8.7,5-18,12.8-21.6c3-1.3,6.3-2,9.8-2c1.6,0,3.3,0.1,5,0.4c0.4,0.1,0.8,0.2,1.2,0.3c-0.1,0.7-0.1,1.5-0.1,2.3l0,0l0,0
				l0,0.5c0.1,1,0.1,2,0.4,3c0.4,1.3,0.8,2.7,1.5,4.3l3,6.9l-1.1-7.5c-0.5-3.8-0.2-7.5,1-11.4c0.2-0.6,0.4-1.2,0.7-1.9l0,0l0,0
				c0.4-1,0.7-1.9,1.2-2.8c3.3-6.6,9.7-10.3,16-13.8c4.7-2.7,10.1-4.1,15.6-4.1c2,0,4.1,0.2,6.1,0.6c1.1,0.2,2.1,0.5,3.1,0.8
				c-0.4,3.4,0.3,6.6,2.2,9.4l3.7,5.7l-2-6.5c-1.2-4.2-0.9-8.5,1-11.6l0,0l0,0c1-2.1,2.5-4.1,4.5-5.9c0.1-0.1,0.3-0.3,0.5-0.4
				l0.2,0.3l0.9-0.9c0.3-0.2,0.7-0.4,1-0.6l0.9-0.5l0-0.1c1.9-0.8,4-1.2,5.9-1.6c1.1-0.2,2.5-0.5,3.9-0.5c0.4,0,0.7,0,1.1,0
				c0.4,0,0.7,0.1,1,0.2l0.1,0h0.1h0.3h5.7l-5.4-1.9c-1.3-0.5-2.7-0.7-4.2-0.7c-1.8,0-3.6,0.1-5.9,0.5c-1.6,0.3-3,0.6-4.2,1.1
				c-1.3-2.6-1.9-5.4-2.1-8.5c-0.2-4.8,0.4-8.7,1.9-11.8c1.7-3.5,4.2-6.9,7-9.4C100.7,3.5,107,1,113.7,1 M113.7,0
				c-7,0-13.6,2.6-18.9,7.4c-3,2.7-5.6,6.1-7.3,9.8c-1.8,3.8-2.2,8.1-2,12.3c0.2,3.5,1,6.7,2.6,9.7c1.6-0.6,3.2-1.1,4.9-1.4
				c1.9-0.3,3.8-0.4,5.8-0.4c1.4,0,2.6,0.2,3.9,0.7c-0.1,0-0.2,0-0.3,0c-0.4-0.1-0.8-0.2-1.2-0.2c-0.4,0-0.8-0.1-1.1-0.1
				c-1.4,0-2.7,0.2-4.1,0.5c-2.2,0.5-4.8,1-7.1,2.1c0,0,0.1,0.1,0.1,0.1c-0.4,0.2-0.8,0.4-1.2,0.6c0,0,0,0-0.1,0.1
				c0,0,0-0.1-0.1-0.1c-0.6,0.3-1.1,0.7-1.5,1.2c-2,1.9-3.6,4-4.7,6.2c-2.2,3.6-2.3,8.3-1.1,12.5c-2-3-2.5-6.4-1.9-9.6
				c-1.3-0.5-2.6-0.8-4-1.1c-2.1-0.4-4.2-0.6-6.3-0.6c-5.6,0-11.1,1.4-16.1,4.2c-6.4,3.6-13,7.3-16.4,14.2c-0.5,1-0.9,1.9-1.2,2.9
				c-0.3,0.6-0.6,1.3-0.8,2c-1.2,3.9-1.6,7.8-1.1,11.8c-0.6-1.4-1.1-2.8-1.5-4.2c-0.3-1.1-0.3-2.1-0.4-3.2c0-1,0.1-2,0.2-3.1
				c-0.7-0.2-1.4-0.4-2.1-0.5c-1.7-0.3-3.4-0.5-5.1-0.5c-3.5,0-7,0.7-10.3,2.1C5.2,79.2-0.5,88.8,0,97.9c0.6,9.7,7,18.2,16.6,20.5
				c1.9,0.4,3.9,0.6,5.9,0.6c3.2,0,6.4-0.5,9.3-1.5c2.7-0.8,5.5-1.8,8.2-3.1c-1.2-1.8-2.2-3.8-3-5.9c1.3,2.3,3,4.5,4.9,6.4
				c0,0,0,0,0,0c1.6,1.8,3.5,3.3,5.7,4.7c6.6,4,14,6.3,21.7,6.9c0.9,0.1,1.8,0.1,2.7,0.1c6.5,0,12.9-1.7,18.8-4.4
				c3-1.3,6.3-2.7,8.9-4.7c-1.1-1.1-2-2.4-2.8-3.8c-0.5-0.8-0.8-1.6-1.2-2.4c1.4,1.1,2.2,3,3.3,4.4c1.6,2.1,3.8,3.7,6.1,5
				c3.7,2.2,7.9,3.4,12.1,4.1c2.5,0.6,5.1,0.9,7.8,0.9c0.4,0,0.9,0,1.3,0c3.6-0.2,7.2-0.9,10.8-1.8c3.3-0.8,6.7-1.8,9.8-3.3
				c2-1,3.9-2.1,5.8-3.4c0.3-0.2,0.6-0.4,0.9-0.6c2.5-1.6,5-3.3,7.4-5c0.6-0.4,1.3-0.9,1.9-1.5c-0.5,0.6-0.9,1.2-1.4,1.8
				c1.8,1.2,3.7,2.3,5.7,3.3c5.9,2.8,11.7,4.3,18.1,5.2c2.9,0.4,5.8,0.6,8.7,0.6c8.8,0,17.7-2,25.1-6.9c4.3-2.8,9.1-6.5,11.4-11.2
				l0,0c2.2-4.6,2.4-10,0.4-14.6c-2.2-5.1-6.6-8.9-11.9-10.6c-2.2-0.7-4.5-1.2-6.8-1.2c-0.3,0-0.7,0-1,0c-0.8,0-1.6,0.1-2.5,0.1
				c-1.6,0.1-3.8,0.1-5.2,1.1c-0.1,0-0.1,0-0.2,0.1c-0.1,0-0.1,0-0.1,0c0.4-0.6,1.1-0.8,1.9-1.1c1.8-0.5,3.6-1,5.4-1.2
				c0,0,0.1,0,0.1,0c0.2-0.5,0.3-1,0.4-1.5c1.1-3.9,1.3-8.2-0.3-12c-1.3-3.2-2.8-6.4-5.1-9c-4.7-5.4-11.6-8.8-18.6-10
				c-2.2-0.4-4.3-0.6-6.4-0.6c-1.5,0-3,0.1-4.5,0.3c-0.2,0-0.3,0-0.5,0.1c0,1.8-0.2,3.7-0.5,5.5c0-0.6,0.1-1.1,0.1-1.7
				c0-2.2,0-4.6-0.4-6.8c-0.2-2.1-0.7-4.2-1.4-6.2c-2.4-6.8-7.9-12.6-13.7-16.8c-4.9-3.6-10.6-5.3-16.5-5.3c-0.4,0-0.8,0-1.2,0
				c-0.5,0-1,0-1.5,0c-5.6,0-11.3,1.9-15.4,5.4c1-1.2,2.2-2.1,3.5-3c1.9-1.1,4-2,6.1-2.7C131.3,4.8,123.7,0.9,117,0.2
				C115.9,0.1,114.8,0,113.7,0L113.7,0z"/>
		</g>
	</g>
</g>
</svg>
