<?xml version="1.0" encoding="UTF-8"?>
<svg xmlns="http://www.w3.org/2000/svg" xmlns:xlink="http://www.w3.org/1999/xlink" viewBox="0 0 2236.18 1125.07">
  <defs>
    <style>
      .cls-1 {
        fill: none;
      }

      .cls-2 {
        fill: url(#linear-gradient);
      }

      .cls-3 {
        clip-path: url(#clippath);
      }

      .cls-4, .cls-5, .cls-6 {
        fill: #fff;
      }

      .cls-7 {
        fill: #a8d16d;
      }

      .cls-8 {
        fill: #a2b9b9;
      }

      .cls-9 {
        isolation: isolate;
      }

      .cls-10 {
        mix-blend-mode: multiply;
        opacity: .6;
      }

      .cls-11, .cls-5 {
        opacity: .5;
      }

      .cls-11, .cls-12, .cls-13 {
        fill: #bce8e5;
      }

      .cls-6 {
        opacity: .7;
      }

      .cls-12 {
        opacity: .3;
      }

      .cls-13 {
        opacity: .4;
      }
    </style>
    <clipPath id="clippath">
      <rect class="cls-1" x="58.18" y="25.27" width="1915" height="1075.5"/>
    </clipPath>
    <linearGradient id="linear-gradient" x1="1683.96" y1="1515.7" x2="1683.96" y2="-140.44" gradientTransform="translate(-751.95 -350.3) rotate(5.27) scale(1.16 1.01)" gradientUnits="userSpaceOnUse">
      <stop offset=".06" stop-color="#fdffff"/>
      <stop offset=".23" stop-color="#ebf8f8"/>
      <stop offset=".55" stop-color="#bce8e8"/>
      <stop offset=".92" stop-color="#80d4d3"/>
    </linearGradient>
  </defs>
  <g class="cls-9">
    <g id="Layer_2" data-name="Layer 2">
      <g id="background_general">
        <g class="cls-3">
          <g>
            <g>
              <path class="cls-2" d="M2229.26,899.92c11.41-296.2,15.23-593.44-41.74-888.45-28.65-.17-57.31-.36-85.96-.58-43.68,6.86-87.17,14.04-130.46,21.57,4.89-7.76,6.9-15.36,6.54-22.7-140.44-1.46-280.86-3.4-421.27-5.16C1046.83-1.79,534.24-6.19,27.15,24.68c.96,234.51,2.13,469.04-7.74,703.5-2.24,53.27-5.03,106.56-7.88,159.87,6.21-3.2,12.39-6.4,18.64-9.58-6.35,4.25-12.68,8.52-18.81,12.81-1.99,37.08-4,74.17-5.9,111.27,322.99-49.24,1261.63-158.55,2217.51,49.39,2.16-50.67,4.33-101.35,6.29-152.02Z"/>
              <path class="cls-7" d="M0,1122.9c288.01,.41,576,1.83,864.01,2.12,452.32,.45,904.98-2.1,1356.6-15.65,.79-19.14,1.55-38.29,2.36-57.43C1267.09,843.99,328.45,953.31,5.46,1002.55c-.03,.67-.07,1.34-.1,2.01,2.51,2.27,2.36,3.91-.32,6.29-1.88,37.35-3.6,74.7-5.04,112.05Z"/>
              <g class="cls-10">
                <path class="cls-7" d="M864.01,1125.02c337.56,.34,675.3-1,1012.67-7.32C1202.83,927.68,375.8,975.15,5.25,1010.65c-.06,.06-.14,.12-.21,.18-1.89,37.35-3.6,74.71-5.04,112.07,288.01,.41,576,1.83,864.01,2.12Z"/>
              </g>
            </g>
            <path class="cls-4" d="M1626.34,471.53c-2.27,4.73-7.08,8.35-11.35,11.19-9.88,6.58-22.28,7.88-33.79,6.3-6.41-.89-12.21-2.45-18.07-5.19-2.02-.94-3.91-2.05-5.72-3.26,.5-.58,.98-1.17,1.45-1.76-.62,.53-1.28,1.02-1.89,1.46-2.4,1.74-4.87,3.46-7.38,5.03-.3,.19-.59,.37-.9,.56-1.82,1.27-3.72,2.42-5.74,3.41-3.08,1.5-6.44,2.5-9.75,3.33-3.52,.88-7.13,1.61-10.75,1.76-3.08,.13-6.11-.19-9.06-.85-4.24-.64-8.42-1.84-12.08-4.05-2.23-1.35-4.4-2.94-6.04-4.99-1.1-1.37-1.93-3.24-3.34-4.36,.36,.8,.74,1.59,1.19,2.38,.78,1.36,1.72,2.6,2.77,3.75-2.64,2.01-5.91,3.4-8.9,4.73-6.72,2.99-14.17,4.84-21.53,4.26-7.65-.61-15.1-2.96-21.68-6.93-2.18-1.32-4.07-2.88-5.69-4.64,.01,0,.02-.01,.03-.02-1.92-1.9-3.58-4.07-4.87-6.41,.81,2.08,1.82,4.04,3.04,5.88-2.63,1.31-5.5,2.29-8.14,3.13-4.85,1.54-10.21,1.98-15.2,.83-9.62-2.21-16.03-10.71-16.61-20.42-.54-9.08,5.11-18.74,13.33-22.51,4.79-2.19,10.23-2.57,15.37-1.67,.74,.13,1.44,.3,2.13,.5-.14,1.01-.21,2.03-.22,3.05,.07,1.09,.12,2.18,.4,3.24,.38,1.44,.9,2.83,1.49,4.19-.58-4-.18-7.9,1.06-11.81,.22-.68,.48-1.33,.78-1.96,.35-.96,.75-1.91,1.22-2.86,3.39-6.9,9.97-10.58,16.36-14.17,6.79-3.82,14.66-5.07,22.31-3.61,1.39,.26,2.71,.64,4,1.11-.6,3.19-.11,6.52,1.88,9.54-1.24-4.14-1.06-8.83,1.1-12.43,1.08-2.25,2.69-4.33,4.69-6.21,.46-.43,.98-.81,1.54-1.16,.02,.04,.05,.07,.07,.11,.02-.02,.05-.03,.07-.05,.38-.22,.77-.43,1.16-.63-.02-.04-.05-.07-.07-.11,2.24-1.06,4.86-1.64,7.07-2.09,1.73-.35,3.44-.58,5.21-.43,.39,.04,.78,.1,1.17,.18,.11,0,.23,0,.34,0-1.25-.44-2.52-.65-3.86-.65-1.95-.01-3.85,.18-5.75,.44-1.68,.3-3.32,.71-4.87,1.35-1.62-3.01-2.44-6.25-2.61-9.72-.2-4.16,.17-8.48,1.97-12.27,1.71-3.61,4.28-7.09,7.25-9.75,6.2-5.53,13.89-8.14,22.19-7.21,6.71,.76,14.31,4.6,17.36,10.88-2.11,.68-4.17,1.61-6.08,2.7-1.26,.88-2.44,1.84-3.45,3.02,4.51-3.78,10.88-5.69,16.89-5.31,6.31-.25,12.47,1.44,17.7,5.25,5.78,4.21,11.31,9.92,13.68,16.75,.71,2.04,1.15,4.12,1.38,6.22,.49,2.2,.47,4.57,.45,6.75,0,.57-.03,1.14-.05,1.71,.29-1.8,.45-3.63,.47-5.46,.16-.02,.33-.04,.49-.06,3.68-.43,7.3-.35,10.95,.3,6.95,1.21,13.91,4.67,18.58,10.02,2.3,2.63,3.75,5.79,5.08,8.99,1.57,3.75,1.38,8.07,.32,11.96-.13,.48-.28,.96-.44,1.44-.04,0-.08,0-.11,0-1.84,.18-3.65,.69-5.42,1.19-.77,.22-1.41,.44-1.86,1.06,.05,0,.1-.02,.15-.03,.04-.02,.1-.05,.17-.07,1.4-1.02,3.59-1.06,5.18-1.14,1.15-.05,2.31-.14,3.46-.06,0,0,0,0,0-.01,2.29,.07,4.6,.55,6.77,1.23,5.26,1.67,9.67,5.53,11.89,10.59,2.03,4.63,1.82,10.04-.36,14.57Z"/>
            <path class="cls-5" d="M1716.03,601.54c2.5,1.43,5.35,2.13,8.26,2.33,1.64,.2,3.29,.29,4.95,.35,1.17,.04,2.5,.11,3.81,.02-1.52,.41-3.1,.69-4.7,.83,.08,.39,.17,.79,.3,1.17,.71,2.04,1.98,3.88,3.29,5.55,2.84,3.64,6.72,6.57,10.91,8.48,4.1,1.87,9.19,2.64,13.64,2.02,.97-.14,1.95-.37,2.89-.69-.7-1.91-1.09-3.93-1.06-6.06,0-.06,0-.09,.02-.14,.09,2.38,1.48,4.77,2.66,6.72,.82,1.34,1.76,2.64,2.83,3.79,1.95,2.29,4.31,4.28,6.79,5.98,6.34,4.34,14.03,6.96,21.65,7.71,6.79,.67,13.85-.29,19.96-3.39,2.6-1.32,5.21-3.3,7.35-5.7,1.08-.94,2.02-2.03,2.76-3.27,1.49-2.51,1.87-5.28,2.31-8.06,.26,3.36-.71,6.67-2.38,9.66,8.55,4.62,18.96,5.65,28.28,2.79,5.39-1.65,9.76-4.67,11.8-10.1,.51-1.33,.78-2.75,.83-4.18,.51-2,.44-4.09-.61-6.07-1.32-2.49-3.43-3.74-5.76-4.86,2.31-.09,4.31,1.8,5.66,3.5,.48,.61,.88,1.27,1.21,1.96,1.03-.7,1.99-1.5,2.86-2.4,2.12-1.5,3.66-3.7,4.86-6,.84-1.61,1.49-3.28,2.02-5.02,.14-.49,.28-.98,.39-1.47-.14,3.07-.81,6.12-1.93,8.96,4.03,.63,8.15,.83,12.14,.06,6.22-1.19,11.29-6.27,10.99-12.83-.35-7.52-7.14-13.64-14.38-14.25-3.75-.31-7.47-.07-11.12,.78-.58,.14-1.15,.3-1.7,.51,1.07,1.12,2.02,2.35,2.82,3.66,.24,.56,.47,1.12,.67,1.69-1.47-2.56-3.58-4.6-6.04-6.17-4.52-4-10.9-6.13-16.73-6.18-3.93-.03-8,1.19-11.62,2.7,.23,1.69,.1,3.34-.3,4.93,.18-2.8-.51-5.66-2.04-7.99-.27-.59-.56-1.16-.86-1.69-2.84-5.07-7.31-9.29-12.53-11.84-5.74-2.8-12.2-2.8-18.17-.77-1.11,.38-2.2,.78-3.24,1.26,0,.01,0,.03,.02,.04-.18,.07-.36,.14-.55,.22,0,0,0,0,0,0-.03,.01-.06,.03-.09,.05-.26,.1-.52,.22-.78,.34-1.06,.51-2.17,1.02-3.2,1.64,.86-1.05,2.01-1.86,3.13-2.58,.16-.11,.33-.2,.5-.3-.55-1.01-1.14-1.99-1.75-2.91-2.58-3.92-6.45-6.54-10.96-7.65-2.27-.56-4.58-.86-6.91-.65-2.26,.2-4.07,1.22-6,2.3-3.23,1.79-5.1,4.86-6.13,8.24-.2,.4-.36,.84-.5,1.29-.51,1.09-.84,2.26-1.1,3.45-.13-.09-.22-.23-.22-.4,.02-.57,.06-1.16,.1-1.73-1.11-.58-2.25-1.07-3.29-1.45-4.85-1.8-10.2-1.46-15.09-.02-4.51,1.33-9.03,4.1-11.4,8.27-1.01,1.78-1.66,3.66-1.96,5.57,2.37,.72,5.07,2.01,6.42,3.97-3.04-2.42-6.88-3.74-10.71-3.45-2.69-.08-5.48,.27-8.03,.84-6.14,1.4-12.05,4.04-13.96,10.58-1.97,6.77,3.17,12.91,8.68,16.06Z"/>
            <path class="cls-5" d="M2006.11,250.75c2.5,1.43,5.34,2.13,8.27,2.33,1.63,.2,3.29,.29,4.95,.35,1.17,.04,2.5,.12,3.81,.02-1.52,.41-3.1,.69-4.7,.82,.08,.39,.17,.79,.3,1.17,.71,2.03,1.98,3.87,3.29,5.55,2.84,3.64,6.72,6.57,10.9,8.49,4.1,1.87,9.19,2.64,13.65,2.02,.97-.14,1.94-.37,2.89-.69-.7-1.91-1.1-3.93-1.07-6.06,0-.05,.01-.09,.02-.13,.08,2.38,1.47,4.77,2.66,6.71,.82,1.34,1.75,2.64,2.83,3.8,1.95,2.29,4.31,4.27,6.79,5.98,6.33,4.34,14.03,6.96,21.64,7.71,6.79,.67,13.86-.29,19.96-3.39,2.6-1.32,5.21-3.31,7.35-5.7,1.09-.94,2.03-2.03,2.77-3.27,1.49-2.51,1.87-5.28,2.31-8.07,.26,3.36-.71,6.67-2.38,9.66,8.55,4.62,18.96,5.65,28.28,2.8,5.39-1.65,9.75-4.67,11.8-10.1,.51-1.34,.78-2.76,.83-4.18,.51-2,.44-4.09-.61-6.07-1.32-2.49-3.44-3.74-5.76-4.86,2.3-.09,4.31,1.8,5.65,3.5,.48,.61,.88,1.27,1.21,1.96,1.03-.7,1.99-1.5,2.86-2.4,2.12-1.5,3.66-3.7,4.87-6,.84-1.61,1.48-3.28,2.01-5.02,.15-.48,.29-.97,.4-1.46-.14,3.06-.81,6.11-1.93,8.95,4.03,.64,8.15,.83,12.15,.06,6.22-1.19,11.29-6.27,10.99-12.82-.35-7.52-7.13-13.64-14.38-14.25-3.75-.32-7.46-.07-11.12,.77-.59,.14-1.15,.31-1.7,.51,1.07,1.12,2.02,2.35,2.82,3.65,.24,.56,.47,1.13,.68,1.7-1.47-2.56-3.59-4.6-6.03-6.17-4.53-4-10.9-6.13-16.73-6.18-3.93-.03-8.01,1.18-11.61,2.7,.23,1.69,.1,3.34-.3,4.92,.18-2.8-.51-5.67-2.04-7.99-.27-.59-.56-1.16-.86-1.69-2.84-5.07-7.31-9.29-12.53-11.84-5.74-2.81-12.2-2.81-18.17-.77-1.12,.38-2.2,.78-3.24,1.26,0,.02,.01,.03,.01,.05-.18,.06-.36,.14-.54,.21h0s-.07,.02-.09,.04c-.26,.11-.52,.22-.78,.35-1.06,.51-2.17,1.02-3.2,1.64,.87-1.04,2.01-1.86,3.14-2.58,.16-.1,.33-.2,.5-.3-.55-1.02-1.14-1.99-1.75-2.91-2.58-3.92-6.45-6.54-10.97-7.64-2.26-.56-4.57-.86-6.9-.66-2.26,.2-4.07,1.23-6,2.3-3.23,1.79-5.1,4.86-6.13,8.24-.2,.41-.37,.84-.5,1.29-.51,1.09-.84,2.26-1.1,3.45-.13-.09-.23-.24-.23-.4,.03-.58,.06-1.16,.11-1.73-1.11-.58-2.25-1.06-3.29-1.44-4.85-1.8-10.21-1.46-15.09-.02-4.51,1.33-9.03,4.1-11.39,8.27-1.01,1.78-1.66,3.65-1.96,5.57,2.36,.71,5.07,2.02,6.41,3.98-3.04-2.42-6.87-3.74-10.7-3.45-2.69-.09-5.49,.26-8.03,.84-6.14,1.4-12.05,4.03-13.95,10.57-1.97,6.78,3.16,12.91,8.68,16.06Z"/>
            <g>
              <path class="cls-8" d="M1762.57,164.35c-2.72-11.57-13.5-16.32-24.14-18.18-5.71-1-11.91-.65-17.56,.63-.23-2.38-.74-4.74-1.48-7-2.62-7.99-9.73-13.08-17.27-15.99-7.57-2.92-15.76-3.45-23.61-1.39-3.14,.82-6.17,2.25-8.9,4.07-.82-6.23-3.08-12.17-8.46-16.09-6.89-5.02-14.41-5.92-22.54-3.71-7.56,2.05-13.43,6.44-17.84,12.89-1.13,1.65-2.19,3.47-3.13,5.39-3.58-1.99-7.72-3.35-11.62-4.32-9.86-2.46-19.6,.08-28.01,5.45-7.47,4.77-13.8,12.28-16.89,20.6-.46,1.23-.78,2.44-.99,3.64-.63-.29-1.25-.57-1.89-.83-6.08-2.47-12.36-4.03-18.94-3.82-9.05,.29-18.28,4.14-25.04,10.38-5.39-2.68-11.75-3.4-17.67-3.39-6.88,0-12.82,1.63-18.28,5.91-4.63,3.62-7.85,8.72-9.51,14.33-3.21,10.9,2.63,21.62,12.86,25.98,8.06,3.44,17.22,2.57,25.58,.23,.04,.08,.07,.16,.1,.24,2.21,4.79,5.82,8.62,10.14,11.32-.33,1.5-.52,3.04-.6,4.57-.52,9.53,5.16,18.52,13.47,22.85,9.54,4.97,20.52,6.1,31.09,5.18,8.06-.7,16.3-3.31,22.74-8.29,2.66,3.89,6.04,7.31,9.57,9.96,9.67,7.26,22.72,8.84,34.46,8.01,12.74-.91,25.57-5.65,35.8-13.3,5.63-4.21,10.86-9.6,13.89-15.94,.67,.34,1.36,.66,2.07,.96,7.6,3.18,16.5,2.17,24.13-.4,7.79-2.63,14.87-8.5,19.84-14.93,2.4-3.11,4.31-6.39,5.75-10.04,.43-1.1,.66-2.23,.77-3.36,5.93-.04,11.84-1.34,16.91-4.16,9.97-5.55,18.07-15.43,15.25-27.43Z"/>
              <path class="cls-4" d="M1750.03,190.38c-3.83,2.2-8.19,3.27-12.68,3.57-2.5,.31-5.05,.45-7.59,.54-1.79,.06-3.84,.18-5.85,.04,2.34,.62,4.76,1.05,7.21,1.26-.12,.61-.26,1.21-.47,1.8-1.09,3.12-3.04,5.94-5.05,8.51-4.36,5.57-10.31,10.08-16.73,13.01-6.28,2.87-14.1,4.06-20.93,3.1-1.49-.21-2.98-.57-4.43-1.06,1.08-2.92,1.67-6.03,1.64-9.3,0-.08-.02-.14-.03-.2-.13,3.64-2.27,7.32-4.08,10.3-1.25,2.06-2.69,4.05-4.35,5.83-2.99,3.51-6.62,6.56-10.42,9.17-9.71,6.67-21.52,10.68-33.2,11.83-10.41,1.03-21.26-.44-30.62-5.2-3.99-2.03-8-5.08-11.28-8.75-1.65-1.44-3.11-3.11-4.24-5.02-2.28-3.85-2.86-8.09-3.54-12.38-.4,5.15,1.08,10.24,3.65,14.82-13.12,7.09-29.09,8.66-43.39,4.29-8.27-2.53-14.96-7.16-18.1-15.5-.77-2.05-1.19-4.23-1.27-6.41-.78-3.07-.68-6.28,.93-9.31,2.04-3.83,5.28-5.73,8.84-7.46-3.55-.13-6.62,2.77-8.68,5.37-.74,.93-1.34,1.95-1.85,3.01-1.58-1.07-3.05-2.29-4.39-3.67-3.24-2.3-5.61-5.68-7.46-9.21-1.29-2.47-2.28-5.04-3.1-7.7-.23-.75-.44-1.49-.61-2.25,.22,4.7,1.25,9.38,2.96,13.73-6.18,.98-12.5,1.27-18.64,.09-9.53-1.83-17.32-9.62-16.86-19.68,.54-11.54,10.95-20.93,22.07-21.86,5.75-.48,11.45-.11,17.06,1.19,.89,.21,1.76,.47,2.61,.77-1.64,1.72-3.09,3.6-4.33,5.61-.37,.86-.72,1.72-1.03,2.61,2.26-3.93,5.5-7.05,9.26-9.46,6.94-6.15,16.72-9.41,25.67-9.48,6.02-.04,12.28,1.82,17.82,4.15-.36,2.6-.16,5.13,.45,7.56-.28-4.3,.78-8.69,3.14-12.25,.41-.91,.85-1.78,1.31-2.59,4.36-7.78,11.22-14.25,19.22-18.17,8.8-4.3,18.71-4.31,27.88-1.18,1.72,.58,3.38,1.2,4.98,1.93-.01,.03-.02,.05-.03,.07,.28,.1,.56,.21,.84,.33h0s.09,.04,.14,.06c.4,.17,.8,.35,1.19,.54,1.63,.78,3.34,1.56,4.91,2.51-1.32-1.6-3.08-2.84-4.81-3.96-.24-.16-.5-.31-.76-.46,.84-1.56,1.75-3.05,2.68-4.47,3.96-6.01,9.9-10.03,16.82-11.73,3.48-.85,7.02-1.33,10.6-1,3.47,.31,6.24,1.88,9.21,3.53,4.95,2.75,7.82,7.46,9.4,12.65,.31,.62,.56,1.28,.76,1.98,.78,1.68,1.3,3.47,1.68,5.3,.2-.15,.35-.36,.35-.62-.03-.88-.08-1.77-.16-2.66,1.7-.89,3.46-1.63,5.04-2.21,7.44-2.76,15.66-2.24,23.15-.03,6.92,2.05,13.85,6.29,17.48,12.69,1.55,2.73,2.55,5.61,3.01,8.54-3.63,1.1-7.78,3.09-9.85,6.1,4.66-3.71,10.55-5.73,16.42-5.28,4.13-.13,8.41,.4,12.32,1.29,9.42,2.14,18.48,6.19,21.41,16.22,3.02,10.39-4.86,19.81-13.33,24.64Z"/>
              <path class="cls-13" d="M1702.54,176.22c4.46,6.25,4.46,15.19,13.4,17.87-4.47,7.15-16.08,9.82-22.33,5.36-5.39-3.36-7.22-8.76-10.47-13.5,.42,14.33-6.68,29.92-19.9,34.05-24.11,8.93-54.48,9.82-74.13-7.15-4.22-4.22-4.37-10.88-3.2-17.51-4.64,6.45-7.15,14.21-5.73,21.98-8.04,.89-15.18,2.68-23.22,1.78-9.83-1.78-24.12-7.14-21.44-19.65,1.61-4.81,4.82-8.34,8.66-10.97-8.56,.98-17.82,3.01-22.06,10.08-8.47-6.77-13.71-16.76-12.72-28.43-4.86,5.39-8.29,12.89-6.04,20.39-12.68,2.67-25.85-4.63-27.61-15.57-.15,.85-.26,1.72-.3,2.6-.47,10.05,7.32,17.85,16.86,19.68,6.14,1.18,12.46,.89,18.64-.09-1.72-4.35-2.74-9.03-2.96-13.73,.17,.76,.38,1.5,.61,2.25,.82,2.67,1.8,5.23,3.1,7.7,1.85,3.53,4.22,6.91,7.46,9.21,1.34,1.38,2.81,2.61,4.39,3.67,.51-1.06,1.11-2.07,1.85-3.01,2.06-2.6,5.13-5.5,8.68-5.37-3.57,1.73-6.81,3.63-8.84,7.46-1.61,3.03-1.71,6.24-.93,9.31,.08,2.18,.5,4.36,1.27,6.41,3.13,8.33,9.83,12.97,18.1,15.5,14.3,4.37,30.27,2.8,43.39-4.29-2.57-4.58-4.06-9.67-3.65-14.82,.68,4.28,1.26,8.52,3.54,12.38,1.13,1.91,2.58,3.59,4.24,5.02,3.28,3.67,7.29,6.72,11.28,8.75,9.36,4.76,20.21,6.23,30.62,5.2,11.68-1.15,23.49-5.17,33.2-11.83,3.81-2.61,7.44-5.66,10.42-9.17,1.66-1.77,3.09-3.77,4.35-5.83,1.82-2.97,3.95-6.65,4.08-10.3,.02,.06,.03,.12,.03,.2,.04,3.27-.56,6.38-1.64,9.3,1.45,.49,2.94,.85,4.43,1.06,6.84,.95,14.65-.23,20.93-3.1,6.42-2.93,12.37-7.44,16.73-13.01,2.01-2.58,3.96-5.4,5.05-8.51,.21-.59,.35-1.19,.47-1.8-2.45-.21-4.88-.64-7.21-1.26,2.01,.14,4.06,.02,5.85-.04,2.54-.08,5.08-.22,7.59-.54,4.48-.3,8.84-1.38,12.68-3.57,6.58-3.75,12.79-10.27,13.83-17.87-14.03,18.24-44.84,21.93-61.32,3.71Z"/>
            </g>
            <g>
              <path class="cls-8" d="M2158.74,426.12c-3.5-.84-7.18-1.13-10.8-1.01,.11-.31,.23-.62,.35-.94,1.91-5.63,2.64-12.83,.73-18.51-1.97-5.84-4.89-11.55-8.9-16.23-7.53-8.81-18.91-13.68-30.2-15.23-5.96-.82-11.87-.38-17.77,.6-.06-4.52-.64-9.04-1.75-13.43-2.94-11.61-12.13-21.75-21.73-28.51-10.14-7.14-22.59-8.19-34.42-5.6-1.24,.27-2.48,.62-3.7,1-4.25-9.62-15.17-15.25-25.16-17.3-6.64-1.36-13.93-.88-20.42,.95-6.26,1.77-11.48,5.16-16.41,9.32-4.81,4.06-8.58,9.72-11.41,15.3-3.11,6.12-3.61,13.31-3.41,20.07,.17,5.56,2.06,10.45,4.89,15.02-1.4,.73-2.72,1.61-3.96,2.69-3.94,3.44-6.92,7.95-8.27,12.79-1.54-.67-3.11-1.25-4.75-1.73-6.16-1.81-12.4-2.29-18.8-1.92-6.17,.35-12.19,2.72-17.67,5.48-11.12,5.61-21.76,12.13-27.51,23.73-1.46,2.95-2.51,6.33-3.08,9.87-1.04-.3-2.09-.55-3.14-.76-8.05-1.62-16.13-.96-23.77,2.08-13.64,5.44-22.53,20.74-23.31,35.03-.89,16.53,11.12,31.08,26.65,35.14,7.9,2.06,16.81,1.11,24.45-1.57,4.87-1.7,9.72-3.79,14.04-6.64,2.27,3.05,4.95,5.86,8.09,8.38,9.78,7.85,22.41,11.37,34.72,12.39,5.95,.49,11.46-.12,17.19-1.69,2.85-.78,5.72-1.19,8.53-2.14,2.97-1,5.84-2.32,8.66-3.7,4.53-2.2,9.44-5.01,13.18-8.53,1.47,1.41,3.02,2.73,4.64,3.96,8.83,6.67,19.57,10.42,30.63,10.61,11.5,.19,22.83-2.48,33.29-7.19,7.52-3.39,14.08-8.62,19.74-14.64,9.31,6.98,20.52,11.38,31.99,13.57,8.94,1.71,17.58,2.52,26.66,1.8,8.76-.71,17.13-2.75,25.12-6.42,13.39-6.15,28-17.86,30.12-33.3,2.13-15.53-8.43-29.19-23.33-32.79Z"/>
              <path class="cls-4" d="M2174.92,466.56c-3.44,7.12-10.69,12.59-17.12,16.87-14.9,9.94-33.62,11.9-50.97,9.5-9.67-1.34-18.41-3.69-27.26-7.84-3.04-1.42-5.9-3.08-8.63-4.92,.75-.88,1.47-1.77,2.19-2.66-.94,.8-1.94,1.53-2.86,2.2-3.62,2.62-7.34,5.22-11.12,7.59-.45,.28-.9,.56-1.36,.84-2.75,1.92-5.62,3.66-8.65,5.15-4.63,2.27-9.71,3.78-14.71,5.02-5.31,1.33-10.75,2.42-16.22,2.65-4.64,.19-9.22-.29-13.68-1.28-6.38-.96-12.69-2.78-18.22-6.12-3.37-2.03-6.64-4.43-9.11-7.52-1.65-2.07-2.92-4.88-5.04-6.58,.53,1.21,1.11,2.41,1.79,3.59,1.18,2.05,2.6,3.92,4.18,5.66-3.99,3.02-8.92,5.13-13.42,7.14-10.13,4.52-21.38,7.31-32.49,6.42-11.53-.92-22.78-4.46-32.69-10.45-3.3-1.99-6.15-4.34-8.59-7,.01,0,.03-.02,.04-.03-2.89-2.86-5.4-6.13-7.35-9.68,1.23,3.14,2.74,6.11,4.59,8.88-3.97,1.98-8.29,3.46-12.27,4.72-7.32,2.31-15.41,2.98-22.93,1.25-14.51-3.34-24.18-16.15-25.06-30.82-.82-13.7,7.7-28.27,20.11-33.96,7.22-3.31,15.43-3.88,23.18-2.52,1.11,.19,2.18,.45,3.21,.75-.21,1.52-.32,3.06-.35,4.6,.12,1.63,.19,3.28,.61,4.88,.57,2.17,1.35,4.27,2.24,6.33-.88-6.04-.26-11.92,1.61-17.82,.33-1.03,.73-2.01,1.18-2.96,.52-1.45,1.13-2.89,1.83-4.31,5.12-10.4,15.04-15.96,24.68-21.38,10.25-5.76,22.12-7.65,33.66-5.45,2.1,.4,4.1,.97,6.04,1.67-.9,4.81-.16,9.84,2.83,14.39-1.86-6.25-1.59-13.32,1.65-18.75,1.64-3.4,4.05-6.55,7.09-9.38,.69-.65,1.47-1.22,2.32-1.74,.03,.05,.07,.11,.11,.16,.04-.03,.07-.04,.11-.07,.57-.33,1.16-.65,1.75-.95-.03-.05-.07-.11-.1-.16,3.37-1.6,7.33-2.47,10.67-3.15,2.61-.53,5.19-.88,7.86-.65,.59,.05,1.18,.15,1.76,.27,.17,0,.34,0,.51,0-1.88-.66-3.8-.97-5.83-.98-2.93-.02-5.8,.27-8.67,.66-2.53,.45-5.01,1.08-7.35,2.04-2.44-4.55-3.68-9.44-3.94-14.67-.31-6.27,.25-12.79,2.97-18.52,2.57-5.44,6.45-10.69,10.94-14.7,9.35-8.35,20.95-12.29,33.46-10.88,10.13,1.14,21.59,6.94,26.19,16.42-3.18,1.03-6.28,2.43-9.17,4.08-1.9,1.33-3.67,2.78-5.2,4.55,6.8-5.71,16.41-8.59,25.48-8.02,9.53-.37,18.82,2.17,26.7,7.92,8.71,6.35,17.06,14.96,20.65,25.27,1.07,3.08,1.73,6.22,2.06,9.39,.74,3.31,.73,6.89,.7,10.19-.01,.86-.04,1.72-.08,2.57,.44-2.72,.68-5.48,.71-8.24,.24-.03,.5-.06,.74-.09,5.56-.65,11.01-.52,16.52,.45,10.48,1.83,20.98,7.05,28.03,15.13,3.47,3.97,5.65,8.75,7.67,13.56,2.37,5.65,2.07,12.17,.49,18.03-.2,.73-.42,1.46-.67,2.18-.05,0-.1,0-.16,.01-2.77,.28-5.5,1.05-8.17,1.81-1.16,.33-2.13,.67-2.81,1.59,.07-.01,.14-.02,.22-.04,.07-.03,.16-.07,.27-.1,2.1-1.54,5.41-1.61,7.81-1.72,1.74-.07,3.48-.22,5.22-.09,0,0,0-.02,0-.02,3.45,.11,6.95,.83,10.21,1.87,7.93,2.51,14.59,8.33,17.93,15.97,3.07,6.99,2.75,15.14-.54,21.99Z"/>
              <path class="cls-12" d="M2003.55,352.69c-.11,1.95,.19,3.56,.76,5.02-.14-6.17,3.68-13.41,7.61-17.62,1.69-1.81,3.55-3.37,5.54-4.73,1.14-1.08,2.37-2.06,3.67-2.97,2.89-1.65,6-3.04,9.17-4.08-1.04-2.15-2.45-4.1-4.11-5.86-10.48,1.7-21.8,15.1-22.65,30.22Z"/>
              <path class="cls-12" d="M1960.67,370.68c2.34-.96,4.82-1.59,7.35-2.04,2.87-.39,5.74-.67,8.67-.66,1.64,0,3.22,.23,4.76,.66,5.28,.45,10.54,1.94,15.4,3.84,5.54,2.17,10.83,4.95,15.47,8.65-10-15.17-31.33-24.02-48.16-16.71-.5,.22-1.25,.2-1.5-.39-3.42-7.75-4.53-16.89-3.34-25.63-2.35,5.51-2.87,11.67-2.58,17.62,.25,5.23,1.49,10.12,3.94,14.67Z"/>
              <path class="cls-11" d="M2175.46,444.57c-3.34-7.63-10-13.45-17.93-15.97-3.26-1.03-6.75-1.76-10.21-1.87,0,0,0,.01,0,.02-1.74-.13-3.48,.01-5.22,.09-2.4,.11-5.71,.18-7.81,1.72-.11,.03-.2,.07-.27,.1-.08,.02-.15,.03-.22,.04,.67-.92,1.65-1.26,2.81-1.59,2.67-.76,5.4-1.53,8.17-1.81,.06,0,.11,0,.16-.01,.25-.72,.47-1.44,.67-2.18,1.58-5.87,1.88-12.39-.49-18.03-2.02-4.82-4.2-9.6-7.67-13.56-5.94-6.8-14.32-11.56-23.07-14,9.63,6.13,17.51,14.3,17.85,26.88,.23,8.75-1.61,19.68-6.48,28.15,1.77-.29,3.54-.55,5.32-.76,7.56-.88,15.62-2.09,22.95,.66,5.82,2.18,8.06,7.81,6.3,13.64-2.62,8.69-9.13,15.29-17.28,19.11-16.15,7.55-35.3,6.64-51.98,1.21-11.24-3.67-22.41-9.68-29.84-18.79-8.02,16.58-23.31,28.56-43.33,28.97-22.81,.48-48.53-13.77-55.96-36.05,.2,7.3,2.34,14.75,5.33,20.62,.28,.55,.13,1.16-.4,1.5-16.32,10.39-49.92,21.37-69.48,13.2-10.68-4.46-15.68-13.91-20.09-25.45-.9,8.04,.97,16.87,4.02,25.45,.26,.73-2.48,1.17-3.13,1.24-13.73,1.64-30.36,.17-40.49-10.47-5.35-5.62-7.76-12.41-8.17-19.5-1.22,3.91-1.79,8-1.55,12,.88,14.66,10.54,27.47,25.06,30.82,7.52,1.73,15.61,1.07,22.93-1.25,3.98-1.26,8.3-2.75,12.27-4.72-1.84-2.77-3.36-5.73-4.59-8.88,1.95,3.55,4.46,6.82,7.35,9.68,0,0-.02,.02-.04,.03,2.44,2.66,5.29,5.02,8.59,7,9.91,5.98,21.16,9.53,32.69,10.45,11.12,.89,22.36-1.9,32.49-6.42,4.5-2.01,9.43-4.12,13.42-7.14-1.58-1.74-3-3.61-4.18-5.66-.68-1.18-1.26-2.38-1.79-3.59,2.12,1.7,3.38,4.51,5.04,6.58,2.47,3.1,5.74,5.49,9.11,7.52,5.52,3.34,11.84,5.16,18.22,6.12,4.46,1,9.03,1.47,13.68,1.28,5.47-.23,10.91-1.32,16.22-2.65,4.99-1.25,10.07-2.75,14.71-5.02,3.04-1.49,5.91-3.23,8.65-5.15,.46-.27,.9-.55,1.36-.84,3.78-2.37,7.5-4.97,11.12-7.59,.92-.66,1.92-1.4,2.86-2.2-.72,.89-1.44,1.78-2.19,2.66,2.73,1.83,5.59,3.5,8.63,4.92,8.85,4.14,17.59,6.5,27.26,7.84,17.35,2.4,36.07,.44,50.97-9.5,6.43-4.28,13.69-9.75,17.12-16.87,3.3-6.84,3.61-14.99,.54-21.99Z"/>
              <path class="cls-4" d="M1959.85,373.49c-.09,.05-.17,.12-.26,.18,.1-.04,.2-.07,.31-.11-.02-.02-.03-.05-.05-.07Z"/>
            </g>
            <g>
              <path class="cls-6" d="M1314.63,639.54c-2.86,1.63-6.09,2.43-9.43,2.66-1.87,.23-3.76,.34-5.65,.4-1.33,.04-2.86,.13-4.35,.03,1.75,.46,3.54,.78,5.37,.94-.09,.45-.2,.9-.35,1.33-.81,2.32-2.27,4.42-3.76,6.34-3.25,4.15-7.67,7.5-12.45,9.68-4.67,2.14-10.48,3.01-15.57,2.3-1.1-.15-2.22-.43-3.29-.78,.8-2.17,1.24-4.49,1.22-6.91,0-.06-.01-.11-.03-.15-.1,2.71-1.68,5.45-3.04,7.66-.94,1.53-2,3.01-3.23,4.33-2.23,2.61-4.93,4.88-7.76,6.82-7.23,4.96-16,7.94-24.69,8.8-7.75,.77-15.81-.33-22.78-3.87-2.97-1.51-5.95-3.78-8.39-6.5-1.23-1.08-2.31-2.32-3.15-3.74-1.7-2.87-2.13-6.02-2.64-9.21-.3,3.83,.8,7.61,2.71,11.02-9.75,5.27-21.62,6.45-32.26,3.19-6.15-1.88-11.13-5.33-13.46-11.52-.57-1.52-.89-3.15-.95-4.77-.58-2.29-.5-4.67,.7-6.93,1.51-2.84,3.92-4.26,6.58-5.55-2.64-.1-4.92,2.06-6.45,4-.55,.69-1.01,1.45-1.38,2.23-1.18-.79-2.27-1.71-3.26-2.74-2.42-1.7-4.18-4.22-5.55-6.84-.96-1.84-1.7-3.74-2.3-5.73-.17-.56-.33-1.11-.45-1.68,.16,3.5,.93,6.98,2.2,10.22-4.6,.73-9.3,.95-13.86,.07-7.09-1.37-12.88-7.15-12.53-14.63,.4-8.58,8.14-15.56,16.41-16.26,4.27-.36,8.51-.08,12.68,.89,.67,.15,1.32,.34,1.94,.57-1.22,1.28-2.3,2.68-3.22,4.17-.28,.64-.53,1.28-.78,1.94,1.69-2.92,4.1-5.24,6.89-7.04,5.16-4.57,12.43-7,19.09-7.04,4.48-.03,9.12,1.35,13.25,3.08-.27,1.93-.12,3.81,.34,5.61-.21-3.19,.58-6.46,2.33-9.11,.3-.67,.64-1.32,.97-1.93,3.25-5.79,8.35-10.59,14.3-13.51,6.54-3.2,13.92-3.2,20.73-.88,1.27,.44,2.51,.9,3.7,1.44,0,.02-.01,.04-.02,.06,.21,.07,.42,.16,.63,.24,0,0,0,0,0,0,.03,.02,.07,.04,.1,.05,.3,.13,.6,.26,.89,.4,1.21,.58,2.48,1.16,3.65,1.87-.98-1.19-2.28-2.12-3.58-2.95-.18-.12-.37-.23-.56-.34,.62-1.16,1.3-2.27,1.99-3.33,2.94-4.47,7.36-7.46,12.51-8.72,2.58-.63,5.22-.98,7.89-.74,2.57,.23,4.64,1.4,6.85,2.62,3.68,2.04,5.81,5.55,6.99,9.4,.23,.46,.42,.96,.57,1.47,.58,1.25,.96,2.58,1.25,3.94,.15-.11,.26-.27,.26-.46-.03-.66-.07-1.32-.12-1.98,1.26-.66,2.57-1.21,3.74-1.65,5.54-2.05,11.65-1.67,17.22-.02,5.15,1.52,10.31,4.68,13,9.43,1.15,2.03,1.9,4.17,2.25,6.35-2.7,.81-5.79,2.3-7.33,4.54,3.47-2.76,7.85-4.26,12.22-3.93,3.07-.1,6.25,.3,9.16,.96,7.01,1.59,13.75,4.6,15.92,12.06,2.25,7.73-3.61,14.73-9.9,18.33Z"/>
              <path class="cls-4" d="M358.56,481.12c-2.27,4.73-7.08,8.35-11.35,11.19-9.88,6.58-22.28,7.88-33.79,6.3-6.41-.89-12.21-2.45-18.07-5.2-2.02-.94-3.91-2.05-5.72-3.26,.5-.58,.98-1.17,1.45-1.76-.63,.53-1.28,1.02-1.89,1.46-2.4,1.74-4.87,3.46-7.38,5.03-.3,.19-.59,.37-.9,.56-1.82,1.27-3.72,2.42-5.74,3.41-3.08,1.51-6.44,2.5-9.75,3.33-3.52,.88-7.13,1.61-10.75,1.76-3.08,.12-6.11-.19-9.06-.85-4.24-.64-8.42-1.84-12.08-4.05-2.23-1.35-4.4-2.94-6.04-4.99-1.1-1.37-1.93-3.24-3.34-4.36,.36,.8,.74,1.6,1.19,2.38,.78,1.36,1.72,2.61,2.77,3.75-2.64,2-5.91,3.4-8.9,4.73-6.72,2.99-14.17,4.84-21.53,4.26-7.65-.61-15.1-2.96-21.68-6.93-2.18-1.32-4.07-2.89-5.69-4.64,.01,0,.02-.02,.03-.02-1.92-1.9-3.58-4.07-4.87-6.41,.81,2.08,1.82,4.04,3.04,5.88-2.63,1.31-5.5,2.29-8.14,3.13-4.85,1.54-10.21,1.98-15.2,.83-9.62-2.22-16.03-10.71-16.61-20.42-.54-9.09,5.11-18.75,13.33-22.51,4.79-2.19,10.23-2.57,15.37-1.67,.74,.13,1.44,.3,2.13,.5-.14,1.01-.21,2.03-.22,3.05,.08,1.09,.12,2.18,.4,3.24,.38,1.44,.9,2.83,1.49,4.2-.58-4-.18-7.9,1.06-11.81,.22-.68,.48-1.33,.78-1.96,.35-.96,.75-1.91,1.22-2.86,3.39-6.89,9.97-10.58,16.36-14.17,6.79-3.82,14.66-5.07,22.31-3.61,1.39,.26,2.71,.64,4,1.11-.6,3.19-.11,6.52,1.88,9.54-1.24-4.14-1.06-8.83,1.1-12.43,1.08-2.25,2.69-4.34,4.69-6.21,.46-.44,.98-.81,1.54-1.16,.02,.04,.05,.07,.07,.11,.02-.02,.05-.03,.07-.05,.38-.22,.77-.43,1.16-.62-.02-.04-.05-.07-.07-.11,2.24-1.06,4.86-1.63,7.07-2.09,1.73-.35,3.44-.58,5.21-.43,.39,.03,.78,.1,1.17,.18,.11,0,.23,0,.34,0-1.25-.44-2.52-.65-3.86-.66-1.95,0-3.85,.18-5.75,.44-1.68,.3-3.32,.71-4.87,1.35-1.62-3.01-2.44-6.25-2.61-9.72-.2-4.16,.17-8.48,1.97-12.27,1.71-3.61,4.28-7.09,7.25-9.75,6.2-5.53,13.89-8.14,22.19-7.21,6.71,.76,14.31,4.6,17.36,10.88-2.11,.68-4.17,1.61-6.09,2.7-1.26,.88-2.44,1.84-3.45,3.01,4.51-3.78,10.88-5.69,16.89-5.31,6.31-.25,12.47,1.44,17.7,5.25,5.78,4.21,11.31,9.92,13.68,16.75,.71,2.04,1.15,4.12,1.38,6.22,.49,2.2,.47,4.57,.45,6.75,0,.57-.03,1.14-.05,1.71,.29-1.81,.45-3.63,.47-5.46,.16-.02,.33-.04,.49-.06,3.68-.43,7.3-.35,10.95,.29,6.95,1.22,13.91,4.67,18.58,10.03,2.3,2.63,3.75,5.79,5.08,8.99,1.57,3.74,1.38,8.06,.32,11.95-.13,.49-.28,.96-.44,1.45-.04,0-.07,0-.11,0-1.84,.18-3.65,.69-5.42,1.19-.77,.22-1.41,.44-1.86,1.06,.05,0,.1-.02,.15-.03,.04-.02,.1-.05,.17-.07,1.4-1.02,3.59-1.06,5.18-1.14,1.15-.05,2.31-.14,3.46-.06,0,0,0,0,0,0,2.29,.07,4.6,.55,6.77,1.23,5.26,1.67,9.67,5.53,11.89,10.59,2.03,4.63,1.82,10.04-.36,14.57Z"/>
              <path class="cls-5" d="M448.25,611.12c2.5,1.43,5.35,2.13,8.26,2.33,1.64,.2,3.29,.29,4.95,.35,1.17,.04,2.5,.11,3.81,.02-1.52,.41-3.1,.69-4.7,.83,.07,.39,.17,.79,.3,1.17,.71,2.04,1.98,3.88,3.29,5.55,2.84,3.64,6.72,6.57,10.91,8.48,4.1,1.87,9.19,2.64,13.64,2.02,.97-.14,1.94-.38,2.89-.69-.7-1.91-1.09-3.93-1.06-6.06,0-.06,0-.09,.02-.14,.09,2.38,1.48,4.78,2.66,6.72,.82,1.34,1.76,2.64,2.83,3.79,1.95,2.29,4.31,4.28,6.79,5.98,6.34,4.34,14.03,6.96,21.65,7.71,6.79,.67,13.85-.29,19.96-3.39,2.6-1.32,5.21-3.31,7.35-5.7,1.08-.94,2.02-2.03,2.76-3.27,1.49-2.51,1.87-5.28,2.31-8.06,.26,3.36-.71,6.67-2.38,9.66,8.55,4.62,18.96,5.64,28.28,2.79,5.39-1.65,9.76-4.66,11.8-10.1,.51-1.33,.78-2.75,.83-4.18,.51-2,.44-4.09-.61-6.07-1.32-2.49-3.43-3.74-5.76-4.86,2.31-.09,4.31,1.8,5.66,3.5,.48,.61,.88,1.27,1.21,1.96,1.03-.7,1.99-1.5,2.86-2.4,2.12-1.5,3.66-3.7,4.86-6,.85-1.61,1.49-3.28,2.02-5.02,.14-.49,.28-.98,.39-1.47-.14,3.07-.81,6.12-1.93,8.96,4.03,.63,8.15,.83,12.14,.06,6.22-1.19,11.29-6.27,10.99-12.83-.35-7.52-7.14-13.64-14.38-14.25-3.75-.31-7.47-.07-11.12,.78-.58,.13-1.15,.3-1.7,.5,1.07,1.12,2.02,2.35,2.82,3.66,.24,.56,.47,1.12,.67,1.7-1.47-2.56-3.58-4.6-6.04-6.17-4.52-4-10.9-6.14-16.73-6.18-3.93-.03-8,1.19-11.62,2.7,.23,1.7,.1,3.34-.3,4.93,.18-2.8-.51-5.66-2.04-7.99-.27-.59-.56-1.16-.86-1.69-2.84-5.07-7.31-9.29-12.53-11.84-5.74-2.8-12.2-2.8-18.17-.77-1.11,.38-2.2,.78-3.24,1.26,0,.01,0,.03,.02,.04-.18,.07-.36,.14-.55,.21,0,0,0,0,0,0-.03,.02-.06,.03-.09,.05-.26,.11-.52,.22-.78,.34-1.06,.51-2.17,1.02-3.2,1.64,.86-1.05,2.01-1.86,3.13-2.58,.16-.11,.33-.2,.5-.3-.55-1.01-1.14-1.99-1.75-2.91-2.58-3.92-6.45-6.54-10.96-7.65-2.27-.56-4.58-.86-6.91-.65-2.26,.2-4.07,1.22-6,2.3-3.23,1.79-5.1,4.86-6.13,8.24-.2,.4-.36,.84-.5,1.29-.51,1.09-.84,2.26-1.1,3.45-.13-.09-.22-.23-.22-.4,.02-.57,.06-1.16,.1-1.73-1.11-.58-2.25-1.07-3.29-1.45-4.85-1.8-10.2-1.46-15.09-.02-4.51,1.34-9.03,4.1-11.4,8.27-1.01,1.78-1.66,3.66-1.96,5.57,2.37,.72,5.07,2.01,6.42,3.98-3.04-2.42-6.88-3.74-10.71-3.45-2.69-.09-5.48,.26-8.03,.84-6.14,1.4-12.05,4.04-13.96,10.58-1.97,6.78,3.17,12.91,8.68,16.07Z"/>
              <path class="cls-5" d="M738.33,260.33c2.5,1.43,5.34,2.13,8.27,2.33,1.63,.2,3.29,.29,4.95,.35,1.17,.04,2.5,.11,3.81,.02-1.52,.41-3.1,.69-4.7,.82,.08,.39,.17,.79,.3,1.17,.71,2.03,1.98,3.87,3.29,5.55,2.84,3.64,6.72,6.57,10.9,8.49,4.1,1.87,9.19,2.64,13.65,2.02,.97-.14,1.94-.38,2.89-.69-.7-1.91-1.1-3.93-1.07-6.06,0-.05,.01-.09,.02-.13,.08,2.38,1.47,4.77,2.66,6.72,.82,1.34,1.75,2.64,2.83,3.8,1.95,2.29,4.31,4.27,6.79,5.98,6.33,4.34,14.03,6.96,21.64,7.71,6.79,.66,13.85-.3,19.96-3.39,2.6-1.32,5.21-3.31,7.35-5.71,1.09-.94,2.03-2.03,2.77-3.27,1.49-2.51,1.87-5.28,2.31-8.07,.26,3.36-.71,6.67-2.38,9.66,8.55,4.62,18.96,5.65,28.28,2.79,5.39-1.65,9.75-4.67,11.8-10.1,.51-1.33,.78-2.76,.83-4.18,.51-2,.44-4.09-.61-6.07-1.32-2.49-3.44-3.74-5.76-4.86,2.3-.08,4.31,1.8,5.65,3.5,.48,.61,.88,1.27,1.21,1.96,1.03-.7,1.99-1.5,2.86-2.4,2.12-1.5,3.66-3.7,4.87-6,.84-1.61,1.48-3.28,2.01-5.02,.15-.49,.29-.97,.4-1.47-.15,3.07-.81,6.11-1.93,8.95,4.03,.64,8.15,.83,12.15,.06,6.22-1.19,11.29-6.27,10.99-12.82-.35-7.52-7.13-13.64-14.38-14.25-3.75-.31-7.46-.07-11.12,.78-.59,.14-1.15,.3-1.7,.51,1.07,1.12,2.02,2.35,2.82,3.65,.24,.56,.47,1.13,.68,1.7-1.47-2.56-3.59-4.6-6.03-6.17-4.53-4-10.9-6.13-16.73-6.18-3.93-.03-8.01,1.19-11.61,2.7,.23,1.69,.1,3.34-.3,4.92,.18-2.8-.51-5.66-2.04-7.99-.27-.59-.56-1.16-.86-1.69-2.84-5.07-7.31-9.29-12.53-11.84-5.74-2.8-12.2-2.81-18.17-.77-1.12,.38-2.2,.78-3.24,1.26,0,.01,.01,.03,.01,.05-.18,.07-.36,.14-.54,.21h0s-.07,.02-.09,.04c-.26,.11-.52,.22-.78,.35-1.06,.51-2.17,1.02-3.2,1.63,.87-1.04,2.01-1.85,3.14-2.58,.16-.1,.33-.2,.5-.3-.55-1.02-1.14-1.99-1.75-2.92-2.58-3.92-6.45-6.54-10.97-7.64-2.26-.56-4.57-.86-6.9-.66-2.26,.21-4.07,1.23-6,2.3-3.23,1.79-5.1,4.86-6.13,8.24-.2,.41-.37,.84-.5,1.3-.51,1.09-.84,2.26-1.1,3.45-.13-.09-.23-.24-.23-.4,.03-.58,.06-1.16,.11-1.73-1.11-.58-2.25-1.06-3.29-1.45-4.85-1.8-10.21-1.46-15.09-.02-4.51,1.33-9.03,4.11-11.39,8.28-1.01,1.77-1.66,3.65-1.96,5.57,2.36,.71,5.07,2.01,6.41,3.98-3.04-2.42-6.87-3.74-10.7-3.45-2.69-.09-5.49,.26-8.03,.84-6.14,1.39-12.05,4.03-13.95,10.57-1.97,6.78,3.16,12.91,8.68,16.06Z"/>
              <g>
                <path class="cls-8" d="M494.79,173.94c-2.72-11.57-13.5-16.32-24.14-18.18-5.71-1-11.91-.65-17.56,.63-.23-2.38-.74-4.74-1.48-7-2.62-7.99-9.73-13.08-17.27-15.99-7.57-2.92-15.76-3.45-23.61-1.39-3.14,.82-6.17,2.25-8.9,4.07-.82-6.23-3.08-12.17-8.46-16.09-6.89-5.02-14.41-5.91-22.54-3.71-7.56,2.05-13.43,6.44-17.84,12.89-1.13,1.65-2.19,3.47-3.13,5.39-3.58-1.99-7.72-3.36-11.62-4.33-9.86-2.45-19.6,.08-28.01,5.45-7.47,4.77-13.8,12.27-16.89,20.6-.46,1.23-.78,2.44-.99,3.64-.63-.29-1.25-.57-1.89-.83-6.08-2.47-12.36-4.03-18.94-3.81-9.05,.29-18.28,4.14-25.04,10.38-5.39-2.68-11.75-3.4-17.67-3.39-6.88,0-12.82,1.63-18.28,5.91-4.63,3.61-7.85,8.72-9.51,14.32-3.21,10.9,2.63,21.62,12.86,25.98,8.06,3.44,17.22,2.57,25.58,.23,.04,.08,.07,.16,.1,.24,2.21,4.79,5.82,8.62,10.14,11.32-.33,1.5-.52,3.04-.6,4.56-.52,9.53,5.16,18.52,13.47,22.85,9.54,4.97,20.52,6.1,31.09,5.18,8.06-.71,16.3-3.31,22.74-8.29,2.66,3.89,6.04,7.31,9.57,9.96,9.67,7.26,22.72,8.84,34.46,8.01,12.74-.91,25.57-5.65,35.8-13.3,5.63-4.21,10.86-9.6,13.89-15.94,.67,.34,1.36,.66,2.07,.96,7.6,3.18,16.5,2.17,24.13-.4,7.79-2.63,14.87-8.5,19.84-14.93,2.4-3.1,4.31-6.38,5.75-10.04,.43-1.1,.66-2.23,.77-3.37,5.93-.03,11.84-1.34,16.91-4.16,9.97-5.55,18.07-15.43,15.25-27.43Z"/>
                <path class="cls-4" d="M482.25,199.97c-3.83,2.2-8.19,3.27-12.68,3.58-2.5,.31-5.05,.45-7.59,.53-1.79,.06-3.84,.18-5.85,.04,2.34,.62,4.76,1.05,7.21,1.26-.12,.61-.26,1.21-.47,1.8-1.09,3.11-3.04,5.94-5.05,8.51-4.36,5.58-10.31,10.08-16.73,13.01-6.28,2.87-14.1,4.06-20.93,3.1-1.49-.21-2.98-.58-4.43-1.06,1.08-2.92,1.67-6.03,1.64-9.3,0-.08-.02-.14-.03-.2-.13,3.64-2.27,7.32-4.08,10.3-1.25,2.05-2.69,4.05-4.35,5.83-2.99,3.51-6.62,6.56-10.42,9.17-9.71,6.67-21.52,10.68-33.2,11.83-10.41,1.03-21.26-.44-30.62-5.21-3.99-2.03-8-5.08-11.28-8.75-1.65-1.44-3.11-3.11-4.24-5.02-2.28-3.85-2.86-8.09-3.54-12.38-.4,5.15,1.08,10.24,3.65,14.81-13.12,7.09-29.09,8.66-43.39,4.29-8.27-2.53-14.96-7.16-18.1-15.5-.77-2.05-1.19-4.23-1.27-6.41-.78-3.07-.68-6.28,.93-9.31,2.04-3.83,5.28-5.73,8.84-7.46-3.55-.14-6.62,2.77-8.68,5.37-.74,.94-1.34,1.95-1.85,3.01-1.58-1.07-3.05-2.29-4.39-3.67-3.24-2.3-5.61-5.68-7.46-9.21-1.29-2.47-2.28-5.04-3.1-7.7-.23-.75-.44-1.49-.61-2.25,.22,4.7,1.25,9.39,2.96,13.73-6.18,.98-12.5,1.27-18.64,.09-9.53-1.83-17.32-9.62-16.86-19.68,.54-11.54,10.95-20.93,22.07-21.85,5.75-.48,11.45-.11,17.06,1.19,.89,.21,1.76,.47,2.61,.77-1.64,1.72-3.09,3.6-4.33,5.61-.37,.86-.72,1.72-1.03,2.61,2.26-3.93,5.5-7.05,9.26-9.46,6.94-6.15,16.72-9.41,25.67-9.48,6.02-.04,12.28,1.82,17.82,4.15-.36,2.61-.16,5.13,.45,7.56-.28-4.3,.78-8.69,3.14-12.25,.41-.91,.85-1.78,1.31-2.59,4.36-7.78,11.22-14.25,19.22-18.17,8.8-4.3,18.71-4.31,27.88-1.18,1.72,.58,3.38,1.2,4.98,1.93-.01,.02-.02,.05-.03,.07,.28,.1,.56,.21,.84,.33h0s.09,.04,.14,.06c.4,.17,.8,.35,1.19,.54,1.63,.78,3.34,1.56,4.91,2.51-1.32-1.6-3.08-2.84-4.81-3.96-.24-.16-.5-.31-.76-.46,.84-1.55,1.75-3.05,2.68-4.47,3.96-6.01,9.9-10.03,16.82-11.73,3.48-.85,7.02-1.33,10.6-1,3.47,.31,6.24,1.88,9.21,3.53,4.95,2.75,7.82,7.46,9.4,12.65,.31,.62,.56,1.28,.76,1.98,.78,1.68,1.3,3.46,1.68,5.3,.2-.15,.35-.37,.35-.62-.03-.89-.08-1.77-.16-2.66,1.7-.88,3.46-1.62,5.04-2.21,7.44-2.76,15.66-2.24,23.15-.03,6.92,2.05,13.85,6.29,17.48,12.69,1.55,2.73,2.55,5.61,3.01,8.54-3.63,1.1-7.78,3.09-9.85,6.1,4.66-3.71,10.55-5.73,16.42-5.28,4.13-.13,8.41,.4,12.32,1.29,9.42,2.13,18.48,6.19,21.41,16.22,3.02,10.39-4.86,19.81-13.33,24.64Z"/>
                <path class="cls-13" d="M434.76,185.81c4.46,6.25,4.46,15.19,13.4,17.87-4.47,7.15-16.08,9.82-22.33,5.36-5.39-3.37-7.22-8.76-10.47-13.5,.42,14.33-6.68,29.91-19.9,34.05-24.11,8.93-54.48,9.82-74.13-7.15-4.22-4.22-4.37-10.88-3.2-17.51-4.64,6.45-7.15,14.21-5.73,21.98-8.04,.89-15.18,2.68-23.22,1.78-9.83-1.78-24.12-7.14-21.44-19.65,1.61-4.82,4.82-8.34,8.66-10.97-8.56,.98-17.82,3.01-22.06,10.08-8.47-6.77-13.71-16.76-12.72-28.43-4.86,5.38-8.29,12.88-6.04,20.39-12.68,2.67-25.85-4.63-27.61-15.57-.15,.85-.26,1.72-.3,2.6-.47,10.05,7.32,17.85,16.86,19.68,6.14,1.18,12.46,.89,18.64-.09-1.72-4.35-2.74-9.03-2.96-13.73,.17,.76,.38,1.5,.61,2.25,.82,2.67,1.8,5.23,3.1,7.7,1.85,3.53,4.22,6.91,7.46,9.21,1.34,1.38,2.81,2.6,4.39,3.67,.51-1.06,1.11-2.07,1.85-3.01,2.06-2.6,5.13-5.5,8.68-5.37-3.57,1.73-6.81,3.63-8.84,7.46-1.61,3.03-1.71,6.24-.93,9.31,.08,2.18,.5,4.37,1.27,6.41,3.13,8.34,9.83,12.97,18.1,15.5,14.3,4.37,30.27,2.79,43.39-4.29-2.57-4.58-4.06-9.67-3.65-14.81,.68,4.28,1.26,8.52,3.54,12.38,1.13,1.91,2.58,3.58,4.24,5.02,3.28,3.67,7.29,6.72,11.28,8.75,9.36,4.76,20.21,6.23,30.62,5.21,11.68-1.16,23.49-5.17,33.2-11.83,3.81-2.61,7.44-5.66,10.42-9.17,1.66-1.77,3.09-3.77,4.35-5.83,1.82-2.98,3.95-6.66,4.08-10.3,.02,.06,.03,.12,.03,.2,.04,3.27-.56,6.38-1.64,9.3,1.45,.49,2.94,.85,4.43,1.06,6.84,.95,14.65-.23,20.93-3.1,6.42-2.93,12.37-7.44,16.73-13.01,2.02-2.58,3.96-5.4,5.05-8.51,.21-.59,.35-1.19,.47-1.8-2.45-.21-4.88-.64-7.21-1.26,2.01,.14,4.06,.02,5.85-.04,2.54-.08,5.08-.22,7.59-.53,4.48-.31,8.84-1.38,12.68-3.58,6.58-3.75,12.79-10.27,13.83-17.87-14.03,18.24-44.84,21.93-61.32,3.71Z"/>
              </g>
              <g>
                <path class="cls-8" d="M1361.86,342.24c-3.5-.84-7.18-1.13-10.8-1.01,.11-.31,.23-.62,.35-.94,1.91-5.63,2.64-12.83,.73-18.51-1.97-5.84-4.89-11.55-8.9-16.23-7.53-8.81-18.91-13.68-30.2-15.24-5.96-.82-11.87-.38-17.77,.6-.06-4.52-.64-9.04-1.75-13.43-2.94-11.61-12.13-21.75-21.73-28.51-10.14-7.14-22.59-8.18-34.42-5.6-1.24,.28-2.48,.62-3.7,1.01-4.25-9.62-15.17-15.25-25.16-17.3-6.64-1.36-13.93-.88-20.42,.95-6.26,1.77-11.48,5.16-16.41,9.32-4.81,4.06-8.58,9.72-11.41,15.3-3.11,6.12-3.61,13.32-3.41,20.08,.17,5.56,2.06,10.45,4.89,15.02-1.4,.73-2.72,1.61-3.96,2.69-3.94,3.44-6.92,7.95-8.27,12.8-1.54-.67-3.11-1.25-4.75-1.74-6.16-1.81-12.4-2.29-18.8-1.92-6.17,.36-12.19,2.72-17.67,5.48-11.12,5.61-21.76,12.13-27.51,23.73-1.46,2.95-2.51,6.33-3.08,9.87-1.04-.3-2.09-.55-3.14-.76-8.05-1.62-16.13-.96-23.77,2.08-13.64,5.44-22.53,20.74-23.31,35.03-.89,16.53,11.12,31.08,26.65,35.14,7.9,2.07,16.81,1.11,24.45-1.57,4.87-1.7,9.72-3.79,14.04-6.64,2.27,3.06,4.95,5.86,8.09,8.38,9.78,7.85,22.41,11.37,34.72,12.39,5.95,.49,11.46-.12,17.19-1.69,2.85-.78,5.72-1.18,8.53-2.14,2.97-1,5.84-2.33,8.66-3.7,4.53-2.2,9.44-5.01,13.18-8.54,1.47,1.42,3.02,2.73,4.64,3.96,8.83,6.67,19.57,10.42,30.63,10.61,11.5,.2,22.83-2.48,33.29-7.19,7.52-3.38,14.08-8.62,19.74-14.64,9.31,6.98,20.52,11.38,31.99,13.57,8.94,1.71,17.58,2.52,26.66,1.8,8.76-.7,17.13-2.75,25.12-6.42,13.39-6.15,28-17.86,30.12-33.29,2.13-15.53-8.43-29.19-23.33-32.79Z"/>
                <path class="cls-4" d="M1378.04,382.68c-3.44,7.12-10.69,12.59-17.12,16.87-14.9,9.94-33.62,11.9-50.97,9.5-9.67-1.34-18.41-3.7-27.26-7.84-3.04-1.42-5.9-3.08-8.63-4.92,.75-.88,1.47-1.76,2.19-2.66-.94,.8-1.94,1.53-2.86,2.2-3.62,2.62-7.34,5.22-11.12,7.59-.45,.29-.9,.56-1.36,.84-2.75,1.92-5.62,3.67-8.65,5.15-4.63,2.27-9.71,3.77-14.71,5.02-5.31,1.33-10.75,2.42-16.22,2.65-4.64,.19-9.22-.29-13.68-1.28-6.38-.96-12.69-2.78-18.22-6.12-3.37-2.03-6.64-4.43-9.11-7.52-1.65-2.07-2.92-4.88-5.04-6.58,.53,1.21,1.11,2.41,1.79,3.59,1.18,2.05,2.6,3.92,4.18,5.66-3.99,3.02-8.92,5.13-13.42,7.14-10.13,4.52-21.38,7.31-32.49,6.42-11.53-.92-22.78-4.46-32.69-10.45-3.3-1.98-6.15-4.34-8.59-7,.01,0,.03-.02,.04-.03-2.89-2.86-5.4-6.13-7.35-9.68,1.23,3.15,2.74,6.11,4.59,8.88-3.97,1.98-8.29,3.46-12.27,4.73-7.32,2.31-15.41,2.98-22.93,1.25-14.51-3.34-24.18-16.15-25.06-30.82-.82-13.7,7.7-28.27,20.11-33.96,7.22-3.3,15.43-3.88,23.18-2.51,1.11,.19,2.18,.45,3.21,.75-.21,1.52-.32,3.06-.35,4.6,.12,1.63,.19,3.29,.61,4.88,.57,2.17,1.35,4.27,2.24,6.33-.88-6.04-.26-11.92,1.61-17.82,.33-1.03,.73-2.01,1.18-2.96,.52-1.45,1.13-2.88,1.83-4.31,5.12-10.41,15.04-15.96,24.68-21.38,10.25-5.76,22.12-7.65,33.66-5.45,2.1,.39,4.1,.97,6.04,1.67-.9,4.81-.16,9.83,2.83,14.39-1.86-6.25-1.59-13.32,1.65-18.75,1.64-3.39,4.05-6.54,7.09-9.38,.69-.65,1.47-1.22,2.32-1.74,.03,.05,.07,.11,.11,.16,.04-.02,.07-.04,.11-.07,.57-.33,1.16-.65,1.75-.95-.03-.05-.07-.11-.1-.16,3.37-1.6,7.33-2.47,10.67-3.15,2.61-.53,5.19-.88,7.86-.65,.59,.05,1.18,.14,1.76,.27,.17,0,.34,0,.51,0-1.88-.66-3.8-.97-5.83-.98-2.93-.01-5.8,.27-8.67,.66-2.53,.45-5.01,1.08-7.35,2.04-2.44-4.55-3.68-9.44-3.94-14.67-.31-6.27,.25-12.79,2.97-18.52,2.57-5.44,6.45-10.69,10.94-14.7,9.35-8.35,20.95-12.29,33.46-10.88,10.13,1.14,21.59,6.93,26.19,16.42-3.18,1.03-6.28,2.43-9.17,4.08-1.9,1.32-3.67,2.78-5.2,4.55,6.8-5.71,16.41-8.58,25.48-8.02,9.53-.37,18.82,2.17,26.7,7.92,8.71,6.35,17.06,14.96,20.65,25.27,1.07,3.08,1.73,6.22,2.06,9.39,.74,3.31,.73,6.89,.7,10.19-.01,.86-.04,1.72-.08,2.57,.44-2.72,.68-5.47,.71-8.24,.24-.03,.5-.06,.74-.09,5.56-.65,11.01-.52,16.52,.45,10.48,1.84,20.98,7.05,28.03,15.13,3.47,3.96,5.65,8.74,7.67,13.56,2.37,5.65,2.07,12.17,.49,18.03-.2,.74-.42,1.46-.67,2.18-.05,0-.1,0-.16,.01-2.77,.27-5.5,1.05-8.17,1.81-1.16,.33-2.13,.67-2.81,1.59,.07-.01,.14-.02,.22-.04,.07-.03,.16-.07,.27-.1,2.1-1.54,5.41-1.61,7.81-1.72,1.74-.08,3.48-.22,5.22-.09,0,0,0-.02,0-.02,3.45,.11,6.95,.83,10.21,1.87,7.93,2.51,14.59,8.33,17.93,15.97,3.07,6.99,2.75,15.14-.54,21.99Z"/>
                <path class="cls-12" d="M1206.67,268.82c-.11,1.95,.19,3.56,.76,5.02-.14-6.17,3.68-13.41,7.61-17.62,1.69-1.81,3.55-3.37,5.54-4.73,1.14-1.08,2.37-2.05,3.67-2.96,2.89-1.65,6-3.05,9.17-4.08-1.04-2.15-2.45-4.1-4.11-5.86-10.48,1.7-21.8,15.1-22.65,30.22Z"/>
                <path class="cls-12" d="M1163.79,286.8c2.34-.96,4.82-1.59,7.35-2.04,2.87-.39,5.74-.67,8.67-.66,1.64,0,3.22,.23,4.76,.66,5.28,.45,10.54,1.94,15.4,3.84,5.54,2.17,10.83,4.95,15.47,8.65-10-15.17-31.33-24.02-48.16-16.71-.5,.22-1.25,.2-1.5-.39-3.42-7.75-4.53-16.89-3.34-25.64-2.35,5.51-2.87,11.67-2.58,17.62,.25,5.23,1.49,10.12,3.94,14.67Z"/>
                <path class="cls-11" d="M1378.58,360.7c-3.34-7.63-10-13.45-17.93-15.97-3.26-1.03-6.75-1.76-10.21-1.87,0,0,0,.01,0,.02-1.74-.13-3.48,.01-5.22,.09-2.4,.11-5.71,.17-7.81,1.72-.11,.03-.2,.07-.27,.1-.08,.02-.15,.03-.22,.04,.67-.92,1.65-1.26,2.81-1.59,2.67-.76,5.4-1.53,8.17-1.81,.06,0,.11,0,.16-.01,.25-.72,.47-1.44,.67-2.18,1.58-5.86,1.88-12.39-.49-18.03-2.02-4.82-4.2-9.6-7.67-13.56-5.94-6.8-14.32-11.56-23.07-14,9.63,6.13,17.51,14.3,17.85,26.88,.23,8.75-1.61,19.68-6.48,28.14,1.77-.29,3.54-.55,5.32-.76,7.56-.88,15.62-2.09,22.95,.66,5.82,2.18,8.06,7.81,6.3,13.64-2.62,8.69-9.13,15.29-17.28,19.11-16.15,7.55-35.3,6.64-51.98,1.21-11.24-3.67-22.41-9.68-29.84-18.79-8.02,16.58-23.31,28.55-43.33,28.97-22.81,.48-48.53-13.77-55.96-36.05,.2,7.3,2.34,14.75,5.33,20.62,.28,.55,.13,1.16-.4,1.5-16.32,10.39-49.92,21.37-69.48,13.2-10.68-4.46-15.68-13.91-20.09-25.45-.9,8.04,.97,16.87,4.02,25.45,.26,.73-2.48,1.17-3.13,1.25-13.73,1.64-30.36,.16-40.49-10.47-5.35-5.62-7.76-12.41-8.17-19.5-1.22,3.91-1.79,7.99-1.55,12,.88,14.66,10.54,27.48,25.06,30.82,7.52,1.73,15.61,1.07,22.93-1.25,3.98-1.26,8.3-2.75,12.27-4.73-1.84-2.76-3.36-5.73-4.59-8.88,1.95,3.55,4.46,6.82,7.35,9.68,0,0-.02,.02-.04,.03,2.44,2.66,5.29,5.02,8.59,7,9.91,5.99,21.16,9.53,32.69,10.45,11.12,.89,22.36-1.9,32.49-6.42,4.5-2.01,9.43-4.12,13.42-7.14-1.58-1.74-3-3.61-4.18-5.66-.68-1.18-1.26-2.38-1.79-3.59,2.12,1.7,3.38,4.51,5.04,6.58,2.47,3.09,5.74,5.49,9.11,7.52,5.52,3.34,11.84,5.16,18.22,6.12,4.46,1,9.03,1.47,13.68,1.28,5.47-.23,10.91-1.32,16.22-2.65,4.99-1.25,10.07-2.75,14.71-5.02,3.04-1.49,5.91-3.23,8.65-5.15,.46-.27,.9-.55,1.36-.84,3.78-2.37,7.5-4.97,11.12-7.59,.92-.66,1.92-1.39,2.86-2.2-.72,.89-1.44,1.78-2.19,2.66,2.73,1.83,5.59,3.5,8.63,4.92,8.85,4.14,17.59,6.5,27.26,7.84,17.35,2.4,36.07,.44,50.97-9.5,6.43-4.28,13.69-9.75,17.12-16.87,3.3-6.84,3.61-14.99,.54-21.99Z"/>
                <path class="cls-4" d="M1162.97,289.62c-.09,.06-.17,.12-.26,.18,.1-.04,.2-.07,.31-.11-.02-.02-.03-.05-.05-.07Z"/>
              </g>
            </g>
          </g>
        </g>
      </g>
    </g>
  </g>
</svg>