<?xml version="1.0" encoding="UTF-8"?>
<svg id="Layer_2" data-name="Layer 2" xmlns="http://www.w3.org/2000/svg" viewBox="0 0 294.35 483.01">
  <defs>
    <style>
      .cls-1 {
        fill: #f15a24;
      }

      .cls-2 {
        fill: #fff;
      }

      .cls-3 {
        fill: #f39007;
      }

      .cls-4 {
        fill: #ee9d2f;
      }

      .cls-5 {
        fill: #ffce43;
      }

      .cls-6 {
        fill: #333;
      }

      .cls-7 {
        fill: #db4a1d;
      }

      .cls-8 {
        fill: #111;
      }
    </style>
  </defs>
  <g id="_ÎÓÈ_1" data-name="—ÎÓÈ_1">
    <g>
      <path class="cls-1" d="M216.01,437.37c5.94,4.91,10.57,11.37,13.32,18.57,1.12,2.94,1.91,6.33,.54,9.16-1.4,2.9-5.11,4.46-8.16,3.42-2.42-.83-4.52-3.06-7.05-2.7-1.71,.24-3.04,1.64-3.93,3.12-.89,1.48-1.52,3.14-2.63,4.47-1.88,2.25-5.16,3.27-7.94,2.33-3.05-1.03-5.52-4.16-8.71-3.74-2.11,.28-3.65,2.05-5.02,3.67-1.45,1.72-3.12,3.5-5.34,3.89-2.78,.48-5.5-1.5-6.9-3.95-1.4-2.45-1.82-5.32-2.46-8.07-1.55-6.67-4.55-13-8.73-18.43l53.02-11.74Z"/>
      <path class="cls-1" d="M72.85,437.37c-5.94,4.91-10.57,11.37-13.32,18.57-1.12,2.94-1.91,6.33-.54,9.16,1.4,2.9,5.11,4.46,8.16,3.42,2.42-.83,4.52-3.06,7.05-2.7,1.71,.24,3.04,1.64,3.93,3.12s1.52,3.14,2.63,4.47c1.88,2.25,5.16,3.27,7.94,2.33,3.05-1.03,5.52-4.16,8.71-3.74,2.11,.28,3.65,2.05,5.02,3.67,1.45,1.72,3.12,3.5,5.34,3.89,2.78,.48,5.5-1.5,6.9-3.95,1.4-2.45,1.82-5.32,2.46-8.07,1.55-6.67,4.55-13,8.73-18.43l-53.02-11.74Z"/>
      <path class="cls-8" d="M108.65,483.01c-3.78,0-6.44-2.38-8.79-5.16-2.72-3.21-2.91-3.07-6.02-1.06-1.17,.76-2.5,1.62-4.06,2.15-4.04,1.37-8.82-.02-11.61-3.36-1.41-1.69-2.1-3.51-2.93-4.89-.6-.99-1.2-1.48-1.51-1.53-.89-.11-3.12,1.74-5.5,2.55-4.65,1.57-10.15-.73-12.29-5.14-2.28-4.73-.24-10.08,.43-11.84,2.96-7.76,7.91-14.67,14.32-19.97,1.44-1.19,3.56-.99,4.75,.45,1.19,1.44,.99,3.56-.45,4.75-5.51,4.56-9.77,10.49-12.32,17.17-1.13,2.95-1.34,5.08-.66,6.5,.66,1.38,2.58,2.18,4.03,1.69,1.93-.66,4.68-3.38,8.61-2.85,2.51,.35,4.7,1.98,6.35,4.72,.74,1.24,1.58,3.15,2.33,4.05,1.02,1.22,2.85,1.77,4.27,1.29,2.46-.83,5.55-4.51,10.23-3.89,5.64,.74,7.74,7.1,10.5,7.58,1.06,.2,2.55-.82,3.39-2.3,1.11-1.94,1.49-4.53,2.11-7.16,1.66-7.11,4.89-13.93,9.35-19.72,1.14-1.48,3.26-1.75,4.73-.61,1.48,1.14,1.75,3.26,.61,4.73-3.87,5.03-6.68,10.95-8.12,17.13-.68,2.93-1.14,6.04-2.82,8.98-1.71,2.99-5.04,5.72-8.96,5.72Z"/>
      <path class="cls-8" d="M180.22,483.01c-3.92,0-7.25-2.73-8.96-5.72-1.4-2.44-1.98-5.12-2.49-7.48-1.49-6.86-4.04-12.91-8.46-18.63-1.14-1.48-.86-3.59,.61-4.73,1.48-1.14,3.59-.86,4.73,.61,9.64,12.51,9.15,22.85,11.45,26.88,.84,1.48,2.34,2.48,3.39,2.3,2.76-.48,4.84-6.83,10.5-7.58,4.62-.6,7.85,3.09,10.23,3.89,1.42,.48,3.25-.08,4.27-1.29,1.53-1.84,3.11-7.99,8.69-8.77,3.91-.54,6.67,2.19,8.61,2.85,1.45,.49,3.37-.31,4.03-1.69,.68-1.42,.47-3.54-.66-6.5-2.55-6.68-6.81-12.62-12.32-17.17-1.44-1.19-1.64-3.31-.45-4.75,1.19-1.44,3.31-1.64,4.75-.45,6.41,5.3,11.36,12.2,14.32,19.97,.67,1.76,2.71,7.1,.43,11.83-2.13,4.42-7.65,6.72-12.28,5.15-2.37-.81-4.64-2.69-5.5-2.55-.87,.12-1.94,2.29-2.28,2.95-.56,1.09-1.2,2.32-2.15,3.46-2.79,3.35-7.57,4.73-11.61,3.37-3.18-1.08-5.75-3.78-7.19-3.59-2.36,.31-4.89,7.66-11.67,7.66Z"/>
      <path class="cls-5" d="M195.49,239.89l-50.39,8.38-52.64-8.38S15.21,325.1,40.39,393.27c23.51,63.66,95.32,63.41,104.71,63.1,9.39,.31,81.2,.56,104.71-63.1,25.18-68.17-54.32-153.38-54.32-153.38Z"/>
      <path class="cls-4" d="M247.46,324.29c-.13,9.24-1.62,18.42-4.9,27.31-23.51,63.66-95.32,63.41-104.71,63.1-9.19,.3-78.13,.51-103.11-59.16-.65,11.8,.7,23.59,4.88,34.92,23.51,63.66,95.32,63.41,104.71,63.1,9.39,.31,81.2,.56,104.71-63.1,7.92-21.43,5.48-44.55-1.57-66.18Z"/>
      <path class="cls-8" d="M147.65,459.79c-1.18,0-2.08-.02-2.66-.04-8.23,.3-83.33,.83-107.76-65.31-25.59-69.29,49.52-153.28,52.73-156.82l1.23-1.35,53.9,8.58,51.64-8.58,1.23,1.32c3.3,3.54,80.62,87.53,55.02,156.86-22.74,61.58-89.39,65.35-105.32,65.35Zm-2.66-6.78c8.2,.25,78.87,.8,101.66-60.9,22.49-60.89-42.67-137.58-52.42-148.59l-49.11,8.16-51.34-8.17c-9.56,11.1-72.69,87.72-50.21,148.59,22.79,61.7,93.45,61.15,101.43,60.9Z"/>
      <g>
        <path class="cls-5" d="M284.26,297.7c-6.06-4.69-11.39-7.13-9.4-16.18,1.99-9.04,5.52-25.26-5.19-28.39-10.71-3.13-16.92,9.09-16.99,21.35-.06,9.96,5.36,17.83,.28,19.7-5.09,1.87-22.58-6.81-30.31,3.88-5.4,7.46,.22,20.47,6.76,23.03,0,0-13.29,3.65-13.88,13.71-.86,14.56,16.74,19.26,16.74,19.26,0,0-11.44,6.52-3.19,19.91,7.59,12.31,21.53,20.16,34.38,17.84,12.28-2.22,20.89-35.05,24.07-51.2,3.16-16.07,7.06-34.92-3.26-42.91Z"/>
        <path class="cls-4" d="M227.56,363.44s42.61,35.35,59.96-22.83c0,0-4.7,50.5-26.04,51.61-29.53,1.53-33.93-28.78-33.93-28.78Z"/>
        <g>
          <path class="cls-8" d="M258.97,395.58c-12.32,0-25.24-7.63-32.76-19.84-3.19-5.17-4.2-10.13-3.02-14.76,.64-2.5,1.84-4.51,3.1-6.05-7.12-4.11-15.33-12.11-13.32-23.5,1.08-6.14,5.2-9.78,9.33-11.76-1.84-2.26-3.35-5.1-4.26-8.22-1.69-5.77-1-11.37,1.89-15.37,6.46-8.93,17.94-6.99,25.54-5.71,2.27,.38,5.37,.91,6.3,.65,.14-.92-.43-3.37-.85-5.19-.72-3.14-1.62-7.04-1.6-11.37,.06-9.77,3.52-18.39,9.04-22.5,3.57-2.66,7.81-3.37,12.27-2.07,13.77,4.03,9.56,23.16,7.54,32.35-1.27,5.78,.97,7.44,5.9,11.08,.74,.55,1.5,1.11,2.28,1.71h0c11.81,9.14,8.01,28.46,4.65,45.5l-.14,.72c-3.01,15.28-11.64,51.12-26.78,53.87-1.67,.3-3.38,.45-5.09,.45Zm-23.77-99.58c-3.93,0-7.56,.91-9.82,4.04-1.66,2.3-1.98,5.76-.88,9.52,1.15,3.92,3.73,7.45,6.13,8.39l13.37,5.24-14.31,1.26c-.34,.03-8.82,.94-10.09,8.15-2.14,12.13,13.19,18.05,13.84,18.3l6.72,2.53-6.23,3.56s-3.31,2-4.23,5.73c-.68,2.77,.07,5.96,2.24,9.48,7.15,11.59,19.86,18.3,30.9,16.29,7.21-1.3,15.99-21.26,21.36-48.53l.14-.73c2.98-15.13,6.36-32.27-2.16-38.86-.73-.57-1.46-1.1-2.16-1.62-5.26-3.88-10.69-7.9-8.48-17.95,2.53-11.51,3.94-22.44-2.84-24.42-2.42-.71-4.49-.37-6.35,1.01-3.74,2.78-6.28,9.67-6.32,17.13-.02,3.54,.75,6.87,1.42,9.81,1.12,4.85,2.51,10.88-3.36,13.03-2.49,.91-5.71,.37-9.79-.32-2.9-.49-6.1-1.03-9.13-1.03Z"/>
          <path class="cls-8" d="M254.88,331.76c-.65,0-1.31-.19-1.89-.58-5.91-3.99-19.3-6.22-23.97-6.74-1.85-.21-3.19-1.87-2.98-3.73,.21-1.85,1.89-3.18,3.73-2.98,.75,.08,18.5,2.11,27,7.85,1.54,1.04,1.95,3.14,.91,4.69-.65,.96-1.72,1.48-2.8,1.48Z"/>
          <path class="cls-8" d="M249.5,363.06c-.6,0-1.21-.16-1.76-.5-6.84-4.18-19.05-6.73-19.17-6.76-1.82-.38-3-2.16-2.62-3.99,.37-1.82,2.15-3,3.98-2.62,.55,.11,13.48,2.81,21.33,7.61,1.59,.97,2.09,3.05,1.12,4.64-.64,1.04-1.75,1.61-2.88,1.61Z"/>
        </g>
      </g>
      <g>
        <path class="cls-5" d="M44.8,271.35c-16.67,6.64-35.37,31.34-40.15,68.66-5.58,43.6,10.88,57.52,12.23,58.58,.65,6.61,2.15,12.49,4.8,17.24,8.51,15.28,17.14,12.47,17.14,12.47,8.29,15.36,21.07,3.71,21.07,3.71-7.32-30.69-9.37-63.33-1.63-85.19,10.54-29.75,63.41-106.08-13.47-75.47Z"/>
        <path class="cls-8" d="M49.72,439.61c-.74,0-1.5-.06-2.27-.19-4.73-.8-8.63-4.01-11.61-9.52-9.77-18.11-4.7-68.6-4.48-70.74,.19-1.85,1.85-3.19,3.7-3.01,1.85,.19,3.2,1.85,3.01,3.7-.05,.5-5.08,50.56,3.71,66.85,1.94,3.59,4.23,5.64,6.8,6.07,2.9,.5,5.81-1,7.51-2.12-6.77-28.51-14.28-64.13,11.59-122.35,.76-1.7,2.75-2.47,4.45-1.71,1.7,.76,2.47,2.75,1.71,4.45-25.6,57.6-17.33,92.31-10.69,120.19l.46,1.94-1.47,1.34c-.25,.23-5.7,5.11-12.44,5.11Z"/>
        <path class="cls-8" d="M37.17,431.85c-3.92,0-11.48-1.88-18.44-14.38-9.88-17.75-11.25-37.82-4.44-65.06,.45-1.81,2.28-2.91,4.09-2.45,1.81,.45,2.91,2.28,2.45,4.09-6.36,25.45-5.19,44,3.79,60.14,6.86,12.32,12.99,10.94,13.25,10.87,1.77-.57,3.62,.41,4.2,2.18,.58,1.77-.44,3.69-2.21,4.27-.13,.04-1.12,.34-2.69,.34Z"/>
        <path class="cls-8" d="M14.54,398.93c-.61,0-1.23-.17-1.79-.53-.72-.46-17.47-11.79-11.45-58.82,5.07-39.59,36.22-82.13,72.86-79.94,1.86,.11,3.28,1.71,3.16,3.57-.11,1.86-1.73,3.28-3.57,3.16-31.95-1.88-61.08,37.5-65.76,74.06-5.39,42.12,8.32,52.22,8.45,52.32,1.51,1.05,1.92,3.14,.9,4.66-.65,.98-1.72,1.51-2.8,1.51Z"/>
      </g>
      <g>
        <path class="cls-5" d="M278.7,197.06c2.99-8.99-1.41-18.57-10.18-22.95-58.98-29.46-20.24-106.76-124.56-106.76v-.03c-.16,0-.3,.01-.46,.01-.16,0-.3-.01-.46-.01v.03c-101.35,0-65.37,76.97-124.13,106.56-8.91,4.49-13.33,14.27-10.08,23.35,10.4,29.03,52.46,83.81,134.22,83.81v.02c.16,0,.3-.01,.46-.01,.16,0,.3,.01,.46,.01v-.02c83.8,0,125.11-55.04,134.74-84.02Z"/>
        <path class="cls-5" d="M278.7,197.06c2.99-8.99-1.41-18.57-10.18-22.95-58.98-29.46-20.24-106.76-124.56-106.76v-.03c-.16,0-.3,.01-.46,.01-.16,0-.3-.01-.46-.01v.03c-101.35,0-65.37,76.97-124.13,106.56-8.91,4.49-13.33,14.27-10.08,23.35,10.4,29.03,52.46,83.81,134.22,83.81v.02c.16,0,.3-.01,.46-.01,.16,0,.3,.01,.46,.01v-.02c83.8,0,125.11-55.04,134.74-84.02Z"/>
        <path class="cls-4" d="M143.96,261.03v.02c-.16,0-.3-.01-.46-.01-.16,0-.3,.01-.46,.01v-.02c-78.36,0-120.24-52.84-132.74-84.07-2.66,4.8-3.37,10.57-1.48,16.1,10.4,30.49,52.46,88.02,134.22,88.02v.02c.16,0,.3-.01,.46-.01,.16,0,.3,.01,.46,.01v-.02c83.8,0,125.11-57.8,134.74-88.23,1.71-5.4,.99-10.99-1.56-15.66-11.99,31.26-53.25,83.84-133.18,83.84Z"/>
        <path class="cls-8" d="M88.85,275.37c-.38,0-.76-.06-1.14-.2C38.26,257.38,12.86,218.54,5.65,198.4c-3.79-10.6,1.14-22.17,11.74-27.51,22.59-11.38,30.31-29.68,38.5-49.06,11.79-27.93,23.98-56.8,83.78-57.84v-.03l3.37-.03h.37s3.92,0,3.92,0v.05c61.73,1.02,73.52,30.12,84.93,58.28,7.82,19.3,15.21,37.54,37.76,48.8,10.37,5.18,15.36,16.55,11.87,27.04-6.63,19.95-31.03,58.53-80.43,76.6-1.75,.63-3.69-.26-4.33-2.01-.64-1.75,.26-3.69,2.01-4.33,46.99-17.19,70.1-53.59,76.35-72.39,2.42-7.27-1.15-15.21-8.49-18.87-24.84-12.4-33.05-32.69-41-52.31-11.27-27.82-21.91-54.1-82.05-54.1h-.91c-58.25,0-69.27,26.11-80.94,53.75-8.3,19.65-16.87,39.97-41.68,52.46-7.51,3.78-11.05,11.86-8.42,19.2,6.81,19.03,30.91,55.75,77.99,72.69,1.75,.63,2.66,2.56,2.03,4.32-.5,1.38-1.79,2.23-3.18,2.23Zm54.19-208.05h0Z"/>
        <path class="cls-5" d="M127.66,75.41c-12.26-7.81-17.61-24.88-12-38.29,3.35,6.64,8.18,8.54,14.67,12.17-6.06-14.45-1.27-32.69,11.11-42.29-.13,6.7,3.95,13.53,8.01,18.85,2.87,3.76,6.59,6.79,9.5,10.52,8.2,10.5,8.65,26.37,1.05,37.32l-32.33,1.73Z"/>
        <path class="cls-8" d="M127.65,78.78c-.62,0-1.25-.17-1.81-.53-13.75-8.76-19.6-27.4-13.3-42.44l2.83-6.76,3.3,6.54c1.6,3.17,3.58,5.04,6.18,6.72-2.29-14,3.22-29.23,14.51-37.99l5.57-4.33-.13,7.06c-.09,4.63,2.38,10.26,7.32,16.74,2.61,3.42,6.5,6.68,9.48,10.49,9.16,11.72,9.65,29.1,1.16,41.32-1.06,1.53-3.16,1.91-4.7,.85-1.53-1.06-1.91-3.16-.85-4.7,6.73-9.69,6.33-24.02-.94-33.31-2.79-3.58-6.48-6.56-9.52-10.55-3.84-5.03-6.39-9.66-7.69-14-7.86,9.18-10.35,22.86-5.64,34.09l3.78,9.02c-14.74-8.23-16.96-9.12-20.16-12.25-1.45,10.55,3.39,22.07,12.42,27.82,2.84,1.81,1.55,6.22-1.82,6.22Z"/>
        <g>
          <g>
            <path class="cls-3" d="M75.99,121.05c-3.93-7.4,19.25-17.91,23.07-10.71,3.82,7.2-19.25,17.91-23.07,10.71Z"/>
            <path class="cls-8" d="M81.22,126.82c-3.57,0-6.62-1.2-8.21-4.19h0c-2.55-4.8,.8-10.55,8.53-14.65,7.79-4.14,17.33-5.19,20.5,.78,2.52,4.75-.88,10.49-8.67,14.62-3.88,2.06-8.32,3.45-12.15,3.45Zm-2.25-7.36c.5,.93,5.25,1.12,11.24-2.05,4.79-2.54,6.11-5.05,5.87-5.5-.51-.96-5.33-1.19-11.37,2.02-4.38,2.32-6.08,4.87-5.74,5.53h0Z"/>
          </g>
          <g>
            <path class="cls-3" d="M208.15,121.05c3.93-7.4-19.25-17.91-23.07-10.71-3.82,7.2,19.25,17.91,23.07,10.71Z"/>
            <path class="cls-8" d="M202.91,126.81c-7.17,0-16.84-4.87-20.22-10.27-1.65-2.63-1.86-5.4-.59-7.79,.79-1.49,2.85-4.02,7.75-4.19,7.22-.27,17.27,4.68,20.7,10.16,1.67,2.66,1.87,5.47,.58,7.91-.79,1.48-2.83,3.99-7.68,4.17-.18,0-.36,0-.54,0Zm-12.5-15.51c-.11,0-.21,0-.32,0-1.2,.04-1.89,.34-2.04,.61-.14,.26,.3,.97,.35,1.04,2.18,3.48,10.04,7.29,14.8,7.1,1-.04,1.79-.27,1.96-.59h0c.15-.28-.1-.79-.34-1.17-2.1-3.36-9.66-7-14.42-7Z"/>
          </g>
        </g>
        <path class="cls-7" d="M192.91,217.41l-48.58-4.77-48.58,4.77s5.13,29.86,48.58,29.86,48.58-29.86,48.58-29.86Z"/>
        <path class="cls-8" d="M144.33,250.64c-45.77,0-51.85-32.34-51.91-32.67l-.61-3.58,52.52-5.15,52.73,5.17-.85,3.74c-.07,.33-7.93,32.49-51.87,32.49Zm-44.19-30.28c2.86,7.36,12.72,23.53,44.19,23.53,29.86,0,40.58-16.11,43.94-23.55l-43.94-4.31-44.19,4.33Z"/>
        <path class="cls-1" d="M212.07,222.17c1.22-6.26-11.62-15.67-28.07-21.05-17.38-5.69-19.04-26.08-40.48-26.08s-23.1,20.4-40.48,26.08c-16.45,5.38-26.72,14.89-28.37,21.05-2.26,8.42,26.84,2.16,69.93,2.16s65.83,6.26,67.48-2.16Z"/>
        <path class="cls-8" d="M84.51,229.76c-6.11,0-9.64-.77-11.55-3.09-.69-.84-1.74-2.66-1.01-5.38,1.92-7.16,12.14-17.53,30.04-23.39,6.63-2.17,10.74-6.84,15.09-11.79,5.96-6.78,12.73-14.46,26.44-14.46s20.47,7.68,26.44,14.46c4.35,4.95,8.46,9.62,15.09,11.79,16.69,5.46,32.66,15.77,30.87,24.91-1.61,8.22-12.21,7.48-33.33,6.02-10.81-.75-24.27-1.68-40.16-1.68s-29.68,.94-40.62,1.7c-7.31,.51-12.96,.9-17.31,.9Zm-5.88-7.23c2.97,.97,13,.28,22.72-.4,11.04-.77,24.79-1.72,41.08-1.72s29.71,.94,40.62,1.69c10.88,.75,25.78,1.78,26.24-.59h0c.56-2.84-9.02-11.53-26.35-17.2-8.38-2.74-13.52-8.59-18.06-13.74-5.75-6.53-10.71-12.17-21.37-12.17s-15.62,5.64-21.37,12.17c-4.54,5.16-9.68,11-18.06,13.74-15.03,4.92-23.74,13.39-25.46,18.21Z"/>
        <path class="cls-6" d="M120.02,204.56c-3.49-2.62,5.24-12.22,7.86-8.73,2.62,3.49-4.36,11.35-7.86,8.73Z"/>
        <path class="cls-6" d="M164.3,204.56c3.49-2.62-5.24-12.22-7.86-8.73s4.36,11.35,7.86,8.73Z"/>
        <g>
          <g>
            <circle class="cls-8" cx="84.95" cy="164.82" r="19.65" transform="translate(-90.45 224.98) rotate(-81.66)"/>
            <g>
              <path class="cls-2" d="M73.86,156.49c-.67-1.99,1.67-4.58,5.24-5.78,3.56-1.2,6.99-.55,7.66,1.44,.67,1.99-1.67,4.58-5.24,5.78-3.56,1.2-6.99,.55-7.66-1.44Z"/>
              <path class="cls-2" d="M90.02,174.37c-.47-1.4,.84-3.1,2.93-3.8,2.09-.7,4.16-.14,4.63,1.26,.47,1.4-.84,3.1-2.93,3.8-2.09,.7-4.16,.14-4.63-1.26Z"/>
            </g>
          </g>
          <g>
            <path class="cls-8" d="M179.29,165.37c.06-10.85,8.91-19.6,19.76-19.53,10.85,.06,19.6,8.91,19.53,19.76-.06,10.85-8.91,19.6-19.76,19.53-10.85-.06-19.6-8.91-19.53-19.76Z"/>
            <g>
              <path class="cls-2" d="M187.85,157.16c-.67-1.99,1.67-4.58,5.24-5.78,3.56-1.2,6.99-.55,7.66,1.44,.67,1.99-1.67,4.58-5.24,5.78s-6.99,.55-7.66-1.44Z"/>
              <path class="cls-2" d="M204.01,175.03c-.47-1.4,.84-3.1,2.93-3.8,2.09-.7,4.16-.14,4.63,1.26,.47,1.4-.84,3.1-2.93,3.8-2.09,.7-4.16,.14-4.63-1.26Z"/>
            </g>
          </g>
        </g>
        <g>
          <path class="cls-6" d="M34.62,138.14l94.29-.44s-.91,51.9-47.8,52.12c-44.4,.21-46.49-51.68-46.49-51.68Z"/>
          <path class="cls-2" d="M58.84,184.27c3.46,2.01,7.4,3.58,11.91,4.53l39.93-51.01-16.08,.08-35.76,46.41Z"/>
          <path class="cls-2" d="M77.14,137.94l-28.82,37.4c1.4,1.67,2.93,3.26,4.62,4.73l33.01-42.18-8.82,.04Z"/>
          <path class="cls-6" d="M157.73,137.57l94.29-.44s-.91,51.9-47.8,52.12c-44.4,.21-46.49-51.68-46.49-51.68Z"/>
          <path class="cls-2" d="M181.95,183.7c3.46,2.01,7.4,3.58,11.91,4.53l39.93-51.01-16.08,.08-35.76,46.41Z"/>
          <path class="cls-2" d="M200.25,137.37l-28.82,37.4c1.4,1.67,2.93,3.26,4.62,4.73l33.01-42.18-8.82,.04Z"/>
          <path class="cls-8" d="M80.84,193.2c-46.85,0-49.57-54.37-49.6-54.92l-.14-3.49,101.24-.47-.06,3.45c0,.55-1.54,55.21-51.16,55.44-.09,0-.19,0-.28,0Zm-42.55-51.7c1.32,11.2,8.17,44.95,42.55,44.95,.08,0,.16,0,.25,0,36.7-.17,43.1-34.18,44.21-45.36l-87.01,.41Z"/>
          <path class="cls-8" d="M203.95,192.63c-46.85,0-49.57-54.37-49.6-54.92l-.14-3.49,101.24-.47-.06,3.45c0,.55-1.54,55.21-51.16,55.44-.09,0-.19,0-.28,0Zm-42.55-51.7c1.32,11.2,8.17,44.95,42.55,44.95,.08,0,.16,0,.25,0,36.7-.17,43.1-34.18,44.21-45.36l-87.01,.41Z"/>
          <path class="cls-8" d="M128.92,141.08c-.25,0-.51-.03-.76-.09-1.82-.42-2.95-2.23-2.53-4.05,1.21-5.24,6.57-15.08,18.19-15.08,.09,0,.17,0,.26,0,11.98,.15,16.36,10.07,17.01,15.29,.23,1.85-1.09,3.53-2.93,3.76-1.84,.23-3.54-1.09-3.76-2.93-.13-.93-1.52-9.27-10.39-9.37-.06,0-.11,0-.17,0-9.23,0-11.52,9.45-11.62,9.86-.36,1.56-1.75,2.61-3.28,2.61Z"/>
        </g>
      </g>
    </g>
  </g>
</svg>