<svg width="325" height="332" viewBox="0 0 325 332" fill="none" xmlns="http://www.w3.org/2000/svg">
<g filter="url(#filter0_d_257_526)">
<path d="M283.517 130.519C281.777 127.642 279.434 128.849 277.277 131.122C277.463 130.38 277.672 129.684 277.88 129.011C278.924 125.392 280.223 120.985 279.063 117.227C277.973 113.863 274.262 114.884 272.011 115.998C268.369 117.784 265.099 120.823 261.967 124.024C261.897 121.147 259.647 119.593 256.539 120.103C254.474 120.428 252.503 121.89 250.786 122.91C247.121 125.16 243.688 127.758 240.115 130.148C232.553 135.251 224.341 139.496 216.06 142.999C207.848 146.455 199.335 148.636 190.473 148.821C182.726 148.891 174.839 147.499 167.207 145.922C160.108 144.46 153.08 142.349 146.352 139.473C139.788 136.666 134.499 132.398 128.792 128.292C130.045 121.611 130.787 114.791 130.462 107.994C130.045 98.7852 125.8 90.5734 120.047 83.7535C110.095 71.9461 93.9268 63.5951 78.7327 66.6572C78.1992 65.5205 77.7352 64.407 77.6424 62.9224C77.4569 60.1388 78.176 57.7262 79.939 55.5689C80.1245 55.2905 79.8462 54.8266 79.5214 54.9658C79.0575 55.1746 78.6631 55.4297 78.2688 55.7545C75.4619 56.6824 72.7478 60.046 71.8895 63.4559C71.4256 62.2497 71.008 60.9507 70.8921 59.5356C70.6137 56.1024 71.2864 52.7621 73.9309 50.4655C74.0701 50.3032 74.0469 49.8624 73.7221 49.932C73.6757 49.932 73.6757 49.9552 73.6757 49.9552C73.5829 49.8856 73.5365 49.816 73.4206 49.816C65.4639 49.2129 60.8941 58.4918 61.4276 66.518C58.76 63.3864 57.8321 59.4892 58.5976 54.7106C58.6904 54.5018 58.7368 54.2467 58.7832 54.0379C58.8759 53.8523 58.8759 53.7131 58.8063 53.574C58.8527 53.458 58.8527 53.3188 58.8759 53.2028C58.9455 52.878 58.5512 52.6693 58.3424 52.9244C58.2728 53.0404 58.2032 53.11 58.1568 53.2028C58.0176 53.2492 57.9017 53.2492 57.8321 53.3884C53.703 57.819 52.4039 63.2704 53.7958 69.232C54.1669 70.763 54.9556 72.41 55.9995 73.8715C50.177 77.3742 45.5144 82.7096 41.942 89.1584C36.9778 98.0893 33.7766 111.567 38.5088 121.263C40.063 136.109 49.945 149.935 62.3323 156.964C68.8043 160.675 76.4594 162.276 83.9289 162.183C81.8875 174.965 81.5396 188.233 84.3232 200.876C87.4316 215.073 94.4604 227.993 103.6 238.989C128.908 269.47 174.027 273.529 209.333 264.32C232.251 258.289 250.763 243.628 263.428 223.006C276.72 201.409 282.241 176.426 283.633 151.118C283.981 144.901 286.95 136.133 283.564 130.473L283.517 130.519Z" fill="#FFC765"/>
<g style="mix-blend-mode:multiply">
<path d="M55.9752 73.9178C55.3257 74.3122 54.7458 74.7297 54.1195 75.1241C55.7201 74.3818 57.4135 73.7554 59.1996 73.3379C56.0216 67.3066 53.6323 60.4171 56.8103 54.641C53.4931 58.8165 52.5189 63.8503 53.7715 69.2784C54.1427 70.8094 54.9314 72.4564 55.9752 73.9178Z" fill="#FFC765"/>
</g>
<g style="mix-blend-mode:multiply">
<path d="M63.9789 72.8508C65.1388 71.9229 66.3914 71.2038 67.7601 70.6703C64.5125 62.992 65.7419 55.6153 70.9149 50.0016C65.4403 51.1151 62.0304 57.2159 61.4736 63.4327C61.6128 66.7499 62.4247 69.9279 63.9789 72.8508Z" fill="#FFC765"/>
</g>
<g style="mix-blend-mode:multiply">
<path d="M283.517 130.519C281.777 127.642 279.434 128.849 277.277 131.122C277.462 130.38 277.671 129.684 277.88 129.011C278.924 125.392 280.223 120.985 279.063 117.227C277.973 113.863 274.261 114.884 272.011 115.998C268.369 117.784 265.098 120.823 261.967 124.024C261.897 121.356 259.902 119.848 257.142 120.08C257.327 120.567 257.397 121.217 257.327 122.122C257.049 124.72 254.938 127.341 253.407 129.289C251.574 131.632 249.626 133.859 247.701 136.063C254.613 132.63 260.993 127.828 266.397 122.214C267.836 120.753 272.614 115.046 275.143 117.552C278.367 120.73 275.931 127.828 274.284 131.192C272.29 135.321 269.715 139.148 266.838 142.605C270.271 140.378 273.473 137.988 276.558 135.042C278.228 133.372 279.805 132.166 281.754 133.906C286.463 138.035 281.94 151.42 280.896 156.43C278.506 167.82 275.978 179.488 271.315 190.205C269.065 195.425 265.539 203.544 259.809 205.515C259.276 205.724 258.65 205.191 258.673 204.587C258.696 202.732 259.021 200.922 259.16 199.043C259.415 196.468 259.67 192.757 256.307 195.193C255.634 195.68 254.706 194.914 254.961 194.079C256.933 186.842 260.714 179.766 261.294 172.204C261.642 168.029 261.572 157.706 255.147 162.392C254.428 162.925 253.685 162.044 253.801 161.325C254.405 157.242 257.304 148.404 251.389 147.198C245.404 145.945 238.514 149.448 233.017 151.559C225.083 154.598 216.408 159.863 207.662 159.167C207.407 159.887 206.41 160.234 206.015 159.399C205.969 159.26 205.83 159.098 205.806 158.935C205.667 158.912 205.528 158.912 205.412 158.912C204.716 158.773 204.577 158.054 204.925 157.52C200.889 152.115 191.494 151.025 185.648 150.422C176.253 149.471 166.232 149.633 157 151.791C146.306 154.366 136.609 160.095 129.279 168.701C125.591 173.016 122.274 177.911 119.931 183.13C117.541 188.419 117.147 193.476 116.033 199.09C115.825 199.971 114.827 199.925 114.34 199.299C109.167 192.154 106.917 182.295 106.801 173.063C103.368 184.128 104.017 195.749 107.914 206.838C109.979 212.799 112.276 216.859 116.544 221.243C118.91 223.679 119.977 227.529 120.487 230.87C120.58 231.45 120.255 232.076 119.629 232.076C109.817 231.751 101.535 220.454 97.5685 212.127C92.9987 202.592 90.4006 192.154 89.2408 181.553C88.7536 176.774 88.2897 171.276 89.8439 166.567C91.1661 162.786 93.3467 160.814 96.3623 158.495C104.504 152.139 113.087 145.574 116.312 135.506C111.301 141.584 102.811 144.994 95.8751 147.151C92.558 148.149 87.6402 150.724 84.1838 149.726C82.9775 149.355 82.444 148.752 82.2584 148.033C81.6089 146.943 81.4001 145.296 81.7945 143.138C82.3512 140.169 83.7662 136.921 83.6502 133.859C83.4647 128.014 80.5418 123.954 75.4848 121.658C75.1833 121.518 73.1187 121.31 73.3739 120.939C77.2014 115.371 79.5675 110.175 79.9155 103.935C80.4258 95.4448 80.2403 90.0631 75.7864 85.5165C69.4768 79.0908 61.0098 82.7792 54.8162 94.7953C54.3754 95.584 55.025 91.2925 54.4914 87.7202C53.2852 79.7636 46.8364 83.1039 43.1016 87.3954C42.7537 87.9985 42.3593 88.6017 42.0114 89.228C37.0472 98.1589 33.846 111.636 38.5782 121.333C40.1324 136.179 50.0144 150.005 62.4017 157.033C68.8737 160.745 76.5287 162.345 83.9982 162.253C81.9569 175.034 81.6089 188.303 84.3926 200.945C87.501 215.142 94.5297 228.063 103.669 239.058C128.977 269.539 174.096 273.599 209.402 264.39C232.321 258.358 250.832 243.698 263.498 223.076C276.79 201.479 282.311 176.496 283.703 151.188C284.05 144.971 287.02 136.202 283.633 130.542L283.517 130.519Z" fill="#FFC765"/>
</g>
<path d="M78.1057 100.989C77.7577 111.915 70.3346 120.822 63.0739 119.199C55.79 117.598 51.2898 110.917 53.4007 100.85C55.5116 90.7126 63.3987 80.8306 70.6362 82.6168C76.737 84.1478 78.4072 91.6172 78.0825 100.989H78.1057Z" fill="#E8E7E3"/>
<path d="M74.441 105.698C73.3275 112.773 69.5232 117.992 66.0204 117.343C62.4944 116.693 60.5691 110.477 61.7753 103.425C62.8888 96.3959 66.7163 91.1533 70.1959 91.7797C73.7218 92.4292 75.6472 98.6228 74.441 105.698Z" fill="#141413"/>
<path d="M73.768 98.9012C74.0232 101.151 73.1881 103.123 71.9819 103.262C70.7292 103.401 69.523 101.708 69.3142 99.4116C69.0126 97.1614 69.8013 95.1897 71.1004 95.0505C72.3066 94.9113 73.5129 96.6279 73.7912 98.9012H73.768Z" fill="white"/>
<path d="M51.9163 100.943C49.8517 109.827 44.5164 115.464 41.176 112.402C37.7428 109.363 36.6061 102.822 39.4362 94.9809C42.2662 87.1635 47.9263 80.8075 51.2899 84.0319C54.0968 86.6996 53.6792 93.2412 51.9395 100.943H51.9163Z" fill="#E8E7E3"/>
<path d="M49.2258 103.935C47.4397 109.456 44.6328 112.889 42.9626 111.567C41.2692 110.221 41.4084 104.608 43.1714 99.11C45.0272 93.5427 47.8108 90.1095 49.5274 91.4782C51.128 92.8468 51.0584 98.4141 49.2258 103.935Z" fill="#141413"/>
<path d="M50.0606 98.2053C49.7591 100.131 49.0631 101.546 48.3904 101.36C47.7409 101.221 47.4625 99.5044 47.6713 97.579C47.9961 95.6537 48.7152 94.2154 49.3879 94.401C49.991 94.5866 50.3158 96.3032 50.0838 98.2285L50.0606 98.2053Z" fill="white"/>
<g style="mix-blend-mode:multiply">
<path d="M100.05 117.366C100.839 120.057 96.5474 123.745 90.5626 125.601C84.5777 127.457 79.0568 126.854 78.3145 124.14C77.5258 121.426 81.7476 117.76 87.7789 115.858C93.7638 114.003 99.2615 114.675 100.05 117.366Z" fill="#FF93AE"/>
</g>
<g style="mix-blend-mode:multiply">
<path d="M255.564 168.423C255.216 165.616 253.175 163.923 250.461 164.503C253.175 159.515 253.569 152.185 246.448 151.164C239.976 150.237 233.132 153.739 227.032 155.595C220.165 157.66 213.183 159.376 206.131 160.629C188.64 163.668 171.474 164.665 153.821 162.809C166.557 165.454 179.292 166.73 192.282 166.127C202.002 165.663 211.605 163.807 221.024 161.348C227.426 159.655 240.741 152.232 247.12 155.34C249.301 156.453 248.86 160.165 248.048 162.044C246.146 166.428 240.834 174.153 241.321 173.573C243.455 171.23 247.863 167.588 251.249 168.307C254.567 169.513 251.18 178.375 249.742 182.341C247.816 187.746 244.824 191.945 241.669 196.7C239.21 200.482 240.393 199.02 243.989 198.695C247.839 198.371 245.589 205.585 243.014 209.552C228.516 231.96 197.432 236.275 174.629 235.973C156.327 234.002 140.901 230.893 125.66 219.758C114.177 212.011 109.097 196.515 107.125 183.246C107.984 198.974 113.737 218.367 128.235 226.509C144.89 237.922 166.997 240.497 186.413 240.033C201.654 238.919 216.894 235.602 230.418 227.066C237.122 222.844 256.933 199.577 246.378 196.329C250.02 190.298 257.582 176.38 255.541 168.446L255.564 168.423ZM251.551 168.168C251.621 168.214 250.901 167.913 251.551 168.168ZM244.87 199.368V199.484C244.87 199.484 244.87 199.345 244.87 199.368Z" fill="#FFB700"/>
</g>
<path d="M79.4512 131.888C77.7114 122.191 66.7855 124.743 60.1512 125.184C58.9913 120.475 52.7281 115.905 48.9469 114.049C45.3514 112.263 39.6681 111.335 36.0261 113.701C35.9333 113.701 35.8405 113.771 35.8173 113.771C29.1134 118.155 19.5793 123.328 11.4371 123.305C9.30299 123.305 4.98832 122.98 4.38519 125.624C3.5501 127.132 4.19962 129.545 5.1275 131.238C7.19205 134.996 10.6716 137.617 14.4528 139.612C21.1567 148.474 31.5259 153.739 42.0574 155.711C53.2616 157.822 63.3756 155.038 70.9378 145.992C76.3892 143.533 80.6806 138.684 79.4976 131.888H79.4512Z" fill="#F95900"/>
<g style="mix-blend-mode:multiply" opacity="0.4">
<path d="M79.4512 131.888C77.7114 122.191 66.7855 124.743 60.1512 125.184C58.9913 120.475 52.7281 115.905 48.9469 114.049C45.3514 112.263 39.6681 111.335 36.0261 113.701C35.9333 113.701 35.8405 113.771 35.8173 113.771C29.1134 118.155 19.5793 123.328 11.4371 123.305C9.30299 123.305 4.98832 122.98 4.38519 125.624C3.5501 127.132 4.19962 129.545 5.1275 131.238C7.19205 134.996 10.6716 137.617 14.4528 139.612C21.1567 148.474 31.5259 153.739 42.0574 155.711C53.2616 157.822 63.3756 155.038 70.9378 145.992C76.3892 143.533 80.6806 138.684 79.4976 131.888H79.4512ZM67.2263 146.595C66.8551 146.827 67.1567 147.244 67.4351 147.151C67.6206 147.128 67.7598 147.082 67.8758 147.012C64.5586 149.448 61.543 152.069 57.3907 153.391C52.1017 155.062 46.1865 154.528 40.7815 153.647C35.4694 152.765 30.598 150.793 25.889 148.033C22.5718 146.038 19.9737 143.463 17.2596 140.981C19.2082 141.862 21.1799 142.628 23.0821 143.324C30.598 146.154 38.369 147.499 46.4184 147.221C53.4936 147.012 61.4502 145.435 66.9479 140.61C67.2727 140.331 66.9479 139.867 66.5768 140.076C56.7412 145.852 44.0523 146.293 33.1497 144.321C27.9071 143.347 22.8501 141.422 17.9091 139.218C15.1255 137.965 12.481 136.365 10.0221 134.509C8.60708 133.395 3.06296 127.898 5.66104 125.555C7.44722 124.441 10.2541 125.16 12.1098 125.3C14.5687 125.508 17.2596 124.697 19.5793 124.001C25.4714 122.284 32.2682 119.57 36.4669 114.722C44.9106 111.799 55.3493 119.315 59.3393 126.506C59.5944 126.923 60.128 126.715 60.2671 126.367C66.368 127.944 73.8607 123.05 77.317 131.331C80.4255 138.568 72.0513 143.788 67.2263 146.571V146.595Z" fill="#995400"/>
</g>
<path d="M233.898 206.838C233.898 239.894 208.335 266.733 176.833 266.733C145.331 266.733 119.768 239.894 119.768 206.838C119.768 173.782 145.331 146.989 176.833 146.989C208.335 146.989 233.898 173.805 233.898 206.838Z" fill="#2B0000"/>
<path d="M232.622 204.657C232.622 236.53 207.848 262.325 177.251 262.325C146.653 262.325 121.833 236.507 121.833 204.657C121.833 172.807 146.677 146.989 177.251 146.989C207.824 146.989 232.622 172.831 232.622 204.657Z" fill="#650000"/>
<path d="M227.612 204.657C227.612 233.63 205.088 257.152 177.251 257.152C149.414 257.152 126.82 233.63 126.82 204.657C126.82 175.684 149.368 152.162 177.251 152.162C205.134 152.162 227.612 175.684 227.612 204.657Z" fill="#FFFEEE"/>
<path d="M213.67 204.657C213.67 225.604 197.316 242.561 177.251 242.561C157.185 242.561 140.808 225.604 140.808 204.657C140.808 183.71 157.116 166.753 177.251 166.753C197.386 166.753 213.67 183.71 213.67 204.657Z" fill="#CA0000"/>
<path d="M199.636 204.657C199.636 217.532 189.615 227.97 177.251 227.97C164.887 227.97 154.842 217.555 154.842 204.657C154.842 191.76 164.863 181.344 177.251 181.344C189.638 181.344 199.636 191.76 199.636 204.657Z" fill="#FFFEEE"/>
<path d="M187.504 204.657C187.504 210.549 182.911 215.328 177.251 215.328C171.591 215.328 166.975 210.549 166.975 204.657C166.975 198.765 171.568 193.986 177.251 193.986C182.934 193.986 187.504 198.765 187.504 204.657Z" fill="#CA0000"/>
<path d="M46.3259 140.633C38.9724 140.239 31.7581 138.383 24.6134 136.411C21.1802 135.46 17.9094 134.138 14.7314 132.444C13.0148 131.54 8.12022 129.104 8.30579 126.622C8.32899 126.367 8.12022 126.088 7.84185 126.227C2.59929 128.686 13.0844 135.321 14.8474 136.249C19.6028 138.893 25.1933 139.705 30.4127 140.702C35.5393 141.63 41.269 142.535 46.3491 141.166C46.6043 141.097 46.6043 140.587 46.3259 140.587V140.633Z" fill="#FF9A2C"/>
<path d="M50.3154 138.777C48.4132 138.777 48.7148 141.816 50.5937 141.816C52.4727 141.816 52.2175 138.777 50.3154 138.777Z" fill="#FF9A2C"/>
<path d="M52.659 121.472C48.6459 116.902 42.7538 113.608 36.7921 115.394C36.537 115.464 36.6298 115.951 36.9313 115.905C43.1018 114.768 47.4164 118.364 52.0327 122.052C52.3806 122.33 52.9606 121.866 52.6358 121.472H52.659Z" fill="#FF9A2C"/>
<path d="M60.731 127.782C60.3598 127.851 60.4062 128.315 60.731 128.269C63.3059 127.944 65.8576 127.735 68.4324 128.083C71.7264 128.501 73.0719 131.006 75.5076 132.862C75.9947 133.21 76.5514 132.746 76.4355 132.189C74.8349 124.882 65.5792 126.877 60.731 127.782Z" fill="#FF9A2C"/>
<path d="M115.546 82.7559C105.943 72.0156 91.8851 68.1417 78.2452 70.0903C78.106 70.0903 78.106 70.3686 78.2916 70.3686C90.6789 69.9743 103.02 74.2657 112.136 83.1503C123.549 94.3545 125.521 110.43 124.802 125.833C124.732 126.552 125.614 126.691 125.846 126.065C130.068 111.358 125.382 93.8673 115.569 82.7791L115.546 82.7559Z" fill="#FFED85"/>
<path d="M156.535 146.014C147.349 141.978 137.699 139.658 128.791 134.764C128.536 134.625 128.374 135.019 128.536 135.181C136.354 141.932 146.816 143.788 156.35 146.641C156.698 146.757 156.837 146.154 156.535 145.991V146.014Z" fill="#FFED85"/>
<path d="M250.971 122.817C235.104 132.769 221.232 145.945 202.442 149.61C202.117 149.68 202.141 150.213 202.465 150.19C220.606 148.265 239.163 137.176 251.759 123.745C252.293 123.188 251.504 122.469 250.994 122.817H250.971Z" fill="#FFED85"/>
<path d="M272.243 118.828C268.578 120.405 265.864 124.047 263.034 126.854C258.418 131.424 252.85 134.718 247.399 138.035C247.097 138.22 247.399 138.638 247.677 138.476C257.026 133.187 266.212 128.756 272.962 119.918C273.31 119.431 272.869 118.596 272.243 118.851V118.828Z" fill="#FFED85"/>
<path d="M278.344 134.486C276.697 135.692 275.444 137.524 274.006 138.986C272.335 140.726 270.828 142.442 268.949 143.95C268.879 144.043 268.949 144.275 269.088 144.228C272.869 142.373 277.416 139.38 279.225 135.228C279.48 134.694 278.831 134.114 278.344 134.486Z" fill="#FFED85"/>
<path d="M76.4356 65.8685C75.7861 63.9431 75.6237 62.2265 75.7629 60.2316C75.7861 59.8836 75.3221 59.7676 75.2525 60.1388C74.7654 62.2033 74.2551 64.4766 75.8325 66.2396C76.0876 66.518 76.6444 66.3092 76.4356 65.8917V65.8685Z" fill="#FFED85"/>
<path d="M94.7847 117.83C93.6944 116.786 92.3258 117.668 91.2123 118.271C90.354 118.758 90.9572 120.312 91.9314 120.173C92.9985 120.034 94.0888 120.173 94.9471 119.315C95.3414 118.851 95.2023 118.201 94.8079 117.853L94.7847 117.83Z" fill="white"/>
<path d="M93.1498 37V2H107.9C110.466 2 112.816 2.43333 114.95 3.3C117.083 4.13333 118.916 5.33333 120.45 6.9C121.983 8.43333 123.166 10.2833 124 12.45C124.833 14.5833 125.25 16.9333 125.25 19.5C125.25 22.1 124.833 24.4667 124 26.6C123.166 28.7333 121.983 30.5833 120.45 32.15C118.916 33.6833 117.083 34.8833 114.95 35.75C112.85 36.5833 110.5 37 107.9 37H93.1498ZM101.7 31.1L100.6 29.45H107.65C109.016 29.45 110.25 29.2167 111.35 28.75C112.45 28.2833 113.383 27.6167 114.15 26.75C114.95 25.85 115.55 24.8 115.95 23.6C116.383 22.3667 116.6 21 116.6 19.5C116.6 18 116.383 16.65 115.95 15.45C115.55 14.2167 114.95 13.1667 114.15 12.3C113.383 11.4 112.45 10.7167 111.35 10.25C110.25 9.78333 109.016 9.55 107.65 9.55H100.45L101.7 8V31.1ZM140.023 37.5C138.09 37.5 136.423 37.0833 135.023 36.25C133.623 35.3833 132.54 34.1667 131.773 32.6C131.04 31 130.673 29.0833 130.673 26.85V10.45H138.723V25.65C138.723 27.2833 139.106 28.5667 139.873 29.5C140.673 30.4 141.773 30.85 143.173 30.85C143.873 30.85 144.506 30.75 145.073 30.55C145.64 30.3167 146.123 30 146.523 29.6C146.956 29.1667 147.29 28.6667 147.523 28.1C147.756 27.5333 147.873 26.9167 147.873 26.25V10.45H155.923V37H148.373L148.073 31.55L149.523 30.95C149.156 32.1833 148.49 33.3 147.523 34.3C146.59 35.3 145.473 36.0833 144.173 36.65C142.873 37.2167 141.49 37.5 140.023 37.5ZM174.752 37.5C172.185 37.5 169.868 36.9 167.802 35.7C165.768 34.5 164.168 32.8667 163.002 30.8C161.835 28.7 161.252 26.35 161.252 23.75C161.252 21.0833 161.835 18.7167 163.002 16.65C164.168 14.55 165.768 12.9 167.802 11.7C169.868 10.5 172.185 9.9 174.752 9.9C177.118 9.9 179.285 10.3333 181.252 11.2C183.252 12.0333 184.818 13.1833 185.952 14.65L181.602 19.95C181.168 19.3833 180.635 18.8667 180.002 18.4C179.368 17.9333 178.668 17.5667 177.902 17.3C177.135 17.0333 176.335 16.9 175.502 16.9C174.235 16.9 173.118 17.2 172.152 17.8C171.185 18.3667 170.435 19.1667 169.902 20.2C169.368 21.2333 169.102 22.4 169.102 23.7C169.102 24.9667 169.368 26.1167 169.902 27.15C170.468 28.15 171.235 28.95 172.202 29.55C173.168 30.15 174.252 30.45 175.452 30.45C176.318 30.45 177.118 30.3333 177.852 30.1C178.585 29.8667 179.252 29.5333 179.852 29.1C180.485 28.6667 181.068 28.15 181.602 27.55L185.952 32.85C184.818 34.25 183.235 35.3833 181.202 36.25C179.168 37.0833 177.018 37.5 174.752 37.5ZM198.048 29.2L195.198 23.1L207.548 10.45H218.098L198.048 29.2ZM190.348 37V-4.76837e-07H198.398V37H190.348ZM208.298 37L199.048 25L204.748 20.6L217.848 37H208.298ZM225.096 48.5L231.146 34.3L231.246 38.5L218.396 10.45H227.496L233.096 23.85C233.396 24.4833 233.679 25.2 233.946 26C234.212 26.8 234.412 27.55 234.546 28.25L233.396 28.9C233.596 28.4 233.812 27.7667 234.046 27C234.312 26.2333 234.596 25.4167 234.896 24.55L239.796 10.45H248.946L237.696 37L233.146 48.5H225.096Z" fill="#FB0F0F"/>
<path d="M98.0082 319V284H112.758C115.325 284 117.675 284.433 119.808 285.3C121.942 286.133 123.775 287.333 125.308 288.9C126.842 290.433 128.025 292.283 128.858 294.45C129.692 296.583 130.108 298.933 130.108 301.5C130.108 304.1 129.692 306.467 128.858 308.6C128.025 310.733 126.842 312.583 125.308 314.15C123.775 315.683 121.942 316.883 119.808 317.75C117.708 318.583 115.358 319 112.758 319H98.0082ZM106.558 313.1L105.458 311.45H112.508C113.875 311.45 115.108 311.217 116.208 310.75C117.308 310.283 118.242 309.617 119.008 308.75C119.808 307.85 120.408 306.8 120.808 305.6C121.242 304.367 121.458 303 121.458 301.5C121.458 300 121.242 298.65 120.808 297.45C120.408 296.217 119.808 295.167 119.008 294.3C118.242 293.4 117.308 292.717 116.208 292.25C115.108 291.783 113.875 291.55 112.508 291.55H105.308L106.558 290V313.1ZM148.281 319.5C145.548 319.5 143.098 318.917 140.931 317.75C138.765 316.55 137.065 314.917 135.831 312.85C134.598 310.75 133.981 308.383 133.981 305.75C133.981 303.05 134.598 300.667 135.831 298.6C137.065 296.5 138.765 294.867 140.931 293.7C143.098 292.5 145.548 291.9 148.281 291.9C151.048 291.9 153.498 292.5 155.631 293.7C157.798 294.867 159.498 296.5 160.731 298.6C161.965 300.667 162.581 303.05 162.581 305.75C162.581 308.383 161.965 310.75 160.731 312.85C159.498 314.917 157.798 316.55 155.631 317.75C153.498 318.917 151.048 319.5 148.281 319.5ZM148.281 312.6C149.481 312.6 150.531 312.3 151.431 311.7C152.365 311.1 153.098 310.283 153.631 309.25C154.165 308.217 154.415 307.05 154.381 305.75C154.415 304.383 154.165 303.183 153.631 302.15C153.098 301.083 152.365 300.267 151.431 299.7C150.531 299.1 149.481 298.8 148.281 298.8C147.115 298.8 146.065 299.1 145.131 299.7C144.198 300.3 143.465 301.117 142.931 302.15C142.398 303.183 142.131 304.383 142.131 305.75C142.131 307.05 142.398 308.217 142.931 309.25C143.465 310.283 144.198 311.1 145.131 311.7C146.065 312.3 147.115 312.6 148.281 312.6ZM180.264 319.5C177.53 319.5 175.08 318.917 172.914 317.75C170.747 316.55 169.047 314.917 167.814 312.85C166.58 310.75 165.964 308.383 165.964 305.75C165.964 303.05 166.58 300.667 167.814 298.6C169.047 296.5 170.747 294.867 172.914 293.7C175.08 292.5 177.53 291.9 180.264 291.9C183.03 291.9 185.48 292.5 187.614 293.7C189.78 294.867 191.48 296.5 192.714 298.6C193.947 300.667 194.564 303.05 194.564 305.75C194.564 308.383 193.947 310.75 192.714 312.85C191.48 314.917 189.78 316.55 187.614 317.75C185.48 318.917 183.03 319.5 180.264 319.5ZM180.264 312.6C181.464 312.6 182.514 312.3 183.414 311.7C184.347 311.1 185.08 310.283 185.614 309.25C186.147 308.217 186.397 307.05 186.364 305.75C186.397 304.383 186.147 303.183 185.614 302.15C185.08 301.083 184.347 300.267 183.414 299.7C182.514 299.1 181.464 298.8 180.264 298.8C179.097 298.8 178.047 299.1 177.114 299.7C176.18 300.3 175.447 301.117 174.914 302.15C174.38 303.183 174.114 304.383 174.114 305.75C174.114 307.05 174.38 308.217 174.914 309.25C175.447 310.283 176.18 311.1 177.114 311.7C178.047 312.3 179.097 312.6 180.264 312.6ZM199.746 319V292.45H207.396L207.646 297.25L206.546 297.35C206.913 296.483 207.413 295.717 208.046 295.05C208.679 294.383 209.379 293.833 210.146 293.4C210.946 292.933 211.779 292.583 212.646 292.35C213.513 292.083 214.379 291.95 215.246 291.95C216.579 291.95 217.763 292.15 218.796 292.55C219.863 292.95 220.779 293.6 221.546 294.5C222.346 295.4 222.979 296.6 223.446 298.1L222.246 297.9L222.596 297.2C223.063 296.4 223.629 295.683 224.296 295.05C224.996 294.383 225.763 293.817 226.596 293.35C227.429 292.883 228.279 292.533 229.146 292.3C230.046 292.067 230.913 291.95 231.746 291.95C233.846 291.95 235.596 292.367 236.996 293.2C238.396 294.033 239.446 295.267 240.146 296.9C240.846 298.5 241.196 300.483 241.196 302.85V319H233.146V303.45C233.146 301.883 232.813 300.717 232.146 299.95C231.513 299.15 230.546 298.75 229.246 298.75C228.546 298.75 227.896 298.867 227.296 299.1C226.729 299.3 226.229 299.617 225.796 300.05C225.396 300.45 225.079 300.917 224.846 301.45C224.613 301.983 224.496 302.583 224.496 303.25V319H216.446V303.4C216.446 301.9 216.096 300.75 215.396 299.95C214.729 299.15 213.779 298.75 212.546 298.75C211.879 298.75 211.246 298.867 210.646 299.1C210.079 299.3 209.579 299.617 209.146 300.05C208.746 300.45 208.429 300.917 208.196 301.45C207.963 301.983 207.846 302.583 207.846 303.25V319H199.746Z" fill="#FB0F0F"/>
</g>
<defs>
<filter id="filter0_d_257_526" x="0" y="0" width="289.238" height="327.5" filterUnits="userSpaceOnUse" color-interpolation-filters="sRGB">
<feFlood flood-opacity="0" result="BackgroundImageFix"/>
<feColorMatrix in="SourceAlpha" type="matrix" values="0 0 0 0 0 0 0 0 0 0 0 0 0 0 0 0 0 0 127 0" result="hardAlpha"/>
<feOffset dy="4"/>
<feGaussianBlur stdDeviation="2"/>
<feComposite in2="hardAlpha" operator="out"/>
<feColorMatrix type="matrix" values="0 0 0 0 0 0 0 0 0 0 0 0 0 0 0 0 0 0 0.3 0"/>
<feBlend mode="normal" in2="BackgroundImageFix" result="effect1_dropShadow_257_526"/>
<feBlend mode="normal" in="SourceGraphic" in2="effect1_dropShadow_257_526" result="shape"/>
</filter>
</defs>
</svg>
