<?xml version="1.0" encoding="UTF-8"?>
<svg id="Layer_2" data-name="Layer 2" xmlns="http://www.w3.org/2000/svg" viewBox="0 0 308.53 511.39">
  <defs>
    <style>
      .cls-1 {
        fill: #f15a24;
      }

      .cls-2, .cls-3 {
        fill: #fff;
      }

      .cls-4 {
        fill: #f39007;
      }

      .cls-5 {
        fill: #ee9d2f;
      }

      .cls-6 {
        fill: #ffce43;
      }

      .cls-7 {
        fill: #333;
      }

      .cls-8 {
        fill: #db4a1d;
      }

      .cls-9 {
        fill: #111;
      }

      .cls-10 {
        stroke-width: 2px;
      }

      .cls-10, .cls-11 {
        fill: #9dd5e8;
        stroke: #231f20;
        stroke-miterlimit: 10;
      }

      .cls-11 {
        stroke-width: 3px;
      }

      .cls-3 {
        opacity: .23;
      }
    </style>
  </defs>
  <g id="_ÎÓÈ_1" data-name="—ÎÓÈ_1">
    <g>
      <path class="cls-11" d="M305,481.04c-3.56-3.96-10.66-5.19-16.75-6.98-6.09-1.78-12.49-5.6-11.23-10.23,.4-1.48,1.58-2.94,1.05-4.4-.61-1.68-3.2-2.53-5.51-3.05-11.85-2.69-24.46-3-36.89-3.29-25.66-.6-51.41-.8-77.05-1.8-9.47-.37-18.45-.69-27.96-.05-11.53,.78-45.21-.37-43.12,12.49,.87,5.31-8.79,8.34-15.89,9.98-7.1,1.63-15.17,3.14-18.96,7.74-4.84,5.88,.61,13.89,8.91,17.24s18.35,3.33,27.89,3.21c23.83-.29,47.67-.57,71.5-.86,13.23-.16,26.67-.3,39.41,2.26,7.83,1.57,15.25,4.14,23.18,5.46,11.3,1.88,23.13,1.15,34.57-.25,11.84-1.45,23.67-3.65,34.11-7.9,4.9-2,9.57-4.54,12.38-8.04,2.81-3.5,3.42-8.12,.37-11.52Z"/>
      <path class="cls-3" d="M114.42,462.65c-2.55,2.05-4.59,4.69-7.16,6.72-7.53,5.92-19.2,6.3-24.55,14.24-.49,.73-.92,1.55-.89,2.43,.09,2.42,3.26,3.25,5.68,3.24,8.04-.03,16.07-1.73,23.43-4.96,7.54-3.31,14.44-8.21,22.39-10.33,5.18-1.38,10.6-1.52,15.96-1.72,12.22-.47,24.43-1.33,36.6-2.58,4.62-.48,9.83-1.34,12.45-5.19,.55-.82,.97-1.82,.71-2.78-.48-1.81-2.83-2.22-4.71-2.28-15.09-.44-30.18-.88-45.26-1.32-11.6-.34-24.72-3.49-34.66,4.51Z"/>
      <g>
        <g>
          <path class="cls-6" d="M110.87,297.87s.58,18.11-12.9,37c-13.48,18.88-31.34,41.19-26.18,71.5,0,0-18.65,8.27-27.36-7.87,0,0-11.84,.84-20.86-15.27-2.8-5-3.92-10.84-3.81-17.17-1.63-1.28-21.38-17.76-7.56-57.49,11.83-34.01,39.66-55.27,63.3-56.04,21.7-.7,31.44,15.92,31.44,15.92l3.93,29.41Z"/>
          <path class="cls-9" d="M61.36,411.89c-7.11,0-15-2.72-19.89-11.78-10.62-19.68,12.25-61.45,13.23-63.22,.9-1.63,2.96-2.22,4.59-1.32,1.63,.9,2.22,2.96,1.32,4.59-6.17,11.16-20.57,43.1-13.2,56.75,5.51,10.2,15.94,8.58,20.65,7.22-3.63-28.42,11.99-50.11,24.61-67.64l2.56-3.57c12.67-17.75,12.28-34.76,12.27-34.93-.06-1.86,1.4-3.42,3.26-3.48,1.87-.07,3.42,1.4,3.48,3.26,.03,.79,.45,19.48-13.52,39.06l-2.58,3.59c-12.95,17.98-27.62,38.36-23.02,65.38l.44,2.59-2.4,1.06c-2.92,1.3-7.2,2.44-11.8,2.44Z"/>
          <path class="cls-9" d="M44.17,401.88c-2.62,0-14.54-.92-23.54-17-11.11-19.85-.74-51.96,14.66-72.1,1.13-1.48,3.25-1.76,4.73-.63,1.48,1.13,1.76,3.25,.63,4.73-14.29,18.69-23.48,48-14.13,64.7,7.74,13.83,17.32,13.57,17.72,13.55,1.83-.08,3.44,1.33,3.54,3.17,.11,1.84-1.26,3.43-3.11,3.56-.05,0-.23,.01-.51,.01Z"/>
          <path class="cls-9" d="M17.89,368.88c-.98-.72-23.93-18.14-8.88-61.42,12.97-37.28,43.2-57.55,66.37-58.3,23.05-.76,38.09,15.41,38.72,16.1,1.26,1.37,1.17,3.51-.2,4.77-1.37,1.26-3.51,1.17-4.77-.2-.13-.14-13.72-14.5-33.53-13.92-20.87,.68-48.25,19.37-60.22,53.77-13.43,38.62,6.29,53.61,6.49,53.75l-3.98,5.45Z"/>
        </g>
        <path class="cls-1" d="M224.72,424.08c5.94,4.91,10.57,11.37,13.32,18.57,1.12,2.94,1.91,6.33,.54,9.16-1.4,2.9-5.11,4.46-8.16,3.42-2.42-.83-4.52-3.06-7.05-2.7-1.71,.24-3.04,1.64-3.93,3.12-.89,1.48-1.52,3.14-2.63,4.47-1.88,2.25-5.16,3.27-7.94,2.33-3.05-1.03-5.52-4.16-8.71-3.74-2.11,.28-3.65,2.05-5.02,3.67-1.45,1.72-3.12,3.5-5.34,3.89-2.78,.48-5.5-1.5-6.9-3.95-1.4-2.45-1.82-5.32-2.46-8.07-1.55-6.67-4.55-13-8.73-18.43l53.02-11.74Z"/>
        <path class="cls-1" d="M81.56,424.08c-5.94,4.91-10.57,11.37-13.32,18.57-1.12,2.94-1.91,6.33-.54,9.16,1.4,2.9,5.11,4.46,8.16,3.42,2.42-.83,4.52-3.06,7.05-2.7,1.71,.24,3.04,1.64,3.93,3.12,.89,1.48,1.52,3.14,2.63,4.47,1.88,2.25,5.16,3.27,7.94,2.33,3.05-1.03,5.52-4.16,8.71-3.74,2.11,.28,3.65,2.05,5.02,3.67,1.45,1.72,3.12,3.5,5.34,3.89,2.78,.48,5.5-1.5,6.9-3.95,1.4-2.45,1.82-5.32,2.46-8.07,1.55-6.67,4.55-13,8.73-18.43l-53.02-11.74Z"/>
        <path class="cls-9" d="M117.36,469.71c-6.64,0-9.43-7.37-11.68-7.66-1.41-.16-4.09,2.55-7.19,3.59-4.04,1.36-8.82-.02-11.61-3.36-1.41-1.69-2.09-3.5-2.93-4.89-.59-.99-1.2-1.48-1.51-1.52-.89-.1-3.19,1.77-5.5,2.55-4.64,1.58-10.15-.73-12.28-5.15-2.28-4.73-.24-10.08,.43-11.83,2.96-7.76,7.91-14.67,14.32-19.97,1.44-1.19,3.56-.99,4.75,.45,1.19,1.44,.99,3.56-.45,4.75-5.51,4.56-9.77,10.5-12.32,17.17-1.13,2.95-1.34,5.08-.66,6.5,.66,1.38,2.58,2.18,4.03,1.69,1.93-.66,4.7-3.39,8.61-2.85,2.51,.35,4.7,1.98,6.35,4.72,.74,1.23,1.58,3.15,2.33,4.05,1.02,1.22,2.86,1.77,4.27,1.3,2.45-.83,5.55-4.5,10.23-3.89,5.63,.74,7.75,7.1,10.5,7.58,1.04,.18,2.55-.82,3.39-2.3,1.1-1.93,1.49-4.53,2.11-7.16,1.66-7.11,4.89-13.93,9.35-19.72,1.14-1.48,3.26-1.75,4.73-.61,1.48,1.14,1.75,3.26,.61,4.73-3.87,5.03-6.68,10.95-8.12,17.13-.68,2.92-1.14,6.04-2.82,8.98-1.71,2.99-5.04,5.72-8.96,5.72Z"/>
        <path class="cls-9" d="M188.92,469.71c-3.91,0-7.25-2.73-8.95-5.72-1.4-2.45-1.98-5.12-2.49-7.48-1.49-6.87-4.05-12.92-8.46-18.64-1.14-1.48-.86-3.59,.61-4.73,1.48-1.13,3.59-.86,4.73,.61,5.05,6.56,8.03,13.56,9.7,21.33,.45,2.06,.87,4.01,1.75,5.55,.84,1.47,2.33,2.49,3.39,2.3,2.75-.48,4.85-6.84,10.5-7.58,4.61-.6,7.85,3.09,10.23,3.89,1.42,.48,3.25-.08,4.27-1.29,.78-.93,1.43-2.55,2.33-4.05,1.65-2.74,3.85-4.37,6.35-4.72,3.89-.55,6.68,2.19,8.61,2.85,1.45,.49,3.37-.31,4.03-1.69,.68-1.42,.47-3.54-.66-6.5-2.55-6.68-6.81-12.62-12.32-17.18-1.44-1.19-1.64-3.31-.45-4.75,1.19-1.43,3.31-1.64,4.75-.45,6.41,5.3,11.36,12.2,14.32,19.97,.67,1.76,2.71,7.1,.43,11.83-2.13,4.42-7.64,6.73-12.28,5.15-2.41-.82-4.6-2.68-5.5-2.55-.87,.12-1.94,2.29-2.28,2.95-.56,1.09-1.2,2.32-2.15,3.46-2.79,3.35-7.57,4.73-11.61,3.37-3.17-1.07-5.74-3.76-7.19-3.59-2.35,.31-4.9,7.66-11.68,7.66Z"/>
        <path class="cls-6" d="M204.2,226.59l-50.39,8.38-52.64-8.38s-77.25,85.21-52.07,153.38c23.51,63.66,95.32,63.41,104.71,63.1,9.39,.31,81.2,.56,104.71-63.1,25.18-68.17-54.32-153.38-54.32-153.38Z"/>
        <path class="cls-5" d="M230.57,256.73c20.25,31.02,43.74,79.58,28.2,121.67-23.51,63.66-95.32,63.41-104.71,63.1-9.21,.31-78.41,.51-103.26-59.52,0,0,27.11,27.86,78.94,30.02,51.82,2.16,76.66-49.66,73.42-99.33l27.42-55.94Z"/>
        <path class="cls-9" d="M156.37,446.49c-1.18,0-2.09-.02-2.67-.04-8.24,.29-83.33,.84-107.76-65.31-25.59-69.29,49.52-153.28,52.73-156.82l1.23-1.35,53.9,8.58,51.64-8.58,1.23,1.32c3.3,3.54,80.62,87.53,55.02,156.86-22.74,61.57-89.37,65.35-105.31,65.35Zm-2.67-6.78c8.21,.27,78.87,.81,101.66-60.9,22.49-60.89-42.66-137.59-52.42-148.59l-49.11,8.16-51.34-8.17c-9.56,11.1-72.69,87.72-50.21,148.59,22.79,61.71,93.44,61.16,101.43,60.9Z"/>
        <g>
          <path class="cls-6" d="M200.84,287.39s-5.72,18.21,2.6,41.18c8.32,22.97,20.12,50.66,6.29,79.95,0,0,16.58,13.67,29.99-.22,0,0,11.77,4.21,25.49-9.58,4.25-4.28,7.05-9.88,8.73-16.33,2.02-.83,26.72-11.96,23.96-56.18-2.36-37.85-24.57-67.3-48.33-74.78-21.81-6.86-36.4,7.24-36.4,7.24l-12.33,28.72Z"/>
          <path class="cls-9" d="M225.78,417.9c-7.51,0-14.39-3.63-18.2-6.78l-2.02-1.67,1.12-2.37c12.36-26.18,3.24-51.05-4.81-72.99l-1.6-4.37c-8.61-23.77-2.9-42.56-2.65-43.34,.56-1.78,2.45-2.76,4.23-2.21,1.77,.56,2.76,2.45,2.21,4.22h0c-.05,.17-5.24,17.51,2.55,39.03l1.59,4.35c7.84,21.37,17.54,47.81,5.74,75.6,4.35,2.73,14.69,7.56,23.34-1.41,11.41-11.83,5.85-48.38,2.74-61.47-.43-1.81,.69-3.63,2.5-4.06,1.82-.43,3.63,.69,4.06,2.5,.49,2.07,11.84,50.83-4.45,67.71-5.17,5.36-10.93,7.26-16.36,7.26Z"/>
          <path class="cls-9" d="M244.28,412.27c-3.37,0-5.48-.72-5.69-.8-1.76-.63-2.67-2.56-2.04-4.31,.62-1.74,2.54-2.65,4.28-2.05,.49,.16,10.18,3.11,21.99-8.77,12-12.06,12.95-39.17,2.66-76.34-.5-1.8,.56-3.66,2.35-4.15,1.8-.5,3.65,.56,4.15,2.35,7.75,28.02,13.28,65.14-4.38,82.9-9.27,9.32-17.91,11.17-23.32,11.17Z"/>
          <path class="cls-9" d="M273.79,385.82c-1.37,0-2.65-.83-3.16-2.19-.65-1.74,.22-3.68,1.95-4.34,1.03-.4,24.61-10.12,21.95-52.88-2.39-38.37-24.94-65.15-45.97-71.77-19.99-6.29-38.14,4.17-38.32,4.28-1.58,.98-3.45,.84-4.43-.74-.98-1.58-.49-3.66,1.09-4.64,.83-.52,20.66-12.58,43.69-5.34,23.23,7.31,48.1,36.38,50.68,77.79,2.99,48.04-25.09,59.16-26.29,59.61-.39,.15-.79,.22-1.19,.22Z"/>
        </g>
        <g>
          <path class="cls-6" d="M272.07,186.33c2.99-8.99-1.48-18.44-10.18-22.95-36.42-18.9-8.99-106.76-113.31-106.76v-.03c-.16,0-.3,.01-.46,.01-.16,0-.3-.01-.46-.01v.03c-95.62,.02-77.46,54.18-106.85,100.11-16.34,25.53-18.29,41.26-14.3,50.05,10.21,22.47,44.73,60.26,114.4,63.58v.02c.16,0,.3-.01,.46-.01,.16,0,.3,.01,.46,.01v-.02c83.8,0,120.61-55.04,130.24-84.02Z"/>
          <path class="cls-5" d="M23.93,202.55s42.11,47.51,115.52,47.51,129.56-55.06,129.56-55.06c0,0-31.97,75.38-127.19,75.38S23.93,202.55,23.93,202.55Z"/>
          <path class="cls-9" d="M174.64,270.65c-1.58,0-2.99-1.11-3.31-2.72-.36-1.83,.83-3.6,2.66-3.96,54.28-10.69,85.03-49.07,94.87-78.69,2.41-7.27-1.1-15.04-8.53-18.9-13.97-7.25-19.24-23.36-24.82-40.41-10.11-30.92-21.58-65.97-86.94-65.97h-.91c-66.89,.01-75.72,26.18-86.89,59.31-4.35,12.9-8.85,26.24-17.12,39.24-13.97,21.95-17.61,34.33-13.9,47.31,5.61,19.64,32.12,45.66,77.06,56.39,1.81,.43,2.93,2.25,2.5,4.06-.43,1.81-2.25,2.93-4.06,2.5-47.58-11.36-75.85-39.63-81.99-61.1-4.32-15.13-.48-28.94,14.7-52.78,7.83-12.31,12.2-25.25,16.42-37.77,10.9-32.33,21.2-62.9,89.91-63.88v-.02l3.37-.03h.37s3.92,0,3.92,0v.06c67.3,1.24,79.86,39.64,89.98,70.59,5.36,16.39,9.99,30.54,21.51,36.52,10.28,5.34,15.26,16.7,11.83,27.01-10.41,31.35-42.85,71.94-99.97,83.19-.22,.04-.44,.06-.66,.06Z"/>
          <g>
            <g>
              <path class="cls-9" d="M56.17,154.03c.17-10.85,9.1-19.51,19.95-19.34,10.85,.17,19.51,9.1,19.34,19.95-.17,10.85-9.1,19.51-19.95,19.34-10.85-.17-19.51-9.1-19.34-19.95Z"/>
              <g>
                <path class="cls-2" d="M64.81,145.9c-.65-2,1.72-4.57,5.29-5.73,3.57-1.16,7-.48,7.65,1.52,.65,2-1.72,4.57-5.29,5.73-3.57,1.16-7,.48-7.65-1.52Z"/>
                <path class="cls-2" d="M80.8,163.93c-.46-1.4,.87-3.09,2.97-3.77,2.09-.68,4.16-.1,4.62,1.3,.46,1.4-.87,3.09-2.97,3.77s-4.16,.1-4.62-1.3Z"/>
              </g>
            </g>
            <g>
              <path class="cls-9" d="M170.15,155.78c.17-10.85,9.1-19.51,19.95-19.34,10.85,.17,19.51,9.1,19.34,19.95-.17,10.85-9.1,19.51-19.95,19.34-10.85-.17-19.51-9.1-19.34-19.95Z"/>
              <g>
                <path class="cls-2" d="M178.79,147.65c-.65-2,1.72-4.57,5.29-5.73,3.57-1.16,7-.48,7.65,1.52,.65,2-1.72,4.57-5.29,5.73-3.57,1.16-7,.48-7.65-1.52Z"/>
                <path class="cls-2" d="M194.78,165.68c-.46-1.4,.87-3.09,2.97-3.77,2.09-.68,4.16-.1,4.62,1.3,.46,1.4-.87,3.09-2.97,3.77-2.09,.68-4.16,.1-4.62-1.3Z"/>
              </g>
            </g>
          </g>
          <path class="cls-6" d="M135.6,75.64c-14.41-1.88-26.49-15.09-27.08-29.61,5.84,4.6,11.03,4.28,18.44,4.81-11.61-10.52-14.99-29.08-7.84-43.02,2.72,6.12,9.3,10.59,15.23,13.69,4.19,2.19,8.85,3.37,13.06,5.51,11.87,6.04,19,20.23,16.75,33.36l-28.56,15.26Z"/>
          <path class="cls-9" d="M135.61,79.01c-.15,0-.29,0-.44-.03-16.17-2.11-29.35-16.53-30.02-32.82l-.3-7.32,5.76,4.53c2.79,2.2,5.38,3.05,8.45,3.48-8-11.71-9.46-27.85-2.93-40.57l3.22-6.28,2.87,6.45c1.88,4.23,6.5,8.29,13.72,12.07,1.96,1.03,4.07,1.82,6.31,2.67,2.21,.83,4.5,1.7,6.72,2.83,13.26,6.74,21.06,22.28,18.54,36.94-.32,1.84-2.06,3.08-3.9,2.76-1.84-.32-3.07-2.06-2.76-3.9,1.99-11.63-4.43-24.44-14.95-29.79-1.89-.96-3.91-1.72-6.04-2.53-2.32-.88-4.73-1.78-7.05-3-5.61-2.93-9.88-6.05-12.89-9.43-3.23,11.65,.3,25.09,9.32,33.27l7.25,6.57-9.76-.71c-.94-.07-1.85-.12-2.72-.17-3.88-.23-7.43-.44-10.98-1.69,3.15,10.17,12.41,18.56,23.02,19.95,1.85,.24,3.15,1.94,2.91,3.78-.22,1.7-1.67,2.94-3.34,2.94Z"/>
          <g>
            <g>
              <path class="cls-4" d="M65.16,123.85c-3.81-7.46,19.52-17.61,23.23-10.36,3.71,7.26-19.52,17.61-23.23,10.36Z"/>
              <path class="cls-9" d="M70.54,129.71c-3.68,0-6.81-1.24-8.39-4.32h0c-2.47-4.84,.96-10.54,8.76-14.52,7.85-4.01,17.41-4.93,20.48,1.09,2.45,4.79-1.04,10.47-8.89,14.48-3.83,1.96-8.18,3.27-11.96,3.27Zm-2.38-7.39c.16,.32,1.14,.74,3.14,.6,2.38-.17,5.42-1.1,8.13-2.48,4.83-2.47,6.18-4.95,5.95-5.4-.49-.97-5.31-1.27-11.4,1.85-4.41,2.25-6.16,4.78-5.82,5.44h0Z"/>
            </g>
            <g>
              <path class="cls-4" d="M197.3,125.88c4.04-7.34-18.97-18.21-22.9-11.07-3.93,7.14,18.97,18.21,22.9,11.07Z"/>
              <path class="cls-9" d="M192.21,131.56c-7.19,0-16.97-5.07-20.3-10.58-1.61-2.66-1.77-5.43-.47-7.8,.81-1.48,2.91-3.97,7.82-4.07,7.17-.13,17.19,4.95,20.54,10.48,1.63,2.69,1.79,5.5,.46,7.92-.81,1.47-2.89,3.95-7.74,4.05-.1,0-.2,0-.3,0Zm-12.63-15.7c-.06,0-.12,0-.18,0-1.2,.02-1.9,.31-2.04,.58-.14,.26,.28,.97,.33,1.05,2.13,3.52,9.98,7.42,14.69,7.32,1-.02,1.8-.24,1.97-.56h0c.15-.28-.09-.79-.32-1.17-2.07-3.43-9.7-7.22-14.45-7.22Z"/>
            </g>
          </g>
          <path class="cls-8" d="M172.56,204.73l-31.59-5.88-43.99,6.82s4.22,34.89,37.79,31.74c32.68-3.06,37.79-32.68,37.79-32.68Z"/>
          <path class="cls-9" d="M130.53,240.99c-32.29,0-36.86-34.55-36.9-34.92l-.39-3.24,47.78-7.41,35.43,6.59-.57,3.28c-.05,.32-5.95,32.2-40.8,35.47-1.58,.15-3.09,.22-4.55,.22Zm-29.59-32.52c1.9,8,9.09,27.89,33.51,25.58,23.73-2.22,31.63-19.37,33.94-26.67l-27.48-5.11-39.97,6.2Z"/>
          <path class="cls-1" d="M187.22,197.49c1.22-6.26-2.77-3.76-19.23-9.14-17.38-5.69-19.04-26.08-40.48-26.08s-32.1,20.4-49.48,26.08c-16.45,5.38-26.57,2.98-28.22,9.14-2.26,8.42,24.5,19.69,67.59,19.69s68.17-11.27,69.82-19.69Z"/>
          <path class="cls-9" d="M117.41,220.55c-33.14,0-61.55-6.87-69.1-16.71-2.25-2.94-2.19-5.55-1.74-7.22,1.55-5.77,7.13-6.67,14.2-7.8,4.37-.7,9.81-1.57,16.23-3.67,6.53-2.14,12.14-6.63,18.09-11.39,9.13-7.31,18.58-14.86,32.44-14.86s20.47,7.68,26.44,14.46c4.35,4.95,8.46,9.62,15.09,11.79,5.45,1.78,9.5,2.68,12.46,3.33,5.62,1.24,10.47,2.31,9.03,9.67-2.12,10.86-28.48,22.41-73.13,22.41Zm10.11-54.91c-11.49,0-19.62,6.5-28.22,13.38-6.15,4.92-12.52,10.01-20.21,12.53-6.92,2.26-12.66,3.18-17.26,3.92-5.92,.95-8.37,1.48-8.75,2.89-.11,.42,.42,1.15,.58,1.37,4.48,5.84,27.22,14.07,63.75,14.07,45.01,0,65.53-11.97,66.51-16.96h0c.07-.34,.1-.6,.12-.78-.82-.3-2.48-.67-3.99-1-3.09-.68-7.33-1.62-13.1-3.5-8.38-2.74-13.52-8.59-18.06-13.74-5.75-6.53-10.71-12.17-21.37-12.17Z"/>
          <path class="cls-7" d="M95.01,191.79c-3.49-2.62,5.24-12.22,7.86-8.73s-4.36,11.35-7.86,8.73Z"/>
          <path class="cls-7" d="M139.29,191.79c3.49-2.62-5.24-12.22-7.86-8.73-2.62,3.49,4.36,11.35,7.86,8.73Z"/>
        </g>
      </g>
      <g>
        <path class="cls-10" d="M214.72,173.54c.68,3.76,1.38,7.57,2.98,11.04,1.6,3.47,4.21,6.63,7.75,8.07,3.54,1.44,8.05,.81,10.52-2.1,2.59-3.05,2.37-7.68,.81-11.36-1.36-3.2-3.63-6.01-6.47-8.01-2.12-1.5-4.52-2.53-6.77-3.82-1.9-1.08-7.9-7.05-10.04-5.66-1.93,1.26,.87,9.9,1.22,11.84Z"/>
        <path class="cls-10" d="M249.73,209.25c.58,3.07,1.31,6.17,2.87,8.88,2.2,3.83,6.91,6.79,10.99,5.09,2.62-1.09,4.23-3.8,4.98-6.53,1.4-5.11,.3-10.85-2.9-15.07-2.04-2.7-14.43-17.11-18.12-15.73-4,1.49,1.53,19.85,2.2,23.37Z"/>
        <path class="cls-10" d="M237.15,240.28c-.46,2.86-.91,5.73-1.37,8.59-.54,3.38-1.06,6.92,.04,10.16,1.11,3.24,4.42,6,7.76,5.26,1.97-.44,3.56-2.01,4.42-3.84,.86-1.83,1.07-3.9,1.07-5.92,0-4.91-1.26-9.82-3.61-14.13-1.61-2.96-4.39-8.51-7.3-9.66-.36,3.14-.51,6.36-1.02,9.53Z"/>
      </g>
      <g>
        <path class="cls-10" d="M55.44,175.74c-.68,3.76-1.38,7.56-2.98,11.04-1.6,3.47-4.21,6.63-7.75,8.07-3.54,1.44-8.05,.81-10.52-2.1-2.59-3.05-2.37-7.68-.81-11.36,1.36-3.2,3.63-6.01,6.47-8.01,2.12-1.5,4.52-2.53,6.77-3.82,1.9-1.08,7.9-7.05,10.04-5.66,1.93,1.26-.87,9.9-1.22,11.84Z"/>
        <path class="cls-10" d="M20.43,211.45c-.58,3.07-1.31,6.17-2.87,8.88-2.2,3.83-6.91,6.79-10.99,5.09-2.62-1.09-4.23-3.8-4.98-6.53-1.4-5.11-.3-10.85,2.9-15.07,2.04-2.7,14.43-17.11,18.12-15.73,4,1.49-1.53,19.85-2.2,23.37Z"/>
        <path class="cls-10" d="M33.01,242.47c.46,2.86,.91,5.73,1.37,8.59,.54,3.38,1.06,6.92-.04,10.16-1.11,3.24-4.42,6-7.76,5.26-1.97-.44-3.56-2.01-4.42-3.84-.86-1.83-1.07-3.9-1.07-5.92,0-4.91,1.26-9.82,3.61-14.13,1.61-2.96,4.39-8.51,7.3-9.66,.36,3.14,.51,6.36,1.02,9.53Z"/>
      </g>
    </g>
  </g>
</svg>