<?xml version="1.0" encoding="UTF-8"?>
<svg id="Layer_2" data-name="Layer 2" xmlns="http://www.w3.org/2000/svg" viewBox="0 0 425.91 473.8">
  <defs>
    <style>
      .cls-1 {
        letter-spacing: 0em;
      }

      .cls-2 {
        fill: #f15a24;
      }

      .cls-3 {
        fill: #fff;
      }

      .cls-4 {
        fill: #f39007;
      }

      .cls-5 {
        fill: #ee9d2f;
      }

      .cls-6 {
        fill: #fccb32;
      }

      .cls-7 {
        fill: #ffce43;
      }

      .cls-8 {
        fill: #333;
      }

      .cls-9 {
        fill: #d38700;
      }

      .cls-10 {
        fill: #db4a1d;
      }

      .cls-11 {
        fill: #111;
      }

      .cls-12 {
        fill: red;
        stroke: #000;
        stroke-miterlimit: 10;
        stroke-width: 4px;
      }

      .cls-13 {
        letter-spacing: 0em;
      }

      .cls-14 {
        font-family: HelloHeadlineW00-Regular, HelloHeadlineW00-Regular;
        font-size: 45.52px;
      }
    </style>
  </defs>
  <g id="_ÎÓÈ_1" data-name="—ÎÓÈ_1">
    <g>
      <g>
        <g>
          <path class="cls-7" d="M163.11,263.09s-54.16,26.63-62.13,81.51c-7.97,54.88,33.03,52.88,33.03,52.88l36.93-133.15-7.83-1.25Z"/>
          <path class="cls-5" d="M163.11,258.23s-87.45,87.45-29.67,139.79l31.12-138.84-1.45-.95Z"/>
          <path class="cls-11" d="M133.44,400.86c-3.31,0-16.8-.7-26.62-11.5-9.01-9.92-12.1-25.15-9.18-45.26,8.11-55.83,63.8-89.79,66.17-91.21l2.82-1.69,7.97,12.58-37.99,136.94-2.43,.12c-.07,0-.33,.01-.73,.01Zm31.07-140.38c-11.28,7.6-53.55,38.85-60.2,84.6-2.62,18.02-.09,31.39,7.5,39.75,6.61,7.27,15.46,8.87,19.65,9.2l35.83-129.16-2.78-4.39Z"/>
        </g>
        <path class="cls-2" d="M310.07,428.17c5.94,4.91,10.57,11.37,13.32,18.57,1.12,2.94,1.91,6.33,.54,9.16-1.4,2.9-5.11,4.46-8.16,3.42-2.42-.83-4.52-3.06-7.05-2.7-1.71,.24-3.04,1.64-3.93,3.12s-1.52,3.14-2.63,4.47c-1.88,2.25-5.16,3.27-7.94,2.33-3.05-1.03-5.52-4.16-8.71-3.74-4.19,.55-5.79,6.76-10.36,7.56-2.78,.48-5.5-1.5-6.9-3.95-1.4-2.45-1.82-5.32-2.46-8.07-1.55-6.67-4.55-13-8.73-18.43l53.02-11.74Z"/>
        <path class="cls-2" d="M166.91,428.17c-5.94,4.91-10.57,11.37-13.32,18.57-1.12,2.94-1.91,6.33-.54,9.16,1.4,2.9,5.11,4.46,8.16,3.42,2.42-.83,4.52-3.06,7.05-2.7,1.71,.24,3.04,1.64,3.93,3.12s1.52,3.14,2.63,4.47c1.88,2.25,5.16,3.27,7.94,2.33,3.05-1.03,5.52-4.16,8.71-3.74,2.11,.28,3.65,2.05,5.02,3.67,1.45,1.72,3.12,3.5,5.34,3.89,2.78,.48,5.5-1.5,6.9-3.95,1.4-2.45,1.82-5.32,2.46-8.07,1.55-6.67,4.55-13,8.73-18.43l-53.02-11.74Z"/>
        <path class="cls-11" d="M202.71,473.8c-6.64,0-9.43-7.37-11.68-7.66-1.39-.17-4.09,2.55-7.19,3.59-4.05,1.37-8.82-.02-11.61-3.36-1.41-1.69-2.09-3.5-2.93-4.89-.59-.99-1.2-1.48-1.51-1.52-.87-.12-3.16,1.76-5.5,2.55-4.64,1.58-10.15-.73-12.28-5.15-2.28-4.73-.24-10.08,.43-11.83,2.96-7.77,7.92-14.67,14.32-19.97,1.44-1.19,3.56-.98,4.75,.45,1.19,1.44,.99,3.56-.45,4.75-5.51,4.56-9.77,10.49-12.32,17.17-1.13,2.95-1.34,5.08-.66,6.5,.66,1.38,2.59,2.18,4.03,1.69,1.93-.66,4.69-3.38,8.61-2.85,2.51,.35,4.7,1.98,6.35,4.72,.74,1.23,1.58,3.15,2.33,4.05,1.02,1.22,2.85,1.77,4.27,1.3,2.46-.83,5.53-4.49,10.23-3.89,5.63,.74,7.75,7.1,10.5,7.58,1.06,.18,2.55-.82,3.39-2.3,1.1-1.92,1.48-4.46,2.1-7.16,1.66-7.11,4.89-13.93,9.35-19.72,1.14-1.47,3.26-1.75,4.73-.61,1.48,1.14,1.75,3.26,.61,4.73-3.87,5.03-6.68,10.95-8.12,17.13-.66,2.83-1.13,6.03-2.82,8.98-1.71,2.99-5.04,5.72-8.96,5.72Z"/>
        <path class="cls-11" d="M274.27,473.8c-3.91,0-7.25-2.73-8.95-5.72-1.4-2.45-1.98-5.12-2.49-7.49-1.46-6.78-4.02-12.87-8.45-18.63-1.14-1.48-.86-3.59,.61-4.73,1.48-1.13,3.59-.86,4.73,.61,4.99,6.48,7.98,13.41,9.7,21.32,.45,2.07,.87,4.02,1.75,5.56,.84,1.47,2.34,2.49,3.39,2.3,2.77-.48,4.84-6.84,10.5-7.58,4.67-.6,7.79,3.07,10.23,3.89,1.42,.48,3.25-.08,4.27-1.29,1.55-1.86,3.1-7.99,8.69-8.77,3.91-.54,6.66,2.19,8.61,2.85,1.44,.49,3.37-.31,4.03-1.69,.68-1.42,.47-3.54-.66-6.5-2.55-6.68-6.81-12.62-12.32-17.17-1.44-1.19-1.64-3.31-.45-4.75,1.19-1.43,3.31-1.64,4.75-.45,6.41,5.3,11.36,12.2,14.32,19.97,.67,1.76,2.71,7.1,.43,11.83-2.13,4.42-7.64,6.73-12.28,5.14-2.41-.82-4.61-2.69-5.5-2.55-.87,.12-1.94,2.29-2.29,2.96-.56,1.09-1.2,2.32-2.15,3.45-2.79,3.35-7.56,4.73-11.61,3.37-3.15-1.07-5.74-3.76-7.18-3.59-2.35,.31-4.9,7.66-11.68,7.66Z"/>
        <path class="cls-7" d="M289.55,230.68l-50.39,8.37-52.64-8.37s-77.25,85.21-52.07,153.38c23.51,63.66,95.32,63.41,104.71,63.1,9.39,.31,81.2,.56,104.71-63.1,25.18-68.17-54.32-153.38-54.32-153.38Z"/>
        <path class="cls-5" d="M315.93,260.83c20.25,31.02,43.74,79.58,28.2,121.67-23.51,63.66-95.32,63.41-104.71,63.1-9.21,.31-78.41,.51-103.26-59.52,0,0,27.11,27.86,78.94,30.02,51.82,2.16,76.66-49.66,73.42-99.33l27.42-55.94Z"/>
        <path class="cls-11" d="M236.42,450.58c-15.76,0-82.39-3.77-105.13-65.35-25.59-69.29,49.52-153.28,52.73-156.82l1.23-1.35,53.9,8.58,51.64-8.58,1.23,1.32c3.3,3.54,80.62,87.53,55.02,156.86-24.43,66.15-99.5,65.6-107.99,65.31-.57,.02-1.46,.04-2.63,.04Zm-48.59-216.27c-9.56,11.1-72.69,87.72-50.21,148.59,22.79,61.71,93.45,61.16,101.43,60.9,8.2,.26,78.87,.81,101.66-60.9,22.5-60.93-42.66-137.59-52.42-148.59l-49.11,8.16-51.34-8.17Z"/>
        <g>
          <path class="cls-7" d="M285.13,311.91s-.25,19.09,14.32,38.7c14.57,19.61,33.82,42.75,28.99,74.77,0,0,19.81,8.34,28.66-8.83,0,0,12.49,.65,21.66-16.49,2.85-5.32,3.92-11.49,3.67-18.15,1.7-1.38,22.16-19.13,6.82-60.7-13.13-35.58-42.87-57.41-67.77-57.74-22.86-.31-32.79,17.39-32.79,17.39l-3.56,31.05Z"/>
          <path class="cls-11" d="M338.98,430.82c-4.61,0-8.88-1.07-11.85-2.32l-2.42-1.02,.39-2.59c4.32-28.63-11.56-49.83-25.58-68.53l-2.79-3.73c-15.08-20.3-15-39.93-14.99-40.76,.02-1.86,1.52-3.28,3.42-3.33,1.86,.02,3.35,1.55,3.33,3.41h0c0,.18,0,18.27,13.66,36.65l2.77,3.71c13.65,18.22,30.54,40.76,27.22,70.76,4.95,1.37,16.24,3.02,21.95-8.06,7.53-14.61-8.3-48.02-15.03-59.67-.93-1.61-.38-3.68,1.23-4.61,1.61-.93,3.68-.38,4.61,1.23,1.06,1.84,25.94,45.29,15.19,66.14-5.06,9.81-13.54,12.71-21.12,12.71Z"/>
          <path class="cls-11" d="M357.25,419.93c-.17,0-.28,0-.32,0-1.86-.1-3.29-1.68-3.2-3.54,.1-1.85,1.66-3.3,3.51-3.2,.54,0,10.64,.06,18.54-14.71,8.03-15,1.15-41.24-19.38-73.89-.99-1.58-.52-3.66,1.06-4.65,1.58-.99,3.66-.52,4.65,1.06,15.47,24.61,31.44,58.58,19.62,80.66-9.36,17.48-22.23,18.28-24.49,18.28Z"/>
          <path class="cls-11" d="M281.2,277.76c.65-.73,16.19-18.03,40.31-17.67,24.35,.33,56.52,21.03,70.89,59.95,16.67,45.15-7.04,63.87-8.06,64.65-.61,.46-1.33,.69-2.04,.69-1.02,0-2.02-.46-2.69-1.33-1.12-1.48-.84-3.58,.62-4.72,.85-.67,20.68-16.74,5.83-56.95-13.31-36.07-42.6-55.24-64.65-55.54-.19,0-.38,0-.57,0-20.65,0-34.47,15.24-34.6,15.4l-5.05-4.47Z"/>
        </g>
        <g>
          <path class="cls-7" d="M357.85,227.25c4.97-8.07,2.79-18.29-4.64-24.68-31.11-26.76,15.75-105.97-85.78-129.92v-.03c-.15-.04-.29-.06-.44-.09-.15-.04-.29-.08-.44-.12v.03c-93.07-21.93-87.83,34.95-126.98,72.91-21.77,21.1-27.27,35.96-25.4,45.43,4.78,24.21,29.71,68.92,96.75,88.14v.02c.15,.04,.29,.06,.44,.09,.15,.04,.29,.08,.44,.12v-.02c81.56,19.23,130.03-25.89,146.05-51.88Z"/>
          <path class="cls-5" d="M112.62,186.08s30.08,55.9,101.54,72.75c71.46,16.85,138.74-23.85,138.74-23.85,0,0-48.42,66.03-141.1,44.18-92.68-21.86-99.18-93.07-99.18-93.07Z"/>
          <path class="cls-11" d="M249.89,287.14c-1.84,0-3.69-.03-5.56-.1-1.86-.07-3.32-1.64-3.25-3.5,.07-1.86,1.63-3.31,3.5-3.25,55.25,2.06,94.02-28.24,110.4-54.82,4.02-6.52,2.38-14.89-3.97-20.35-11.93-10.26-13.36-27.15-14.88-45.02-2.75-32.42-5.86-69.16-69.48-84.17l-1.47-.35c-64.61-15.06-79.18,8.33-97.6,37.92-7.19,11.56-14.63,23.51-25.67,34.26-18.64,18.16-25.02,29.37-24.39,42.85,.95,20.4,20.78,51.82,62.06,72.57,1.66,.84,2.34,2.87,1.5,4.53-.84,1.66-2.87,2.33-4.53,1.5-43.7-21.98-64.73-55.99-65.77-78.29-.73-15.72,6.18-28.28,26.42-48,10.45-10.18,17.67-21.78,24.65-32.99,18.04-28.98,35.08-56.38,102.24-41.52v-.04s7.47,1.76,7.47,1.76v.05c65.13,16.66,68.54,56.9,71.29,89.34,1.46,17.18,2.71,32.01,12.55,40.48,8.78,7.56,11.02,19.76,5.31,29.01-16.77,27.21-55.61,58.12-110.83,58.12Z"/>
          <g>
            <g>
              <circle class="cls-11" cx="174.19" cy="151.06" r="19.65" transform="translate(-23.81 32.92) rotate(-10.11)"/>
              <g>
                <path class="cls-3" d="M165.41,140.32c-.17-2.1,2.72-4.05,6.47-4.36,3.75-.31,6.92,1.13,7.1,3.23,.17,2.1-2.72,4.05-6.47,4.36-3.75,.31-6.92-1.13-7.1-3.23Z"/>
                <path class="cls-3" d="M176.83,161.54c-.12-1.47,1.56-2.81,3.75-2.99,2.19-.18,4.07,.86,4.19,2.33,.12,1.47-1.56,2.81-3.75,2.99-2.19,.18-4.07-.86-4.19-2.33Z"/>
              </g>
            </g>
            <g>
              <circle class="cls-11" cx="284.73" cy="178.92" r="19.65" transform="translate(-26.99 52.76) rotate(-10.11)"/>
              <g>
                <path class="cls-3" d="M275.94,168.19c-.17-2.1,2.72-4.05,6.47-4.36,3.75-.31,6.92,1.13,7.1,3.23,.17,2.1-2.72,4.05-6.47,4.36-3.75,.31-6.92-1.13-7.1-3.23Z"/>
                <path class="cls-3" d="M287.37,189.41c-.12-1.47,1.56-2.81,3.75-2.99,2.19-.18,4.07,.86,4.19,2.33,.12,1.47-1.56,2.81-3.75,2.99-2.19,.18-4.07-.86-4.19-2.33Z"/>
              </g>
            </g>
          </g>
          <path class="cls-7" d="M250.44,88.19c-13.6-5.14-22.32-20.77-19.56-35.04,4.63,5.82,9.75,6.69,16.84,8.92-8.88-12.91-7.91-31.74,2.24-43.67,1.24,6.58,6.62,12.44,11.69,16.82,3.57,3.09,7.84,5.31,11.45,8.36,10.17,8.6,13.85,24.05,8.64,36.32l-31.3,8.29Z"/>
          <path class="cls-11" d="M250.44,91.56c-.4,0-.8-.07-1.19-.22-15.25-5.77-24.78-22.83-21.68-38.83l1.39-7.19,4.56,5.73c2.21,2.78,4.54,4.2,7.43,5.32-5.1-13.23-2.81-29.27,6.45-40.16l4.58-5.37,1.31,6.93c.86,4.55,4.42,9.56,10.58,14.89,1.68,1.45,3.55,2.71,5.53,4.05,1.96,1.32,3.98,2.68,5.89,4.29,11.36,9.61,15.38,26.52,9.57,40.21-.73,1.72-2.71,2.51-4.42,1.79-1.72-.73-2.52-2.71-1.79-4.42,4.61-10.86,1.29-24.8-7.71-32.42-1.62-1.37-3.4-2.57-5.29-3.84-2.06-1.39-4.2-2.82-6.18-4.54-4.79-4.14-8.23-8.16-10.38-12.14-5.82,10.59-5.46,24.49,1.44,34.52l5.55,8.06-9.34-2.93c-.9-.28-1.77-.54-2.61-.8-3.72-1.12-7.13-2.14-10.3-4.16,.73,10.63,7.82,20.91,17.83,24.7,1.74,.66,2.62,2.61,1.96,4.35-.51,1.35-1.79,2.18-3.16,2.18Z"/>
          <g>
            <g>
              <path class="cls-4" d="M170.81,118.95c-2-8.13,23.04-12.66,24.99-4.75s-23.04,12.66-24.99,4.75Z"/>
              <path class="cls-11" d="M179.57,126.4c-5.78,0-10.86-1.88-12.03-6.65h0c-1.3-5.27,3.36-10.03,11.85-12.12,8.56-2.11,18.07-.8,19.69,5.76,1.28,5.22-3.42,9.96-11.98,12.06-2.47,.61-5.06,.95-7.53,.95Zm-5.48-8.26c.25,1.02,4.82,2.37,11.4,.76,5.27-1.29,7.16-3.4,7.04-3.9-.26-1.05-4.89-2.45-11.52-.82-4.81,1.18-7.09,3.24-6.91,3.96h0Z"/>
            </g>
            <g>
              <path class="cls-4" d="M309.44,158.91c4.94-6.77-16.51-20.46-21.32-13.88-4.8,6.58,16.51,20.46,21.32,13.88Z"/>
              <path class="cls-11" d="M306.59,163.97c-4.48,.47-10.12-1.89-14.69-5.23-7.12-5.19-9.67-11.36-6.5-15.7,3.98-5.46,13.28-3.06,20.4,2.14,7.07,5.16,9.57,11.33,6.37,15.71h0c-1.38,1.89-3.33,2.84-5.57,3.07Zm2.85-5.06h.02s-.02,0-.02,0Zm-17.7-12.24c-.45,.05-.76,.17-.89,.35-.17,.24,.16,1,.2,1.08,1.66,3.76,8.93,8.62,13.65,9.12,1,.11,1.81-.01,2.02-.3h0c.44-.6-.89-3.37-4.89-6.29-4.39-3.2-8.33-4.15-10.08-3.96Z"/>
            </g>
          </g>
          <path class="cls-10" d="M256.78,222.32l-29.4-12.97-44.38-3.46s-3.9,34.93,29.49,39.57c32.51,4.52,44.28-23.14,44.28-23.14Z"/>
          <path class="cls-11" d="M219.48,249.33c-2.36,0-4.84-.17-7.45-.53-36.23-5.04-32.43-42.9-32.38-43.29l.36-3.24,48.2,3.76,32.97,14.55-1.3,3.06c-.12,.28-11.29,25.69-40.4,25.69Zm-33.26-39.81c.01,8.23,2.46,29.22,26.75,32.59,23.6,3.28,35.23-11.59,39.16-18.16l-25.57-11.29-40.33-3.14Z"/>
          <path class="cls-2" d="M272.72,218.63c2.63-5.81-1.84-4.3-16.61-13.31-15.61-9.52-12.54-29.75-33.41-34.68-20.87-4.92-35.92,12.48-54.14,14.03-17.25,1.46-26.54-3.2-29.57,2.42-4.13,7.68,19.32,24.78,61.26,34.67,41.94,9.89,68.94,4.68,72.47-3.14Z"/>
          <path class="cls-11" d="M242.12,230.63c-39.2,0-97.78-19.26-106.08-37.7-1.52-3.38-.86-5.9-.04-7.43,2.83-5.27,8.48-4.85,15.61-4.34,18.67,1.36,22.88-.14,36.86-6.78,10.57-5.01,21.5-10.2,34.98-7.02,13.34,3.15,18.16,12.18,22.41,20.14,6.08,11.39,8.03,13.66,23.34,21.04,5.18,2.5,9.66,4.65,6.57,11.48,.11,0-3.44,10.6-33.67,10.6Zm-96.43-43.01c-2.2,0-3.31,.29-3.74,1.08-.21,.38,.14,1.22,.25,1.47,3.02,6.71,23.27,19.94,58.82,28.33,43.8,10.33,66.53,3.39,68.63-1.24,.14-.32,.24-.56,.3-.73-.72-.48-2.26-1.22-3.65-1.89-16.64-8.01-19.58-11.21-26.37-23.94-4.09-7.68-7.63-14.3-18.01-16.75-11.18-2.63-20.58,1.83-30.54,6.55-15.35,7.29-20.56,8.85-40.25,7.41-2.29-.17-4.07-.28-5.44-.28Z"/>
          <path class="cls-8" d="M184.28,191.92c-2.8-3.35,7.9-10.69,9.65-6.69,1.75,4-6.85,10.04-9.65,6.69Z"/>
          <path class="cls-8" d="M227.37,202.09c4-1.75-2.29-13.1-5.64-10.3s1.64,12.05,5.64,10.3Z"/>
        </g>
        <g>
          <path class="cls-6" d="M197.8,12.12l-2.43,7.8c-.1,.33-.36,.58-.69,.69l-7.8,2.43c-.98,.3-.98,1.69,0,1.99l7.8,2.43c.33,.1,.58,.36,.69,.69l2.43,7.8c.3,.98,1.69,.98,1.99,0l2.43-7.8c.1-.33,.36-.58,.69-.69l7.8-2.43c.98-.3,.98-1.69,0-1.99l-7.8-2.43c-.33-.1-.58-.36-.69-.69l-2.43-7.8c-.3-.98-1.69-.98-1.99,0Z"/>
          <path class="cls-9" d="M198.8,40.05c-1.95,0-3.64-1.25-4.22-3.11l-2.06-6.63-6.63-2.06c-1.86-.58-3.11-2.27-3.11-4.22s1.25-3.64,3.11-4.22l6.63-2.06,2.06-6.63c.58-1.86,2.27-3.11,4.22-3.11s3.64,1.25,4.22,3.11l2.06,6.63,6.63,2.06c1.86,.58,3.11,2.27,3.11,4.22s-1.25,3.64-3.11,4.22l-6.63,2.06-2.06,6.63c-.58,1.86-2.27,3.11-4.22,3.11Zm-3.76-16.02l.65,.2c1.39,.43,2.48,1.52,2.91,2.91l.2,.65,.2-.65c.43-1.39,1.52-2.48,2.91-2.91l.65-.2-.65-.2c-1.39-.43-2.47-1.52-2.91-2.9l-.2-.65-.2,.65c-.43,1.39-1.52,2.47-2.9,2.91l-.65,.2Zm5.98-10.91h0s0,0,0,0Zm-3.22-1h0Z"/>
        </g>
        <g>
          <path class="cls-6" d="M408.9,259.21l-2.43,7.8c-.1,.33-.36,.58-.69,.69l-7.8,2.43c-.98,.3-.98,1.69,0,1.99l7.8,2.43c.33,.1,.58,.36,.69,.69l2.43,7.8c.3,.98,1.69,.98,1.99,0l2.43-7.8c.1-.33,.36-.58,.69-.69l7.8-2.43c.98-.3,.98-1.69,0-1.99l-7.8-2.43c-.33-.1-.58-.36-.69-.69l-2.43-7.8c-.3-.98-1.69-.98-1.99,0Z"/>
          <path class="cls-9" d="M409.89,287.14c-1.95,0-3.64-1.25-4.22-3.11l-2.06-6.63-6.63-2.06c-1.86-.58-3.11-2.27-3.11-4.22s1.25-3.64,3.11-4.22l6.63-2.06,2.06-6.63c.58-1.86,2.27-3.11,4.22-3.11s3.64,1.25,4.22,3.11l2.06,6.63,6.63,2.06c1.86,.58,3.11,2.27,3.11,4.22s-1.25,3.64-3.11,4.22l-6.63,2.06-2.06,6.63c-.58,1.86-2.27,3.11-4.22,3.11Zm-3.76-16.02l.65,.2c1.39,.43,2.47,1.52,2.91,2.91l.2,.65,.2-.65c.43-1.39,1.52-2.47,2.91-2.91l.65-.2-.65-.2c-1.38-.42-2.47-1.51-2.91-2.91l-.2-.65-.2,.65c-.43,1.39-1.52,2.48-2.92,2.91l-.64,.2Zm-1.36-6.64s0,0-.01,0h.01Zm10.22,0h.01s0,0-.01,0Zm-2.88-4.26h0s0,0,0,0Zm-3.22-1h0Z"/>
        </g>
        <g>
          <path class="cls-6" d="M380.76,104.67l-3.93,12.62c-.17,.53-.58,.95-1.11,1.11l-12.62,3.93c-1.58,.49-1.58,2.73,0,3.23l12.62,3.93c.53,.17,.95,.58,1.11,1.11l3.93,12.62c.49,1.58,2.73,1.58,3.23,0l3.93-12.62c.17-.53,.58-.95,1.11-1.11l12.62-3.93c1.58-.49,1.58-2.73,0-3.23l-12.62-3.93c-.53-.17-.95-.58-1.11-1.11l-3.93-12.62c-.49-1.58-2.73-1.58-3.23,0Z"/>
          <path class="cls-9" d="M382.37,147.78c-2.23,0-4.17-1.43-4.83-3.56l-3.66-11.78-11.78-3.66c-2.13-.66-3.56-2.61-3.56-4.84,0-2.23,1.43-4.17,3.56-4.83l11.78-3.66,3.66-11.78h0c.66-2.13,2.61-3.56,4.83-3.56h0c2.23,0,4.17,1.43,4.83,3.56l3.66,11.78,11.78,3.66c2.13,.66,3.56,2.6,3.56,4.83,0,2.23-1.43,4.17-3.56,4.84l-11.78,3.66-3.66,11.78c-.66,2.13-2.6,3.56-4.83,3.56h0Zm-13.1-23.84l7.45,2.32c1.59,.49,2.84,1.74,3.33,3.33l2.32,7.45,2.32-7.45c.49-1.59,1.74-2.84,3.33-3.33l7.45-2.32-7.45-2.32c-1.59-.49-2.84-1.74-3.33-3.33l-2.32-7.45-2.32,7.45c-.49,1.59-1.74,2.84-3.33,3.33l-7.45,2.32Zm20.76,8.76h0s0,0,0,0Zm1.11-1.11h0s0,0,0,0Zm-17.52-15.3s0,0,0,0h0Zm17.52,0h0s0,0,0,0Zm-1.11-1.1h0Z"/>
        </g>
        <g>
          <path class="cls-6" d="M82.13,266.83l-3.11,10c-.13,.42-.46,.75-.88,.88l-10,3.11c-1.26,.39-1.26,2.17,0,2.56l10,3.11c.42,.13,.75,.46,.88,.88l3.11,10c.39,1.26,2.17,1.26,2.56,0l3.11-10c.13-.42,.46-.75,.88-.88l10-3.11c1.26-.39,1.26-2.17,0-2.56l-10-3.11c-.42-.13-.75-.46-.88-.88l-3.11-10c-.39-1.26-2.17-1.26-2.56,0Z"/>
          <path class="cls-9" d="M83.41,301.7c-2.08,0-3.88-1.33-4.5-3.31l-2.79-8.98-8.98-2.79c-1.98-.62-3.31-2.43-3.31-4.5,0-2.07,1.33-3.88,3.31-4.5l8.98-2.79,2.79-8.98c.62-1.98,2.42-3.31,4.5-3.31s3.88,1.33,4.5,3.31l2.79,8.98,8.98,2.8c1.98,.61,3.31,2.42,3.31,4.5,0,2.08-1.33,3.88-3.31,4.5l-8.99,2.79-2.8,8.98c-.62,1.98-2.42,3.31-4.5,3.31Zm-8.03-19.59l3.76,1.17c1.48,.46,2.64,1.62,3.1,3.1l1.17,3.76,1.17-3.76c.46-1.48,1.62-2.64,3.1-3.1l3.76-1.17-3.76-1.17c-1.48-.46-2.64-1.62-3.1-3.1l-1.17-3.76-1.17,3.76c-.46,1.48-1.62,2.64-3.1,3.1l-3.75,1.17Zm9.97-14.27h0s0,0,0,0c0,0,0,0,0,0Zm-3.22-1h0Z"/>
        </g>
        <g>
          <path class="cls-6" d="M87.4,100.49l-3.45,11.08c-.14,.47-.51,.83-.98,.98l-11.08,3.45c-1.39,.43-1.39,2.4,0,2.83l11.08,3.45c.47,.14,.83,.51,.98,.98l3.45,11.08c.43,1.39,2.4,1.39,2.83,0l3.45-11.08c.15-.47,.51-.83,.98-.98l11.08-3.45c1.39-.43,1.39-2.4,0-2.83l-11.08-3.45c-.47-.15-.83-.51-.98-.98l-3.45-11.08c-.43-1.39-2.4-1.39-2.83,0Z"/>
          <path class="cls-9" d="M88.81,138.76c-2.14,0-4-1.37-4.64-3.41l-3.15-10.14-10.13-3.15c-2.04-.63-3.41-2.5-3.42-4.64,0-2.14,1.37-4,3.41-4.64l10.13-3.15,3.15-10.13h0c.63-2.04,2.5-3.41,4.64-3.41h0c2.14,0,4,1.37,4.64,3.42l3.15,10.13,10.13,3.15c2.04,.63,3.42,2.5,3.42,4.64,0,2.14-1.37,4-3.42,4.64l-10.13,3.15-3.15,10.13c-.63,2.04-2.5,3.41-4.64,3.42h0Zm-10.12-21.34l5.28,1.64c1.53,.47,2.72,1.67,3.2,3.2l1.64,5.28,1.64-5.28c.47-1.53,1.67-2.72,3.19-3.2l5.28-1.64-5.28-1.64c-1.53-.48-2.72-1.67-3.2-3.2l-1.64-5.28-1.64,5.28c-.47,1.53-1.67,2.72-3.2,3.2l-5.28,1.64Z"/>
        </g>
      </g>
      <path class="cls-12" d="M341.61,6.49c.81-1.61,2.16-2.77,4.05-3.5,1.89-.72,4.03-1.05,6.43-.99,2.2,.06,4.55,.4,7.02,1.04,2.48,.64,4.43,1.41,5.84,2.31,4.64,2.32,7.75,6.53,9.32,12.61,.87,3.28,1.26,7.28,1.14,11.97-.19,7.38-1.44,15.34-3.77,23.86-2.33,8.53-4.64,14.54-6.93,18.03-3.49,5.29-7.2,7.88-11.13,7.78-2.11-.05-3.82-.58-5.14-1.57-2.64-1.89-4.72-5.08-6.23-9.58-1.52-4.5-2.14-12.16-1.87-23l.85-22.14-.14-6.05v-5.61s.03-1.44,.03-1.44c.03-1.34,.21-2.58,.53-3.73Zm7.79,79.34c1.94-.81,3.96-1.2,6.07-1.14,3.07,.08,5.71,1.03,7.91,2.86,2.21,1.83,3.28,4.18,3.2,7.06-.05,1.92-.63,3.85-1.73,5.78-1.1,1.94-2.92,3.45-5.44,4.54-2.52,1.09-5.22,1.6-8.1,1.52-2.4-.06-4.67-1.03-6.83-2.91-2.16-1.88-3.2-4.16-3.14-6.84,.06-2.49,.86-4.7,2.4-6.63,1.53-1.93,3.42-3.34,5.65-4.25Z"/>
      <text class="cls-14" transform="translate(0 193.86)"><tspan class="cls-13" x="0" y="0">o</tspan><tspan x="26.45" y="0">p</tspan><tspan class="cls-1" x="51.03" y="0">p</tspan><tspan x="75.48" y="0">s</tspan></text>
      <path class="cls-12" d="M226.96,225.28s38.69,84.65,40.33-4.46l-40.33,4.46Z"/>
      <line class="cls-12" x1="252.12" y1="223.95" x2="253.82" y2="242.37"/>
    </g>
  </g>
</svg>