<?xml version="1.0" encoding="UTF-8"?>
<svg xmlns="http://www.w3.org/2000/svg" viewBox="0 0 121.19 113.96">
  <defs>
    <style>
      .cls-1 {
        fill: #f95900;
      }

      .cls-2 {
        fill: #fffeee;
      }

      .cls-3 {
        fill: #fff;
      }

      .cls-4 {
        fill: #ffed85;
      }

      .cls-5 {
        fill: #e8e7e3;
      }

      .cls-6 {
        fill: #ff9a2c;
      }

      .cls-7, .cls-8 {
        fill: #ffc765;
      }

      .cls-9 {
        fill: #ca0000;
      }

      .cls-10 {
        fill: #141413;
      }

      .cls-11 {
        fill: #650000;
      }

      .cls-12 {
        fill: #2b0000;
      }

      .cls-13 {
        fill: #ff93ae;
      }

      .cls-13, .cls-14, .cls-8, .cls-15 {
        mix-blend-mode: multiply;
      }

      .cls-14 {
        fill: #ffb700;
      }

      .cls-15 {
        fill: #995400;
        opacity: .4;
      }

      .cls-16 {
        isolation: isolate;
      }
    </style>
  </defs>
  <g class="cls-16">
    <g id="Layer_2" data-name="Layer 2">
      <g id="ducks">
        <g>
          <rect class="cls-11" x="71.06" y="83.22" width="5.1" height="30.74"/>
          <path class="cls-7" d="M120.5,34.78c-.75-1.24-1.76-.72-2.69,.26,.08-.32,.17-.62,.26-.91,.45-1.56,1.01-3.46,.51-5.08-.47-1.45-2.07-1.01-3.04-.53-1.57,.77-2.98,2.08-4.33,3.46-.03-1.24-1-1.91-2.34-1.69-.89,.14-1.74,.77-2.48,1.21-1.58,.97-3.06,2.09-4.6,3.12-3.26,2.2-6.8,4.03-10.37,5.54-3.54,1.49-7.21,2.43-11.03,2.51-3.34,.03-6.74-.57-10.03-1.25-3.06-.63-6.09-1.54-8.99-2.78-2.83-1.21-5.11-3.05-7.57-4.82,.54-2.88,.86-5.82,.72-8.75-.18-3.97-2.01-7.51-4.49-10.45-4.29-5.09-11.26-8.69-17.81-7.37-.23-.49-.43-.97-.47-1.61-.08-1.2,.23-2.24,.99-3.17,.08-.12-.04-.32-.18-.26-.2,.09-.37,.2-.54,.34-1.21,.4-2.38,1.85-2.75,3.32-.2-.52-.38-1.08-.43-1.69-.12-1.48,.17-2.92,1.31-3.91,.06-.07,.05-.26-.09-.23-.02,0-.02,.01-.02,.01-.04-.03-.06-.06-.11-.06-3.43-.26-5.4,3.74-5.17,7.2-1.15-1.35-1.55-3.03-1.22-5.09,.04-.09,.06-.2,.08-.29,.04-.08,.04-.14,.01-.2,.02-.05,.02-.11,.03-.16,.03-.14-.14-.23-.23-.12-.03,.05-.06,.08-.08,.12-.06,.02-.11,.02-.14,.08-1.78,1.91-2.34,4.26-1.74,6.83,.16,.66,.5,1.37,.95,2-2.51,1.51-4.52,3.81-6.06,6.59-2.14,3.85-3.52,9.66-1.48,13.84,.67,6.4,4.93,12.36,10.27,15.39,2.79,1.6,6.09,2.29,9.31,2.25-.88,5.51-1.03,11.23,.17,16.68,1.34,6.12,4.37,11.69,8.31,16.43,10.91,13.14,30.36,14.89,45.58,10.92,9.88-2.6,17.86-8.92,23.32-17.81,5.73-9.31,8.11-20.08,8.71-30.99,.15-2.68,1.43-6.46-.03-8.9Z"/>
          <path class="cls-8" d="M22.41,10.38c-.28,.17-.53,.35-.8,.52,.69-.32,1.42-.59,2.19-.77-1.37-2.6-2.4-5.57-1.03-8.06-1.43,1.8-1.85,3.97-1.31,6.31,.16,.66,.5,1.37,.95,2Z"/>
          <path class="cls-8" d="M25.86,9.92c.5-.4,1.04-.71,1.63-.94-1.4-3.31-.87-6.49,1.36-8.91-2.36,.48-3.83,3.11-4.07,5.79,.06,1.43,.41,2.8,1.08,4.06Z"/>
          <path class="cls-8" d="M120.5,34.78c-.75-1.24-1.76-.72-2.69,.26,.08-.32,.17-.62,.26-.91,.45-1.56,1.01-3.46,.51-5.08-.47-1.45-2.07-1.01-3.04-.53-1.57,.77-2.98,2.08-4.33,3.46-.03-1.15-.89-1.8-2.08-1.7,.08,.21,.11,.49,.08,.88-.12,1.12-1.03,2.25-1.69,3.09-.79,1.01-1.63,1.97-2.46,2.92,2.98-1.48,5.73-3.55,8.06-5.97,.62-.63,2.68-3.09,3.77-2.01,1.39,1.37,.34,4.43-.37,5.88-.86,1.78-1.97,3.43-3.21,4.92,1.48-.96,2.86-1.99,4.19-3.26,.72-.72,1.4-1.24,2.24-.49,2.03,1.78,.08,7.55-.37,9.71-1.03,4.91-2.12,9.94-4.13,14.56-.97,2.25-2.49,5.75-4.96,6.6-.23,.09-.5-.14-.49-.4,.01-.8,.15-1.58,.21-2.39,.11-1.11,.22-2.71-1.23-1.66-.29,.21-.69-.12-.58-.48,.85-3.12,2.48-6.17,2.73-9.43,.15-1.8,.12-6.25-2.65-4.23-.31,.23-.63-.15-.58-.46,.26-1.76,1.51-5.57-1.04-6.09-2.58-.54-5.55,.97-7.92,1.88-3.42,1.31-7.16,3.58-10.93,3.28-.11,.31-.54,.46-.71,.1-.02-.06-.08-.13-.09-.2-.06-.01-.12-.01-.17-.01-.3-.06-.36-.37-.21-.6-1.74-2.33-5.79-2.8-8.31-3.06-4.05-.41-8.37-.34-12.35,.59-4.61,1.11-8.79,3.58-11.95,7.29-1.59,1.86-3.02,3.97-4.03,6.22-1.03,2.28-1.2,4.46-1.68,6.88-.09,.38-.52,.36-.73,.09-2.23-3.08-3.2-7.33-3.25-11.31-1.48,4.77-1.2,9.78,.48,14.56,.89,2.57,1.88,4.32,3.72,6.21,1.02,1.05,1.48,2.71,1.7,4.15,.04,.25-.1,.52-.37,.52-4.23-.14-7.8-5.01-9.51-8.6-1.97-4.11-3.09-8.61-3.59-13.18-.21-2.06-.41-4.43,.26-6.46,.57-1.63,1.51-2.48,2.81-3.48,3.51-2.74,7.21-5.57,8.6-9.91-2.16,2.62-5.82,4.09-8.81,5.02-1.43,.43-3.55,1.54-5.04,1.11-.52-.16-.75-.42-.83-.73-.28-.47-.37-1.18-.2-2.11,.24-1.28,.85-2.68,.8-4-.08-2.52-1.34-4.27-3.52-5.26-.13-.06-1.02-.15-.91-.31,1.65-2.4,2.67-4.64,2.82-7.33,.22-3.66,.14-5.98-1.78-7.94-2.72-2.77-6.37-1.18-9.04,4-.19,.34,.09-1.51-.14-3.05-.52-3.43-3.3-1.99-4.91-.14-.15,.26-.32,.52-.47,.79-2.14,3.85-3.52,9.66-1.48,13.84,.67,6.4,4.93,12.36,10.27,15.39,2.79,1.6,6.09,2.29,9.31,2.25-.88,5.51-1.03,11.23,.17,16.68,1.34,6.12,4.37,11.69,8.31,16.43,10.91,13.14,30.36,14.89,45.58,10.92,9.88-2.6,17.86-8.92,23.32-17.81,5.73-9.31,8.11-20.08,8.71-30.99,.15-2.68,1.43-6.46-.03-8.9Z"/>
          <path class="cls-5" d="M31.95,22.05c-.15,4.71-3.35,8.55-6.48,7.85-3.14-.69-5.08-3.57-4.17-7.91,.91-4.37,4.31-8.63,7.43-7.86,2.63,.66,3.35,3.88,3.21,7.92Z"/>
          <path class="cls-10" d="M30.37,24.08c-.48,3.05-2.12,5.3-3.63,5.02-1.52-.28-2.35-2.96-1.83-6,.48-3.03,2.13-5.29,3.63-5.02,1.52,.28,2.35,2.95,1.83,6Z"/>
          <path class="cls-3" d="M30.08,21.15c.11,.97-.25,1.82-.77,1.88-.54,.06-1.06-.67-1.15-1.66-.13-.97,.21-1.82,.77-1.88,.52-.06,1.04,.68,1.16,1.66Z"/>
          <path class="cls-5" d="M20.66,22.03c-.89,3.83-3.19,6.26-4.63,4.94-1.48-1.31-1.97-4.13-.75-7.51,1.22-3.37,3.66-6.11,5.11-4.72,1.21,1.15,1.03,3.97,.28,7.29Z"/>
          <path class="cls-10" d="M19.5,23.32c-.77,2.38-1.98,3.86-2.7,3.29-.73-.58-.67-3,.09-5.37,.8-2.4,2-3.88,2.74-3.29,.69,.59,.66,2.99-.13,5.37Z"/>
          <path class="cls-3" d="M19.86,20.85c-.13,.83-.43,1.44-.72,1.36-.28-.06-.4-.8-.31-1.63,.14-.83,.45-1.45,.74-1.37,.26,.08,.4,.82,.3,1.65Z"/>
          <path class="cls-13" d="M41.41,29.11c.34,1.16-1.51,2.75-4.09,3.55-2.58,.8-4.96,.54-5.28-.63-.34-1.17,1.48-2.75,4.08-3.57,2.58-.8,4.95-.51,5.29,.65Z"/>
          <path class="cls-14" d="M108.45,51.12c-.15-1.21-1.03-1.94-2.2-1.69,1.17-2.15,1.34-5.31-1.73-5.75-2.79-.4-5.74,1.11-8.37,1.91-2.96,.89-5.97,1.63-9.01,2.17-7.54,1.31-14.94,1.74-22.55,.94,5.49,1.14,10.98,1.69,16.58,1.43,4.19-.2,8.33-1,12.39-2.06,2.76-.73,8.5-3.93,11.25-2.59,.94,.48,.75,2.08,.4,2.89-.82,1.89-3.11,5.22-2.9,4.97,.92-1.01,2.82-2.58,4.28-2.27,1.43,.52-.03,4.34-.65,6.05-.83,2.33-2.12,4.14-3.48,6.19-1.06,1.63-.55,1,1,.86,1.66-.14,.69,2.97-.42,4.68-6.25,9.66-19.65,11.52-29.48,11.39-7.89-.85-14.54-2.19-21.11-6.99-4.95-3.34-7.14-10.02-7.99-15.74,.37,6.78,2.85,15.14,9.1,18.65,7.18,4.92,16.71,6.03,25.08,5.83,6.57-.48,13.14-1.91,18.97-5.59,2.89-1.82,11.43-11.85,6.88-13.25,1.57-2.6,4.83-8.6,3.95-12.02Zm-1.73-.11c-.28-.11,.03,.02,0,0-.03-.02,0,0,0,0Zm.09,.08h0s.03,.03,0,0Zm-2.97,13.37v.05s0-.06,0-.05Z"/>
          <path class="cls-1" d="M32.53,35.37c-.75-4.18-5.46-3.08-8.32-2.89-.5-2.03-3.2-4-4.83-4.8-1.55-.77-4-1.17-5.57-.15-.04,0-.08,.03-.09,.03-2.89,1.89-7,4.12-10.51,4.11-.92,0-2.78-.14-3.04,1-.36,.65-.08,1.69,.32,2.42,.89,1.62,2.39,2.75,4.02,3.61,2.89,3.82,7.36,6.09,11.9,6.94,4.83,.91,9.19-.29,12.45-4.19,2.35-1.06,4.2-3.15,3.69-6.08Z"/>
          <path class="cls-15" d="M32.53,35.37c-.75-4.18-5.46-3.08-8.32-2.89-.5-2.03-3.2-4-4.83-4.8-1.55-.77-4-1.17-5.57-.15-.04,0-.08,.03-.09,.03-2.89,1.89-7,4.12-10.51,4.11-.92,0-2.78-.14-3.04,1-.36,.65-.08,1.69,.32,2.42,.89,1.62,2.39,2.75,4.02,3.61,2.89,3.82,7.36,6.09,11.9,6.94,4.83,.91,9.19-.29,12.45-4.19,2.35-1.06,4.2-3.15,3.69-6.08Zm-5.27,6.34c-.16,.1-.03,.28,.09,.24,.08-.01,.14-.03,.19-.06-1.43,1.05-2.73,2.18-4.52,2.75-2.28,.72-4.83,.49-7.16,.11-2.29-.38-4.39-1.23-6.42-2.42-1.43-.86-2.55-1.97-3.72-3.04,.84,.38,1.69,.71,2.51,1.01,3.24,1.22,6.59,1.8,10.06,1.68,3.05-.09,6.48-.77,8.85-2.85,.14-.12,0-.32-.16-.23-4.24,2.49-9.71,2.68-14.41,1.83-2.26-.42-4.44-1.25-6.57-2.2-1.2-.54-2.34-1.23-3.4-2.03-.61-.48-3-2.85-1.88-3.86,.77-.48,1.98-.17,2.78-.11,1.06,.09,2.22-.26,3.22-.56,2.54-.74,5.47-1.91,7.28-4,3.64-1.26,8.14,1.98,9.86,5.08,.11,.18,.34,.09,.4-.06,2.63,.68,5.86-1.43,7.35,2.14,1.34,3.12-2.27,5.37-4.35,6.57Z"/>
          <g>
            <path class="cls-12" d="M99.11,67.68c0,14.25-11.02,25.82-24.6,25.82s-24.6-11.57-24.6-25.82,11.02-25.8,24.6-25.8,24.6,11.56,24.6,25.8Z"/>
            <path class="cls-11" d="M98.56,66.74c0,13.74-10.68,24.86-23.87,24.86s-23.89-11.13-23.89-24.86,10.71-24.86,23.89-24.86,23.87,11.14,23.87,24.86Z"/>
            <path class="cls-2" d="M96.4,66.74c0,12.49-9.71,22.63-21.71,22.63s-21.74-10.14-21.74-22.63,9.72-22.63,21.74-22.63,21.71,10.14,21.71,22.63Z"/>
            <path class="cls-9" d="M90.39,66.74c0,9.03-7.05,16.34-15.7,16.34s-15.71-7.31-15.71-16.34,7.03-16.34,15.71-16.34,15.7,7.31,15.7,16.34Z"/>
            <path class="cls-2" d="M84.34,66.74c0,5.55-4.32,10.05-9.65,10.05s-9.66-4.49-9.66-10.05,4.32-10.05,9.66-10.05,9.65,4.49,9.65,10.05Z"/>
            <path class="cls-9" d="M79.11,66.74c0,2.54-1.98,4.6-4.42,4.6s-4.43-2.06-4.43-4.6,1.98-4.6,4.43-4.6,4.42,2.06,4.42,4.6Z"/>
          </g>
          <path class="cls-6" d="M18.25,39.14c-3.17-.17-6.28-.97-9.36-1.82-1.48-.41-2.89-.98-4.26-1.71-.74-.39-2.85-1.44-2.77-2.51,.01-.11-.08-.23-.2-.17-2.26,1.06,2.26,3.92,3.02,4.32,2.05,1.14,4.46,1.49,6.71,1.92,2.21,.4,4.68,.79,6.87,.2,.11-.03,.11-.25-.01-.25Z"/>
          <path class="cls-6" d="M19.97,38.34c-.82,0-.69,1.31,.12,1.31s.7-1.31-.12-1.31Z"/>
          <path class="cls-6" d="M20.98,30.88c-1.73-1.97-4.27-3.39-6.84-2.62-.11,.03-.07,.24,.06,.22,2.66-.49,4.52,1.06,6.51,2.65,.15,.12,.4-.08,.26-.25Z"/>
          <path class="cls-6" d="M24.46,33.6c-.16,.03-.14,.23,0,.21,1.11-.14,2.21-.23,3.32-.08,1.42,.18,2,1.26,3.05,2.06,.21,.15,.45-.05,.4-.29-.69-3.15-4.68-2.29-6.77-1.9Z"/>
          <path class="cls-4" d="M48.09,14.19c-4.14-4.63-10.2-6.3-16.08-5.46-.06,0-.06,.12,.02,.12,5.34-.17,10.66,1.68,14.59,5.51,4.92,4.83,5.77,11.76,5.46,18.4-.03,.31,.35,.37,.45,.1,1.82-6.34-.2-13.88-4.43-18.66Z"/>
          <path class="cls-4" d="M65.76,41.46c-3.96-1.74-8.12-2.74-11.96-4.85-.11-.06-.18,.11-.11,.18,3.37,2.91,7.88,3.71,11.99,4.94,.15,.05,.21-.21,.08-.28Z"/>
          <path class="cls-4" d="M106.47,31.46c-6.84,4.29-12.82,9.97-20.92,11.55-.14,.03-.13,.26,.01,.25,7.82-.83,15.82-5.61,21.25-11.4,.23-.24-.11-.55-.33-.4Z"/>
          <path class="cls-4" d="M115.64,29.74c-1.58,.68-2.75,2.25-3.97,3.46-1.99,1.97-4.39,3.39-6.74,4.82-.13,.08,0,.26,.12,.19,4.03-2.28,7.99-4.19,10.9-8,.15-.21-.04-.57-.31-.46Z"/>
          <path class="cls-4" d="M118.27,36.49c-.71,.52-1.25,1.31-1.87,1.94-.72,.75-1.37,1.49-2.18,2.14-.03,.04,0,.14,.06,.12,1.63-.8,3.59-2.09,4.37-3.88,.11-.23-.17-.48-.38-.32Z"/>
          <path class="cls-4" d="M31.23,6.91c-.28-.83-.35-1.57-.29-2.43,.01-.15-.19-.2-.22-.04-.21,.89-.43,1.87,.25,2.63,.11,.12,.35,.03,.26-.15Z"/>
          <path class="cls-3" d="M39.14,29.31c-.47-.45-1.06-.07-1.54,.19-.37,.21-.11,.88,.31,.82,.46-.06,.93,0,1.3-.37,.17-.2,.11-.48-.06-.63Z"/>
        </g>
      </g>
    </g>
  </g>
</svg>