<?xml version="1.0" encoding="UTF-8"?>
<svg id="Layer_2" data-name="Layer 2" xmlns="http://www.w3.org/2000/svg" viewBox="0 0 382.67 482.4">
  <defs>
    <style>
      .cls-1 {
        fill: #f15a24;
      }

      .cls-2 {
        fill: #f39007;
      }

      .cls-3 {
        fill: #ee9d2f;
      }

      .cls-4 {
        fill: #ffce43;
      }

      .cls-5 {
        fill: #a18b94;
      }

      .cls-6 {
        fill: #333;
      }

      .cls-7 {
        fill: #ae73e1;
      }

      .cls-8 {
        fill: #db4a1d;
      }

      .cls-9 {
        fill: #413f66;
      }

      .cls-10 {
        fill: #111;
      }

      .cls-11 {
        fill: #93ddf6;
      }

      .cls-12 {
        fill: #892713;
      }

      .cls-13 {
        fill: red;
        stroke: #000;
        stroke-linecap: round;
        stroke-linejoin: round;
        stroke-width: 4px;
      }
    </style>
  </defs>
  <g id="_ÎÓÈ_1" data-name="—ÎÓÈ_1">
    <g>
      <g>
        <g>
          <path class="cls-4" d="M109.41,266.29s-18.89,2.74-35.99,20.19c-17.1,17.46-36.94,40.09-69.32,40.32,0,0-5.14,20.86,13.2,26.93,0,0,1.31,12.44,19.68,18.82,5.7,1.98,11.96,2.07,18.5,.79,1.63,1.46,22.36,18.9,61.01-2.76,33.09-18.53,50-51.31,46.44-75.97-3.27-22.63-22.3-29.67-22.3-29.67l-31.23,1.34Z"/>
          <path class="cls-10" d="M23.5,358c-2.6,0-5.04-.33-7.26-1.06-16.85-5.57-17.45-22.67-15.42-30.94l.63-2.55,2.62-.02c28.95-.21,47.41-19.21,63.69-35.97l3.25-3.34c17.69-18.06,37.09-21.05,37.91-21.17,1.85-.28,3.56,1.01,3.82,2.85,.27,1.84-1.01,3.55-2.85,3.82-.18,.03-18.05,2.86-34.07,19.22l-3.23,3.32c-15.86,16.33-35.48,36.53-65.64,37.94-.58,5.1-.44,16.51,11.39,20.42,15.69,5.18,50.33-17,62.36-25.99,1.49-1.11,3.61-.81,4.72,.68,1.12,1.49,.81,3.61-.68,4.72-1.69,1.27-37.86,28.05-61.26,28.06Z"/>
          <path class="cls-10" d="M47.17,377.56c-3.9,0-7.68-.57-11.3-1.83-20.16-7-21.86-21.06-21.92-21.65-.2-1.85,1.15-3.51,3-3.71,1.82-.19,3.49,1.13,3.71,2.97,.07,.51,1.61,10.52,17.43,16.02,16.08,5.58,40.92-5.32,69.95-30.69,1.4-1.23,3.54-1.08,4.76,.32,1.23,1.4,1.08,3.53-.32,4.76-18.54,16.21-43.67,33.81-65.31,33.81Z"/>
          <path class="cls-10" d="M78.82,385.58c-15.24,0-22.73-6.83-23.23-7.31-1.35-1.28-1.41-3.42-.13-4.77,1.28-1.35,3.4-1.41,4.75-.15,.74,.67,17.37,15.15,54.63-5.72,33.55-18.79,47.9-50.72,44.75-72.54-3.01-20.86-20.52-32.22-20.69-32.33-1.57-1-2.04-3.09-1.03-4.66,1-1.57,3.09-2.03,4.66-1.03,.83,.53,20.3,13.17,23.75,37.06,3.48,24.1-11.93,59.12-48.13,79.39-16.45,9.22-29.5,12.06-39.32,12.06Z"/>
        </g>
        <g>
          <path class="cls-4" d="M250.43,259.03s11.67-15.11,35.27-21.42c23.6-6.32,53.06-12.48,69.18-40.57,0,0,20.7,5.78,16.97,24.72,0,0,10.19,7.25,6.72,26.38-1.07,5.94-4.07,11.43-8.41,16.5,.47,2.13,5.47,28.76-32.37,51.79-32.4,19.72-69.26,18.35-88.98,3.13-18.1-13.96-14.88-34-14.88-34l16.51-26.54Z"/>
          <path class="cls-10" d="M320.92,265.03c-1.34,0-2.61-.81-3.14-2.14-.68-1.73,.17-3.69,1.9-4.38,12.51-4.94,45.68-21.3,48.85-37.41,2.42-12.31-7.45-17.99-12.19-19.97-16.04,25.58-43.28,32.75-65.3,38.54l-4.48,1.19c-22.24,5.95-33.36,20.08-33.47,20.23-1.14,1.48-3.25,1.75-4.73,.61-1.47-1.14-1.75-3.26-.61-4.73,.5-.65,12.64-16.09,37.07-22.62l4.5-1.19c22.6-5.95,48.22-12.69,62.62-37.8l1.31-2.28,2.53,.71c8.2,2.29,22.8,11.21,19.37,28.62-4.53,23.01-51.02,41.6-53,42.38-.41,.16-.82,.24-1.24,.24Z"/>
          <path class="cls-10" d="M315.27,299.95c-1.39,0-2.69-.87-3.18-2.25-.62-1.76,.3-3.68,2.06-4.3,36.37-12.83,58.07-29.11,61.1-45.85,3-16.56-5.05-22.8-5.39-23.06-1.48-1.11-1.81-3.21-.72-4.7,1.09-1.49,3.16-1.84,4.66-.77,.49,.35,11.89,8.73,8.09,29.73-4.46,24.65-38.08,41.35-65.49,51.01-.37,.13-.75,.19-1.12,.19Z"/>
          <path class="cls-10" d="M287.66,334.45c-16.6,0-31.16-4.68-40.91-12.21-19.11-14.74-20.56-37.91-20.61-38.89-.1-1.86,1.33-3.45,3.19-3.55,1.87-.11,3.45,1.33,3.55,3.19,.01,.2,1.39,21.1,17.99,33.91,17.46,13.47,52.32,16.65,85.17-3.34,36.9-22.45,30.89-47.97,30.82-48.23-.46-1.81,.63-3.64,2.44-4.1,1.81-.46,3.64,.63,4.1,2.44,.32,1.24,7.26,30.64-33.85,55.66-17.52,10.66-35.67,15.13-51.89,15.13Z"/>
        </g>
        <g>
          <path class="cls-1" d="M136.64,440.02c-5.23,5.66-17.79,9.23-19.55,16.73-.72,3.07-1.05,6.53,.69,9.16,1.78,2.69,5.66,3.73,8.54,2.3,2.29-1.14,4.07-3.63,6.63-3.62,1.73,0,3.23,1.22,4.31,2.57,1.08,1.35,1.93,2.91,3.2,4.08,2.16,1.98,5.55,2.55,8.18,1.25,2.88-1.43,4.91-4.86,8.13-4.87,2.13,0,3.89,1.54,5.47,2.97,1.67,1.51,3.56,3.05,5.81,3.14,2.82,.11,5.25-2.22,6.31-4.83,1.06-2.62,1.09-5.52,1.36-8.33,.65-6.82,19.39-19.07,11.05-36.77l-50.14,16.25Z"/>
          <path class="cls-10" d="M168.25,477.08c-5.87,0-9.35-6.11-11.46-6.11-1.41,0-3.67,3.05-6.64,4.52-3.83,1.9-8.74,1.16-11.96-1.78-2.29-2.1-3.89-5.75-5.25-5.76-.9,0-2.87,2.15-5.11,3.27-4.39,2.19-10.16,.64-12.86-3.46-2.42-3.66-1.88-7.92-1.19-11.63,1.64-8.79,20.16-19.17,28.51-24.67,1.55-1.03,3.65-.6,4.67,.96,1.03,1.56,.6,3.65-.96,4.67-4.48,2.96-24.59,14.91-25.58,20.27-.47,2.52-.84,5.12,.19,6.68,.84,1.27,2.85,1.81,4.22,1.13,1.82-.91,4.21-3.97,8.15-3.97,2.53,.01,4.92,1.34,6.93,3.83,1.14,1.43,1.93,2.86,2.85,3.7,1.17,1.07,3.06,1.38,4.4,.71,2.32-1.15,4.9-5.21,9.61-5.22,5.63,0,8.67,6,11.42,6.11,1.25,.07,2.54-1.47,3.06-2.73,.84-2.07,.87-4.69,1.13-7.38,.87-9.15,20.41-15.57,13.47-33.56-.67-1.74,.2-3.69,1.93-4.36,1.74-.67,3.69,.2,4.36,1.93,5.95,15.44-2.98,24.96-8.89,31.26-1.72,1.83-4.07,4.34-4.16,5.36-.29,2.99-.32,6.14-1.59,9.28-1.42,3.49-4.8,6.94-9.24,6.94Z"/>
        </g>
        <g>
          <path class="cls-1" d="M296.58,403.12c7.62,1.14,19.65-3.95,25.72,.79,2.48,1.94,4.91,4.43,5.2,7.57,.3,3.21-2.07,6.45-5.22,7.14-2.5,.55-5.45-.28-7.44,1.33-1.34,1.09-1.75,2.97-1.75,4.7s.32,3.47,.06,5.18c-.44,2.9-2.73,5.47-5.6,6.1-3.14,.69-6.87-.71-9.39,1.29-1.66,1.33-2.07,3.64-2.41,5.74-.36,2.22-.86,4.61-2.56,6.09-2.13,1.85-5.48,1.56-7.95,.18-2.47-1.38-4.31-3.61-6.28-5.64-4.78-4.91-27.06-2.72-31.65-21.73l49.26-18.75Z"/>
          <path class="cls-10" d="M289.45,453.73c-5.82,0-9.09-3.87-12.89-7.78-.72-.74-4.12-1.22-6.61-1.57-8.55-1.21-21.48-3.03-26.51-18.79-.57-1.77,.41-3.67,2.19-4.24,1.77-.58,3.67,.41,4.24,2.19,5.87,18.36,25.12,11.13,31.52,17.71,1.87,1.91,3.54,3.95,5.5,5.05,1.48,.82,3.28,.92,4.09,.21,2.13-1.85,.6-8.34,5.07-11.91,3.63-2.9,8.32-1.41,10.77-1.95,1.46-.32,2.75-1.75,2.99-3.31,.36-2.38-1.47-8.45,2.9-12,3.05-2.48,6.83-1.57,8.84-2.01,1.49-.33,2.72-2.01,2.58-3.53-.18-1.86-2.09-3.65-4.04-5.32-1.63-1.17-10.13,.54-15.21,1.56-9.31,1.87-18.94,3.8-25.03,.94-1.69-.79-2.41-2.8-1.62-4.49,.8-1.69,2.8-2.41,4.49-1.62,4.07,1.92,13.36,.05,20.82-1.45,9.51-1.91,17.02-3.42,20.93-.07,2.86,2.46,5.95,5.44,6.36,9.81,.46,4.88-3.07,9.71-7.86,10.75-2.47,.54-5.33,.09-6.03,.66-.69,.56-.48,3.01-.43,3.71,.08,1.22,.17,2.6-.05,4.07-.66,4.31-4.04,7.96-8.2,8.88-3.28,.72-6.89-.26-8.01,.63-1.71,1.37-.43,7.89-4.86,11.74-1.74,1.51-3.86,2.13-5.96,2.13Z"/>
        </g>
        <path class="cls-4" d="M241.36,225.01l-50.39,8.37-52.64-8.37s-77.25,85.21-52.07,153.38c23.51,63.66,95.32,63.41,104.71,63.1,9.39,.31,81.2,.56,104.71-63.1,25.18-68.17-54.32-153.38-54.32-153.38Z"/>
        <path class="cls-3" d="M294.11,312.22c-.13,9.24-1.62,18.42-4.9,27.31-23.51,63.66-95.32,63.41-104.71,63.1-9.19,.3-78.13,.51-103.11-59.16-.65,11.8,.7,23.59,4.88,34.92,23.51,63.66,95.32,63.41,104.71,63.1,9.39,.31,81.2,.56,104.71-63.1,7.92-21.43,5.48-44.55-1.57-66.18Z"/>
        <path class="cls-10" d="M188.23,444.91c-15.76,0-82.39-3.77-105.13-65.35-25.59-69.29,49.52-153.28,52.73-156.82l1.23-1.35,53.9,8.58,51.64-8.58,1.23,1.32c3.3,3.54,80.62,87.53,55.02,156.86-24.43,66.15-99.5,65.59-107.99,65.31-.57,.02-1.46,.04-2.63,.04Zm-48.59-216.27c-9.56,11.1-72.69,87.72-50.21,148.59,22.79,61.71,93.45,61.16,101.43,60.9,8.2,.27,78.87,.81,101.66-60.9,22.5-60.93-42.66-137.59-52.42-148.59l-49.11,8.16-51.34-8.17Z"/>
        <path class="cls-4" d="M313.8,162.76c1.16-9.4-5.03-17.93-14.49-20.51-63.62-17.29-40.82-100.7-143.11-80.2v-.03c-.16,.03-.3,.07-.45,.1-.16,.03-.29,.05-.45,.08v.03c-99.37,19.91-48.97,88.31-100.77,128.88-7.85,6.15-10.27,16.61-5.3,24.88,15.9,26.42,67.91,71.87,148.07,55.81v.02c.16-.03,.3-.07,.45-.1,.15-.03,.3-.05,.45-.08v-.02c82.16-16.47,111.85-78.55,115.6-108.86Z"/>
        <path class="cls-4" d="M313.8,162.76c1.16-9.4-5.03-17.93-14.49-20.51-63.62-17.29-40.82-100.7-143.11-80.2v-.03c-.16,.03-.3,.07-.45,.1-.16,.03-.29,.05-.45,.08v.03c-99.37,19.91-48.97,88.31-100.77,128.88-7.85,6.15-10.27,16.61-5.3,24.88,15.9,26.42,67.91,71.87,148.07,55.81v.02c.16-.03,.3-.07,.45-.1,.15-.03,.3-.05,.45-.08v-.02c82.16-16.47,111.85-78.55,115.6-108.86Z"/>
        <path class="cls-3" d="M194.26,251.96v.02c-.15,.03-.29,.05-.45,.08-.15,.03-.29,.07-.45,.1v-.02c-76.84,15.4-128.28-28.18-146.67-56.35-1.66,5.23-1.22,11.03,1.71,16.08,16.18,27.85,68.73,75.99,148.89,59.93v.02c.16-.03,.3-.07,.45-.1,.15-.03,.3-.05,.45-.08v-.02c82.16-16.47,111.31-81.26,114.77-112.99,.61-5.63-1.18-10.97-4.6-15.04-5.62,33.01-35.74,92.67-114.11,108.37Z"/>
        <path class="cls-10" d="M101.56,184.18c-1.57,0-2.98-1.11-3.3-2.71-1.21-6.03,0-12.17,3.41-17.29,3.41-5.12,8.61-8.6,14.64-9.81,6.03-1.21,12.17,0,17.28,3.41,5.12,3.41,8.6,8.61,9.81,14.64,.37,1.83-.82,3.61-2.64,3.97-1.83,.37-3.61-.82-3.97-2.64-.85-4.26-3.32-7.94-6.93-10.35-3.62-2.41-7.96-3.27-12.22-2.41-4.26,.85-7.94,3.32-10.35,6.93-2.41,3.62-3.27,7.96-2.41,12.22,.37,1.83-.82,3.6-2.65,3.97-.22,.04-.45,.07-.67,.07Z"/>
        <path class="cls-10" d="M213.71,161.71c-1.57,0-2.98-1.11-3.3-2.71-2.49-12.45,5.6-24.6,18.05-27.1,6.03-1.21,12.17,0,17.29,3.41,5.12,3.41,8.6,8.61,9.81,14.64,.37,1.83-.82,3.61-2.64,3.97-1.83,.37-3.61-.82-3.97-2.64-.85-4.26-3.32-7.94-6.93-10.35-3.62-2.41-7.96-3.26-12.22-2.41-8.8,1.76-14.52,10.36-12.76,19.16,.37,1.83-.82,3.6-2.65,3.97-.22,.05-.45,.07-.67,.07Z"/>
        <path class="cls-10" d="M142.38,276.91c-.17,0-.33-.01-.5-.04-51.98-7.73-84.51-40.82-95.54-59.15-5.8-9.65-3.24-21.96,6.11-29.28,19.91-15.59,23.89-35.06,28.11-55.66,6.08-29.72,12.36-60.43,70.87-73.19v-.02s7.5-1.55,7.5-1.55v.06c60.67-11.09,77.94,15.12,94.65,40.47,11.46,17.39,22.29,33.82,46.61,40.43,11.18,3.04,18.31,13.21,16.96,24.18-2.58,20.86-18.92,63.49-63.81,90.92-1.59,.97-3.66,.47-4.64-1.12-.97-1.59-.47-3.67,1.12-4.64,42.7-26.09,58.21-66.32,60.64-85.98,.94-7.61-4.12-14.69-12.03-16.84-26.79-7.28-38.83-25.56-50.48-43.23-16.52-25.06-32.12-48.73-91.08-36.92l-.9,.18c-57.11,11.45-62.79,39.21-68.8,68.6-4.27,20.89-8.69,42.5-30.56,59.63-6.62,5.18-8.51,13.8-4.49,20.48,10.42,17.32,41.26,48.59,90.75,55.95,1.84,.27,3.11,1.99,2.84,3.83-.25,1.67-1.69,2.88-3.33,2.88Z"/>
        <g>
          <g>
            <path class="cls-2" d="M104.57,142.04c-5.3-6.48,15.35-21.34,20.51-15.04,5.16,6.31-15.35,21.34-20.51,15.04Z"/>
            <path class="cls-10" d="M108.22,146.95c-2.47,0-4.67-.82-6.26-2.77h0c-3.44-4.21-1.29-10.5,5.49-16.04,6.82-5.58,15.97-8.5,20.25-3.27,3.41,4.16,1.2,10.46-5.62,16.04-4.21,3.44-9.46,6.04-13.85,6.04Zm-1.04-7.04c.66,.81,5.37,.07,10.61-4.22,4.2-3.44,5-6.15,4.68-6.54-.68-.83-5.46-.12-10.75,4.22-3.83,3.14-5.01,5.97-4.54,6.55h0Z"/>
          </g>
          <g>
            <path class="cls-2" d="M234.15,116.07c2.4-8.02-22.39-13.78-24.72-5.97-2.33,7.81,22.39,13.78,24.72,5.97Z"/>
            <path class="cls-10" d="M226.29,123.11c-2.83,0-5.87-.5-8.72-1.35-8.45-2.52-12.91-7.48-11.37-12.63,.48-1.62,2.01-4.5,6.78-5.63,7.01-1.67,17.85,1.19,22.29,5.89,2.16,2.28,2.91,5,2.12,7.64-1.3,4.36-5.84,6.08-11.1,6.08Zm-8.89-13.35c-1.04,0-2.01,.09-2.86,.29-1.17,.28-1.79,.7-1.88,1-.14,.49,1.64,2.69,6.84,4.24,6.49,1.94,11.12,.81,11.42-.2h0c.09-.31-.25-.76-.56-1.08-2.27-2.41-8.31-4.26-12.96-4.26Z"/>
          </g>
        </g>
        <path class="cls-8" d="M213.62,205.69l-29.31-1.08-26.63,12.29s11.35,41.3,36.37,36.29c24.05-4.82,19.58-47.5,19.58-47.5Z"/>
        <path class="cls-10" d="M189.75,257c-24.28,0-34.87-37.51-35.34-39.2l-.76-2.76,29.96-13.83,33.05,1.22,.3,2.91c.2,1.87,4.48,45.8-22.27,51.16-1.71,.34-3.36,.5-4.95,.5Zm-27.98-38.28c2.94,8.65,13.39,34.81,31.59,31.16,17.41-3.49,17.52-31.7,17.08-40.93l-25.47-.94-23.2,10.71Z"/>
        <path class="cls-12" d="M179.54,223.33s1.09,8.19,10.26,14.24c1.04,.69,2.44,.42,3.1-.63,1.9-3.01,5.16-9.62,3.53-17.75l-16.9,4.14Z"/>
        <path class="cls-1" d="M251.22,188.76c-.03-6.38-12.28-1.38-29.47-3.42-18.16-2.16-23.79-21.83-44.82-17.62-21.02,4.21-18.64,24.54-34.57,33.53-15.07,8.51-25.47,8.14-25.88,14.51-.56,8.7,28.22,12.49,70.48,4.02,42.25-8.47,64.29-22.44,64.25-31.02Z"/>
        <path class="cls-10" d="M144.41,227.93c-13.64,0-23.83-2.01-28.4-6.01-2.58-2.26-2.99-4.71-2.89-6.37,.38-5.97,5.68-7.94,12.39-10.44,4.15-1.55,9.31-3.47,15.19-6.79,6.07-3.43,9.19-8.82,12.48-14.52,4.52-7.82,9.64-16.68,23.08-19.37,13.44-2.7,21.58,3.51,28.76,8.99,5.24,3.99,10.19,7.77,17.12,8.59,6.68,.79,12.62,.47,17.4,.22,6.34-.34,10.53-.56,13.16,1.92,.85,.81,1.87,2.26,1.89,4.61h0c.06,12.31-27.48,26.43-66.96,34.34-16.13,3.23-31.05,4.84-43.22,4.84Zm38.17-57.41c-1.55,0-3.2,.16-4.98,.52-10.45,2.09-14.21,8.6-18.56,16.13-3.44,5.95-7.33,12.69-15.01,17.02-6.34,3.58-11.78,5.61-16.15,7.24-5.62,2.1-7.92,3.09-8.01,4.55-.02,.28,.37,.66,.6,.86,4.61,4.04,26.58,7.51,65.85-.37,43.01-8.62,61.12-22.01,61.53-27.5-1.33-.38-4.96-.18-7.93-.03-5.04,.27-11.3,.6-18.56-.26-8.75-1.04-14.95-5.76-20.41-9.93-5.74-4.38-10.83-8.26-18.36-8.26Z"/>
        <path class="cls-6" d="M159.69,201.29c-3.94-1.88,2.73-13.01,5.99-10.1s-2.05,11.98-5.99,10.1Z"/>
        <path class="cls-6" d="M203.1,192.59c2.91-3.25-7.54-10.95-9.42-7.02-1.88,3.94,6.51,10.27,9.42,7.02Z"/>
        <g>
          <path class="cls-5" d="M159.76,25.07l-19.18,3.43c-49,8.77-82.78,51.91-77.56,97.44,4.72-3.96,9.53-7.8,13.82-12.41,2.67-35.67,31.08-67.06,70.29-74.08l10.41-1.86c46.04-8.24,90.2,20.13,98.13,63.05l9.35,10.1c5.65-1.01,5.39-5.29,4.41-10.56l-.97-5.27c-8.79-47.54-57.71-78.96-108.71-69.84Z"/>
          <path class="cls-9" d="M79.67,119.61l-6.67-1.05c3.49-22.1,12.03-51.27,32.91-64.72,31.01-21.03,66.21-27.04,99.05-16.88,23.63,6.91,42.53,26.62,51.8,54.06l-6.39,2.16c-8.56-25.32-25.82-43.46-47.35-49.76-30.89-9.56-64.04-3.86-93.38,16.05-19.84,12.77-27.28,43.16-29.96,60.14Z"/>
          <path class="cls-9" d="M59.37,123.41c-.71-43.23,20.79-67.96,38.95-81.1,30.66-22.18,76.57-28.29,114.25-15.2,28.94,8.75,51.47,35.79,60.15,72.28l-6.57,1.56c-8.12-34.13-28.93-59.33-55.67-67.42-35.82-12.45-79.25-6.71-108.21,14.25-16.86,12.2-36.82,35.2-36.16,75.52l-6.75,.11Z"/>
          <path class="cls-11" d="M106.61,42.65l9.58,13.81s15.93-9.44,38.73-13.52c22.81-4.08,41.15-.41,41.15-.41l2.89-16.25c.76-4.27-2.27-8.33-6.59-8.8-8.56-.93-23.57-1.55-42.6,1.86-18.47,3.31-32.23,8.6-40.18,12.25-4.22,1.94-5.64,7.22-2.98,11.05Z"/>
          <path class="cls-9" d="M116.2,59.83c-1.07,0-2.12-.51-2.78-1.45l-9.04-13.03c-1.99-2.87-2.6-6.43-1.67-9.78,.92-3.33,3.26-6.05,6.41-7.46,8.29-3.73,21.97-8.85,40.06-12.08,18.57-3.32,33.43-2.91,42.62-1.99,3.22,.33,6.19,2,8.15,4.59,1.96,2.59,2.76,5.91,2.19,9.1l-2.74,15.41c-.16,.89-.67,1.68-1.42,2.19-.75,.51-1.67,.7-2.56,.52-.18-.04-18.05-3.49-39.9,.42-21.88,3.92-37.45,13.01-37.61,13.1-.54,.32-1.13,.47-1.71,.47Zm62-39.71c-7.7,0-17.11,.62-27.83,2.54-17.42,3.12-30.54,8.03-38.48,11.6-1.33,.6-2.28,1.7-2.67,3.11-.39,1.41-.14,2.92,.71,4.13h0s7.32,10.55,7.32,10.55c5.6-2.9,19.23-9.23,37.09-12.43,17.64-3.16,32.55-1.83,39.01-.94l2.16-12.14c.24-1.37-.09-2.73-.93-3.85-.84-1.11-2.06-1.8-3.44-1.94-3.49-.35-7.83-.62-12.92-.62Z"/>
        </g>
        <g>
          <path class="cls-7" d="M41.2,169.97l8.01,1.75,16.05-60.71-8.01-1.75c-13.27-2.89-26.6,4.51-29.78,16.54l-4.54,17.16c-3.18,12.03,5,24.12,18.27,27.02Z"/>
          <path class="cls-9" d="M49.21,175.09c-.24,0-.48-.03-.72-.08l-8.01-1.75h0c-7.62-1.66-14.18-6.21-18.01-12.47-3.49-5.7-4.48-12.34-2.8-18.7l4.54-17.16c3.63-13.73,18.77-22.24,33.76-18.97l8.01,1.75c.9,.2,1.68,.75,2.16,1.54,.48,.78,.62,1.73,.38,2.62l-16.05,60.71c-.4,1.51-1.76,2.51-3.26,2.51Zm-7.29-8.42l4.85,1.06,14.32-54.18-4.57-1c-11.51-2.51-23.08,3.82-25.8,14.1l-4.54,17.16c-1.21,4.56-.48,9.34,2.03,13.46,2.88,4.7,7.87,8.13,13.69,9.4h0Z"/>
          <path class="cls-11" d="M50.07,183.07h0c-6.36-1.39-10.28-7.18-8.76-12.95l16.11-60.95c1.52-5.76,7.91-9.31,14.27-7.92h0c6.36,1.39,10.28,7.18,8.76,12.95l-16.11,60.95c-1.52,5.76-7.91,9.31-14.27,7.92Z"/>
          <path class="cls-9" d="M52.47,186.71c-1.02,0-2.06-.12-3.12-.34-4.12-.9-7.67-3.37-9.76-6.78-1.92-3.14-2.47-6.81-1.54-10.33l16.11-60.95c1.97-7.48,10.17-12.13,18.25-10.36,6.7,1.46,10.9,8.25,11.22,18.16,.27,8.12-6.38,45.84-16.5,60.91h0c-4.32,6.44-9.25,9.69-14.67,9.69Zm16.43-82.39c-3.85,0-7.31,2.29-8.21,5.71l-16.11,60.95c-.45,1.72-.18,3.52,.78,5.08,1.13,1.85,3.11,3.2,5.44,3.71,2.39,.52,6.11,.41,10.75-6.51,9.24-13.77,15.57-50.36,15.36-56.93-.06-1.77-.61-10.63-5.92-11.79-.7-.15-1.39-.22-2.08-.22Z"/>
        </g>
        <g>
          <path class="cls-7" d="M303.16,117.47l-6.72,4.7-38.2-49.84,6.72-4.7c11.13-7.78,26.29-6.09,33.85,3.78l10.8,14.08c7.57,9.87,4.68,24.19-6.45,31.97Z"/>
          <path class="cls-9" d="M296.44,125.54c-1.02,0-2.02-.46-2.68-1.32l-38.2-49.84c-.56-.73-.8-1.66-.66-2.57s.65-1.72,1.4-2.25l6.72-4.7c12.57-8.79,29.83-6.77,38.47,4.5l10.8,14.08c4,5.22,5.64,11.73,4.62,18.33-1.12,7.26-5.43,13.98-11.81,18.45h0s-6.72,4.7-6.72,4.7c-.59,.41-1.26,.61-1.93,.61Zm-33.38-52.47l34.09,44.48,4.07-2.85h0c4.89-3.42,8.17-8.5,9.01-13.95,.74-4.77-.44-9.46-3.31-13.2l-10.8-14.08c-6.47-8.44-19.59-9.82-29.24-3.07l-3.83,2.68Z"/>
          <path class="cls-11" d="M300.01,132.98h0c5.33-3.73,6.72-10.59,3.09-15.32l-38.36-50.04c-3.63-4.73-10.89-5.54-16.22-1.81h0c-5.33,3.73-6.72,10.59-3.09,15.32l38.36,50.04c3.63,4.73,10.89,5.54,16.22,1.81Z"/>
          <path class="cls-9" d="M294.02,138.3c-3.7,0-7.75-1.44-12.09-4.31h0c-15.14-10.01-35.81-42.26-38.69-49.85-3.52-9.27-2.27-17.15,3.36-21.09,6.78-4.74,16.13-3.61,20.83,2.53l38.36,50.04c2.21,2.89,3.12,6.48,2.56,10.13-.61,3.95-2.94,7.6-6.39,10.01-2.43,1.7-5.08,2.55-7.92,2.55Zm-38.1-71.46c-1.85,0-3.79,.57-5.46,1.74-4.45,3.11-1.54,11.51-.92,13.16,2.33,6.15,22.28,37.47,36.11,46.62h0c6.96,4.6,10.43,3.27,12.43,1.86,1.95-1.37,3.26-3.38,3.59-5.51,.28-1.81-.16-3.58-1.24-4.99l-38.36-50.04c-1.44-1.87-3.73-2.85-6.15-2.85Z"/>
        </g>
        <g>
          <path class="cls-4" d="M141.8,73.16c-13.56-5.25-22.16-20.94-19.29-35.19,4.59,5.85,9.7,6.77,16.78,9.05-8.78-12.98-7.67-31.8,2.58-43.65,1.19,6.59,6.53,12.49,11.56,16.91,3.55,3.12,7.8,5.37,11.38,8.45,10.1,8.68,13.66,24.16,8.36,36.38l-31.36,8.05Z"/>
          <path class="cls-10" d="M141.8,76.54c-.4,0-.82-.07-1.22-.23-15.2-5.88-24.6-23.02-21.38-39,.26-1.29,1.25-2.31,2.53-2.62,1.28-.3,2.62,.17,3.43,1.2,2.19,2.79,4.51,4.24,7.39,5.38-5-13.27-2.59-29.3,6.76-40.11,.85-.98,2.19-1.39,3.44-1.05,1.25,.34,2.2,1.38,2.43,2.65,.82,4.56,4.34,9.59,10.46,14.98,1.66,1.46,3.53,2.74,5.5,4.09,1.95,1.33,3.96,2.71,5.85,4.34,11.28,9.69,15.18,26.63,9.26,40.28-.74,1.71-2.73,2.5-4.44,1.75-1.71-.74-2.49-2.73-1.75-4.44,4.69-10.83,1.48-24.79-7.46-32.48-1.61-1.38-3.39-2.6-5.27-3.89-2.05-1.4-4.17-2.85-6.14-4.59-4.75-4.18-8.16-8.22-10.29-12.22-5.9,10.55-5.65,24.45,1.17,34.53,.81,1.19,.77,2.76-.1,3.92-.86,1.15-2.37,1.63-3.73,1.19-.9-.29-1.76-.56-2.6-.81-3.71-1.14-7.11-2.19-10.27-4.24,.65,10.63,7.66,20.98,17.64,24.84,1.74,.67,2.6,2.63,1.93,4.36-.52,1.34-1.79,2.16-3.15,2.16Z"/>
        </g>
      </g>
      <path class="cls-13" d="M151.07,379.04c-.73-2.86-2.29-6.19-4.7-9.99-2.4-3.8-4.98-7.07-7.73-9.8-2.99-2.97-6.13-5.13-9.42-6.48-3.29-1.35-6.42-1.49-9.39-.4-1.78,1.08-3.51,2.46-5.17,4.14l-1.78,1.8-6.76,7.18-7.11,7.9-27.76,27.31c-5.4,5.45-9.98,10.41-13.76,14.89l-22.88-28.46-18.29,87.79,93.28,5.49-19.84-24.68c3.54-1.91,7.35-4.09,11.49-6.63,13.25-8.11,24.44-16.77,33.58-25.99,5.81-5.87,10.13-11.43,12.97-16.69,5.32-9.68,6.4-18.8,3.27-27.37Z"/>
    </g>
  </g>
</svg>