<?xml version="1.0" encoding="UTF-8"?>
<svg xmlns="http://www.w3.org/2000/svg" viewBox="0 0 378.84 180.25">
  <defs>
    <style>
      .cls-1 {
        fill: #fb0f0f;
      }

      .cls-2 {
        fill: #fff;
      }

      .cls-3, .cls-4, .cls-5 {
        fill: #ffc502;
      }

      .cls-6 {
        fill: #eef9fb;
      }

      .cls-7 {
        fill: #9e5804;
      }

      .cls-8, .cls-9 {
        fill: #939393;
      }

      .cls-10 {
        fill: #d37b04;
      }

      .cls-11 {
        fill: #d39e4c;
      }

      .cls-11, .cls-4, .cls-12 {
        mix-blend-mode: multiply;
      }

      .cls-5 {
        mix-blend-mode: screen;
      }

      .cls-13 {
        isolation: isolate;
      }

      .cls-12, .cls-9 {
        opacity: .5;
      }
    </style>
  </defs>
  <g class="cls-13">
    <g id="Layer_2" data-name="Layer 2">
      <g id="sing_name">
        <g>
          <g>
            <g>
              <path class="cls-6" d="M191.36,0S124.8,110.6,0,180.25H378.84S222.96,72.71,191.36,0Z"/>
              <g>
                <path class="cls-1" d="M191.36,0s-1.99,77.56-61.77,180.25h63.28c-3-71.81-1.51-180.25-1.51-180.25Z"/>
                <path class="cls-1" d="M191.36,0s-22.65,79.45-149.04,180.25h36.85C186.82,66.49,191.36,0,191.36,0Z"/>
                <path class="cls-1" d="M191.36,0s7.74,96.86,47.2,180.25h65.47C204.21,100.19,191.36,0,191.36,0Z"/>
                <path class="cls-1" d="M343.91,180.25h34.93S222.96,72.71,191.36,0c0,0,40.87,99.19,152.55,180.25Z"/>
              </g>
            </g>
            <g class="cls-12">
              <path class="cls-8" d="M378.84,180.25s-48.92-33.75-97.5-76.22c4.66,5.77,19.82,25.95,4.76,27.51-17.57,1.81-33.48-22.39-33.48-22.39H116.99s-19.23,21.18-26.91,19.97c-7.69-1.21,7.13-18.76,7.13-18.76l-.53-.06c-26.81,24.27-59.09,48.95-96.68,69.94H378.84Z"/>
            </g>
            <path class="cls-9" d="M168.4,32.39S121.12,98.5,36.37,158c36.51-17.08,121.53-100.27,132.04-125.61Z"/>
          </g>
          <g>
            <path class="cls-11" d="M195.98,172.05H92.68c-11.14-22.61-36.59-28.43-36.59-28.43v-62.01s33.49-5.17,45.91-33.59h192.28c12.4,28.41,45.91,33.59,45.91,33.59v62.01s-25.43,5.82-36.6,28.43h-107.62Z"/>
            <path class="cls-3" d="M195.98,169.78H92.68c-11.14-22.6-36.59-30.34-36.59-30.34v-62.02s33.49-5.16,45.91-33.59h192.28c12.4,28.43,45.91,33.59,45.91,33.59v62.02s-25.43,7.75-36.6,30.34h-107.62Z"/>
            <path class="cls-1" d="M196.01,167.85H94.64c-10.94-22.19-35.9-27.9-35.9-27.9v-60.85s32.87-5.06,45.04-32.96h188.72c12.17,27.9,45.03,32.96,45.03,32.96v60.85s-24.95,5.7-35.91,27.9h-105.62Z"/>
            <path class="cls-4" d="M196.28,160.54H93.78c-9.65-19.53-31.61-24.54-31.61-24.54v-53.54s28.92-4.46,39.63-28.98h191.51c10.72,24.53,39.64,28.98,39.64,28.98v53.54s-21.97,5.01-31.59,24.54h-105.08Z"/>
            <path class="cls-7" d="M196.33,158.98H96.78c-9.35-18.97-30.69-23.83-30.69-23.83v-51.97s28.09-4.34,38.48-28.17h185.95c10.43,23.83,38.5,28.17,38.5,28.17v51.97s-21.31,4.86-30.68,23.83h-102.01Z"/>
            <path class="cls-10" d="M196.39,156.16H102.24c-8.84-17.93-29.01-22.53-29.01-22.53v-49.18s26.55-4.09,36.39-26.62h175.89c9.84,22.53,36.39,26.62,36.39,26.62v49.18s-20.17,4.61-29.02,22.53h-96.49Z"/>
            <g>
              <g>
                <path class="cls-10" d="M111.63,50.1c0,1.05-.81,1.91-1.81,1.91s-1.85-.86-1.85-1.91,.83-1.93,1.85-1.93,1.81,.87,1.81,1.93Z"/>
                <path class="cls-3" d="M111.18,49.77c0,.83-.67,1.51-1.48,1.51s-1.48-.68-1.48-1.51,.66-1.52,1.48-1.52,1.48,.68,1.48,1.52Z"/>
                <path class="cls-5" d="M110.3,49.21c0,.49-.36,.86-.81,.86s-.82-.37-.82-.86c0-.45,.36-.83,.82-.83s.81,.38,.81,.83Z"/>
                <path class="cls-5" d="M109.31,50.4c0,.16-.13,.3-.28,.3s-.26-.13-.26-.3,.11-.27,.26-.27,.28,.11,.28,.27Z"/>
              </g>
              <g>
                <path class="cls-10" d="M102.78,56.5c0,1.07-.81,1.93-1.83,1.93s-1.84-.86-1.84-1.93,.83-1.91,1.84-1.91,1.83,.87,1.83,1.91Z"/>
                <path class="cls-3" d="M102.31,56.17c0,.84-.65,1.53-1.48,1.53-.77,0-1.44-.68-1.44-1.53s.67-1.52,1.44-1.52c.83,0,1.48,.68,1.48,1.52Z"/>
                <path class="cls-5" d="M101.47,55.63c0,.47-.36,.84-.81,.84s-.82-.37-.82-.84,.37-.84,.82-.84,.81,.39,.81,.84Z"/>
                <path class="cls-5" d="M100.46,56.82c0,.15-.11,.28-.26,.28s-.28-.13-.28-.28c0-.16,.13-.29,.28-.29s.26,.13,.26,.29Z"/>
              </g>
              <g>
                <path class="cls-10" d="M95.24,65.51c0,1.06-.79,1.92-1.83,1.92s-1.85-.86-1.85-1.92,.83-1.91,1.85-1.91,1.83,.84,1.83,1.91Z"/>
                <path class="cls-3" d="M94.76,65.19c0,.83-.63,1.51-1.46,1.51-.78,0-1.44-.68-1.44-1.51s.66-1.52,1.44-1.52c.83,0,1.46,.68,1.46,1.52Z"/>
                <path class="cls-5" d="M93.92,64.64c0,.45-.37,.84-.81,.84s-.81-.39-.81-.84,.37-.86,.81-.86,.81,.39,.81,.86Z"/>
                <path class="cls-5" d="M92.91,65.82c0,.16-.11,.28-.26,.28-.13,0-.28-.11-.28-.28,0-.15,.15-.27,.28-.27,.15,0,.26,.13,.26,.27Z"/>
              </g>
              <g>
                <path class="cls-10" d="M86.3,72.39c0,1.07-.83,1.91-1.85,1.91s-1.84-.84-1.84-1.91,.82-1.91,1.84-1.91,1.85,.86,1.85,1.91Z"/>
                <path class="cls-3" d="M85.81,72.06c0,.83-.65,1.51-1.46,1.51s-1.46-.68-1.46-1.51,.65-1.52,1.46-1.52,1.46,.68,1.46,1.52Z"/>
                <path class="cls-5" d="M84.95,71.51c0,.47-.36,.84-.81,.84s-.81-.37-.81-.84,.37-.84,.81-.84c.46,0,.81,.37,.81,.84Z"/>
                <path class="cls-5" d="M83.96,72.7c0,.16-.13,.27-.27,.27s-.28-.11-.28-.27c0-.15,.13-.27,.28-.27s.27,.13,.27,.27Z"/>
              </g>
              <g>
                <path class="cls-10" d="M76.07,77.63c0,1.05-.81,1.93-1.84,1.93s-1.83-.87-1.83-1.93,.81-1.91,1.83-1.91,1.84,.86,1.84,1.91Z"/>
                <path class="cls-3" d="M75.58,77.28c0,.84-.65,1.53-1.44,1.53s-1.46-.68-1.46-1.53,.64-1.51,1.46-1.51,1.44,.68,1.44,1.51Z"/>
                <path class="cls-5" d="M74.74,76.75c0,.47-.37,.84-.81,.84-.46,0-.82-.38-.82-.84s.36-.84,.82-.84,.81,.37,.81,.84Z"/>
                <path class="cls-5" d="M73.75,77.93c0,.16-.13,.29-.28,.29-.16,0-.27-.13-.27-.29s.11-.28,.27-.28c.15,0,.28,.12,.28,.28Z"/>
              </g>
              <g>
                <path class="cls-10" d="M64.44,82.21c0,1.06-.82,1.91-1.85,1.91s-1.83-.86-1.83-1.91,.82-1.91,1.83-1.91,1.85,.86,1.85,1.91Z"/>
                <path class="cls-3" d="M63.94,81.87c0,.84-.65,1.51-1.44,1.51s-1.44-.67-1.44-1.51,.65-1.51,1.44-1.51,1.44,.68,1.44,1.51Z"/>
                <path class="cls-5" d="M63.1,81.33c0,.45-.36,.84-.79,.84s-.83-.39-.83-.84,.39-.84,.83-.84,.79,.37,.79,.84Z"/>
                <path class="cls-5" d="M62.11,82.52c0,.15-.13,.28-.28,.28s-.26-.13-.26-.28,.11-.28,.26-.28,.28,.13,.28,.28Z"/>
              </g>
              <g>
                <path class="cls-10" d="M64.44,91.48c0,1.06-.82,1.91-1.85,1.91s-1.83-.86-1.83-1.91,.82-1.93,1.83-1.93,1.85,.86,1.85,1.93Z"/>
                <path class="cls-3" d="M63.94,91.13c0,.84-.65,1.52-1.44,1.52s-1.44-.68-1.44-1.52,.65-1.49,1.44-1.49,1.44,.68,1.44,1.49Z"/>
                <path class="cls-5" d="M63.1,90.59c0,.47-.36,.84-.79,.84s-.83-.37-.83-.84,.39-.84,.83-.84,.79,.39,.79,.84Z"/>
                <path class="cls-5" d="M62.11,91.77c0,.17-.13,.3-.28,.3s-.26-.13-.26-.3c0-.15,.11-.27,.26-.27s.28,.13,.28,.27Z"/>
              </g>
              <g>
                <path class="cls-10" d="M64.44,100.74c0,1.05-.82,1.91-1.85,1.91s-1.83-.86-1.83-1.91,.82-1.91,1.83-1.91,1.85,.86,1.85,1.91Z"/>
                <path class="cls-3" d="M63.94,100.42c0,.83-.65,1.51-1.44,1.51s-1.44-.68-1.44-1.51,.65-1.53,1.44-1.53,1.44,.67,1.44,1.53Z"/>
                <path class="cls-5" d="M63.1,99.86c0,.45-.36,.84-.79,.84s-.83-.39-.83-.84,.39-.84,.83-.84,.79,.37,.79,.84Z"/>
                <path class="cls-5" d="M62.11,101.05c0,.16-.13,.29-.28,.29s-.26-.13-.26-.29c0-.15,.11-.28,.26-.28s.28,.13,.28,.28Z"/>
              </g>
              <g>
                <path class="cls-10" d="M64.44,110.01c0,1.05-.82,1.91-1.85,1.91s-1.83-.86-1.83-1.91,.82-1.93,1.83-1.93,1.85,.88,1.85,1.93Z"/>
                <path class="cls-3" d="M63.94,109.67c0,.84-.65,1.52-1.44,1.52s-1.44-.68-1.44-1.52,.65-1.53,1.44-1.53,1.44,.68,1.44,1.53Z"/>
                <path class="cls-5" d="M63.1,109.12c0,.47-.36,.84-.79,.84s-.83-.37-.83-.84,.39-.84,.83-.84,.79,.39,.79,.84Z"/>
                <path class="cls-5" d="M62.11,110.32c0,.16-.13,.27-.28,.27s-.26-.11-.26-.27,.11-.28,.26-.28,.28,.11,.28,.28Z"/>
              </g>
              <g>
                <path class="cls-10" d="M64.44,119.27c0,1.07-.82,1.91-1.85,1.91s-1.83-.84-1.83-1.91,.82-1.91,1.83-1.91,1.85,.86,1.85,1.91Z"/>
                <path class="cls-3" d="M63.94,118.94c0,.83-.65,1.51-1.44,1.51s-1.44-.68-1.44-1.51,.65-1.52,1.44-1.52,1.44,.68,1.44,1.52Z"/>
                <path class="cls-5" d="M63.1,118.39c0,.45-.36,.84-.79,.84s-.83-.39-.83-.84,.39-.84,.83-.84,.79,.38,.79,.84Z"/>
                <path class="cls-5" d="M62.11,119.59c0,.15-.13,.26-.28,.26s-.26-.11-.26-.26c0-.16,.11-.29,.26-.29s.28,.13,.28,.29Z"/>
              </g>
              <g>
                <path class="cls-10" d="M64.44,128.54c0,1.06-.82,1.91-1.85,1.91s-1.83-.86-1.83-1.91,.82-1.91,1.83-1.91,1.85,.86,1.85,1.91Z"/>
                <path class="cls-3" d="M63.94,128.2c0,.84-.65,1.52-1.44,1.52s-1.44-.68-1.44-1.52,.65-1.51,1.44-1.51,1.44,.68,1.44,1.51Z"/>
                <path class="cls-5" d="M63.1,127.67c0,.45-.36,.84-.79,.84s-.83-.39-.83-.84,.39-.84,.83-.84,.79,.38,.79,.84Z"/>
                <path class="cls-5" d="M62.11,128.85c0,.16-.13,.28-.28,.28s-.26-.11-.26-.28c0-.15,.11-.27,.26-.27s.28,.13,.28,.27Z"/>
              </g>
              <g>
                <path class="cls-10" d="M64.44,137.03c0,1.07-.82,1.91-1.85,1.91s-1.83-.84-1.83-1.91,.82-1.91,1.83-1.91,1.85,.86,1.85,1.91Z"/>
                <path class="cls-3" d="M63.94,136.71c0,.84-.65,1.53-1.44,1.53s-1.44-.68-1.44-1.53,.65-1.52,1.44-1.52,1.44,.68,1.44,1.52Z"/>
                <path class="cls-5" d="M63.1,136.16c0,.47-.36,.84-.79,.84s-.83-.37-.83-.84,.39-.84,.83-.84,.79,.39,.79,.84Z"/>
                <path class="cls-5" d="M62.11,137.36c0,.15-.13,.28-.28,.28s-.26-.13-.26-.28c0-.16,.11-.29,.26-.29s.28,.13,.28,.29Z"/>
              </g>
              <g>
                <path class="cls-10" d="M73.39,140.63c0,1.07-.83,1.91-1.84,1.91s-1.85-.84-1.85-1.91,.85-1.91,1.85-1.91,1.84,.86,1.84,1.91Z"/>
                <path class="cls-3" d="M72.91,140.31c0,.84-.64,1.53-1.44,1.53s-1.46-.68-1.46-1.53,.65-1.52,1.46-1.52,1.44,.68,1.44,1.52Z"/>
                <path class="cls-5" d="M72.06,139.77c0,.45-.36,.83-.81,.83s-.82-.37-.82-.83,.38-.86,.82-.86,.81,.39,.81,.86Z"/>
                <path class="cls-5" d="M71.07,140.96c0,.16-.11,.28-.26,.28-.16,0-.28-.12-.28-.28s.11-.29,.28-.29c.15,0,.26,.13,.26,.29Z"/>
              </g>
              <g>
                <path class="cls-10" d="M83.29,146.37c0,1.07-.81,1.91-1.83,1.91s-1.83-.84-1.83-1.91,.81-1.91,1.83-1.91,1.83,.86,1.83,1.91Z"/>
                <path class="cls-3" d="M82.83,146.05c0,.83-.66,1.51-1.46,1.51s-1.46-.68-1.46-1.51,.65-1.52,1.46-1.52,1.46,.68,1.46,1.52Z"/>
                <path class="cls-5" d="M81.97,145.5c0,.47-.36,.84-.81,.84s-.81-.37-.81-.84,.36-.84,.81-.84,.81,.37,.81,.84Z"/>
                <path class="cls-5" d="M80.98,146.68c0,.16-.13,.28-.28,.28s-.26-.11-.26-.28c0-.15,.11-.27,.26-.27s.28,.13,.28,.27Z"/>
              </g>
              <g>
                <path class="cls-10" d="M91.16,153.73c0,1.07-.83,1.93-1.83,1.93s-1.83-.86-1.83-1.93,.81-1.9,1.83-1.9,1.83,.86,1.83,1.9Z"/>
                <path class="cls-3" d="M90.67,153.41c0,.84-.65,1.51-1.46,1.51s-1.44-.66-1.44-1.51,.65-1.52,1.44-1.52,1.46,.68,1.46,1.52Z"/>
                <path class="cls-5" d="M89.84,152.86c0,.47-.38,.84-.81,.84-.46,0-.83-.37-.83-.84s.37-.84,.83-.84c.42,0,.81,.37,.81,.84Z"/>
                <path class="cls-5" d="M88.84,154.05c0,.16-.13,.28-.27,.28-.16,0-.28-.11-.28-.28s.11-.29,.28-.29c.15,0,.27,.13,.27,.29Z"/>
              </g>
              <g>
                <path class="cls-10" d="M100.13,163.07c0,1.05-.82,1.91-1.83,1.91s-1.85-.86-1.85-1.91,.83-1.91,1.85-1.91,1.83,.86,1.83,1.91Z"/>
                <path class="cls-3" d="M99.64,162.75c0,.83-.65,1.51-1.46,1.51s-1.47-.68-1.47-1.51,.67-1.52,1.47-1.52,1.46,.68,1.46,1.52Z"/>
                <path class="cls-5" d="M98.79,162.19c0,.45-.37,.84-.81,.84s-.82-.39-.82-.84,.37-.84,.82-.84,.81,.38,.81,.84Z"/>
                <path class="cls-5" d="M97.81,163.38c0,.16-.13,.28-.3,.28-.12,0-.24-.11-.24-.28,0-.15,.11-.27,.24-.27,.17,0,.3,.13,.3,.27Z"/>
              </g>
              <g>
                <path class="cls-10" d="M296.82,56.5c0,1.07-.83,1.93-1.85,1.93s-1.83-.86-1.83-1.93,.81-1.91,1.83-1.91,1.85,.87,1.85,1.91Z"/>
                <path class="cls-3" d="M296.32,56.17c0,.84-.65,1.53-1.44,1.53s-1.46-.68-1.46-1.53,.65-1.52,1.46-1.52,1.44,.68,1.44,1.52Z"/>
                <path class="cls-5" d="M295.48,55.63c0,.47-.36,.84-.81,.84s-.81-.37-.81-.84,.37-.84,.81-.84,.81,.39,.81,.84Z"/>
                <path class="cls-5" d="M294.49,56.82c0,.15-.13,.28-.3,.28-.13,0-.24-.13-.24-.28,0-.16,.11-.29,.24-.29,.17,0,.3,.13,.3,.29Z"/>
              </g>
              <g>
                <path class="cls-10" d="M304.36,65.51c0,1.06-.83,1.92-1.85,1.92s-1.83-.86-1.83-1.92,.83-1.91,1.83-1.91,1.85,.84,1.85,1.91Z"/>
                <path class="cls-3" d="M303.86,65.19c0,.83-.64,1.51-1.43,1.51s-1.46-.68-1.46-1.51,.63-1.52,1.46-1.52,1.43,.68,1.43,1.52Z"/>
                <path class="cls-5" d="M303.02,64.64c0,.45-.36,.84-.81,.84s-.79-.39-.79-.84,.34-.86,.79-.86,.81,.39,.81,.86Z"/>
                <path class="cls-5" d="M302.04,65.82c0,.16-.13,.28-.29,.28s-.26-.11-.26-.28c0-.15,.11-.27,.26-.27s.29,.13,.29,.27Z"/>
              </g>
              <g>
                <path class="cls-10" d="M313.31,72.39c0,1.07-.81,1.91-1.83,1.91s-1.85-.84-1.85-1.91,.84-1.91,1.85-1.91,1.83,.86,1.83,1.91Z"/>
                <path class="cls-3" d="M312.83,72.06c0,.83-.65,1.51-1.46,1.51s-1.46-.68-1.46-1.51,.65-1.52,1.46-1.52,1.46,.68,1.46,1.52Z"/>
                <path class="cls-5" d="M311.98,71.51c0,.47-.36,.84-.82,.84s-.81-.37-.81-.84,.37-.84,.81-.84,.82,.37,.82,.84Z"/>
                <path class="cls-5" d="M310.99,72.7c0,.16-.11,.27-.26,.27-.16,0-.28-.11-.28-.27,0-.15,.12-.27,.28-.27,.15,0,.26,.13,.26,.27Z"/>
              </g>
              <g>
                <path class="cls-10" d="M323.53,77.63c0,1.05-.83,1.93-1.85,1.93s-1.83-.87-1.83-1.93,.82-1.91,1.83-1.91,1.85,.86,1.85,1.91Z"/>
                <path class="cls-3" d="M323.05,77.28c0,.84-.65,1.53-1.46,1.53s-1.46-.68-1.46-1.53,.65-1.51,1.46-1.51,1.46,.68,1.46,1.51Z"/>
                <path class="cls-5" d="M322.21,76.75c0,.47-.38,.84-.82,.84-.47,0-.81-.38-.81-.84s.34-.84,.81-.84c.44,0,.82,.37,.82,.84Z"/>
                <path class="cls-5" d="M321.2,77.93c0,.16-.11,.29-.28,.29-.15,0-.25-.13-.25-.29s.1-.28,.25-.28c.16,0,.28,.12,.28,.28Z"/>
              </g>
              <g>
                <path class="cls-10" d="M335.17,82.21c0,1.06-.82,1.91-1.85,1.91s-1.83-.86-1.83-1.91,.82-1.91,1.83-1.91,1.85,.86,1.85,1.91Z"/>
                <path class="cls-3" d="M334.69,81.87c0,.84-.66,1.51-1.46,1.51s-1.47-.67-1.47-1.51,.65-1.51,1.47-1.51,1.46,.68,1.46,1.51Z"/>
                <path class="cls-5" d="M333.85,81.33c0,.45-.38,.84-.83,.84s-.81-.39-.81-.84,.38-.84,.81-.84,.83,.37,.83,.84Z"/>
                <path class="cls-5" d="M332.82,82.52c0,.15-.11,.28-.24,.28-.17,0-.28-.13-.28-.28s.11-.28,.28-.28c.12,0,.24,.13,.24,.28Z"/>
              </g>
              <g>
                <path class="cls-10" d="M335.17,91.48c0,1.06-.82,1.91-1.85,1.91s-1.83-.86-1.83-1.91,.82-1.93,1.83-1.93,1.85,.86,1.85,1.93Z"/>
                <path class="cls-3" d="M334.69,91.13c0,.84-.66,1.52-1.46,1.52s-1.47-.68-1.47-1.52,.65-1.49,1.47-1.49,1.46,.68,1.46,1.49Z"/>
                <path class="cls-5" d="M333.85,90.59c0,.47-.38,.84-.83,.84s-.81-.37-.81-.84,.38-.84,.81-.84,.83,.39,.83,.84Z"/>
                <path class="cls-5" d="M332.82,91.77c0,.17-.11,.3-.24,.3-.17,0-.28-.13-.28-.3,0-.15,.11-.27,.28-.27,.12,0,.24,.13,.24,.27Z"/>
              </g>
              <g>
                <path class="cls-10" d="M335.17,100.74c0,1.05-.82,1.91-1.85,1.91s-1.83-.86-1.83-1.91,.82-1.91,1.83-1.91,1.85,.86,1.85,1.91Z"/>
                <path class="cls-3" d="M334.69,100.42c0,.83-.66,1.51-1.46,1.51s-1.47-.68-1.47-1.51,.65-1.53,1.47-1.53,1.46,.67,1.46,1.53Z"/>
                <path class="cls-5" d="M333.85,99.86c0,.45-.38,.84-.83,.84s-.81-.39-.81-.84,.38-.84,.81-.84,.83,.37,.83,.84Z"/>
                <path class="cls-5" d="M332.82,101.05c0,.16-.11,.29-.24,.29-.17,0-.28-.13-.28-.29,0-.15,.11-.28,.28-.28,.12,0,.24,.13,.24,.28Z"/>
              </g>
              <g>
                <path class="cls-10" d="M335.17,110.01c0,1.05-.82,1.91-1.85,1.91s-1.83-.86-1.83-1.91,.82-1.93,1.83-1.93,1.85,.88,1.85,1.93Z"/>
                <path class="cls-3" d="M334.69,109.67c0,.84-.66,1.52-1.46,1.52s-1.47-.68-1.47-1.52,.65-1.53,1.47-1.53,1.46,.68,1.46,1.53Z"/>
                <path class="cls-5" d="M333.85,109.12c0,.47-.38,.84-.83,.84s-.81-.37-.81-.84,.38-.84,.81-.84,.83,.39,.83,.84Z"/>
                <path class="cls-5" d="M332.82,110.32c0,.16-.11,.27-.24,.27-.17,0-.28-.11-.28-.27s.11-.28,.28-.28c.12,0,.24,.11,.24,.28Z"/>
              </g>
              <g>
                <path class="cls-10" d="M335.17,119.27c0,1.07-.82,1.91-1.85,1.91s-1.83-.84-1.83-1.91,.82-1.91,1.83-1.91,1.85,.86,1.85,1.91Z"/>
                <path class="cls-3" d="M334.69,118.94c0,.83-.66,1.51-1.46,1.51s-1.47-.68-1.47-1.51,.65-1.52,1.47-1.52,1.46,.68,1.46,1.52Z"/>
                <path class="cls-5" d="M333.85,118.39c0,.45-.38,.84-.83,.84s-.81-.39-.81-.84,.38-.84,.81-.84,.83,.38,.83,.84Z"/>
                <path class="cls-5" d="M332.82,119.59c0,.15-.11,.26-.24,.26-.17,0-.28-.11-.28-.26,0-.16,.11-.29,.28-.29,.12,0,.24,.13,.24,.29Z"/>
              </g>
              <g>
                <path class="cls-10" d="M335.17,128.54c0,1.06-.82,1.91-1.85,1.91s-1.83-.86-1.83-1.91,.82-1.91,1.83-1.91,1.85,.86,1.85,1.91Z"/>
                <path class="cls-3" d="M334.69,128.2c0,.84-.66,1.52-1.46,1.52s-1.47-.68-1.47-1.52,.65-1.51,1.47-1.51,1.46,.68,1.46,1.51Z"/>
                <path class="cls-5" d="M333.85,127.67c0,.45-.38,.84-.83,.84s-.81-.39-.81-.84,.38-.84,.81-.84,.83,.38,.83,.84Z"/>
                <path class="cls-5" d="M332.82,128.85c0,.16-.11,.28-.24,.28-.17,0-.28-.11-.28-.28,0-.15,.11-.27,.28-.27,.12,0,.24,.13,.24,.27Z"/>
              </g>
              <g>
                <path class="cls-10" d="M335.17,137.03c0,1.07-.82,1.91-1.85,1.91s-1.83-.84-1.83-1.91,.82-1.91,1.83-1.91,1.85,.86,1.85,1.91Z"/>
                <path class="cls-3" d="M334.69,136.71c0,.84-.66,1.53-1.46,1.53s-1.47-.68-1.47-1.53,.65-1.52,1.47-1.52,1.46,.68,1.46,1.52Z"/>
                <path class="cls-5" d="M333.85,136.16c0,.47-.38,.84-.83,.84s-.81-.37-.81-.84,.38-.84,.81-.84,.83,.39,.83,.84Z"/>
                <path class="cls-5" d="M332.82,137.36c0,.15-.11,.28-.24,.28-.17,0-.28-.13-.28-.28,0-.16,.11-.29,.28-.29,.12,0,.24,.13,.24,.29Z"/>
              </g>
              <g>
                <path class="cls-10" d="M326.21,140.63c0,1.07-.83,1.91-1.85,1.91s-1.84-.84-1.84-1.91,.83-1.91,1.84-1.91,1.85,.86,1.85,1.91Z"/>
                <path class="cls-3" d="M325.72,140.31c0,.84-.65,1.53-1.46,1.53s-1.46-.68-1.46-1.53,.65-1.52,1.46-1.52,1.46,.68,1.46,1.52Z"/>
                <path class="cls-5" d="M324.86,139.77c0,.45-.36,.83-.81,.83s-.82-.37-.82-.83,.38-.86,.82-.86,.81,.39,.81,.86Z"/>
                <path class="cls-5" d="M323.88,140.96c0,.16-.13,.28-.28,.28s-.26-.12-.26-.28,.11-.29,.26-.29,.28,.13,.28,.29Z"/>
              </g>
              <g>
                <path class="cls-10" d="M316.3,146.37c0,1.07-.81,1.91-1.85,1.91s-1.81-.84-1.81-1.91,.81-1.91,1.81-1.91,1.85,.86,1.85,1.91Z"/>
                <path class="cls-3" d="M315.82,146.05c0,.83-.65,1.51-1.47,1.51s-1.46-.68-1.46-1.51,.65-1.52,1.46-1.52,1.47,.68,1.47,1.52Z"/>
                <path class="cls-5" d="M314.98,145.5c0,.47-.39,.84-.81,.84-.45,0-.81-.37-.81-.84s.36-.84,.81-.84c.42,0,.81,.37,.81,.84Z"/>
                <path class="cls-5" d="M313.99,146.68c0,.16-.12,.28-.27,.28-.17,0-.26-.11-.26-.28,0-.15,.1-.27,.26-.27,.15,0,.27,.13,.27,.27Z"/>
              </g>
              <g>
                <path class="cls-10" d="M308.45,153.73c0,1.07-.83,1.93-1.84,1.93s-1.85-.86-1.85-1.93,.83-1.9,1.85-1.9,1.84,.86,1.84,1.9Z"/>
                <path class="cls-3" d="M307.96,153.41c0,.84-.65,1.51-1.46,1.51s-1.44-.66-1.44-1.51,.65-1.52,1.44-1.52,1.46,.68,1.46,1.52Z"/>
                <path class="cls-5" d="M307.1,152.86c0,.47-.36,.84-.78,.84-.47,0-.84-.37-.84-.84s.37-.84,.84-.84c.42,0,.78,.37,.78,.84Z"/>
                <path class="cls-5" d="M306.13,154.05c0,.16-.13,.28-.28,.28s-.28-.11-.28-.28,.13-.29,.28-.29,.28,.13,.28,.29Z"/>
              </g>
              <g>
                <path class="cls-10" d="M299.48,163.07c0,1.05-.83,1.91-1.83,1.91s-1.83-.86-1.83-1.91,.81-1.91,1.83-1.91,1.83,.86,1.83,1.91Z"/>
                <path class="cls-3" d="M298.99,162.75c0,.83-.65,1.51-1.44,1.51s-1.47-.68-1.47-1.51,.64-1.52,1.47-1.52,1.44,.68,1.44,1.52Z"/>
                <path class="cls-5" d="M298.15,162.19c0,.45-.36,.84-.81,.84s-.81-.39-.81-.84,.36-.84,.81-.84,.81,.38,.81,.84Z"/>
                <path class="cls-5" d="M297.16,163.38c0,.16-.13,.28-.28,.28-.16,0-.26-.11-.26-.28,0-.15,.09-.27,.26-.27,.15,0,.28,.13,.28,.27Z"/>
              </g>
              <g>
                <path class="cls-10" d="M121.97,50.1c0,1.05-.83,1.91-1.85,1.91s-1.85-.86-1.85-1.91,.83-1.93,1.85-1.93,1.85,.87,1.85,1.93Z"/>
                <path class="cls-3" d="M121.47,49.77c0,.83-.63,1.51-1.46,1.51s-1.44-.68-1.44-1.51,.65-1.52,1.44-1.52,1.46,.68,1.46,1.52Z"/>
                <path class="cls-5" d="M120.63,49.21c0,.49-.36,.86-.81,.86s-.81-.37-.81-.86c0-.45,.36-.83,.81-.83s.81,.38,.81,.83Z"/>
                <path class="cls-5" d="M119.64,50.4c0,.16-.13,.3-.28,.3s-.28-.13-.28-.3,.13-.27,.28-.27,.28,.11,.28,.27Z"/>
              </g>
              <g>
                <path class="cls-10" d="M132.29,50.1c0,1.05-.83,1.91-1.85,1.91s-1.83-.86-1.83-1.91,.81-1.93,1.83-1.93,1.85,.87,1.85,1.93Z"/>
                <path class="cls-3" d="M131.8,49.77c0,.83-.65,1.51-1.46,1.51s-1.46-.68-1.46-1.51,.67-1.52,1.46-1.52,1.46,.68,1.46,1.52Z"/>
                <path class="cls-5" d="M130.96,49.21c0,.49-.38,.86-.82,.86s-.81-.37-.81-.86c0-.45,.36-.83,.81-.83s.82,.38,.82,.83Z"/>
                <path class="cls-5" d="M129.96,50.4c0,.16-.13,.3-.27,.3-.16,0-.28-.13-.28-.3s.11-.27,.28-.27c.15,0,.27,.11,.27,.27Z"/>
              </g>
              <g>
                <path class="cls-10" d="M142.63,50.1c0,1.05-.85,1.91-1.85,1.91s-1.85-.86-1.85-1.91,.83-1.93,1.85-1.93,1.85,.87,1.85,1.93Z"/>
                <path class="cls-3" d="M142.14,49.77c0,.83-.65,1.51-1.46,1.51s-1.48-.68-1.48-1.51,.65-1.52,1.48-1.52,1.46,.68,1.46,1.52Z"/>
                <path class="cls-5" d="M141.28,49.21c0,.49-.35,.86-.81,.86s-.81-.37-.81-.86c0-.45,.35-.83,.81-.83s.81,.38,.81,.83Z"/>
                <path class="cls-5" d="M140.29,50.4c0,.16-.12,.3-.28,.3s-.27-.13-.27-.3,.11-.27,.27-.27,.28,.11,.28,.27Z"/>
              </g>
              <g>
                <path class="cls-10" d="M152.94,50.1c0,1.05-.83,1.91-1.85,1.91s-1.83-.86-1.83-1.91,.83-1.93,1.83-1.93,1.85,.87,1.85,1.93Z"/>
                <path class="cls-3" d="M152.45,49.77c0,.83-.65,1.51-1.46,1.51s-1.46-.68-1.46-1.51,.66-1.52,1.46-1.52,1.46,.68,1.46,1.52Z"/>
                <path class="cls-5" d="M151.6,49.21c0,.49-.37,.86-.81,.86s-.82-.37-.82-.86c0-.45,.36-.83,.82-.83s.81,.38,.81,.83Z"/>
                <path class="cls-5" d="M150.6,50.4c0,.16-.11,.3-.26,.3s-.27-.13-.27-.3,.13-.27,.27-.27,.26,.11,.26,.27Z"/>
              </g>
              <g>
                <path class="cls-10" d="M163.26,50.1c0,1.05-.83,1.91-1.85,1.91s-1.82-.86-1.82-1.91,.81-1.93,1.82-1.93,1.85,.87,1.85,1.93Z"/>
                <path class="cls-3" d="M162.77,49.77c0,.83-.66,1.51-1.47,1.51s-1.44-.68-1.44-1.51,.66-1.52,1.44-1.52,1.47,.68,1.47,1.52Z"/>
                <path class="cls-5" d="M161.91,49.21c0,.49-.35,.86-.81,.86s-.81-.37-.81-.86c0-.45,.37-.83,.81-.83s.81,.38,.81,.83Z"/>
                <path class="cls-5" d="M160.95,50.4c0,.16-.13,.3-.3,.3-.13,0-.26-.13-.26-.3s.13-.27,.26-.27c.16,0,.3,.11,.3,.27Z"/>
              </g>
              <g>
                <path class="cls-10" d="M173.59,50.1c0,1.05-.82,1.91-1.85,1.91s-1.83-.86-1.83-1.91,.82-1.93,1.83-1.93,1.85,.87,1.85,1.93Z"/>
                <path class="cls-3" d="M173.1,49.77c0,.83-.65,1.51-1.46,1.51s-1.46-.68-1.46-1.51,.65-1.52,1.46-1.52,1.46,.68,1.46,1.52Z"/>
                <path class="cls-5" d="M172.24,49.21c0,.49-.36,.86-.81,.86s-.81-.37-.81-.86c0-.45,.38-.83,.81-.83s.81,.38,.81,.83Z"/>
                <path class="cls-5" d="M171.26,50.4c0,.16-.13,.3-.26,.3-.17,0-.28-.13-.28-.3s.11-.27,.28-.27c.12,0,.26,.11,.26,.27Z"/>
              </g>
              <g>
                <path class="cls-10" d="M183.91,50.1c0,1.05-.83,1.91-1.85,1.91s-1.83-.86-1.83-1.91,.83-1.93,1.83-1.93,1.85,.87,1.85,1.93Z"/>
                <path class="cls-3" d="M183.43,49.77c0,.83-.67,1.51-1.46,1.51s-1.46-.68-1.46-1.51,.66-1.52,1.46-1.52,1.46,.68,1.46,1.52Z"/>
                <path class="cls-5" d="M182.58,49.21c0,.49-.37,.86-.83,.86s-.81-.37-.81-.86c0-.45,.37-.83,.81-.83,.46,0,.83,.38,.83,.83Z"/>
                <path class="cls-5" d="M181.56,50.4c0,.16-.1,.3-.26,.3-.13,0-.26-.13-.26-.3s.13-.27,.26-.27c.16,0,.26,.11,.26,.27Z"/>
              </g>
              <g>
                <path class="cls-10" d="M194.22,50.1c0,1.05-.81,1.91-1.83,1.91s-1.85-.86-1.85-1.91,.84-1.93,1.85-1.93,1.83,.87,1.83,1.93Z"/>
                <path class="cls-3" d="M193.74,49.77c0,.83-.65,1.51-1.44,1.51s-1.46-.68-1.46-1.51,.65-1.52,1.46-1.52,1.44,.68,1.44,1.52Z"/>
                <path class="cls-5" d="M192.9,49.21c0,.49-.36,.86-.79,.86s-.83-.37-.83-.86c0-.45,.37-.83,.83-.83s.79,.38,.79,.83Z"/>
                <path class="cls-5" d="M191.91,50.4c0,.16-.13,.3-.26,.3-.16,0-.28-.13-.28-.3s.12-.27,.28-.27c.13,0,.26,.11,.26,.27Z"/>
              </g>
              <g>
                <path class="cls-10" d="M204.55,50.1c0,1.05-.81,1.91-1.83,1.91s-1.83-.86-1.83-1.91,.81-1.93,1.83-1.93,1.83,.87,1.83,1.93Z"/>
                <path class="cls-3" d="M204.07,49.77c0,.83-.65,1.51-1.46,1.51s-1.44-.68-1.44-1.51,.65-1.52,1.44-1.52,1.46,.68,1.46,1.52Z"/>
                <path class="cls-5" d="M203.24,49.21c0,.49-.38,.86-.83,.86s-.81-.37-.81-.86c0-.45,.36-.83,.81-.83s.83,.38,.83,.83Z"/>
                <path class="cls-5" d="M202.22,50.4c0,.16-.12,.3-.27,.3s-.27-.13-.27-.3,.13-.27,.27-.27,.27,.11,.27,.27Z"/>
              </g>
              <g>
                <path class="cls-10" d="M214.89,50.1c0,1.05-.83,1.91-1.85,1.91s-1.83-.86-1.83-1.91,.83-1.93,1.83-1.93,1.85,.87,1.85,1.93Z"/>
                <path class="cls-3" d="M214.41,49.77c0,.83-.67,1.51-1.46,1.51s-1.47-.68-1.47-1.51,.66-1.52,1.47-1.52,1.46,.68,1.46,1.52Z"/>
                <path class="cls-5" d="M213.55,49.21c0,.49-.37,.86-.83,.86-.42,0-.81-.37-.81-.86,0-.45,.39-.83,.81-.83,.46,0,.83,.38,.83,.83Z"/>
                <path class="cls-5" d="M212.54,50.4c0,.16-.11,.3-.26,.3s-.28-.13-.28-.3,.13-.27,.28-.27,.26,.11,.26,.27Z"/>
              </g>
              <g>
                <path class="cls-10" d="M225.21,50.1c0,1.05-.83,1.91-1.83,1.91s-1.84-.86-1.84-1.91,.82-1.93,1.84-1.93,1.83,.87,1.83,1.93Z"/>
                <path class="cls-3" d="M224.72,49.77c0,.83-.65,1.51-1.44,1.51s-1.46-.68-1.46-1.51,.65-1.52,1.46-1.52,1.44,.68,1.44,1.52Z"/>
                <path class="cls-5" d="M223.87,49.21c0,.49-.38,.86-.81,.86s-.81-.37-.81-.86c0-.45,.36-.83,.81-.83s.81,.38,.81,.83Z"/>
                <path class="cls-5" d="M222.87,50.4c0,.16-.11,.3-.26,.3s-.26-.13-.26-.3,.11-.27,.26-.27,.26,.11,.26,.27Z"/>
              </g>
              <g>
                <path class="cls-10" d="M235.53,50.1c0,1.05-.83,1.91-1.83,1.91s-1.85-.86-1.85-1.91,.83-1.93,1.85-1.93,1.83,.87,1.83,1.93Z"/>
                <path class="cls-3" d="M235.02,49.77c0,.83-.63,1.51-1.44,1.51s-1.44-.68-1.44-1.51,.64-1.52,1.44-1.52,1.44,.68,1.44,1.52Z"/>
                <path class="cls-5" d="M234.18,49.21c0,.49-.36,.86-.79,.86-.46,0-.83-.37-.83-.86,0-.45,.37-.83,.83-.83s.79,.38,.79,.83Z"/>
                <path class="cls-5" d="M233.21,50.4c0,.16-.13,.3-.28,.3s-.27-.13-.27-.3,.12-.27,.27-.27c.15,0,.28,.11,.28,.27Z"/>
              </g>
              <g>
                <path class="cls-10" d="M245.86,50.1c0,1.05-.81,1.91-1.85,1.91s-1.83-.86-1.83-1.91,.83-1.93,1.83-1.93,1.85,.87,1.85,1.93Z"/>
                <path class="cls-3" d="M245.37,49.77c0,.83-.65,1.51-1.46,1.51s-1.46-.68-1.46-1.51,.65-1.52,1.46-1.52,1.46,.68,1.46,1.52Z"/>
                <path class="cls-5" d="M244.52,49.21c0,.49-.37,.86-.81,.86-.47,0-.83-.37-.83-.86,0-.45,.36-.83,.83-.83,.44,0,.81,.38,.81,.83Z"/>
                <path class="cls-5" d="M243.52,50.4c0,.16-.11,.3-.27,.3-.15,0-.26-.13-.26-.3s.11-.27,.26-.27c.16,0,.27,.11,.27,.27Z"/>
              </g>
              <g>
                <path class="cls-10" d="M256.18,50.1c0,1.05-.83,1.91-1.83,1.91s-1.85-.86-1.85-1.91,.83-1.93,1.85-1.93,1.83,.87,1.83,1.93Z"/>
                <path class="cls-3" d="M255.68,49.77c0,.83-.64,1.51-1.44,1.51s-1.47-.68-1.47-1.51,.65-1.52,1.47-1.52,1.44,.68,1.44,1.52Z"/>
                <path class="cls-5" d="M254.83,49.21c0,.49-.35,.86-.81,.86s-.81-.37-.81-.86c0-.45,.37-.83,.81-.83s.81,.38,.81,.83Z"/>
                <path class="cls-5" d="M253.85,50.4c0,.16-.11,.3-.26,.3-.17,0-.28-.13-.28-.3s.11-.27,.28-.27c.15,0,.26,.11,.26,.27Z"/>
              </g>
              <g>
                <path class="cls-10" d="M266.49,50.1c0,1.05-.81,1.91-1.83,1.91s-1.85-.86-1.85-1.91,.83-1.93,1.85-1.93,1.83,.87,1.83,1.93Z"/>
                <path class="cls-3" d="M266.02,49.77c0,.83-.65,1.51-1.46,1.51s-1.46-.68-1.46-1.51,.65-1.52,1.46-1.52,1.46,.68,1.46,1.52Z"/>
                <path class="cls-5" d="M265.16,49.21c0,.49-.36,.86-.81,.86s-.82-.37-.82-.86c0-.45,.38-.83,.82-.83s.81,.38,.81,.83Z"/>
                <path class="cls-5" d="M264.17,50.4c0,.16-.11,.3-.26,.3-.16,0-.29-.13-.29-.3s.13-.27,.29-.27c.15,0,.26,.11,.26,.27Z"/>
              </g>
              <g>
                <path class="cls-10" d="M276.82,50.1c0,1.05-.81,1.91-1.83,1.91s-1.85-.86-1.85-1.91,.83-1.93,1.85-1.93,1.83,.87,1.83,1.93Z"/>
                <path class="cls-3" d="M276.33,49.77c0,.83-.65,1.51-1.46,1.51s-1.44-.68-1.44-1.51,.65-1.52,1.44-1.52,1.46,.68,1.46,1.52Z"/>
                <path class="cls-5" d="M275.49,49.21c0,.49-.37,.86-.81,.86s-.81-.37-.81-.86c0-.45,.36-.83,.81-.83s.81,.38,.81,.83Z"/>
                <path class="cls-5" d="M274.51,50.4c0,.16-.15,.3-.29,.3s-.28-.13-.28-.3,.13-.27,.28-.27,.29,.11,.29,.27Z"/>
              </g>
              <g>
                <path class="cls-10" d="M287.14,50.1c0,1.05-.81,1.91-1.83,1.91s-1.83-.86-1.83-1.91,.83-1.93,1.83-1.93,1.83,.87,1.83,1.93Z"/>
                <path class="cls-3" d="M286.66,49.77c0,.83-.64,1.51-1.44,1.51s-1.46-.68-1.46-1.51,.65-1.52,1.46-1.52,1.44,.68,1.44,1.52Z"/>
                <path class="cls-5" d="M285.82,49.21c0,.49-.36,.86-.82,.86s-.81-.37-.81-.86c0-.45,.36-.83,.81-.83s.82,.38,.82,.83Z"/>
                <path class="cls-5" d="M284.82,50.4c0,.16-.11,.3-.27,.3-.15,0-.27-.13-.27-.3s.12-.27,.27-.27c.16,0,.27,.11,.27,.27Z"/>
              </g>
            </g>
            <g>
              <g>
                <path class="cls-10" d="M111.63,163.23c0,1.07-.81,1.91-1.81,1.91s-1.85-.84-1.85-1.91,.83-1.91,1.85-1.91,1.81,.86,1.81,1.91Z"/>
                <path class="cls-3" d="M111.18,162.91c0,.83-.67,1.52-1.48,1.52s-1.48-.69-1.48-1.52,.66-1.53,1.48-1.53,1.48,.68,1.48,1.53Z"/>
                <path class="cls-5" d="M110.3,162.35c0,.47-.36,.84-.81,.84s-.82-.38-.82-.84,.36-.84,.82-.84,.81,.39,.81,.84Z"/>
                <path class="cls-5" d="M109.31,163.56c0,.15-.13,.27-.28,.27s-.26-.13-.26-.27c0-.16,.11-.3,.26-.3s.28,.13,.28,.3Z"/>
              </g>
              <g>
                <path class="cls-10" d="M121.97,163.23c0,1.07-.83,1.91-1.85,1.91s-1.85-.84-1.85-1.91,.83-1.91,1.85-1.91,1.85,.86,1.85,1.91Z"/>
                <path class="cls-3" d="M121.47,162.91c0,.83-.63,1.52-1.46,1.52s-1.44-.69-1.44-1.52,.65-1.53,1.44-1.53,1.46,.68,1.46,1.53Z"/>
                <path class="cls-5" d="M120.63,162.35c0,.47-.36,.84-.81,.84s-.81-.38-.81-.84,.36-.84,.81-.84,.81,.39,.81,.84Z"/>
                <path class="cls-5" d="M119.64,163.56c0,.15-.13,.27-.28,.27s-.28-.13-.28-.27c0-.16,.13-.3,.28-.3s.28,.13,.28,.3Z"/>
              </g>
              <g>
                <path class="cls-10" d="M132.29,163.23c0,1.07-.83,1.91-1.85,1.91s-1.83-.84-1.83-1.91,.81-1.91,1.83-1.91,1.85,.86,1.85,1.91Z"/>
                <path class="cls-3" d="M131.8,162.91c0,.83-.65,1.52-1.46,1.52s-1.46-.69-1.46-1.52,.67-1.53,1.46-1.53,1.46,.68,1.46,1.53Z"/>
                <path class="cls-5" d="M130.96,162.35c0,.47-.38,.84-.82,.84s-.81-.38-.81-.84,.36-.84,.81-.84,.82,.39,.82,.84Z"/>
                <path class="cls-5" d="M129.96,163.56c0,.15-.13,.27-.27,.27-.16,0-.28-.13-.28-.27,0-.16,.11-.3,.28-.3,.15,0,.27,.13,.27,.3Z"/>
              </g>
              <g>
                <path class="cls-10" d="M142.63,163.23c0,1.07-.85,1.91-1.85,1.91s-1.85-.84-1.85-1.91,.83-1.91,1.85-1.91,1.85,.86,1.85,1.91Z"/>
                <path class="cls-3" d="M142.14,162.91c0,.83-.65,1.52-1.46,1.52s-1.48-.69-1.48-1.52,.65-1.53,1.48-1.53,1.46,.68,1.46,1.53Z"/>
                <path class="cls-5" d="M141.28,162.35c0,.47-.35,.84-.81,.84s-.81-.38-.81-.84,.35-.84,.81-.84,.81,.39,.81,.84Z"/>
                <path class="cls-5" d="M140.29,163.56c0,.15-.12,.27-.28,.27s-.27-.13-.27-.27c0-.16,.11-.3,.27-.3s.28,.13,.28,.3Z"/>
              </g>
              <g>
                <path class="cls-10" d="M152.94,163.23c0,1.07-.83,1.91-1.85,1.91s-1.83-.84-1.83-1.91,.83-1.91,1.83-1.91,1.85,.86,1.85,1.91Z"/>
                <path class="cls-3" d="M152.45,162.91c0,.83-.65,1.52-1.46,1.52s-1.46-.69-1.46-1.52,.66-1.53,1.46-1.53,1.46,.68,1.46,1.53Z"/>
                <path class="cls-5" d="M151.6,162.35c0,.47-.37,.84-.81,.84s-.82-.38-.82-.84,.36-.84,.82-.84,.81,.39,.81,.84Z"/>
                <path class="cls-5" d="M150.6,163.56c0,.15-.11,.27-.26,.27s-.27-.13-.27-.27c0-.16,.13-.3,.27-.3s.26,.13,.26,.3Z"/>
              </g>
              <g>
                <path class="cls-10" d="M163.26,163.23c0,1.07-.83,1.91-1.85,1.91s-1.82-.84-1.82-1.91,.81-1.91,1.82-1.91,1.85,.86,1.85,1.91Z"/>
                <path class="cls-3" d="M162.77,162.91c0,.83-.66,1.52-1.47,1.52s-1.44-.69-1.44-1.52,.66-1.53,1.44-1.53,1.47,.68,1.47,1.53Z"/>
                <path class="cls-5" d="M161.91,162.35c0,.47-.35,.84-.81,.84s-.81-.38-.81-.84,.37-.84,.81-.84,.81,.39,.81,.84Z"/>
                <path class="cls-5" d="M160.95,163.56c0,.15-.13,.27-.3,.27-.13,0-.26-.13-.26-.27,0-.16,.13-.3,.26-.3,.16,0,.3,.13,.3,.3Z"/>
              </g>
              <g>
                <path class="cls-10" d="M173.59,163.23c0,1.07-.82,1.91-1.85,1.91s-1.83-.84-1.83-1.91,.82-1.91,1.83-1.91,1.85,.86,1.85,1.91Z"/>
                <path class="cls-3" d="M173.1,162.91c0,.83-.65,1.52-1.46,1.52s-1.46-.69-1.46-1.52,.65-1.53,1.46-1.53,1.46,.68,1.46,1.53Z"/>
                <path class="cls-5" d="M172.24,162.35c0,.47-.36,.84-.81,.84s-.81-.38-.81-.84,.38-.84,.81-.84,.81,.39,.81,.84Z"/>
                <path class="cls-5" d="M171.26,163.56c0,.15-.13,.27-.26,.27-.17,0-.28-.13-.28-.27,0-.16,.11-.3,.28-.3,.12,0,.26,.13,.26,.3Z"/>
              </g>
              <g>
                <path class="cls-10" d="M183.91,163.23c0,1.07-.83,1.91-1.85,1.91s-1.83-.84-1.83-1.91,.83-1.91,1.83-1.91,1.85,.86,1.85,1.91Z"/>
                <path class="cls-3" d="M183.43,162.91c0,.83-.67,1.52-1.46,1.52s-1.46-.69-1.46-1.52,.66-1.53,1.46-1.53,1.46,.68,1.46,1.53Z"/>
                <path class="cls-5" d="M182.58,162.35c0,.47-.37,.84-.83,.84s-.81-.38-.81-.84,.37-.84,.81-.84c.46,0,.83,.39,.83,.84Z"/>
                <path class="cls-5" d="M181.56,163.56c0,.15-.1,.27-.26,.27-.13,0-.26-.13-.26-.27,0-.16,.13-.3,.26-.3,.16,0,.26,.13,.26,.3Z"/>
              </g>
              <g>
                <path class="cls-10" d="M194.22,163.23c0,1.07-.81,1.91-1.83,1.91s-1.85-.84-1.85-1.91,.84-1.91,1.85-1.91,1.83,.86,1.83,1.91Z"/>
                <path class="cls-3" d="M193.74,162.91c0,.83-.65,1.52-1.44,1.52s-1.46-.69-1.46-1.52,.65-1.53,1.46-1.53,1.44,.68,1.44,1.53Z"/>
                <path class="cls-5" d="M192.9,162.35c0,.47-.36,.84-.79,.84s-.83-.38-.83-.84,.37-.84,.83-.84,.79,.39,.79,.84Z"/>
                <path class="cls-5" d="M191.91,163.56c0,.15-.13,.27-.26,.27-.16,0-.28-.13-.28-.27,0-.16,.12-.3,.28-.3,.13,0,.26,.13,.26,.3Z"/>
              </g>
              <g>
                <path class="cls-10" d="M204.55,163.23c0,1.07-.81,1.91-1.83,1.91s-1.83-.84-1.83-1.91,.81-1.91,1.83-1.91,1.83,.86,1.83,1.91Z"/>
                <path class="cls-3" d="M204.07,162.91c0,.83-.65,1.52-1.46,1.52s-1.44-.69-1.44-1.52,.65-1.53,1.44-1.53,1.46,.68,1.46,1.53Z"/>
                <path class="cls-5" d="M203.24,162.35c0,.47-.38,.84-.83,.84s-.81-.38-.81-.84,.36-.84,.81-.84,.83,.39,.83,.84Z"/>
                <path class="cls-5" d="M202.22,163.56c0,.15-.12,.27-.27,.27s-.27-.13-.27-.27c0-.16,.13-.3,.27-.3s.27,.13,.27,.3Z"/>
              </g>
              <g>
                <path class="cls-10" d="M214.89,163.23c0,1.07-.83,1.91-1.85,1.91s-1.83-.84-1.83-1.91,.83-1.91,1.83-1.91,1.85,.86,1.85,1.91Z"/>
                <path class="cls-3" d="M214.41,162.91c0,.83-.67,1.52-1.46,1.52s-1.47-.69-1.47-1.52,.66-1.53,1.47-1.53,1.46,.68,1.46,1.53Z"/>
                <path class="cls-5" d="M213.55,162.35c0,.47-.37,.84-.83,.84-.42,0-.81-.38-.81-.84s.39-.84,.81-.84c.46,0,.83,.39,.83,.84Z"/>
                <path class="cls-5" d="M212.54,163.56c0,.15-.11,.27-.26,.27s-.28-.13-.28-.27c0-.16,.13-.3,.28-.3s.26,.13,.26,.3Z"/>
              </g>
              <g>
                <path class="cls-10" d="M225.21,163.23c0,1.07-.83,1.91-1.83,1.91s-1.84-.84-1.84-1.91,.82-1.91,1.84-1.91,1.83,.86,1.83,1.91Z"/>
                <path class="cls-3" d="M224.72,162.91c0,.83-.65,1.52-1.44,1.52s-1.46-.69-1.46-1.52,.65-1.53,1.46-1.53,1.44,.68,1.44,1.53Z"/>
                <path class="cls-5" d="M223.87,162.35c0,.47-.38,.84-.81,.84s-.81-.38-.81-.84,.36-.84,.81-.84,.81,.39,.81,.84Z"/>
                <path class="cls-5" d="M222.87,163.56c0,.15-.11,.27-.26,.27s-.26-.13-.26-.27c0-.16,.11-.3,.26-.3s.26,.13,.26,.3Z"/>
              </g>
              <g>
                <path class="cls-10" d="M235.53,163.23c0,1.07-.83,1.91-1.83,1.91s-1.85-.84-1.85-1.91,.83-1.91,1.85-1.91,1.83,.86,1.83,1.91Z"/>
                <path class="cls-3" d="M235.02,162.91c0,.83-.63,1.52-1.44,1.52s-1.44-.69-1.44-1.52,.64-1.53,1.44-1.53,1.44,.68,1.44,1.53Z"/>
                <path class="cls-5" d="M234.18,162.35c0,.47-.36,.84-.79,.84-.46,0-.83-.38-.83-.84s.37-.84,.83-.84,.79,.39,.79,.84Z"/>
                <path class="cls-5" d="M233.21,163.56c0,.15-.13,.27-.28,.27s-.27-.13-.27-.27c0-.16,.12-.3,.27-.3,.15,0,.28,.13,.28,.3Z"/>
              </g>
              <g>
                <path class="cls-10" d="M245.86,163.23c0,1.07-.81,1.91-1.85,1.91s-1.83-.84-1.83-1.91,.83-1.91,1.83-1.91,1.85,.86,1.85,1.91Z"/>
                <path class="cls-3" d="M245.37,162.91c0,.83-.65,1.52-1.46,1.52s-1.46-.69-1.46-1.52,.65-1.53,1.46-1.53,1.46,.68,1.46,1.53Z"/>
                <path class="cls-5" d="M244.52,162.35c0,.47-.37,.84-.81,.84-.47,0-.83-.38-.83-.84s.36-.84,.83-.84c.44,0,.81,.39,.81,.84Z"/>
                <path class="cls-5" d="M243.52,163.56c0,.15-.11,.27-.27,.27-.15,0-.26-.13-.26-.27,0-.16,.11-.3,.26-.3,.16,0,.27,.13,.27,.3Z"/>
              </g>
              <g>
                <path class="cls-10" d="M256.18,163.23c0,1.07-.83,1.91-1.83,1.91s-1.85-.84-1.85-1.91,.83-1.91,1.85-1.91,1.83,.86,1.83,1.91Z"/>
                <path class="cls-3" d="M255.68,162.91c0,.83-.64,1.52-1.44,1.52s-1.47-.69-1.47-1.52,.65-1.53,1.47-1.53,1.44,.68,1.44,1.53Z"/>
                <path class="cls-5" d="M254.83,162.35c0,.47-.35,.84-.81,.84s-.81-.38-.81-.84,.37-.84,.81-.84,.81,.39,.81,.84Z"/>
                <path class="cls-5" d="M253.85,163.56c0,.15-.11,.27-.26,.27-.17,0-.28-.13-.28-.27,0-.16,.11-.3,.28-.3,.15,0,.26,.13,.26,.3Z"/>
              </g>
              <g>
                <path class="cls-10" d="M266.49,163.23c0,1.07-.81,1.91-1.83,1.91s-1.85-.84-1.85-1.91,.83-1.91,1.85-1.91,1.83,.86,1.83,1.91Z"/>
                <path class="cls-3" d="M266.02,162.91c0,.83-.65,1.52-1.46,1.52s-1.46-.69-1.46-1.52,.65-1.53,1.46-1.53,1.46,.68,1.46,1.53Z"/>
                <path class="cls-5" d="M265.16,162.35c0,.47-.36,.84-.81,.84s-.82-.38-.82-.84,.38-.84,.82-.84,.81,.39,.81,.84Z"/>
                <path class="cls-5" d="M264.17,163.56c0,.15-.11,.27-.26,.27-.16,0-.29-.13-.29-.27,0-.16,.13-.3,.29-.3,.15,0,.26,.13,.26,.3Z"/>
              </g>
              <g>
                <path class="cls-10" d="M276.82,163.23c0,1.07-.81,1.91-1.83,1.91s-1.85-.84-1.85-1.91,.83-1.91,1.85-1.91,1.83,.86,1.83,1.91Z"/>
                <path class="cls-3" d="M276.33,162.91c0,.83-.65,1.52-1.46,1.52s-1.44-.69-1.44-1.52,.65-1.53,1.44-1.53,1.46,.68,1.46,1.53Z"/>
                <path class="cls-5" d="M275.49,162.35c0,.47-.37,.84-.81,.84s-.81-.38-.81-.84,.36-.84,.81-.84,.81,.39,.81,.84Z"/>
                <path class="cls-5" d="M274.51,163.56c0,.15-.15,.27-.29,.27s-.28-.13-.28-.27c0-.16,.13-.3,.28-.3s.29,.13,.29,.3Z"/>
              </g>
              <g>
                <path class="cls-10" d="M287.14,163.23c0,1.07-.81,1.91-1.83,1.91s-1.83-.84-1.83-1.91,.83-1.91,1.83-1.91,1.83,.86,1.83,1.91Z"/>
                <path class="cls-3" d="M286.66,162.91c0,.83-.64,1.52-1.44,1.52s-1.46-.69-1.46-1.52,.65-1.53,1.46-1.53,1.44,.68,1.44,1.53Z"/>
                <path class="cls-5" d="M285.82,162.35c0,.47-.36,.84-.82,.84s-.81-.38-.81-.84,.36-.84,.81-.84,.82,.39,.82,.84Z"/>
                <path class="cls-5" d="M284.82,163.56c0,.15-.11,.27-.27,.27-.15,0-.27-.13-.27-.27,0-.16,.12-.3,.27-.3,.16,0,.27,.13,.27,.3Z"/>
              </g>
            </g>
            <path class="cls-2" d="M104.58,47.58s-10.04,19.18-28.82,26.59c9.31-2.46,20.61-8.93,28.82-26.59Z"/>
            <path class="cls-2" d="M106.72,47.2h81.18s-41.61,2.95-81.18,0Z"/>
            <path class="cls-2" d="M59.66,80.82v44.94s2.35-24.7,0-44.94Z"/>
          </g>
        </g>
      </g>
    </g>
  </g>
</svg>