<?xml version="1.0" encoding="utf-8"?>
<!-- Generator: Adobe Illustrator 27.0.0, SVG Export Plug-In . SVG Version: 6.00 Build 0)  -->
<svg version="1.1" id="Layer_1" xmlns="http://www.w3.org/2000/svg" xmlns:xlink="http://www.w3.org/1999/xlink" x="0px" y="0px"
	 viewBox="0 0 494 183.9" style="enable-background:new 0 0 494 183.9;" xml:space="preserve">
<style type="text/css">
	.st0{fill:#EEF9FB;}
	.st1{fill:#FB0F0F;}
	.st2{opacity:0.5;}
	.st3{fill:#939393;}
	.st4{fill:#006AD0;}
	.st5{fill:#FFC502;}
	.st6{fill:#935205;}
	.st7{fill:#D37B04;}
</style>
<g>
	<g id="Layer_2_00000026132296439331025900000011981224081307319468_">
		<g id="frame_tent">
			<g>
				<g>
					<rect x="0.6" y="19.7" class="st0" width="492.7" height="165.2"/>
					<g>
						<rect x="0.6" y="19.7" class="st1" width="29.5" height="165.2"/>
						<rect x="60.8" y="19.7" class="st1" width="29.5" height="165.2"/>
						<rect x="121" y="19.7" class="st1" width="29.5" height="165.2"/>
						<rect x="181.1" y="19.7" class="st1" width="29.5" height="165.2"/>
						<rect x="241.3" y="19.7" class="st1" width="29.5" height="165.2"/>
						<rect x="301.4" y="19.7" class="st1" width="29.5" height="165.2"/>
						<rect x="361.6" y="19.7" class="st1" width="29.5" height="165.2"/>
						<rect x="421.8" y="19.7" class="st1" width="29.5" height="165.2"/>
						<rect x="478.6" y="19.7" class="st1" width="14.7" height="165.2"/>
					</g>
					<g class="st2">
						<path class="st3" d="M493.2,34.5c0,0-51.4,96-238.5,96S1.1,40.2,1.1,40.2l-0.4,0.3v144.4h492.7V34.6
							C493.3,34.5,493.2,34.5,493.2,34.5L493.2,34.5z"/>
					</g>
					<g>
						<rect x="0.6" y="19.7" class="st3" width="492.7" height="10.4"/>
					</g>
				</g>
				<path class="st3" d="M156.6,34.3C82.3,31.2,24.9,25.8,1,23.3v11.4l1.4,20.2L24,26.5c2.9,0.3,6,0.5,9.3,0.8l4,29.4l21.9-27.3
					c3.2,0.2,6.4,0.5,9.8,0.7l8.5,31.3l20.1-29.4c3,0.2,6.1,0.4,9.2,0.5l9,30.9l18.6-29.4c4.9,0.2,9.9,0.5,15,0.7l11.4,30.6
					L177.9,36c6.3,0.2,12.5,0.4,18.6,0.5l12.6,28.9l16.4-28.3c5.2,0.1,10.3,0.2,15.3,0.2l9.2,26.2l15.1-26.1c3,0,5.9,0,8.8,0
					l11.9,28l13.2-28.3c4.9-0.1,9.8-0.1,14.6-0.2l10.5,26.6l13.9-27.2c4.1-0.1,8.1-0.3,12.1-0.4l12,27.7l13-28.7
					c3.8-0.2,7.5-0.4,11.2-0.6L399.6,60l10.8-27.2c3.3-0.2,6.6-0.5,9.8-0.7l14.3,26.6l13.2-28.7c2.3-0.2,4.7-0.4,6.9-0.6l15.1,26.1
					l11.8-28.8c1.5-0.1,3-0.3,4.5-0.5l6.7,12.5V24.5C369.3,38.8,242.8,37.8,156.6,34.3L156.6,34.3z"/>
				<g>
					<g>
						<polygon class="st4" points="-2.9,21 -0.8,52.1 21.2,23.3 						"/>
						<polygon class="st4" points="65.6,27 74.2,58.7 94.6,28.9 						"/>
						<polygon class="st4" points="145.9,31.6 157.4,62.7 175.1,32.7 						"/>
						<polygon class="st4" points="237.6,34.1 247,60.8 262.4,34.2 						"/>
						<polygon class="st4" points="310.5,33.7 321.1,60.8 335.1,33.3 						"/>
						<polygon class="st4" points="383.1,31.1 396.4,57.2 407.4,29.6 						"/>
						<polygon class="st4" points="451.3,26.1 466.6,52.7 478.6,23.4 						"/>
					</g>
					<g>
						<polygon class="st5" points="30.1,24.1 34.1,54 56.3,26.3 						"/>
						<polygon class="st5" points="103.4,29.4 112.5,60.8 131.3,30.9 						"/>
						<polygon class="st5" points="193.3,33.3 206,62.7 222.7,33.9 						"/>
						<polygon class="st5" points="270.8,34.1 282.9,62.7 296.2,34 						"/>
						<polygon class="st5" points="346.9,32.7 359.1,60.8 372.2,31.6 						"/>
						<polygon class="st5" points="416.8,28.9 431.4,55.9 444.7,26.7 						"/>
						<polygon class="st5" points="482.7,23 497.3,50.2 507.3,20 						"/>
					</g>
				</g>
				<path d="M261.3,34.7c-33.5,0-69.5-0.7-107.9-2.3C54.9,28.3-1.9,20.2-2.6,20.1l0.1-0.9c0.7,0.1,57.4,8.2,155.9,12.2
					c90.9,3.7,226.4,4.6,356.1-12.2l0.2,0.9C454.8,27.3,371.5,34.6,261.3,34.7L261.3,34.7z"/>
				<g>
					<rect x="-2.5" y="14.1" class="st6" width="512.2" height="5.6"/>
					<polygon class="st7" points="509.6,0 -2.1,0 -2.5,14.1 509.7,14.1 					"/>
				</g>
			</g>
		</g>
	</g>
</g>
</svg>
