<?xml version="1.0" encoding="UTF-8"?>
<svg xmlns="http://www.w3.org/2000/svg" viewBox="0 0 447 151.09">
  <defs>
    <style>
      .cls-1 {
        fill: #fb0f0f;
      }

      .cls-2 {
        fill: #006ad0;
      }

      .cls-3 {
        fill: #ffc502;
      }

      .cls-4 {
        fill: #eef9fb;
      }

      .cls-5 {
        fill: #935205;
      }

      .cls-6, .cls-7 {
        fill: #939393;
      }

      .cls-8 {
        fill: #d37b04;
      }

      .cls-7, .cls-9, .cls-10 {
        mix-blend-mode: multiply;
      }

      .cls-11 {
        isolation: isolate;
      }

      .cls-10 {
        opacity: .5;
      }
    </style>
  </defs>
  <g class="cls-11">
    <g id="Layer_2" data-name="Layer 2">
      <g id="frame_tent">
        <g>
          <g>
            <rect class="cls-4" x="12.94" y="19.7" width="420.09" height="131.39"/>
            <g>
              <rect class="cls-1" x="12.94" y="19.7" width="25.14" height="131.39"/>
              <rect class="cls-1" x="64.22" y="19.7" width="25.14" height="131.39"/>
              <rect class="cls-1" x="115.53" y="19.7" width="25.13" height="131.39"/>
              <rect class="cls-1" x="166.81" y="19.7" width="25.13" height="131.39"/>
              <rect class="cls-1" x="218.11" y="19.7" width="25.13" height="131.39"/>
              <rect class="cls-1" x="269.39" y="19.7" width="25.15" height="131.39"/>
              <rect class="cls-1" x="320.69" y="19.7" width="25.13" height="131.39"/>
              <rect class="cls-1" x="371.99" y="19.7" width="25.14" height="131.39"/>
              <rect class="cls-1" x="420.46" y="19.7" width="12.56" height="131.39"/>
            </g>
            <g class="cls-10">
              <path class="cls-6" d="M432.91,34.49s-43.79,95.97-203.37,95.97S13.3,40.22,13.3,40.22l-.37,.31v110.55H433.02V34.6c-.07-.07-.11-.1-.11-.1Z"/>
            </g>
            <g class="cls-9">
              <rect class="cls-6" x="12.94" y="19.7" width="420.09" height="10.39"/>
            </g>
          </g>
          <path class="cls-7" d="M145.92,34.26c-63.37-3.04-112.27-8.41-132.71-10.91v11.38l1.18,20.16,18.44-28.4c2.51,.28,5.15,.55,7.95,.84l3.38,29.44,18.63-27.34c2.72,.25,5.48,.49,8.32,.74l7.22,31.29,17.11-29.36c2.58,.18,5.2,.37,7.85,.55l7.66,30.86,15.84-29.37c4.2,.24,8.45,.47,12.79,.7l9.69,30.56,14.82-29.45c5.36,.21,10.65,.39,15.9,.55l10.71,28.9,14.02-28.3c4.4,.09,8.74,.15,13.04,.19l7.87,26.22,12.91-26.12c2.53,0,5.05,0,7.54-.01l10.14,28.01,11.23-28.26c4.2-.07,8.38-.14,12.47-.24l8.92,26.61,11.81-27.24c3.49-.14,6.94-.27,10.33-.42l10.23,27.66,11.06-28.73c3.22-.18,6.41-.38,9.55-.58l11.23,25.81,9.18-27.24c2.83-.22,5.62-.45,8.38-.69l12.23,26.58,11.22-28.74c2-.21,3.97-.42,5.91-.62l12.91,26.13,10.07-28.81c1.31-.15,2.59-.32,3.85-.49l5.71,12.54v-14.2c-105.27,14.31-213.08,13.32-286.6,9.79Z"/>
          <g>
            <g>
              <polygon class="cls-2" points="9.9 20.96 11.71 52.12 30.44 23.32 9.9 20.96"/>
              <polygon class="cls-2" points="68.35 26.95 75.69 58.69 93.03 28.9 68.35 26.95"/>
              <polygon class="cls-2" points="136.79 31.61 146.63 62.65 161.67 32.73 136.79 31.61"/>
              <polygon class="cls-2" points="214.98 34.08 222.98 60.75 236.11 34.21 214.98 34.08"/>
              <polygon class="cls-2" points="277.12 33.72 286.19 60.75 298.1 33.27 277.12 33.72"/>
              <polygon class="cls-2" points="339.01 31.06 350.4 57.24 359.71 29.59 339.01 31.06"/>
              <polygon class="cls-2" points="397.13 26.13 410.21 52.66 420.46 23.39 397.13 26.13"/>
            </g>
            <g>
              <polygon class="cls-3" points="38.08 24.11 41.5 54.02 60.43 26.27 38.08 24.11"/>
              <polygon class="cls-3" points="100.52 29.43 108.3 60.75 124.38 30.94 100.52 29.43"/>
              <polygon class="cls-3" points="177.16 33.27 188.05 62.65 202.29 33.91 177.16 33.27"/>
              <polygon class="cls-3" points="243.24 34.08 253.56 62.65 264.95 33.96 243.24 34.08"/>
              <polygon class="cls-3" points="308.17 32.7 318.55 60.75 329.76 31.61 308.17 32.7"/>
              <polygon class="cls-3" points="367.78 28.94 380.18 55.91 391.57 26.73 367.78 28.94"/>
              <polygon class="cls-3" points="423.96 22.95 436.36 50.23 444.91 20.01 423.96 22.95"/>
            </g>
          </g>
          <path d="M235.17,34.65c-28.56,0-59.22-.69-91.97-2.26C59.19,28.34,.58,20.23,0,20.13l.12-.89c.59,.08,59.16,8.22,143.13,12.24,77.48,3.71,193.07,4.61,303.63-12.24l.13,.89c-46.82,7.15-117.9,14.51-211.83,14.51Z"/>
          <g>
            <rect class="cls-5" x=".07" y="14.12" width="446.87" height="5.58"/>
            <polygon class="cls-8" points="429.66 0 16.48 0 .07 14.12 446.94 14.12 429.66 0"/>
          </g>
        </g>
      </g>
    </g>
  </g>
</svg>