<?xml version="1.0" encoding="UTF-8"?>
<svg xmlns="http://www.w3.org/2000/svg" viewBox="0 0 330.5 149.17">
  <defs>
    <style>
      .cls-1 {
        fill: #fb0f0f;
      }

      .cls-2 {
        fill: #fff;
      }

      .cls-3, .cls-4, .cls-5 {
        fill: #ffc502;
      }

      .cls-6 {
        fill: #9e5804;
      }

      .cls-7 {
        fill: #d37b04;
      }

      .cls-8 {
        fill: #d39e4c;
      }

      .cls-8, .cls-4 {
        mix-blend-mode: multiply;
      }

      .cls-5 {
        mix-blend-mode: screen;
      }

      .cls-9 {
        isolation: isolate;
      }
    </style>
  </defs>
  <g class="cls-9">
    <g id="Layer_2" data-name="Layer 2">
      <g id="sing_name">
        <g>
          <path class="cls-8" d="M162.73,149.17H42.57C29.61,122.86,0,116.09,0,116.09V43.96S38.96,37.94,53.41,4.89h223.69c14.42,33.05,53.4,39.07,53.4,39.07V116.09s-29.58,6.77-42.57,33.08h-125.2Z"/>
          <path class="cls-3" d="M162.73,146.52H42.57C29.61,120.24,0,111.22,0,111.22V39.07S38.96,33.08,53.41,0h223.69c14.42,33.08,53.4,39.07,53.4,39.07V111.22s-29.58,9.01-42.57,35.3h-125.2Z"/>
          <path class="cls-1" d="M162.77,144.28H44.85C32.12,118.46,3.08,111.83,3.08,111.83V41.03S41.32,35.15,55.48,2.7h219.55c14.16,32.45,52.39,38.34,52.39,38.34V111.83s-29.02,6.64-41.77,32.45h-122.87Z"/>
          <path class="cls-4" d="M163.08,135.78H43.84c-11.22-22.72-36.77-28.55-36.77-28.55V44.94s33.64-5.19,46.1-33.72h222.79c12.47,28.53,46.11,33.72,46.11,33.72v62.29s-25.55,5.83-36.75,28.55h-122.24Z"/>
          <path class="cls-6" d="M163.14,133.97H47.34c-10.88-22.07-35.7-27.72-35.7-27.72V45.79s32.68-5.05,44.77-32.77h216.32c12.13,27.72,44.79,32.77,44.79,32.77v60.46s-24.79,5.66-35.69,27.72h-118.67Z"/>
          <path class="cls-7" d="M163.21,130.69H53.69c-10.29-20.86-33.75-26.21-33.75-26.21V47.26s30.88-4.75,42.33-30.97h204.61c11.44,26.21,42.34,30.97,42.34,30.97v57.21s-23.46,5.36-33.76,26.21h-112.25Z"/>
          <g>
            <g>
              <path class="cls-7" d="M64.61,7.3c0,1.22-.94,2.23-2.11,2.23s-2.15-1-2.15-2.23,.96-2.24,2.15-2.24,2.11,1.02,2.11,2.24Z"/>
              <path class="cls-3" d="M64.09,6.92c0,.96-.78,1.75-1.72,1.75s-1.72-.79-1.72-1.75,.77-1.77,1.72-1.77,1.72,.79,1.72,1.77Z"/>
              <path class="cls-5" d="M63.06,6.26c0,.57-.41,1-.94,1s-.95-.43-.95-1c0-.53,.42-.96,.95-.96s.94,.44,.94,.96Z"/>
              <path class="cls-5" d="M61.91,7.66c0,.19-.15,.34-.32,.34s-.3-.16-.3-.34,.13-.32,.3-.32,.32,.13,.32,.32Z"/>
            </g>
            <g>
              <path class="cls-7" d="M54.31,14.75c0,1.25-.94,2.24-2.12,2.24s-2.14-1-2.14-2.24,.97-2.22,2.14-2.22,2.12,1.02,2.12,2.22Z"/>
              <path class="cls-3" d="M53.77,14.37c0,.98-.76,1.78-1.72,1.78-.9,0-1.68-.79-1.68-1.78s.78-1.77,1.68-1.77c.96,0,1.72,.79,1.72,1.77Z"/>
              <path class="cls-5" d="M52.79,13.73c0,.55-.42,.98-.95,.98s-.95-.44-.95-.98,.43-.98,.95-.98,.95,.45,.95,.98Z"/>
              <path class="cls-5" d="M51.62,15.12c0,.17-.13,.32-.3,.32s-.32-.16-.32-.32c0-.19,.16-.34,.32-.34s.3,.15,.3,.34Z"/>
            </g>
            <g>
              <path class="cls-7" d="M45.55,25.23c0,1.23-.92,2.23-2.13,2.23s-2.15-1-2.15-2.23,.96-2.22,2.15-2.22,2.13,.98,2.13,2.22Z"/>
              <path class="cls-3" d="M44.98,24.85c0,.96-.73,1.76-1.7,1.76-.91,0-1.68-.79-1.68-1.76s.77-1.77,1.68-1.77c.96,0,1.7,.79,1.7,1.77Z"/>
              <path class="cls-5" d="M44,24.22c0,.53-.43,.98-.95,.98s-.94-.46-.94-.98,.43-1,.94-1,.95,.45,.95,1Z"/>
              <path class="cls-5" d="M42.83,25.59c0,.19-.13,.32-.3,.32-.16,0-.32-.13-.32-.32,0-.17,.17-.32,.32-.32,.17,0,.3,.15,.3,.32Z"/>
            </g>
            <g>
              <path class="cls-7" d="M35.14,33.23c0,1.24-.96,2.23-2.15,2.23s-2.14-.98-2.14-2.23,.95-2.23,2.14-2.23,2.15,1,2.15,2.23Z"/>
              <path class="cls-3" d="M34.57,32.85c0,.96-.75,1.75-1.7,1.75s-1.69-.79-1.69-1.75,.76-1.77,1.69-1.77,1.7,.79,1.7,1.77Z"/>
              <path class="cls-5" d="M33.57,32.21c0,.55-.41,.98-.95,.98s-.94-.44-.94-.98,.43-.98,.94-.98c.53,0,.95,.43,.95,.98Z"/>
              <path class="cls-5" d="M32.42,33.59c0,.19-.15,.32-.32,.32s-.32-.13-.32-.32c0-.17,.16-.32,.32-.32s.32,.15,.32,.32Z"/>
            </g>
            <g>
              <path class="cls-7" d="M23.24,39.32c0,1.22-.94,2.24-2.14,2.24s-2.12-1.02-2.12-2.24,.94-2.23,2.12-2.23,2.14,1,2.14,2.23Z"/>
              <path class="cls-3" d="M22.67,38.92c0,.98-.76,1.78-1.68,1.78s-1.7-.79-1.7-1.78,.74-1.75,1.7-1.75,1.68,.79,1.68,1.75Z"/>
              <path class="cls-5" d="M21.69,38.3c0,.55-.43,.98-.94,.98-.53,0-.95-.44-.95-.98s.42-.98,.95-.98,.94,.43,.94,.98Z"/>
              <path class="cls-5" d="M20.54,39.68c0,.19-.15,.34-.32,.34-.19,0-.32-.15-.32-.34s.13-.32,.32-.32c.17,0,.32,.14,.32,.32Z"/>
            </g>
            <g>
              <path class="cls-7" d="M9.71,44.65c0,1.23-.95,2.23-2.15,2.23s-2.12-1-2.12-2.23,.95-2.22,2.12-2.22,2.15,1,2.15,2.22Z"/>
              <path class="cls-3" d="M9.13,44.26c0,.98-.76,1.76-1.68,1.76s-1.68-.77-1.68-1.76,.76-1.75,1.68-1.75,1.68,.79,1.68,1.75Z"/>
              <path class="cls-5" d="M8.15,43.64c0,.53-.42,.98-.92,.98s-.96-.45-.96-.98,.45-.98,.96-.98,.92,.44,.92,.98Z"/>
              <path class="cls-5" d="M7,45.01c0,.17-.16,.32-.32,.32s-.3-.15-.3-.32,.13-.32,.3-.32,.32,.15,.32,.32Z"/>
            </g>
            <g>
              <path class="cls-7" d="M9.71,55.44c0,1.23-.95,2.23-2.15,2.23s-2.12-1-2.12-2.23,.95-2.24,2.12-2.24,2.15,1,2.15,2.24Z"/>
              <path class="cls-3" d="M9.13,55.03c0,.98-.76,1.77-1.68,1.77s-1.68-.79-1.68-1.77,.76-1.74,1.68-1.74,1.68,.79,1.68,1.74Z"/>
              <path class="cls-5" d="M8.15,54.4c0,.55-.42,.98-.92,.98s-.96-.43-.96-.98,.45-.98,.96-.98,.92,.46,.92,.98Z"/>
              <path class="cls-5" d="M7,55.78c0,.19-.16,.34-.32,.34s-.3-.15-.3-.34c0-.17,.13-.32,.3-.32s.32,.15,.32,.32Z"/>
            </g>
            <g>
              <path class="cls-7" d="M9.71,66.21c0,1.22-.95,2.22-2.15,2.22s-2.12-1-2.12-2.22,.95-2.23,2.12-2.23,2.15,1,2.15,2.23Z"/>
              <path class="cls-3" d="M9.13,65.83c0,.96-.76,1.75-1.68,1.75s-1.68-.79-1.68-1.75,.76-1.78,1.68-1.78,1.68,.77,1.68,1.78Z"/>
              <path class="cls-5" d="M8.15,65.19c0,.53-.42,.98-.92,.98s-.96-.45-.96-.98,.45-.98,.96-.98,.92,.43,.92,.98Z"/>
              <path class="cls-5" d="M7,66.57c0,.19-.16,.34-.32,.34s-.3-.15-.3-.34c0-.17,.13-.32,.3-.32s.32,.15,.32,.32Z"/>
            </g>
            <g>
              <path class="cls-7" d="M9.71,77c0,1.22-.95,2.23-2.15,2.23s-2.12-1-2.12-2.23,.95-2.24,2.12-2.24,2.15,1.02,2.15,2.24Z"/>
              <path class="cls-3" d="M9.13,76.6c0,.98-.76,1.77-1.68,1.77s-1.68-.79-1.68-1.77,.76-1.78,1.68-1.78,1.68,.79,1.68,1.78Z"/>
              <path class="cls-5" d="M8.15,75.96c0,.55-.42,.98-.92,.98s-.96-.43-.96-.98,.45-.98,.96-.98,.92,.45,.92,.98Z"/>
              <path class="cls-5" d="M7,77.36c0,.19-.16,.32-.32,.32s-.3-.13-.3-.32,.13-.32,.3-.32,.32,.13,.32,.32Z"/>
            </g>
            <g>
              <path class="cls-7" d="M9.71,87.76c0,1.24-.95,2.23-2.15,2.23s-2.12-.98-2.12-2.23,.95-2.23,2.12-2.23,2.15,1,2.15,2.23Z"/>
              <path class="cls-3" d="M9.13,87.39c0,.96-.76,1.76-1.68,1.76s-1.68-.79-1.68-1.76,.76-1.77,1.68-1.77,1.68,.79,1.68,1.77Z"/>
              <path class="cls-5" d="M8.15,86.75c0,.53-.42,.98-.92,.98s-.96-.45-.96-.98,.45-.98,.96-.98,.92,.44,.92,.98Z"/>
              <path class="cls-5" d="M7,88.14c0,.17-.16,.3-.32,.3s-.3-.13-.3-.3c0-.19,.13-.34,.3-.34s.32,.15,.32,.34Z"/>
            </g>
            <g>
              <path class="cls-7" d="M9.71,98.55c0,1.23-.95,2.23-2.15,2.23s-2.12-1-2.12-2.23,.95-2.23,2.12-2.23,2.15,1,2.15,2.23Z"/>
              <path class="cls-3" d="M9.13,98.16c0,.98-.76,1.77-1.68,1.77s-1.68-.79-1.68-1.77,.76-1.75,1.68-1.75,1.68,.79,1.68,1.75Z"/>
              <path class="cls-5" d="M8.15,97.53c0,.53-.42,.98-.92,.98s-.96-.45-.96-.98,.45-.98,.96-.98,.92,.44,.92,.98Z"/>
              <path class="cls-5" d="M7,98.91c0,.19-.16,.32-.32,.32s-.3-.13-.3-.32c0-.17,.13-.32,.3-.32s.32,.15,.32,.32Z"/>
            </g>
            <g>
              <path class="cls-7" d="M9.71,108.43c0,1.24-.95,2.23-2.15,2.23s-2.12-.98-2.12-2.23,.95-2.23,2.12-2.23,2.15,1,2.15,2.23Z"/>
              <path class="cls-3" d="M9.13,108.06c0,.98-.76,1.78-1.68,1.78s-1.68-.79-1.68-1.78,.76-1.77,1.68-1.77,1.68,.79,1.68,1.77Z"/>
              <path class="cls-5" d="M8.15,107.42c0,.55-.42,.98-.92,.98s-.96-.43-.96-.98,.45-.98,.96-.98,.92,.46,.92,.98Z"/>
              <path class="cls-5" d="M7,108.81c0,.17-.16,.32-.32,.32s-.3-.15-.3-.32c0-.19,.13-.34,.3-.34s.32,.15,.32,.34Z"/>
            </g>
            <g>
              <path class="cls-7" d="M20.12,112.62c0,1.25-.96,2.23-2.14,2.23s-2.15-.98-2.15-2.23,.98-2.23,2.15-2.23,2.14,1,2.14,2.23Z"/>
              <path class="cls-3" d="M19.56,112.24c0,.98-.74,1.78-1.68,1.78s-1.7-.79-1.7-1.78,.76-1.77,1.7-1.77,1.68,.79,1.68,1.77Z"/>
              <path class="cls-5" d="M18.58,111.62c0,.53-.41,.96-.94,.96s-.95-.43-.95-.96,.44-1,.95-1,.94,.46,.94,1Z"/>
              <path class="cls-5" d="M17.43,112.99c0,.19-.13,.32-.3,.32-.19,0-.32-.14-.32-.32s.13-.34,.32-.34c.17,0,.3,.15,.3,.34Z"/>
            </g>
            <g>
              <path class="cls-7" d="M31.64,119.3c0,1.24-.94,2.23-2.13,2.23s-2.12-.98-2.12-2.23,.94-2.23,2.12-2.23,2.13,1,2.13,2.23Z"/>
              <path class="cls-3" d="M31.1,118.92c0,.96-.77,1.75-1.69,1.75s-1.7-.79-1.7-1.75,.75-1.77,1.7-1.77,1.69,.79,1.69,1.77Z"/>
              <path class="cls-5" d="M30.1,118.28c0,.55-.42,.98-.94,.98s-.95-.43-.95-.98,.41-.98,.95-.98,.94,.44,.94,.98Z"/>
              <path class="cls-5" d="M28.95,119.65c0,.19-.16,.32-.32,.32s-.3-.13-.3-.32c0-.17,.13-.32,.3-.32s.32,.15,.32,.32Z"/>
            </g>
            <g>
              <path class="cls-7" d="M40.8,127.86c0,1.24-.96,2.24-2.13,2.24s-2.13-1-2.13-2.24,.95-2.21,2.13-2.21,2.13,1,2.13,2.21Z"/>
              <path class="cls-3" d="M40.23,127.48c0,.98-.76,1.75-1.69,1.75s-1.68-.77-1.68-1.75,.76-1.77,1.68-1.77,1.69,.79,1.69,1.77Z"/>
              <path class="cls-5" d="M39.26,126.84c0,.55-.45,.98-.94,.98-.53,0-.96-.43-.96-.98s.43-.98,.96-.98c.49,0,.94,.44,.94,.98Z"/>
              <path class="cls-5" d="M38.09,128.23c0,.19-.15,.32-.32,.32-.19,0-.32-.13-.32-.32s.13-.34,.32-.34c.17,0,.32,.15,.32,.34Z"/>
            </g>
            <g>
              <path class="cls-7" d="M51.22,138.72c0,1.22-.95,2.23-2.13,2.23s-2.15-1-2.15-2.23,.96-2.23,2.15-2.23,2.13,1,2.13,2.23Z"/>
              <path class="cls-3" d="M50.65,138.34c0,.96-.76,1.75-1.69,1.75s-1.7-.79-1.7-1.75,.78-1.77,1.7-1.77,1.69,.79,1.69,1.77Z"/>
              <path class="cls-5" d="M49.68,137.7c0,.52-.43,.98-.95,.98s-.95-.46-.95-.98,.43-.98,.95-.98,.95,.44,.95,.98Z"/>
              <path class="cls-5" d="M48.53,139.08c0,.19-.15,.32-.35,.32-.14,0-.28-.13-.28-.32,0-.17,.13-.32,.28-.32,.19,0,.35,.15,.35,.32Z"/>
            </g>
            <g>
              <path class="cls-7" d="M280.04,14.75c0,1.25-.96,2.24-2.15,2.24s-2.13-1-2.13-2.24,.95-2.22,2.13-2.22,2.15,1.02,2.15,2.22Z"/>
              <path class="cls-3" d="M279.45,14.37c0,.98-.75,1.78-1.68,1.78s-1.7-.79-1.7-1.78,.76-1.77,1.7-1.77,1.68,.79,1.68,1.77Z"/>
              <path class="cls-5" d="M278.48,13.73c0,.55-.42,.98-.94,.98s-.95-.44-.95-.98,.43-.98,.95-.98,.94,.45,.94,.98Z"/>
              <path class="cls-5" d="M277.33,15.12c0,.17-.15,.32-.35,.32-.15,0-.28-.16-.28-.32,0-.19,.13-.34,.28-.34,.19,0,.35,.15,.35,.34Z"/>
            </g>
            <g>
              <path class="cls-7" d="M288.81,25.23c0,1.23-.96,2.23-2.15,2.23s-2.13-1-2.13-2.23,.96-2.22,2.13-2.22,2.15,.98,2.15,2.22Z"/>
              <path class="cls-3" d="M288.23,24.85c0,.96-.74,1.76-1.66,1.76s-1.69-.79-1.69-1.76,.73-1.77,1.69-1.77,1.66,.79,1.66,1.77Z"/>
              <path class="cls-5" d="M287.25,24.22c0,.53-.41,.98-.95,.98s-.92-.46-.92-.98,.4-1,.92-1,.95,.45,.95,1Z"/>
              <path class="cls-5" d="M286.12,25.59c0,.19-.15,.32-.34,.32s-.31-.13-.31-.32c0-.17,.13-.32,.31-.32s.34,.15,.34,.32Z"/>
            </g>
            <g>
              <path class="cls-7" d="M299.22,33.23c0,1.24-.94,2.23-2.13,2.23s-2.15-.98-2.15-2.23,.98-2.23,2.15-2.23,2.13,1,2.13,2.23Z"/>
              <path class="cls-3" d="M298.67,32.85c0,.96-.76,1.75-1.69,1.75s-1.7-.79-1.7-1.75,.76-1.77,1.7-1.77,1.69,.79,1.69,1.77Z"/>
              <path class="cls-5" d="M297.68,32.21c0,.55-.42,.98-.95,.98s-.94-.44-.94-.98,.43-.98,.94-.98,.95,.43,.95,.98Z"/>
              <path class="cls-5" d="M296.52,33.59c0,.19-.13,.32-.3,.32-.19,0-.32-.13-.32-.32,0-.17,.14-.32,.32-.32,.17,0,.3,.15,.3,.32Z"/>
            </g>
            <g>
              <path class="cls-7" d="M311.12,39.32c0,1.22-.96,2.24-2.15,2.24s-2.13-1.02-2.13-2.24,.95-2.23,2.13-2.23,2.15,1,2.15,2.23Z"/>
              <path class="cls-3" d="M310.55,38.92c0,.98-.75,1.78-1.69,1.78s-1.7-.79-1.7-1.78,.76-1.75,1.7-1.75,1.69,.79,1.69,1.75Z"/>
              <path class="cls-5" d="M309.58,38.3c0,.55-.44,.98-.95,.98-.55,0-.94-.44-.94-.98s.39-.98,.94-.98c.51,0,.95,.43,.95,.98Z"/>
              <path class="cls-5" d="M308.4,39.68c0,.19-.13,.34-.32,.34-.17,0-.29-.15-.29-.34s.12-.32,.29-.32c.19,0,.32,.14,.32,.32Z"/>
            </g>
            <g>
              <path class="cls-7" d="M324.66,44.65c0,1.23-.95,2.23-2.15,2.23s-2.12-1-2.12-2.23,.95-2.22,2.12-2.22,2.15,1,2.15,2.22Z"/>
              <path class="cls-3" d="M324.09,44.26c0,.98-.77,1.76-1.69,1.76s-1.7-.77-1.7-1.76,.76-1.75,1.7-1.75,1.69,.79,1.69,1.75Z"/>
              <path class="cls-5" d="M323.12,43.64c0,.53-.44,.98-.96,.98s-.95-.45-.95-.98,.44-.98,.95-.98,.96,.44,.96,.98Z"/>
              <path class="cls-5" d="M321.92,45.01c0,.17-.13,.32-.28,.32-.19,0-.32-.15-.32-.32s.13-.32,.32-.32c.14,0,.28,.15,.28,.32Z"/>
            </g>
            <g>
              <path class="cls-7" d="M324.66,55.44c0,1.23-.95,2.23-2.15,2.23s-2.12-1-2.12-2.23,.95-2.24,2.12-2.24,2.15,1,2.15,2.24Z"/>
              <path class="cls-3" d="M324.09,55.03c0,.98-.77,1.77-1.69,1.77s-1.7-.79-1.7-1.77,.76-1.74,1.7-1.74,1.69,.79,1.69,1.74Z"/>
              <path class="cls-5" d="M323.12,54.4c0,.55-.44,.98-.96,.98s-.95-.43-.95-.98,.44-.98,.95-.98,.96,.46,.96,.98Z"/>
              <path class="cls-5" d="M321.92,55.78c0,.19-.13,.34-.28,.34-.19,0-.32-.15-.32-.34,0-.17,.13-.32,.32-.32,.14,0,.28,.15,.28,.32Z"/>
            </g>
            <g>
              <path class="cls-7" d="M324.66,66.21c0,1.22-.95,2.22-2.15,2.22s-2.12-1-2.12-2.22,.95-2.23,2.12-2.23,2.15,1,2.15,2.23Z"/>
              <path class="cls-3" d="M324.09,65.83c0,.96-.77,1.75-1.69,1.75s-1.7-.79-1.7-1.75,.76-1.78,1.7-1.78,1.69,.77,1.69,1.78Z"/>
              <path class="cls-5" d="M323.12,65.19c0,.53-.44,.98-.96,.98s-.95-.45-.95-.98,.44-.98,.95-.98,.96,.43,.96,.98Z"/>
              <path class="cls-5" d="M321.92,66.57c0,.19-.13,.34-.28,.34-.19,0-.32-.15-.32-.34,0-.17,.13-.32,.32-.32,.14,0,.28,.15,.28,.32Z"/>
            </g>
            <g>
              <path class="cls-7" d="M324.66,77c0,1.22-.95,2.23-2.15,2.23s-2.12-1-2.12-2.23,.95-2.24,2.12-2.24,2.15,1.02,2.15,2.24Z"/>
              <path class="cls-3" d="M324.09,76.6c0,.98-.77,1.77-1.69,1.77s-1.7-.79-1.7-1.77,.76-1.78,1.7-1.78,1.69,.79,1.69,1.78Z"/>
              <path class="cls-5" d="M323.12,75.96c0,.55-.44,.98-.96,.98s-.95-.43-.95-.98,.44-.98,.95-.98,.96,.45,.96,.98Z"/>
              <path class="cls-5" d="M321.92,77.36c0,.19-.13,.32-.28,.32-.19,0-.32-.13-.32-.32s.13-.32,.32-.32c.14,0,.28,.13,.28,.32Z"/>
            </g>
            <g>
              <path class="cls-7" d="M324.66,87.76c0,1.24-.95,2.23-2.15,2.23s-2.12-.98-2.12-2.23,.95-2.23,2.12-2.23,2.15,1,2.15,2.23Z"/>
              <path class="cls-3" d="M324.09,87.39c0,.96-.77,1.76-1.69,1.76s-1.7-.79-1.7-1.76,.76-1.77,1.7-1.77,1.69,.79,1.69,1.77Z"/>
              <path class="cls-5" d="M323.12,86.75c0,.53-.44,.98-.96,.98s-.95-.45-.95-.98,.44-.98,.95-.98,.96,.44,.96,.98Z"/>
              <path class="cls-5" d="M321.92,88.14c0,.17-.13,.3-.28,.3-.19,0-.32-.13-.32-.3,0-.19,.13-.34,.32-.34,.14,0,.28,.15,.28,.34Z"/>
            </g>
            <g>
              <path class="cls-7" d="M324.66,98.55c0,1.23-.95,2.23-2.15,2.23s-2.12-1-2.12-2.23,.95-2.23,2.12-2.23,2.15,1,2.15,2.23Z"/>
              <path class="cls-3" d="M324.09,98.16c0,.98-.77,1.77-1.69,1.77s-1.7-.79-1.7-1.77,.76-1.75,1.7-1.75,1.69,.79,1.69,1.75Z"/>
              <path class="cls-5" d="M323.12,97.53c0,.53-.44,.98-.96,.98s-.95-.45-.95-.98,.44-.98,.95-.98,.96,.44,.96,.98Z"/>
              <path class="cls-5" d="M321.92,98.91c0,.19-.13,.32-.28,.32-.19,0-.32-.13-.32-.32,0-.17,.13-.32,.32-.32,.14,0,.28,.15,.28,.32Z"/>
            </g>
            <g>
              <path class="cls-7" d="M324.66,108.43c0,1.24-.95,2.23-2.15,2.23s-2.12-.98-2.12-2.23,.95-2.23,2.12-2.23,2.15,1,2.15,2.23Z"/>
              <path class="cls-3" d="M324.09,108.06c0,.98-.77,1.78-1.69,1.78s-1.7-.79-1.7-1.78,.76-1.77,1.7-1.77,1.69,.79,1.69,1.77Z"/>
              <path class="cls-5" d="M323.12,107.42c0,.55-.44,.98-.96,.98s-.95-.43-.95-.98,.44-.98,.95-.98,.96,.46,.96,.98Z"/>
              <path class="cls-5" d="M321.92,108.81c0,.17-.13,.32-.28,.32-.19,0-.32-.15-.32-.32,0-.19,.13-.34,.32-.34,.14,0,.28,.15,.28,.34Z"/>
            </g>
            <g>
              <path class="cls-7" d="M314.23,112.62c0,1.25-.96,2.23-2.15,2.23s-2.15-.98-2.15-2.23,.96-2.23,2.15-2.23,2.15,1,2.15,2.23Z"/>
              <path class="cls-3" d="M313.67,112.24c0,.98-.76,1.78-1.69,1.78s-1.7-.79-1.7-1.78,.75-1.77,1.7-1.77,1.69,.79,1.69,1.77Z"/>
              <path class="cls-5" d="M312.66,111.62c0,.53-.41,.96-.94,.96s-.95-.43-.95-.96,.44-1,.95-1,.94,.46,.94,1Z"/>
              <path class="cls-5" d="M311.52,112.99c0,.19-.15,.32-.32,.32s-.3-.14-.3-.32,.13-.34,.3-.34,.32,.15,.32,.34Z"/>
            </g>
            <g>
              <path class="cls-7" d="M302.71,119.3c0,1.24-.94,2.23-2.15,2.23s-2.11-.98-2.11-2.23,.94-2.23,2.11-2.23,2.15,1,2.15,2.23Z"/>
              <path class="cls-3" d="M302.15,118.92c0,.96-.76,1.75-1.7,1.75s-1.69-.79-1.69-1.75,.76-1.77,1.69-1.77,1.7,.79,1.7,1.77Z"/>
              <path class="cls-5" d="M301.17,118.28c0,.55-.46,.98-.95,.98-.52,0-.94-.43-.94-.98s.42-.98,.94-.98c.49,0,.95,.44,.95,.98Z"/>
              <path class="cls-5" d="M300.01,119.65c0,.19-.14,.32-.31,.32-.19,0-.31-.13-.31-.32,0-.17,.11-.32,.31-.32,.17,0,.31,.15,.31,.32Z"/>
            </g>
            <g>
              <path class="cls-7" d="M293.56,127.86c0,1.24-.96,2.24-2.14,2.24s-2.15-1-2.15-2.24,.96-2.21,2.15-2.21,2.14,1,2.14,2.21Z"/>
              <path class="cls-3" d="M292.99,127.48c0,.98-.76,1.75-1.7,1.75s-1.68-.77-1.68-1.75,.76-1.77,1.68-1.77,1.7,.79,1.7,1.77Z"/>
              <path class="cls-5" d="M292,126.84c0,.55-.42,.98-.91,.98-.55,0-.98-.43-.98-.98s.43-.98,.98-.98c.49,0,.91,.44,.91,.98Z"/>
              <path class="cls-5" d="M290.87,128.23c0,.19-.15,.32-.32,.32s-.32-.13-.32-.32,.16-.34,.32-.34,.32,.15,.32,.34Z"/>
            </g>
            <g>
              <path class="cls-7" d="M283.14,138.72c0,1.22-.96,2.23-2.13,2.23s-2.13-1-2.13-2.23,.95-2.23,2.13-2.23,2.13,1,2.13,2.23Z"/>
              <path class="cls-3" d="M282.57,138.34c0,.96-.75,1.75-1.68,1.75s-1.71-.79-1.71-1.75,.75-1.77,1.71-1.77,1.68,.79,1.68,1.77Z"/>
              <path class="cls-5" d="M281.59,137.7c0,.52-.42,.98-.94,.98s-.95-.46-.95-.98,.41-.98,.95-.98,.94,.44,.94,.98Z"/>
              <path class="cls-5" d="M280.44,139.08c0,.19-.16,.32-.32,.32-.19,0-.3-.13-.3-.32,0-.17,.11-.32,.3-.32,.17,0,.32,.15,.32,.32Z"/>
            </g>
            <g>
              <path class="cls-7" d="M76.64,7.3c0,1.22-.96,2.23-2.15,2.23s-2.15-1-2.15-2.23,.96-2.24,2.15-2.24,2.15,1.02,2.15,2.24Z"/>
              <path class="cls-3" d="M76.05,6.92c0,.96-.73,1.75-1.69,1.75s-1.68-.79-1.68-1.75,.76-1.77,1.68-1.77,1.69,.79,1.69,1.77Z"/>
              <path class="cls-5" d="M75.07,6.26c0,.57-.41,1-.94,1s-.95-.43-.95-1c0-.53,.41-.96,.95-.96s.94,.44,.94,.96Z"/>
              <path class="cls-5" d="M73.93,7.66c0,.19-.16,.34-.32,.34s-.32-.16-.32-.34,.16-.32,.32-.32,.32,.13,.32,.32Z"/>
            </g>
            <g>
              <path class="cls-7" d="M88.64,7.3c0,1.22-.96,2.23-2.15,2.23s-2.13-1-2.13-2.23,.94-2.24,2.13-2.24,2.15,1.02,2.15,2.24Z"/>
              <path class="cls-3" d="M88.07,6.92c0,.96-.76,1.75-1.69,1.75s-1.7-.79-1.7-1.75,.78-1.77,1.7-1.77,1.69,.79,1.69,1.77Z"/>
              <path class="cls-5" d="M87.09,6.26c0,.57-.44,1-.95,1s-.94-.43-.94-1c0-.53,.41-.96,.94-.96s.95,.44,.95,.96Z"/>
              <path class="cls-5" d="M85.93,7.66c0,.19-.15,.34-.32,.34-.19,0-.32-.16-.32-.34s.13-.32,.32-.32c.17,0,.32,.13,.32,.32Z"/>
            </g>
            <g>
              <path class="cls-7" d="M100.67,7.3c0,1.22-.98,2.23-2.15,2.23s-2.15-1-2.15-2.23,.96-2.24,2.15-2.24,2.15,1.02,2.15,2.24Z"/>
              <path class="cls-3" d="M100.1,6.92c0,.96-.75,1.75-1.69,1.75s-1.72-.79-1.72-1.75,.76-1.77,1.72-1.77,1.69,.79,1.69,1.77Z"/>
              <path class="cls-5" d="M99.1,6.26c0,.57-.41,1-.94,1s-.94-.43-.94-1c0-.53,.41-.96,.94-.96s.94,.44,.94,.96Z"/>
              <path class="cls-5" d="M97.95,7.66c0,.19-.14,.34-.32,.34s-.32-.16-.32-.34,.13-.32,.32-.32,.32,.13,.32,.32Z"/>
            </g>
            <g>
              <path class="cls-7" d="M112.66,7.3c0,1.22-.96,2.23-2.15,2.23s-2.13-1-2.13-2.23,.96-2.24,2.13-2.24,2.15,1.02,2.15,2.24Z"/>
              <path class="cls-3" d="M112.1,6.92c0,.96-.76,1.75-1.7,1.75s-1.7-.79-1.7-1.75,.77-1.77,1.7-1.77,1.7,.79,1.7,1.77Z"/>
              <path class="cls-5" d="M111.11,6.26c0,.57-.43,1-.94,1s-.95-.43-.95-1c0-.53,.42-.96,.95-.96s.94,.44,.94,.96Z"/>
              <path class="cls-5" d="M109.94,7.66c0,.19-.13,.34-.3,.34s-.32-.16-.32-.34,.15-.32,.32-.32,.3,.13,.3,.32Z"/>
            </g>
            <g>
              <path class="cls-7" d="M124.67,7.3c0,1.22-.96,2.23-2.15,2.23s-2.12-1-2.12-2.23,.95-2.24,2.12-2.24,2.15,1.02,2.15,2.24Z"/>
              <path class="cls-3" d="M124.1,6.92c0,.96-.77,1.75-1.72,1.75s-1.67-.79-1.67-1.75,.77-1.77,1.67-1.77,1.72,.79,1.72,1.77Z"/>
              <path class="cls-5" d="M123.1,6.26c0,.57-.41,1-.94,1s-.94-.43-.94-1c0-.53,.43-.96,.94-.96s.94,.44,.94,.96Z"/>
              <path class="cls-5" d="M121.98,7.66c0,.19-.16,.34-.35,.34-.15,0-.3-.16-.3-.34s.15-.32,.3-.32c.19,0,.35,.13,.35,.32Z"/>
            </g>
            <g>
              <path class="cls-7" d="M136.68,7.3c0,1.22-.95,2.23-2.15,2.23s-2.13-1-2.13-2.23,.96-2.24,2.13-2.24,2.15,1.02,2.15,2.24Z"/>
              <path class="cls-3" d="M136.12,6.92c0,.96-.76,1.75-1.7,1.75s-1.7-.79-1.7-1.75,.76-1.77,1.7-1.77,1.7,.79,1.7,1.77Z"/>
              <path class="cls-5" d="M135.12,6.26c0,.57-.41,1-.94,1s-.95-.43-.95-1c0-.53,.44-.96,.95-.96s.94,.44,.94,.96Z"/>
              <path class="cls-5" d="M133.97,7.66c0,.19-.16,.34-.3,.34-.19,0-.32-.16-.32-.34s.13-.32,.32-.32c.14,0,.3,.13,.3,.32Z"/>
            </g>
            <g>
              <path class="cls-7" d="M148.7,7.3c0,1.22-.96,2.23-2.15,2.23s-2.13-1-2.13-2.23,.96-2.24,2.13-2.24,2.15,1.02,2.15,2.24Z"/>
              <path class="cls-3" d="M148.13,6.92c0,.96-.78,1.75-1.7,1.75s-1.69-.79-1.69-1.75,.77-1.77,1.69-1.77,1.7,.79,1.7,1.77Z"/>
              <path class="cls-5" d="M147.15,6.26c0,.57-.43,1-.97,1s-.94-.43-.94-1c0-.53,.43-.96,.94-.96,.53,0,.97,.44,.97,.96Z"/>
              <path class="cls-5" d="M145.96,7.66c0,.19-.12,.34-.3,.34-.15,0-.3-.16-.3-.34s.15-.32,.3-.32c.19,0,.3,.13,.3,.32Z"/>
            </g>
            <g>
              <path class="cls-7" d="M160.69,7.3c0,1.22-.94,2.23-2.13,2.23s-2.15-1-2.15-2.23,.98-2.24,2.15-2.24,2.13,1.02,2.13,2.24Z"/>
              <path class="cls-3" d="M160.13,6.92c0,.96-.76,1.75-1.68,1.75s-1.69-.79-1.69-1.75,.76-1.77,1.69-1.77,1.68,.79,1.68,1.77Z"/>
              <path class="cls-5" d="M159.15,6.26c0,.57-.41,1-.92,1s-.96-.43-.96-1c0-.53,.43-.96,.96-.96s.92,.44,.92,.96Z"/>
              <path class="cls-5" d="M157.99,7.66c0,.19-.15,.34-.3,.34-.18,0-.32-.16-.32-.34s.14-.32,.32-.32c.16,0,.3,.13,.3,.32Z"/>
            </g>
            <g>
              <path class="cls-7" d="M172.7,7.3c0,1.22-.94,2.23-2.13,2.23s-2.12-1-2.12-2.23,.94-2.24,2.12-2.24,2.13,1.02,2.13,2.24Z"/>
              <path class="cls-3" d="M172.14,6.92c0,.96-.76,1.75-1.7,1.75s-1.68-.79-1.68-1.75,.76-1.77,1.68-1.77,1.7,.79,1.7,1.77Z"/>
              <path class="cls-5" d="M171.18,6.26c0,.57-.44,1-.96,1s-.95-.43-.95-1c0-.53,.41-.96,.95-.96s.96,.44,.96,.96Z"/>
              <path class="cls-5" d="M169.99,7.66c0,.19-.14,.34-.31,.34s-.32-.16-.32-.34,.15-.32,.32-.32,.31,.13,.31,.32Z"/>
            </g>
            <g>
              <path class="cls-7" d="M184.73,7.3c0,1.22-.96,2.23-2.15,2.23s-2.13-1-2.13-2.23,.96-2.24,2.13-2.24,2.15,1.02,2.15,2.24Z"/>
              <path class="cls-3" d="M184.17,6.92c0,.96-.78,1.75-1.7,1.75s-1.71-.79-1.71-1.75,.77-1.77,1.71-1.77,1.7,.79,1.7,1.77Z"/>
              <path class="cls-5" d="M183.17,6.26c0,.57-.43,1-.96,1-.49,0-.94-.43-.94-1,0-.53,.46-.96,.94-.96,.53,0,.96,.44,.96,.96Z"/>
              <path class="cls-5" d="M182,7.66c0,.19-.13,.34-.3,.34s-.32-.16-.32-.34,.15-.32,.32-.32,.3,.13,.3,.32Z"/>
            </g>
            <g>
              <path class="cls-7" d="M196.73,7.3c0,1.22-.96,2.23-2.13,2.23s-2.14-1-2.14-2.23,.95-2.24,2.14-2.24,2.13,1.02,2.13,2.24Z"/>
              <path class="cls-3" d="M196.16,6.92c0,.96-.76,1.75-1.68,1.75s-1.69-.79-1.69-1.75,.76-1.77,1.69-1.77,1.68,.79,1.68,1.77Z"/>
              <path class="cls-5" d="M195.18,6.26c0,.57-.44,1-.95,1s-.94-.43-.94-1c0-.53,.42-.96,.94-.96s.95,.44,.95,.96Z"/>
              <path class="cls-5" d="M194.01,7.66c0,.19-.13,.34-.3,.34s-.3-.16-.3-.34,.13-.32,.3-.32,.3,.13,.3,.32Z"/>
            </g>
            <g>
              <path class="cls-7" d="M208.74,7.3c0,1.22-.96,2.23-2.12,2.23s-2.16-1-2.16-2.23,.96-2.24,2.16-2.24,2.12,1.02,2.12,2.24Z"/>
              <path class="cls-3" d="M208.15,6.92c0,.96-.73,1.75-1.68,1.75s-1.67-.79-1.67-1.75,.75-1.77,1.67-1.77,1.68,.79,1.68,1.77Z"/>
              <path class="cls-5" d="M207.17,6.26c0,.57-.42,1-.92,1-.53,0-.96-.43-.96-1,0-.53,.43-.96,.96-.96s.92,.44,.92,.96Z"/>
              <path class="cls-5" d="M206.04,7.66c0,.19-.15,.34-.32,.34s-.31-.16-.31-.34,.14-.32,.31-.32c.18,0,.32,.13,.32,.32Z"/>
            </g>
            <g>
              <path class="cls-7" d="M220.75,7.3c0,1.22-.94,2.23-2.15,2.23s-2.13-1-2.13-2.23,.96-2.24,2.13-2.24,2.15,1.02,2.15,2.24Z"/>
              <path class="cls-3" d="M220.19,6.92c0,.96-.75,1.75-1.7,1.75s-1.69-.79-1.69-1.75,.76-1.77,1.69-1.77,1.7,.79,1.7,1.77Z"/>
              <path class="cls-5" d="M219.2,6.26c0,.57-.43,1-.94,1-.55,0-.96-.43-.96-1,0-.53,.42-.96,.96-.96,.51,0,.94,.44,.94,.96Z"/>
              <path class="cls-5" d="M218.03,7.66c0,.19-.13,.34-.32,.34-.17,0-.3-.16-.3-.34s.13-.32,.3-.32c.19,0,.32,.13,.32,.32Z"/>
            </g>
            <g>
              <path class="cls-7" d="M232.77,7.3c0,1.22-.96,2.23-2.13,2.23s-2.15-1-2.15-2.23,.96-2.24,2.15-2.24,2.13,1.02,2.13,2.24Z"/>
              <path class="cls-3" d="M232.18,6.92c0,.96-.74,1.75-1.68,1.75s-1.7-.79-1.7-1.75,.76-1.77,1.7-1.77,1.68,.79,1.68,1.77Z"/>
              <path class="cls-5" d="M231.2,6.26c0,.57-.41,1-.94,1s-.94-.43-.94-1c0-.53,.43-.96,.94-.96s.94,.44,.94,.96Z"/>
              <path class="cls-5" d="M230.05,7.66c0,.19-.13,.34-.3,.34-.19,0-.32-.16-.32-.34s.13-.32,.32-.32c.17,0,.3,.13,.3,.32Z"/>
            </g>
            <g>
              <path class="cls-7" d="M244.76,7.3c0,1.22-.94,2.23-2.13,2.23s-2.15-1-2.15-2.23,.96-2.24,2.15-2.24,2.13,1.02,2.13,2.24Z"/>
              <path class="cls-3" d="M244.21,6.92c0,.96-.76,1.75-1.69,1.75s-1.7-.79-1.7-1.75,.76-1.77,1.7-1.77,1.69,.79,1.69,1.77Z"/>
              <path class="cls-5" d="M243.21,6.26c0,.57-.41,1-.94,1s-.95-.43-.95-1c0-.53,.44-.96,.95-.96s.94,.44,.94,.96Z"/>
              <path class="cls-5" d="M242.06,7.66c0,.19-.13,.34-.3,.34-.19,0-.34-.16-.34-.34s.15-.32,.34-.32c.17,0,.3,.13,.3,.32Z"/>
            </g>
            <g>
              <path class="cls-7" d="M256.77,7.3c0,1.22-.95,2.23-2.13,2.23s-2.15-1-2.15-2.23,.96-2.24,2.15-2.24,2.13,1.02,2.13,2.24Z"/>
              <path class="cls-3" d="M256.2,6.92c0,.96-.76,1.75-1.69,1.75s-1.68-.79-1.68-1.75,.76-1.77,1.68-1.77,1.69,.79,1.69,1.77Z"/>
              <path class="cls-5" d="M255.22,6.26c0,.57-.43,1-.95,1s-.94-.43-.94-1c0-.53,.41-.96,.94-.96s.95,.44,.95,.96Z"/>
              <path class="cls-5" d="M254.09,7.66c0,.19-.17,.34-.34,.34s-.32-.16-.32-.34,.16-.32,.32-.32,.34,.13,.34,.32Z"/>
            </g>
            <g>
              <path class="cls-7" d="M268.78,7.3c0,1.22-.94,2.23-2.12,2.23s-2.13-1-2.13-2.23,.96-2.24,2.13-2.24,2.12,1.02,2.12,2.24Z"/>
              <path class="cls-3" d="M268.22,6.92c0,.96-.74,1.75-1.68,1.75s-1.7-.79-1.7-1.75,.76-1.77,1.7-1.77,1.68,.79,1.68,1.77Z"/>
              <path class="cls-5" d="M267.24,6.26c0,.57-.42,1-.95,1s-.94-.43-.94-1c0-.53,.41-.96,.94-.96s.95,.44,.95,.96Z"/>
              <path class="cls-5" d="M266.08,7.66c0,.19-.13,.34-.32,.34-.17,0-.31-.16-.31-.34s.14-.32,.31-.32c.19,0,.32,.13,.32,.32Z"/>
            </g>
          </g>
          <g>
            <g>
              <path class="cls-7" d="M64.61,138.91c0,1.24-.94,2.23-2.11,2.23s-2.15-.98-2.15-2.23,.96-2.23,2.15-2.23,2.11,1,2.11,2.23Z"/>
              <path class="cls-3" d="M64.09,138.53c0,.96-.78,1.77-1.72,1.77s-1.72-.81-1.72-1.77,.77-1.78,1.72-1.78,1.72,.79,1.72,1.78Z"/>
              <path class="cls-5" d="M63.06,137.89c0,.55-.41,.98-.94,.98s-.95-.44-.95-.98,.42-.98,.95-.98,.94,.45,.94,.98Z"/>
              <path class="cls-5" d="M61.91,139.29c0,.17-.15,.32-.32,.32s-.3-.15-.3-.32c0-.19,.13-.34,.3-.34s.32,.15,.32,.34Z"/>
            </g>
            <g>
              <path class="cls-7" d="M76.64,138.91c0,1.24-.96,2.23-2.15,2.23s-2.15-.98-2.15-2.23,.96-2.23,2.15-2.23,2.15,1,2.15,2.23Z"/>
              <path class="cls-3" d="M76.05,138.53c0,.96-.73,1.77-1.69,1.77s-1.68-.81-1.68-1.77,.76-1.78,1.68-1.78,1.69,.79,1.69,1.78Z"/>
              <path class="cls-5" d="M75.07,137.89c0,.55-.41,.98-.94,.98s-.95-.44-.95-.98,.41-.98,.95-.98,.94,.45,.94,.98Z"/>
              <path class="cls-5" d="M73.93,139.29c0,.17-.16,.32-.32,.32s-.32-.15-.32-.32c0-.19,.16-.34,.32-.34s.32,.15,.32,.34Z"/>
            </g>
            <g>
              <path class="cls-7" d="M88.64,138.91c0,1.24-.96,2.23-2.15,2.23s-2.13-.98-2.13-2.23,.94-2.23,2.13-2.23,2.15,1,2.15,2.23Z"/>
              <path class="cls-3" d="M88.07,138.53c0,.96-.76,1.77-1.69,1.77s-1.7-.81-1.7-1.77,.78-1.78,1.7-1.78,1.69,.79,1.69,1.78Z"/>
              <path class="cls-5" d="M87.09,137.89c0,.55-.44,.98-.95,.98s-.94-.44-.94-.98,.41-.98,.94-.98,.95,.45,.95,.98Z"/>
              <path class="cls-5" d="M85.93,139.29c0,.17-.15,.32-.32,.32-.19,0-.32-.15-.32-.32,0-.19,.13-.34,.32-.34,.17,0,.32,.15,.32,.34Z"/>
            </g>
            <g>
              <path class="cls-7" d="M100.67,138.91c0,1.24-.98,2.23-2.15,2.23s-2.15-.98-2.15-2.23,.96-2.23,2.15-2.23,2.15,1,2.15,2.23Z"/>
              <path class="cls-3" d="M100.1,138.53c0,.96-.75,1.77-1.69,1.77s-1.72-.81-1.72-1.77,.76-1.78,1.72-1.78,1.69,.79,1.69,1.78Z"/>
              <path class="cls-5" d="M99.1,137.89c0,.55-.41,.98-.94,.98s-.94-.44-.94-.98,.41-.98,.94-.98,.94,.45,.94,.98Z"/>
              <path class="cls-5" d="M97.95,139.29c0,.17-.14,.32-.32,.32s-.32-.15-.32-.32c0-.19,.13-.34,.32-.34s.32,.15,.32,.34Z"/>
            </g>
            <g>
              <path class="cls-7" d="M112.66,138.91c0,1.24-.96,2.23-2.15,2.23s-2.13-.98-2.13-2.23,.96-2.23,2.13-2.23,2.15,1,2.15,2.23Z"/>
              <path class="cls-3" d="M112.1,138.53c0,.96-.76,1.77-1.7,1.77s-1.7-.81-1.7-1.77,.77-1.78,1.7-1.78,1.7,.79,1.7,1.78Z"/>
              <path class="cls-5" d="M111.11,137.89c0,.55-.43,.98-.94,.98s-.95-.44-.95-.98,.42-.98,.95-.98,.94,.45,.94,.98Z"/>
              <path class="cls-5" d="M109.94,139.29c0,.17-.13,.32-.3,.32s-.32-.15-.32-.32c0-.19,.15-.34,.32-.34s.3,.15,.3,.34Z"/>
            </g>
            <g>
              <path class="cls-7" d="M124.67,138.91c0,1.24-.96,2.23-2.15,2.23s-2.12-.98-2.12-2.23,.95-2.23,2.12-2.23,2.15,1,2.15,2.23Z"/>
              <path class="cls-3" d="M124.1,138.53c0,.96-.77,1.77-1.72,1.77s-1.67-.81-1.67-1.77,.77-1.78,1.67-1.78,1.72,.79,1.72,1.78Z"/>
              <path class="cls-5" d="M123.1,137.89c0,.55-.41,.98-.94,.98s-.94-.44-.94-.98,.43-.98,.94-.98,.94,.45,.94,.98Z"/>
              <path class="cls-5" d="M121.98,139.29c0,.17-.16,.32-.35,.32-.15,0-.3-.15-.3-.32,0-.19,.15-.34,.3-.34,.19,0,.35,.15,.35,.34Z"/>
            </g>
            <g>
              <path class="cls-7" d="M136.68,138.91c0,1.24-.95,2.23-2.15,2.23s-2.13-.98-2.13-2.23,.96-2.23,2.13-2.23,2.15,1,2.15,2.23Z"/>
              <path class="cls-3" d="M136.12,138.53c0,.96-.76,1.77-1.7,1.77s-1.7-.81-1.7-1.77,.76-1.78,1.7-1.78,1.7,.79,1.7,1.78Z"/>
              <path class="cls-5" d="M135.12,137.89c0,.55-.41,.98-.94,.98s-.95-.44-.95-.98,.44-.98,.95-.98,.94,.45,.94,.98Z"/>
              <path class="cls-5" d="M133.97,139.29c0,.17-.16,.32-.3,.32-.19,0-.32-.15-.32-.32,0-.19,.13-.34,.32-.34,.14,0,.3,.15,.3,.34Z"/>
            </g>
            <g>
              <path class="cls-7" d="M148.7,138.91c0,1.24-.96,2.23-2.15,2.23s-2.13-.98-2.13-2.23,.96-2.23,2.13-2.23,2.15,1,2.15,2.23Z"/>
              <path class="cls-3" d="M148.13,138.53c0,.96-.78,1.77-1.7,1.77s-1.69-.81-1.69-1.77,.77-1.78,1.69-1.78,1.7,.79,1.7,1.78Z"/>
              <path class="cls-5" d="M147.15,137.89c0,.55-.43,.98-.97,.98s-.94-.44-.94-.98,.43-.98,.94-.98c.53,0,.97,.45,.97,.98Z"/>
              <path class="cls-5" d="M145.96,139.29c0,.17-.12,.32-.3,.32-.15,0-.3-.15-.3-.32,0-.19,.15-.34,.3-.34,.19,0,.3,.15,.3,.34Z"/>
            </g>
            <g>
              <path class="cls-7" d="M160.69,138.91c0,1.24-.94,2.23-2.13,2.23s-2.15-.98-2.15-2.23,.98-2.23,2.15-2.23,2.13,1,2.13,2.23Z"/>
              <path class="cls-3" d="M160.13,138.53c0,.96-.76,1.77-1.68,1.77s-1.69-.81-1.69-1.77,.76-1.78,1.69-1.78,1.68,.79,1.68,1.78Z"/>
              <path class="cls-5" d="M159.15,137.89c0,.55-.41,.98-.92,.98s-.96-.44-.96-.98,.43-.98,.96-.98,.92,.45,.92,.98Z"/>
              <path class="cls-5" d="M157.99,139.29c0,.17-.15,.32-.3,.32-.18,0-.32-.15-.32-.32,0-.19,.14-.34,.32-.34,.16,0,.3,.15,.3,.34Z"/>
            </g>
            <g>
              <path class="cls-7" d="M172.7,138.91c0,1.24-.94,2.23-2.13,2.23s-2.12-.98-2.12-2.23,.94-2.23,2.12-2.23,2.13,1,2.13,2.23Z"/>
              <path class="cls-3" d="M172.14,138.53c0,.96-.76,1.77-1.7,1.77s-1.68-.81-1.68-1.77,.76-1.78,1.68-1.78,1.7,.79,1.7,1.78Z"/>
              <path class="cls-5" d="M171.18,137.89c0,.55-.44,.98-.96,.98s-.95-.44-.95-.98,.41-.98,.95-.98,.96,.45,.96,.98Z"/>
              <path class="cls-5" d="M169.99,139.29c0,.17-.14,.32-.31,.32s-.32-.15-.32-.32c0-.19,.15-.34,.32-.34s.31,.15,.31,.34Z"/>
            </g>
            <g>
              <path class="cls-7" d="M184.73,138.91c0,1.24-.96,2.23-2.15,2.23s-2.13-.98-2.13-2.23,.96-2.23,2.13-2.23,2.15,1,2.15,2.23Z"/>
              <path class="cls-3" d="M184.17,138.53c0,.96-.78,1.77-1.7,1.77s-1.71-.81-1.71-1.77,.77-1.78,1.71-1.78,1.7,.79,1.7,1.78Z"/>
              <path class="cls-5" d="M183.17,137.89c0,.55-.43,.98-.96,.98-.49,0-.94-.44-.94-.98s.46-.98,.94-.98c.53,0,.96,.45,.96,.98Z"/>
              <path class="cls-5" d="M182,139.29c0,.17-.13,.32-.3,.32s-.32-.15-.32-.32c0-.19,.15-.34,.32-.34s.3,.15,.3,.34Z"/>
            </g>
            <g>
              <path class="cls-7" d="M196.73,138.91c0,1.24-.96,2.23-2.13,2.23s-2.14-.98-2.14-2.23,.95-2.23,2.14-2.23,2.13,1,2.13,2.23Z"/>
              <path class="cls-3" d="M196.16,138.53c0,.96-.76,1.77-1.68,1.77s-1.69-.81-1.69-1.77,.76-1.78,1.69-1.78,1.68,.79,1.68,1.78Z"/>
              <path class="cls-5" d="M195.18,137.89c0,.55-.44,.98-.95,.98s-.94-.44-.94-.98,.42-.98,.94-.98,.95,.45,.95,.98Z"/>
              <path class="cls-5" d="M194.01,139.29c0,.17-.13,.32-.3,.32s-.3-.15-.3-.32c0-.19,.13-.34,.3-.34s.3,.15,.3,.34Z"/>
            </g>
            <g>
              <path class="cls-7" d="M208.74,138.91c0,1.24-.96,2.23-2.12,2.23s-2.16-.98-2.16-2.23,.96-2.23,2.16-2.23,2.12,1,2.12,2.23Z"/>
              <path class="cls-3" d="M208.15,138.53c0,.96-.73,1.77-1.68,1.77s-1.67-.81-1.67-1.77,.75-1.78,1.67-1.78,1.68,.79,1.68,1.78Z"/>
              <path class="cls-5" d="M207.17,137.89c0,.55-.42,.98-.92,.98-.53,0-.96-.44-.96-.98s.43-.98,.96-.98,.92,.45,.92,.98Z"/>
              <path class="cls-5" d="M206.04,139.29c0,.17-.15,.32-.32,.32s-.31-.15-.31-.32c0-.19,.14-.34,.31-.34,.18,0,.32,.15,.32,.34Z"/>
            </g>
            <g>
              <path class="cls-7" d="M220.75,138.91c0,1.24-.94,2.23-2.15,2.23s-2.13-.98-2.13-2.23,.96-2.23,2.13-2.23,2.15,1,2.15,2.23Z"/>
              <path class="cls-3" d="M220.19,138.53c0,.96-.75,1.77-1.7,1.77s-1.69-.81-1.69-1.77,.76-1.78,1.69-1.78,1.7,.79,1.7,1.78Z"/>
              <path class="cls-5" d="M219.2,137.89c0,.55-.43,.98-.94,.98-.55,0-.96-.44-.96-.98s.42-.98,.96-.98c.51,0,.94,.45,.94,.98Z"/>
              <path class="cls-5" d="M218.03,139.29c0,.17-.13,.32-.32,.32-.17,0-.3-.15-.3-.32,0-.19,.13-.34,.3-.34,.19,0,.32,.15,.32,.34Z"/>
            </g>
            <g>
              <path class="cls-7" d="M232.77,138.91c0,1.24-.96,2.23-2.13,2.23s-2.15-.98-2.15-2.23,.96-2.23,2.15-2.23,2.13,1,2.13,2.23Z"/>
              <path class="cls-3" d="M232.18,138.53c0,.96-.74,1.77-1.68,1.77s-1.7-.81-1.7-1.77,.76-1.78,1.7-1.78,1.68,.79,1.68,1.78Z"/>
              <path class="cls-5" d="M231.2,137.89c0,.55-.41,.98-.94,.98s-.94-.44-.94-.98,.43-.98,.94-.98,.94,.45,.94,.98Z"/>
              <path class="cls-5" d="M230.05,139.29c0,.17-.13,.32-.3,.32-.19,0-.32-.15-.32-.32,0-.19,.13-.34,.32-.34,.17,0,.3,.15,.3,.34Z"/>
            </g>
            <g>
              <path class="cls-7" d="M244.76,138.91c0,1.24-.94,2.23-2.13,2.23s-2.15-.98-2.15-2.23,.96-2.23,2.15-2.23,2.13,1,2.13,2.23Z"/>
              <path class="cls-3" d="M244.21,138.53c0,.96-.76,1.77-1.69,1.77s-1.7-.81-1.7-1.77,.76-1.78,1.7-1.78,1.69,.79,1.69,1.78Z"/>
              <path class="cls-5" d="M243.21,137.89c0,.55-.41,.98-.94,.98s-.95-.44-.95-.98,.44-.98,.95-.98,.94,.45,.94,.98Z"/>
              <path class="cls-5" d="M242.06,139.29c0,.17-.13,.32-.3,.32-.19,0-.34-.15-.34-.32,0-.19,.15-.34,.34-.34,.17,0,.3,.15,.3,.34Z"/>
            </g>
            <g>
              <path class="cls-7" d="M256.77,138.91c0,1.24-.95,2.23-2.13,2.23s-2.15-.98-2.15-2.23,.96-2.23,2.15-2.23,2.13,1,2.13,2.23Z"/>
              <path class="cls-3" d="M256.2,138.53c0,.96-.76,1.77-1.69,1.77s-1.68-.81-1.68-1.77,.76-1.78,1.68-1.78,1.69,.79,1.69,1.78Z"/>
              <path class="cls-5" d="M255.22,137.89c0,.55-.43,.98-.95,.98s-.94-.44-.94-.98,.41-.98,.94-.98,.95,.45,.95,.98Z"/>
              <path class="cls-5" d="M254.09,139.29c0,.17-.17,.32-.34,.32s-.32-.15-.32-.32c0-.19,.16-.34,.32-.34s.34,.15,.34,.34Z"/>
            </g>
            <g>
              <path class="cls-7" d="M268.78,138.91c0,1.24-.94,2.23-2.12,2.23s-2.13-.98-2.13-2.23,.96-2.23,2.13-2.23,2.12,1,2.12,2.23Z"/>
              <path class="cls-3" d="M268.22,138.53c0,.96-.74,1.77-1.68,1.77s-1.7-.81-1.7-1.77,.76-1.78,1.7-1.78,1.68,.79,1.68,1.78Z"/>
              <path class="cls-5" d="M267.24,137.89c0,.55-.42,.98-.95,.98s-.94-.44-.94-.98,.41-.98,.94-.98,.95,.45,.95,.98Z"/>
              <path class="cls-5" d="M266.08,139.29c0,.17-.13,.32-.32,.32-.17,0-.31-.15-.31-.32,0-.19,.14-.34,.31-.34,.19,0,.32,.15,.32,.34Z"/>
            </g>
          </g>
          <path class="cls-2" d="M56.41,4.37s-11.68,22.31-33.52,30.93c10.84-2.87,23.98-10.39,33.52-30.93Z"/>
          <path class="cls-2" d="M58.89,3.92h94.44s-48.4,3.43-94.44,0Z"/>
          <path class="cls-2" d="M4.15,43.03v52.27s2.73-28.74,0-52.27Z"/>
        </g>
      </g>
    </g>
  </g>
</svg>