<?xml version="1.0" encoding="UTF-8"?>
<svg xmlns="http://www.w3.org/2000/svg" viewBox="0 0 440.71 209.69">
  <defs>
    <style>
      .cls-1 {
        fill: #fb0f0f;
      }

      .cls-2 {
        fill: #eef9fb;
      }

      .cls-3, .cls-4 {
        fill: #939393;
      }

      .cls-5 {
        isolation: isolate;
      }

      .cls-6 {
        mix-blend-mode: multiply;
      }

      .cls-6, .cls-4 {
        opacity: .5;
      }
    </style>
  </defs>
  <g class="cls-5">
    <g id="Layer_2" data-name="Layer 2">
      <g id="frame_tent">
        <g>
          <g>
            <path class="cls-2" d="M222.61,0S145.18,128.67,0,209.69H440.71S259.38,84.59,222.61,0Z"/>
            <g>
              <path class="cls-1" d="M222.61,0s-2.31,90.22-71.86,209.69h73.61c-3.49-83.54-1.75-209.69-1.75-209.69Z"/>
              <path class="cls-1" d="M222.61,0s-26.34,92.42-173.38,209.69h42.87C217.32,77.35,222.61,0,222.61,0Z"/>
              <path class="cls-1" d="M222.61,0s9.01,112.68,54.9,209.69h76.16C237.56,116.55,222.61,0,222.61,0Z"/>
              <path class="cls-1" d="M400.07,209.69h40.64S259.38,84.59,222.61,0c0,0,47.54,115.38,177.46,209.69Z"/>
            </g>
          </g>
          <g class="cls-6">
            <path class="cls-3" d="M440.71,209.69s-56.91-39.26-113.42-88.67c5.42,6.71,23.06,30.19,5.54,32-20.44,2.11-38.95-26.04-38.95-26.04H136.1s-22.37,24.64-31.31,23.24c-8.94-1.41,8.3-21.82,8.3-21.82l-.62-.07C81.28,156.56,43.72,185.28,0,209.69H440.71Z"/>
          </g>
          <path class="cls-4" d="M195.91,37.68S140.9,114.59,42.31,183.8c42.47-19.87,141.38-116.65,153.6-146.13Z"/>
        </g>
      </g>
    </g>
  </g>
</svg>