<?xml version="1.0" encoding="UTF-8"?>
<svg xmlns="http://www.w3.org/2000/svg" viewBox="0 0 520 175.76">
  <defs>
    <style>
      .cls-1 {
        fill: #fb0f0f;
      }

      .cls-2 {
        fill: #006ad0;
      }

      .cls-3 {
        fill: #ffc502;
      }

      .cls-4 {
        fill: #eef9fb;
      }

      .cls-5 {
        fill: #935205;
      }

      .cls-6, .cls-7 {
        fill: #939393;
      }

      .cls-8 {
        fill: #d37b04;
      }

      .cls-7, .cls-9, .cls-10 {
        mix-blend-mode: multiply;
      }

      .cls-11 {
        isolation: isolate;
      }

      .cls-10 {
        opacity: .5;
      }
    </style>
  </defs>
  <g class="cls-11">
    <g id="Layer_2" data-name="Layer 2">
      <g id="frame_tent">
        <g>
          <g>
            <rect class="cls-4" x="15.05" y="22.92" width="488.69" height="152.85"/>
            <g>
              <rect class="cls-1" x="15.05" y="22.92" width="29.24" height="152.85"/>
              <rect class="cls-1" x="74.7" y="22.92" width="29.24" height="152.85"/>
              <rect class="cls-1" x="134.4" y="22.92" width="29.23" height="152.85"/>
              <rect class="cls-1" x="194.05" y="22.92" width="29.23" height="152.85"/>
              <rect class="cls-1" x="253.73" y="22.92" width="29.24" height="152.85"/>
              <rect class="cls-1" x="313.38" y="22.92" width="29.26" height="152.85"/>
              <rect class="cls-1" x="373.06" y="22.92" width="29.24" height="152.85"/>
              <rect class="cls-1" x="432.74" y="22.92" width="29.24" height="152.85"/>
              <rect class="cls-1" x="489.13" y="22.92" width="14.61" height="152.85"/>
            </g>
            <g class="cls-10">
              <path class="cls-6" d="M503.61,40.13s-50.94,111.64-236.58,111.64S15.48,46.79,15.48,46.79l-.43,.36V175.76H503.74V40.25c-.08-.08-.13-.12-.13-.12Z"/>
            </g>
            <g class="cls-9">
              <rect class="cls-6" x="15.05" y="22.92" width="488.69" height="12.09"/>
            </g>
          </g>
          <path class="cls-7" d="M169.75,39.86C96.02,36.33,39.14,30.08,15.37,27.17v13.24l1.38,23.45L38.2,30.82c2.92,.32,5.99,.64,9.25,.98l3.94,34.25,21.67-31.8c3.16,.29,6.37,.57,9.68,.86l8.4,36.41,19.9-34.16c3,.21,6.05,.43,9.13,.64l8.92,35.9,18.43-34.17c4.88,.28,9.83,.55,14.88,.82l11.27,35.55,17.24-34.26c6.24,.24,12.39,.45,18.5,.64l12.46,33.62,16.31-32.93c5.12,.11,10.17,.17,15.17,.23l9.16,30.51,15.02-30.38c2.95,0,5.88,0,8.77-.01l11.79,32.59,13.06-32.87c4.89-.08,9.75-.16,14.51-.28l10.38,30.96,13.74-31.69c4.06-.16,8.07-.31,12.02-.48l11.9,32.18,12.86-33.42c3.75-.21,7.46-.44,11.11-.67l13.06,30.02,10.68-31.69c3.29-.26,6.54-.52,9.75-.81l14.22,30.92,13.05-33.43c2.33-.24,4.61-.48,6.88-.73l15.02,30.4,11.71-33.52c1.53-.17,3.01-.37,4.48-.57l6.64,14.59V28.47c-122.47,16.65-247.88,15.5-333.41,11.39Z"/>
          <g>
            <g>
              <polygon class="cls-2" points="11.51 24.39 13.63 60.63 35.42 27.13 11.51 24.39"/>
              <polygon class="cls-2" points="79.51 31.35 88.05 68.27 108.23 33.62 79.51 31.35"/>
              <polygon class="cls-2" points="159.13 36.77 170.57 72.88 188.07 38.08 159.13 36.77"/>
              <polygon class="cls-2" points="250.09 39.65 259.39 70.67 274.67 39.79 250.09 39.65"/>
              <polygon class="cls-2" points="322.38 39.23 332.93 70.67 346.78 38.71 322.38 39.23"/>
              <polygon class="cls-2" points="394.37 36.14 407.62 66.59 418.45 34.43 394.37 36.14"/>
              <polygon class="cls-2" points="461.98 30.4 477.2 61.26 489.13 27.21 461.98 30.4"/>
            </g>
            <g>
              <polygon class="cls-3" points="44.29 28.05 48.28 62.84 70.3 30.56 44.29 28.05"/>
              <polygon class="cls-3" points="116.94 34.24 125.99 70.67 144.69 35.99 116.94 34.24"/>
              <polygon class="cls-3" points="206.1 38.71 218.76 72.88 235.32 39.44 206.1 38.71"/>
              <polygon class="cls-3" points="282.96 39.65 294.97 72.88 308.22 39.51 282.96 39.65"/>
              <polygon class="cls-3" points="358.5 38.04 370.58 70.67 383.61 36.77 358.5 38.04"/>
              <polygon class="cls-3" points="427.85 33.66 442.26 65.04 455.51 31.09 427.85 33.66"/>
              <polygon class="cls-3" points="493.19 26.7 507.62 58.44 517.57 23.28 493.19 26.7"/>
            </g>
          </g>
          <path d="M273.58,40.3c-33.23,0-68.89-.8-106.99-2.63C68.85,32.97,.67,23.53,0,23.42l.14-1.03c.68,.1,68.82,9.56,166.5,14.24,90.14,4.32,224.6,5.37,353.21-14.24l.15,1.03c-54.47,8.31-137.15,16.88-246.42,16.88Z"/>
          <g>
            <rect class="cls-5" x=".08" y="16.42" width="519.85" height="6.49"/>
            <polygon class="cls-8" points="499.83 0 19.17 0 .08 16.42 519.93 16.42 499.83 0"/>
          </g>
        </g>
      </g>
    </g>
  </g>
</svg>